<?xml version="1.0" encoding="utf-8"?>
<!-- Generator: Adobe Illustrator 26.3.1, SVG Export Plug-In . SVG Version: 6.00 Build 0)  -->
<svg version="1.1" id="Capa_1" xmlns="http://www.w3.org/2000/svg" xmlns:xlink="http://www.w3.org/1999/xlink" x="0px" y="0px"
	 width="144px" height="144px" viewBox="0 0 144 144" enable-background="new 0 0 144 144" xml:space="preserve">
<g>
	<g>
		<path fill="#D5DAE3" d="M94.5,142.4c0.7,0,1.5-0.4,1.6-1.3c0-1.7-0.2-3.8-0.8-6.4c0.6-0.4,1-0.9,0.9-1.4
			c-0.8-7.8-2.5-15.5-5.2-23.1c1.4-0.8,2.8-1.7,4-2.6c1.1-0.9,1.8-2.2,1.8-3.6c0.2-19.3-16.4-69.8-28.6-88.4l0,0c0,0,0,0,0,0
			c-0.5-0.8-1.1-1.6-1.6-2.3c-1.2-1.5-3-1.9-4.6-1.8l-0.1-1.2c0-0.3-0.2-0.5-0.4-0.7l-2.2-1.8c-0.2-0.2-0.5-0.3-0.8-0.3l0-4.3
			c0-0.2-0.1-0.4-0.3-0.5c-0.2-0.1-0.4-0.1-0.6-0.1L37.7,9.7c-0.2,0.1-0.5,0.3-0.6,0.5c-0.2,0.2-0.3,0.5-0.4,0.9l-1.9,18.7
			c-0.1,0.7,0.2,1.4,0.8,1.9l1.2,0.9c0.1,0.2,0.2,0.3,0.3,0.5l2.7,2.9c0.1,0.1,0.3,0.2,0.4,0.3l0.3,0.1c0.5,1.7,1,3.5,1.6,5.3
			l-0.1,0c-0.1,0-0.2,0.1-0.3,0.2c-0.1,0.1-0.2,0.3-0.1,0.5c1.5,8.9,3.3,16.6,5.3,23.4c0.1,0.4,0.4,0.6,0.8,0.6l4,0
			c0.1,0,0.2,0,0.3-0.1c6,13,13.6,26.9,23.2,42.5c0.2,0.3,0.5,0.5,0.9,0.6l0.7,0.1c0.1,0.1,0.2,0.2,0.3,0.4l-0.4,0.2
			c-0.3,0.1-0.5,0.3-0.7,0.6c-0.5,0.6-0.6,1.3-0.4,2.1c1.7,5.4,3.8,8.4,6.2,9.3c1.5,0.5,3.2,0.2,5.1-0.9c1.7,5.2,3.1,9.8,4.2,13.8
			c0.1,0.4,0.6,0.6,1.2,0.6c0.5,2.2,0.8,4.1,0.8,5.9C93.1,142,93.7,142.4,94.5,142.4z M80.1,112.7L84,113c0.1,0,0.1,0,0.2,0
			c0.8,2.1,1.5,4.2,2.2,6.1c-0.5,0.4-2.2,1.5-4.1,0.7c-2.3-0.9-4-5.9-4.5-7.4c-0.1-0.3,0-0.6,0.3-0.7l0.5-0.2
			c0.3,0.3,0.6,0.6,0.9,0.9C79.5,112.5,79.8,112.7,80.1,112.7z"/>
		<g>
			<path fill="#262845" d="M65.8,14.4c-0.5-0.3-1.1-0.5-1.7-0.6c-0.6-0.1-1.2,0-1.7,0.3c1.1-0.3,2.3-0.1,3.2,0.5
				c0.5,0.3,0.9,0.7,1.2,1.2c0.3,0.5,0.6,0.9,0.9,1.4c0.6,1,1.2,1.9,1.8,2.9c0.3,0.5,0.6,1,0.9,1.5c0.3,0.5,0.6,1,0.8,1.5
				c-0.2-0.5-0.4-1.1-0.7-1.6c-0.3-0.5-0.5-1-0.8-1.5c-0.5-1-1.1-2-1.8-3c-0.3-0.5-0.6-1-1-1.4C66.7,15.1,66.3,14.7,65.8,14.4z"/>
			<path fill="#262845" d="M51.5,18.6c-0.6,0.3-1.1,0.7-1.5,1.1c-0.9,0.9-1.4,2.1-1.5,3.4c0,0.6,0,1.3,0.2,1.9l0.1,0.4l0.2,0.4
				l0.3,0.9c0.4,1.1,0.9,2.3,1.3,3.4c1.7,4.5,3.5,9,5.3,13.5C59.5,52.5,63.2,61.3,67,70c3.8,8.7,7.8,17.4,12,26.2
				c1,2.2,2.1,4.4,3.2,6.5c0.5,1.1,1.1,2.2,1.6,3.3c0.3,0.5,0.5,1.1,0.8,1.6l0.4,0.8c0.1,0.3,0.3,0.5,0.4,0.8c0.4,0.6,1,0.9,1.7,0.9
				c0.3,0,0.7-0.1,1-0.2c0.3-0.1,0.6-0.3,0.8-0.4c1.1-0.5,2.2-1.1,3.3-1.8c0.5-0.3,1.1-0.6,1.6-1c0.3-0.2,0.5-0.3,0.8-0.5
				c0.3-0.2,0.5-0.4,0.7-0.7c0.2-0.3,0.3-0.6,0.4-0.9c0.1-0.3,0-0.6,0.1-0.9c0-0.6,0-1.3,0-1.9c0,0.6,0,1.2,0,1.9
				c0,0.3,0,0.6-0.1,0.9c-0.1,0.3-0.2,0.6-0.4,0.8c-0.4,0.5-0.9,0.8-1.5,1.1c-0.5,0.3-1.1,0.6-1.6,0.9c-1.1,0.6-2.2,1.2-3.3,1.7
				c-0.3,0.1-0.6,0.2-0.8,0.4c-0.3,0.1-0.5,0.2-0.8,0.2c-0.6,0-1.1-0.3-1.5-0.7c-0.2-0.2-0.3-0.5-0.4-0.8l-0.4-0.8
				c-0.3-0.6-0.5-1.1-0.8-1.7c-0.5-1.1-1-2.2-1.6-3.3c-1-2.2-2.1-4.4-3.1-6.6c-4.1-8.7-8-17.4-11.8-26.1
				c-3.8-8.7-7.6-17.5-11.3-26.4c-1.9-4.4-3.7-8.9-5.5-13.5c-0.5-1.1-0.9-2.3-1.4-3.4l-0.3-0.9c-0.1-0.3-0.2-0.6-0.3-0.9
				c-0.2-0.6-0.3-1.2-0.2-1.8c0-1.2,0.5-2.4,1.3-3.3C50.4,19.3,50.9,18.9,51.5,18.6c0.3-0.1,0.6-0.2,0.8-0.4l0.9-0.4l-0.9,0.4
				C52,18.3,51.7,18.4,51.5,18.6z"/>
			<path fill="#262845" d="M41.6,25.8l0.8-4.4c0.3-1.4,1.1-2.7,2.2-3.6c0.5-0.5,1.1-0.9,1.8-1.1l2.1-0.8l4.2-1.7
				c2.8-1.1,5.5-2.3,8.3-3.6c-2.8,1-5.6,2-8.4,3.1l-4.2,1.6L46.2,16c-0.7,0.3-1.4,0.7-2,1.2c-0.6,0.5-1.1,1.1-1.5,1.8
				c-0.4,0.7-0.7,1.4-0.8,2.2c-0.2,1.5-0.5,3-0.7,4.4c-0.4,3-0.8,5.9-1,8.9c0.2-1.5,0.4-3,0.7-4.4C41.1,28.7,41.4,27.2,41.6,25.8z"
				/>
			<path fill="#262845" d="M94.5,142.4c0.7,0,1.5-0.4,1.6-1.3c0-1.7-0.2-3.8-0.8-6.4c0.6-0.4,1-0.9,0.9-1.4
				c-0.8-7.8-2.5-15.5-5.2-23.1c1.4-0.8,2.8-1.7,4-2.6c1.1-0.9,1.8-2.2,1.8-3.6c0.2-19.3-16.4-69.8-28.6-88.4l0,0c0,0,0,0,0,0
				c-0.5-0.8-1.1-1.6-1.6-2.3c-1.2-1.5-3-1.9-4.6-1.8l-0.1-1.2c0-0.3-0.2-0.5-0.4-0.7l-2.2-1.8c-0.2-0.2-0.5-0.3-0.8-0.3l0-4.3
				c0-0.2-0.1-0.4-0.3-0.5c-0.2-0.1-0.4-0.1-0.6-0.1L37.7,9.7c-0.2,0.1-0.5,0.3-0.6,0.5c-0.2,0.2-0.3,0.5-0.4,0.9l-1.9,18.7
				c-0.1,0.7,0.2,1.4,0.8,1.9l1.2,0.9c0.1,0.2,0.2,0.3,0.3,0.5l2.7,2.9c0.1,0.1,0.3,0.2,0.4,0.3l0.3,0.1c0.5,1.7,1,3.5,1.6,5.3
				l-0.1,0c-0.1,0-0.2,0.1-0.3,0.2c-0.1,0.1-0.2,0.3-0.1,0.5c1.5,8.9,3.3,16.6,5.3,23.4c0.1,0.4,0.4,0.6,0.8,0.6l4,0
				c0.1,0,0.2,0,0.3-0.1c6,13,13.6,26.9,23.2,42.5c0.2,0.3,0.5,0.5,0.9,0.6l0.7,0.1c0.1,0.1,0.2,0.2,0.3,0.4l-0.4,0.2
				c-0.3,0.1-0.5,0.3-0.7,0.6c-0.5,0.6-0.6,1.3-0.4,2.1c1.7,5.4,3.8,8.4,6.2,9.3c1.5,0.5,3.2,0.2,5.1-0.9c1.7,5.2,3.1,9.8,4.2,13.8
				c0.1,0.4,0.6,0.6,1.2,0.6c0.5,2.2,0.8,4.1,0.8,5.9C93.1,142,93.7,142.4,94.5,142.4z M95.5,141.1c0,0.2-0.1,0.4-0.3,0.5
				c0.1-1.3-0.4-6.1-0.9-6.1c-0.2,0.2-0.9,0.3-1.3,0.3c0-0.1-0.1-0.3-0.1-0.4c0.3,0,0.7-0.1,1-0.2c0.3-0.1,0.6-0.2,0.9-0.3
				C95.3,137.4,95.5,139.4,95.5,141.1z M95.6,133.3c0,0.2-0.1,0.3-0.2,0.5c-0.1-1.5-0.8-7.5-2.4-13c-1.4-4.5-2.4-7.2-2.8-8.4
				c-0.2-0.4-0.5-0.7-1-0.4c-1.1,0.6-2.3,1.2-3.6,1.4c-0.2,0.1-0.2,0.2-0.2,0.4c0.6,1.6,3.2,9,4.4,13.2c0.6,2.2,1,4,1.3,5.4
				c-1.5-5.5-3.6-11.8-6.3-19.3c0.4-0.1,0.9-0.2,1.3-0.3c1.6-0.7,3-1.4,4.4-2.2C93.1,117.9,94.9,125.6,95.6,133.3z M82.3,111.7
				c0.2,0.3,0.3,0.5,0.4,0.6l-2.6-0.2c-0.1,0-0.2-0.1-0.4-0.2c-0.1-0.1-0.2-0.2-0.3-0.3L82.3,111.7z M80.1,112.7L84,113
				c0.1,0,0.1,0,0.2,0c0.8,2.1,1.5,4.2,2.2,6.1c-0.5,0.4-2.2,1.5-4.1,0.7c-2.3-0.9-4-5.9-4.5-7.4c-0.1-0.3,0-0.6,0.3-0.7l0.5-0.2
				c0.3,0.3,0.6,0.6,0.9,0.9C79.5,112.5,79.8,112.7,80.1,112.7z M96.3,103.9c0,1.2-0.6,2.4-1.6,3.1c-2.6,1.9-5.5,3.6-8.9,5.1
				c-0.6,0.3-1.2,0.4-1.8,0.3l-0.5,0c-0.5-0.2-1.7-2.3-3.5-5.7c-2-4-4-8-5.9-11.9C66.1,78,54.8,53.1,48.2,37l-0.7-4.5
				c0-0.3-0.2-0.5-0.4-0.7c-0.2-0.2-0.5-0.2-0.8-0.2c-0.1,0-0.1,0-0.2,0c-2.8-7.1-3-8.7-3-9c0-0.1,0.1-0.3,0.1-0.4
				c0.5-2,2-3.7,4-4.5C51,15.8,55.6,14,61,12.2c0.7-0.2,1.5-0.2,2.3-0.1c-0.1,0-0.1,0-0.2,0c0,0-0.4,0-0.9,0.1
				c-0.4,0.1-0.8,0.3-0.8,0.3c0,0,0.4-0.1,0.8-0.1c0.4,0,0.8,0,0.8,0c0.6,0,1.1,0.2,1.6,0.4c0,0,0,0,0,0c-0.3-0.1-0.7-0.1-1-0.1
				c0,0-0.5,0-1,0.1c-0.5,0.1-0.9,0.3-0.9,0.3c0,0,0.5-0.1,0.9-0.1c0.5,0,0.9,0,0.9,0c0.3,0,0.6,0.1,1,0.2c0.2,0.1,0.4,0.1,0.5,0.2
				c-0.3-0.1-0.5-0.1-0.8-0.1c0,0-0.6-0.1-1.1,0c-0.6,0.1-1.1,0.3-1.1,0.3c0,0,0.5-0.1,1-0.1c0.3,0,0.5,0,0.7,0c0.2,0,0.3,0,0.3,0
				c0.4,0.1,0.7,0.2,1.1,0.3c0.3,0.1,0.7,0.3,0.9,0.6c0.6,0.4,1.1,1,1.6,1.5C80,34.3,96.5,84.6,96.3,103.9z M46.1,32.9
				c-0.1,0-0.2-0.1-0.3,0c-0.1,0-0.2,0-0.3,0.1c-0.2,0-0.4,0.1-0.7,0.1c-0.4,0.1-0.9,0.2-1.2,0.2c-0.3,0.1-0.6,0.1-0.6,0.1
				c0,0,0.9-0.1,1.7-0.2c0.2,0,0.4-0.1,0.6-0.1c0.1,0,0.2,0,0.3,0c0.1,0,0.2,0,0.2,0c0.3,0.1,0.3,0.2,0.3,0.2
				c0.1,0.1,0.1,0.2,0.1,0.4l0,0.5l0.1,1c0.1,0.6,0.1,1.3,0.2,1.9c0.2,1.2,0.3,2.4,0.5,3.5l-4.4,0.9c-0.1-1.3-0.5-6.3-0.3-8.2
				c0-0.1,0.1-0.2,0.2-0.2c0.7-0.3,1.7-0.4,2.6-0.6c0.4-0.1,0.8-0.2,1.1-0.2c0.1,0,0.2,0,0.4,0.1c0.1,0.1,0.2,0.2,0.2,0.3l1.2,7.9
				l-0.3,0.1c-0.2-1.1-0.4-2.3-0.6-3.4c-0.1-0.6-0.2-1.2-0.3-1.9l-0.1-0.9l-0.1-0.5c0-0.2,0-0.3-0.1-0.5c0,0,0-0.1-0.1-0.2
				C46.5,33.1,46.3,32.9,46.1,32.9z M48.8,40.3l-0.1-0.8c0.1,0.2,0.2,0.5,0.3,0.7L48.8,40.3z M35.4,29.9l1.9-18.7
				c0-0.4,0.3-0.7,0.6-0.8l19.9-7.2c0,0,0,0,0,0c0,0,0,0,0,0l0,4.3c0,0,0,0,0,0L57.6,5c0,0-0.2-1.4-0.3-1.4c-0.1,0-0.2,1.3-0.2,1.3
				L57,7.8l-0.3,0.1l-0.4-2.5c0,0-0.2-1.4-0.3-1.4c-0.1,0-0.1,1.3-0.1,1.3l0,2.8l-0.3,0.1L55.1,6c0,0-0.3-1.4-0.4-1.4
				c-0.1,0-0.1,1.3-0.1,1.3l0.1,2.8l-0.3,0.1l-0.5-2.4c0,0-0.3-1.4-0.4-1.4c-0.1,0-0.1,1.3-0.1,1.3l0.1,2.7l-0.3,0.1l-0.6-2.4
				c0,0-0.3-1.4-0.4-1.3c-0.1,0,0,1.3,0,1.3l0.2,2.7l-0.3,0.1l-0.6-2.4c0,0-0.4-1.4-0.5-1.3c-0.1,0,0,1.3,0,1.3l0.3,2.7L51,10.2
				l-0.7-2.3c0,0-0.4-1.3-0.5-1.3c-0.1,0,0,1.3,0,1.3l0.3,2.6l-0.3,0.1l-0.7-2.3c0,0-0.4-1.3-0.5-1.3c-0.1,0,0.1,1.4,0.1,1.4
				l0.4,2.6l-0.3,0.1l-0.8-2.3c0,0-0.5-1.3-0.6-1.3c-0.1,0,0.1,1.4,0.1,1.4l0.4,2.6l-0.4,0.1l-0.8-2.3c0,0-0.5-1.3-0.6-1.3
				c-0.1,0,0.1,1.4,0.1,1.4l0.5,2.5l-0.4,0.1l-0.9-2.3c0,0-0.5-1.3-0.6-1.3c-0.1,0,0.2,1.4,0.2,1.4l0.6,2.5l-0.4,0.1l-0.9-2.2
				c0,0-0.6-1.3-0.7-1.3c-0.1,0,0.2,1.4,0.2,1.4l0.6,2.5L44.1,13l-1-2.2c0,0-0.6-1.3-0.7-1.3c-0.1,0,0.2,1.4,0.2,1.4l0.7,2.4
				L43,13.4l-1-2.2c0,0-0.6-1.3-0.7-1.3c-0.1,0,0.3,1.4,0.3,1.4l0.7,2.4c-0.1,0.1-0.2,0.1-0.4,0.2l-1.1-2.3c0,0-0.7-1.3-0.8-1.2
				c-0.1,0,0.3,1.4,0.3,1.4l0.9,2.7c-0.1,0.1-0.2,0.2-0.3,0.3l-1.3-2.4c0,0-0.7-1.4-0.8-1.4c-0.1,0,0.4,1.5,0.4,1.5l1.1,3
				c-0.1,0.2-0.3,0.4-0.4,0.6c-0.5-1.2-2-5-2-4.9c-0.1,0.1-2.1,17-2.3,19.3C35.4,30.3,35.4,30.1,35.4,29.9z M40.3,35.5l-2.7-2.9
				c-0.2-0.2-0.3-0.4-0.2-0.7l2.5-14c0.3-1.7,1.5-3.2,3.1-3.8l15.1-6C58.3,8,58.7,8,58.9,8.2l2.2,1.8c0.1,0.1,0.2,0.2,0.2,0.3
				l0.1,1.2c-0.2,0-0.3,0.1-0.5,0.1c-5.5,1.8-10.1,3.6-13.9,5.5c-1.1,0.5-2.1,1.2-2.9,2.1c-0.7,0.8-1.2,1.8-1.4,2.8
				c0,0.1-0.1,0.3-0.1,0.4l0,0c0,0,0,0,0,0c-1,4-1.5,8-2,13.2l0,0C40.4,35.6,40.3,35.6,40.3,35.5z M47.7,65.7
				c-0.1,0-0.2-0.1-0.2-0.2c0-0.1,0-0.2-0.1-0.3c0.1,0.1,0.3,0.2,0.4,0.2l2.8-0.1c0.2,0,0.4-0.2,0.4-0.5c-1.3-7.3-2.5-14.8-3.4-22.4
				c-0.1-0.5-0.6-0.9-1.1-0.8l-3.7,0.6c-0.2,0-0.3,0.1-0.5,0.2c0-0.1,0-0.2-0.1-0.3l6.6-1.3l2.3,16.6c-0.5-2.8-0.9-5.7-1.3-8.5
				c0,0-0.3-1.9-0.5-3.8c-0.1-0.9-0.3-1.9-0.4-2.6c-0.1-0.4-0.1-0.7-0.1-0.9c0-0.2-0.1-0.3-0.1-0.3c0,0,0,0.1,0,0.3
				c0,0.2,0,0.5,0.1,0.9c0.1,0.7,0.2,1.7,0.3,2.7c0.2,2,0.5,4,0.5,4c0.2,1.6,0.4,3.2,0.6,4.8c-0.3-1.7-0.5-3.4-0.8-5.1
				c0,0-0.3-1.9-0.5-3.8c-0.1-0.9-0.3-1.9-0.4-2.6c-0.1-0.4-0.1-0.7-0.1-0.9c0-0.2-0.1-0.3-0.1-0.3c0,0,0,0.1,0,0.3
				c0,0.2,0,0.5,0.1,0.9c0.1,0.7,0.2,1.7,0.3,2.7c0.2,2,0.5,4,0.5,4c0.7,5.4,1.5,10.8,2.5,16.2L47.7,65.7z M75.8,108.5
				C66.2,92.8,58.6,79,52.6,66c0.2-0.1,0.4-0.4,0.3-0.7L49.6,42c0.3,0.7,0.6,1.4,0.9,2.1l2.8,21.3c0.1,0.5,0,0.9-0.1,1.1
				c8.8,17,17.4,33.7,22.9,41.6c0.1,0.2,0.2,0.3,0.4,0.3l0.4,0.2l0.1,0.2l-0.8-0.1C76,108.7,75.9,108.6,75.8,108.5z M82.1,121.3
				c-0.6-0.2-1.2-0.6-1.7-1c0,0,0,0,0.1,0.1c0.1,0.1,0.2,0.2,0.4,0.2c0.1,0.1,0.2,0.2,0.4,0.2c0.2,0.1,0.5,0.2,0.7,0.3
				c0.4,0.2,0.7,0.2,0.7,0.2c0,0-0.3-0.1-0.6-0.3c-0.4-0.2-0.8-0.5-1.2-0.8c-0.4-0.4-0.8-0.8-1-1.1c-0.3-0.3-0.4-0.5-0.4-0.5
				c-0.9-1.3-1.5-2.8-2-4.3c-0.1-0.4-0.2-0.8-0.3-1.1c0-0.2-0.1-0.4-0.1-0.6c-0.1-0.2-0.1-0.3-0.1-0.5c0-0.3,0.2-0.6,0.4-0.7
				c0,0,0,0,0.1-0.1l0.1-0.1l0.3-0.1l0.3-0.2c0,0.1,0.1,0.1,0.1,0.2l-0.3,0.2c-0.1,0.1-0.3,0.2-0.4,0.3c-0.3,0.3-0.3,0.7-0.2,1.1
				c0.7,2,2.4,6.8,4.9,7.8c2,0.8,3.8-0.2,4.5-0.7c0,0.1,0.1,0.2,0.1,0.3c-0.6,0.4-1.2,0.7-1.8,1c0,0-0.2,0.1-0.5,0.2
				c-0.2,0.1-0.5,0.2-0.5,0.2c0,0,0.3,0,0.5,0c0.3,0,0.5-0.1,0.5-0.1c0.3-0.1,0.5-0.2,0.8-0.3C84.3,121.6,83.2,121.7,82.1,121.3z"/>
			<path fill="#262845" d="M81.2,101.1c-1.4-2.8-2.8-5.6-4.3-8.6c0.9,2.5,1.9,4.8,3,7.1c-1.2-2.4-2.3-4.7-3.6-7.2
				c1.2,3.1,2.4,6,3.9,8.9c1.4,2.9,3,5.7,4.7,8.5c-1.2-2.3-2.3-4.5-3.4-6.8c1.2,2.2,2.4,4.5,3.9,6.7
				C83.9,106.7,82.6,103.9,81.2,101.1z"/>
			<path fill="#262845" d="M79.7,101.2c1.4,2.9,3,5.7,4.7,8.6c-3-6-5.7-11.5-8.7-17.5C77,95.4,78.2,98.3,79.7,101.2z"/>
			<path fill="#262845" d="M79.2,101.2c1.4,2.9,3,5.8,4.7,8.7c-3-6.1-5.7-11.6-8.7-17.6C76.4,95.3,77.7,98.3,79.2,101.2z"/>
			<path fill="#262845" d="M78.6,101.2c1.4,2.9,3,5.8,4.7,8.8c-3-6.1-5.8-11.7-8.8-17.8C75.9,95.3,77.2,98.2,78.6,101.2z"/>
			<path fill="#262845" d="M78.1,101.2c1.5,2.9,3,5.9,4.7,8.9c-3-6.2-5.8-11.8-8.8-18C75.3,95.2,76.7,98.2,78.1,101.2z"/>
			<path fill="#262845" d="M82.3,110.1c-3.1-6.2-5.8-11.9-8.9-18.1C76.1,98.3,79,104,82.3,110.1z"/>
			<path fill="#262845" d="M48.9,20.1c-0.7,0.9-1.1,2.1-1.1,3.3c0,0.6,0.1,1.2,0.3,1.7c0.2,0.5,0.4,1,0.6,1.6c0.4,1,0.9,2.1,1.4,3.1
				c-0.3-1.1-0.7-2.2-1-3.2C49,26,48.8,25.5,48.7,25c-0.2-0.5-0.3-1-0.3-1.6c0-1.1,0.3-2.1,0.8-3.1c0.3-0.5,0.7-0.9,1.1-1.3
				c0.4-0.4,0.9-0.6,1.4-0.9c-0.5,0.2-1.1,0.4-1.6,0.7C49.7,19.2,49.2,19.6,48.9,20.1z"/>
			<path fill="#262845" d="M48.3,20.1c-0.7,1-1.1,2.2-1,3.4l0,0.4l0.1,0.4c0.1,0.3,0.2,0.6,0.3,0.8c0.2,0.5,0.4,1.1,0.7,1.6
				c0.5,1.1,0.9,2.1,1.4,3.2c-0.4-1.1-0.7-2.2-1.1-3.3c-0.2-0.5-0.4-1.1-0.6-1.6c-0.1-0.3-0.2-0.5-0.2-0.8l-0.1-0.4
				c0-0.1,0-0.3,0-0.4c0-1.1,0.2-2.2,0.8-3.1c0.3-0.5,0.7-0.9,1.1-1.3c0.4-0.4,1-0.6,1.5-0.9c-0.6,0.2-1.1,0.4-1.6,0.8
				C49.1,19.2,48.6,19.6,48.3,20.1z"/>
			<path fill="#262845" d="M47.6,20.1c-0.7,1-1.1,2.2-1,3.4c0,0.3,0.1,0.6,0.1,0.9c0,0.1,0.1,0.3,0.1,0.4l0.2,0.4
				c0.2,0.5,0.4,1.1,0.7,1.6c0.5,1.1,0.9,2.2,1.5,3.3c-0.4-1.2-0.7-2.3-1.1-3.4c-0.2-0.6-0.4-1.1-0.6-1.7c-0.2-0.6-0.3-1.1-0.4-1.6
				c-0.1-1.1,0.2-2.3,0.8-3.2c0.3-0.5,0.7-0.9,1.1-1.3c0.5-0.4,1-0.7,1.5-1c-0.6,0.2-1.1,0.4-1.6,0.8C48.4,19.2,48,19.6,47.6,20.1z"
				/>
			<path fill="#262845" d="M47,20.1c-0.7,1-1.1,2.3-1,3.5c0,0.6,0.2,1.2,0.5,1.8c0.2,0.6,0.5,1.1,0.7,1.7c0.5,1.1,1,2.3,1.5,3.4
				c-0.4-1.2-0.8-2.3-1.2-3.5c-0.2-0.6-0.4-1.1-0.6-1.7c-0.2-0.6-0.4-1.1-0.4-1.7c-0.1-1.1,0.2-2.3,0.8-3.3c0.3-0.5,0.7-1,1.2-1.3
				c0.5-0.4,1-0.7,1.6-1c-0.6,0.3-1.2,0.5-1.7,0.8C47.8,19.1,47.4,19.6,47,20.1z"/>
			<path fill="#262845" d="M46.4,20.1c-0.7,1.1-1.1,2.4-0.9,3.6c0,0.3,0.1,0.6,0.2,0.9c0.1,0.3,0.2,0.6,0.3,0.9
				c0.2,0.6,0.5,1.1,0.7,1.7c0.5,1.2,1,2.3,1.5,3.5c-0.4-1.2-0.8-2.4-1.2-3.6c-0.2-0.6-0.4-1.2-0.6-1.7c-0.1-0.3-0.2-0.6-0.3-0.9
				c0-0.1-0.1-0.3-0.1-0.4c0-0.1-0.1-0.3-0.1-0.4c-0.1-1.2,0.1-2.4,0.8-3.4c0.3-0.5,0.7-1,1.2-1.4c0.5-0.4,1.1-0.7,1.6-1
				c-0.6,0.3-1.2,0.5-1.7,0.9C47.2,19.1,46.7,19.6,46.4,20.1z"/>
			<path fill="#262845" d="M47.1,18.7c-0.5,0.4-1,0.9-1.4,1.4c-0.7,1.1-1.1,2.4-0.9,3.7c0,0.2,0.1,0.3,0.1,0.5
				c0,0.2,0.1,0.3,0.1,0.5l0.3,0.9c0.2,0.6,0.5,1.2,0.7,1.8c0.5,1.2,1,2.4,1.5,3.6c-0.4-1.2-0.8-2.5-1.3-3.6
				c-0.2-0.6-0.4-1.2-0.7-1.8l-0.3-0.9c-0.1-0.1-0.1-0.3-0.1-0.4c0-0.1-0.1-0.3-0.1-0.4c-0.2-1.2,0.1-2.5,0.7-3.5
				c0.3-0.5,0.7-1,1.2-1.4c0.3-0.2,0.5-0.4,0.8-0.5c0.3-0.2,0.6-0.3,0.9-0.5c-0.3,0.1-0.6,0.3-0.9,0.4
				C47.7,18.4,47.4,18.5,47.1,18.7z"/>
			<path fill="#262845" d="M46.9,18.4c-0.1,0.1-0.3,0.2-0.4,0.3c-0.5,0.4-1,0.9-1.4,1.4c-0.7,1.1-1,2.5-0.8,3.8
				c0,0.2,0.1,0.3,0.1,0.5c0,0.2,0.1,0.3,0.1,0.5l0.4,0.9c0.2,0.6,0.5,1.2,0.7,1.8c0.5,1.2,1,2.4,1.5,3.7c-0.4-1.3-0.9-2.5-1.3-3.7
				c-0.2-0.6-0.4-1.2-0.7-1.8c-0.2-0.6-0.5-1.2-0.6-1.8c-0.2-1.2,0.1-2.5,0.7-3.6c0.3-0.5,0.8-1,1.3-1.5
				C46.7,18.7,46.8,18.6,46.9,18.4c0.2,0,0.3-0.1,0.5-0.2c0.3-0.2,0.6-0.3,0.9-0.5c-0.3,0.1-0.6,0.3-0.9,0.4
				C47.2,18.3,47.1,18.3,46.9,18.4z"/>
			<path fill="#262845" d="M44.6,25.8c-0.2-0.6-0.5-1.2-0.6-1.9c-0.2-1.3,0-2.6,0.7-3.7c0.3-0.6,0.8-1.1,1.3-1.5
				c0.1-0.1,0.3-0.2,0.4-0.3c0.1-0.1,0.3-0.2,0.4-0.2c0.3-0.2,0.6-0.3,0.9-0.5c-0.3,0.1-0.6,0.3-0.9,0.4c-0.2,0.1-0.3,0.1-0.5,0.2
				c-0.1,0.1-0.3,0.2-0.4,0.3c-0.6,0.4-1,0.9-1.4,1.5c-0.7,1.1-1,2.5-0.8,3.9c0.1,0.7,0.4,1.3,0.6,1.9c0.2,0.6,0.5,1.2,0.7,1.9
				c0.5,1.2,1,2.5,1.5,3.8c-0.5-1.3-0.9-2.6-1.4-3.8C45,27.1,44.8,26.4,44.6,25.8z"/>
			<path fill="#262845" d="M57.8,11.1c1-0.1,1.9-0.4,2.8-1C59.5,10.2,58.7,10.5,57.8,11.1z"/>
			<path fill="#262845" d="M57.4,10.8c1-0.1,1.9-0.4,2.8-1C59.2,9.9,58.3,10.2,57.4,10.8z"/>
			<path fill="#262845" d="M57,10.4c1-0.1,1.9-0.4,2.8-1C58.8,9.5,57.9,9.8,57,10.4z"/>
			<path fill="#262845" d="M56.6,10.1c1-0.1,1.9-0.4,2.8-1C58.4,9.2,57.5,9.5,56.6,10.1z"/>
			<path fill="#262845" d="M56.2,9.7c1-0.1,1.9-0.4,2.8-1C58,8.8,57.1,9.1,56.2,9.7z"/>
			<path fill="#262845" d="M55.9,9.4c1-0.1,1.9-0.4,2.8-1C57.6,8.5,56.7,8.8,55.9,9.4z"/>
			<path fill="#262845" d="M39.9,34.1c0.4-1,0.5-1.9,0.3-3C39.8,32.1,39.7,33.1,39.9,34.1z"/>
			<path fill="#262845" d="M39.5,33.8c0.4-1,0.4-2,0.3-3C39.4,31.8,39.3,32.7,39.5,33.8z"/>
			<path fill="#262845" d="M39,33.5c0.4-1,0.4-2,0.3-3.1C39,31.4,38.9,32.4,39,33.5z"/>
			<path fill="#262845" d="M38.6,33.1c0.4-1,0.4-2,0.3-3.1C38.6,31.1,38.5,32.1,38.6,33.1z"/>
			<path fill="#262845" d="M38.2,32.8c0.4-1.1,0.4-2,0.3-3.2C38.1,30.7,38.1,31.7,38.2,32.8z"/>
			<path fill="#262845" d="M38.1,29.3c-0.3,1.1-0.4,2.1-0.2,3.2C38.2,31.4,38.2,30.4,38.1,29.3z"/>
			<path fill="#262845" d="M42.3,19.3c0.8-0.8,1.4-1.6,2.1-2.5C43.3,17.3,42.6,18.2,42.3,19.3z"/>
			<path fill="#262845" d="M41.8,19.1c0.8-1,1.4-1.8,2.3-2.8C42.9,16.8,42.1,17.9,41.8,19.1z"/>
			<path fill="#262845" d="M42.2,17c-0.4,0.5-0.7,1.2-0.8,1.9c0.4-0.6,0.8-1.1,1.1-1.6c0.4-0.5,0.8-1,1.3-1.4
				C43.2,16.1,42.6,16.5,42.2,17z"/>
			<path fill="#262845" d="M41.8,16.6c-0.5,0.6-0.7,1.3-0.9,2.1c0.4-0.7,0.8-1.3,1.2-1.8c0.4-0.5,0.9-1.1,1.5-1.5
				C42.8,15.6,42.2,16,41.8,16.6z"/>
			<path fill="#262845" d="M41.3,16.2c-0.5,0.7-0.8,1.4-0.9,2.2c0.4-0.7,0.8-1.4,1.2-2c0.5-0.6,1-1.1,1.7-1.6
				C42.5,15.1,41.8,15.6,41.3,16.2z"/>
			<path fill="#262845" d="M43,14.4c-0.9,0.2-1.6,0.7-2.2,1.5c-0.5,0.7-0.8,1.6-1,2.4c0.4-0.8,0.8-1.6,1.3-2.2
				C41.7,15.4,42.3,14.8,43,14.4z"/>
		</g>
		<g>
			<path fill="#FFFFFF" d="M63.2,20.2c-3.3-5.2,0.4-8.2,4.1-2.5c2.6,4.4,4.9,9,7.1,13.6c2.1,4.6,4.1,9.3,5.8,14.1
				c3.6,9.5,6.4,19.3,8.9,29.1c0,0,0.4,1.7,1,4.2c0.3,1.3,0.6,2.7,1,4.3c0.3,1.6,0.7,3.3,1,4.9c0.7,3.4,1.3,6.7,1.7,9.3
				c0.4,2.5,0.6,4.2,0.5,4.3c-0.3,0.1-2-6.9-3.9-13.8c-1.9-6.9-3.9-13.8-3.9-13.8c-1.4-4.7-2.9-9.4-4.5-14
				c-1.7-4.6-3.4-9.2-5.3-13.7C72.8,37.1,68.4,28.4,63.2,20.2z"/>
		</g>
		<path fill="#262845" d="M64.6,65.5l-0.6,0.3c0,0,0,0,0-0.1l-0.5,0.2c0,0,0,0,0-0.1l-0.2,0.1l0,0l0,0L62.9,66c0,0,0,0,0-0.1
			l-0.2,0.1l0,0l0,0l-0.2,0.1c0,0-2.1-4.6-4-9.3c-2-4.6-3.9-9.3-3.9-9.3s-0.9-2.1-1.7-4.2c-0.4-1.1-0.8-2.1-1.1-2.9
			c-0.2-0.4-0.3-0.7-0.4-1c-0.1-0.2-0.1-0.4-0.1-0.4c0,0,0,0,0.1,0.1c0,0.1,0.1,0.2,0.1,0.3c0.1,0.2,0.3,0.6,0.4,1
			c0.4,0.8,0.8,1.9,1.3,3c0.9,2.2,1.9,4.4,1.9,4.4s0,0.1,0.1,0.2l0.1,0.3c0.5,1.3,2.1,4.9,3.7,8.6c1.5,3.4,3.1,6.8,3.7,8.2
			c-0.7-1.6-2.3-5.3-3.8-9c-2.1-4.9-4.1-9.9-4.1-9.9s-0.9-2.3-1.8-4.5c-0.4-1.1-0.9-2.3-1.2-3.1c-0.2-0.4-0.3-0.8-0.4-1
			c-0.1-0.2-0.1-0.4-0.1-0.4h0h0l0,0c0,0,0,0,0.1,0.1c0,0.1,0.1,0.2,0.1,0.3c0.1,0.3,0.3,0.6,0.4,1.1c0.4,0.9,0.9,2.1,1.3,3.2
			c1,2.3,2,4.7,2,4.7s2,4.8,4.1,9.6c1.2,2.7,2.4,5.4,3.2,7.2c-0.8-2-2.1-5-3.3-8C56.9,50.2,54.8,45,54.8,45s-0.9-2.4-1.9-4.8
			c-0.5-1.2-0.9-2.4-1.2-3.3c-0.2-0.5-0.3-0.8-0.4-1.1c-0.1-0.3-0.1-0.4-0.1-0.4c0,0,0.1,0.1,0.2,0.4c0.1,0.3,0.3,0.7,0.5,1.1
			c0.4,0.9,0.9,2.2,1.4,3.4c1,2.5,2,5,2,5s2.1,5.1,4.3,10.2c0.8,1.9,1.6,3.8,2.3,5.4c-0.7-1.8-1.6-4-2.5-6.2
			C57.2,49.2,55,43.6,55,43.6s-1-2.5-1.9-5c-0.5-1.3-0.9-2.5-1.3-3.5c-0.2-0.5-0.3-0.9-0.4-1.2c-0.1-0.3-0.1-0.4-0.1-0.4
			c0,0,0.1,0.2,0.2,0.4c0.1,0.3,0.3,0.7,0.5,1.2c0.4,1,0.9,2.3,1.5,3.6c1.1,2.6,2.1,5.2,2.1,5.2s2.2,5.4,4.5,10.8
			C62.3,60.1,64.6,65.5,64.6,65.5z M58.4,57.7c-0.4-0.8-0.7-1.6-1.1-2.4l-4.3-9.8c-0.1-0.2-0.1-0.3-0.2-0.5c-0.4-1-0.9-2.1-1.2-2.8
			c-0.2-0.4-0.3-0.7-0.4-0.9c-0.1-0.1-0.1-0.2-0.1-0.3c0-0.1,0-0.1,0-0.1c0,0,0,0,0,0.1c0,0.1,0.1,0.1,0.1,0.3
			c0.1,0.2,0.2,0.5,0.4,0.9c0.3,0.7,0.7,1.7,1.1,2.7c0.8,2,1.6,4,1.6,4s1.8,4.4,3.7,8.7c1.9,4.4,3.9,8.7,3.9,8.7l0.2-0.1l0,0l0,0
			l0.2-0.1C62.4,66.1,60.4,61.9,58.4,57.7z M58.5,59.4l-6.1-13.6c-0.3-0.7-0.6-1.3-0.8-1.8c-0.2-0.4-0.3-0.7-0.4-0.9
			c0-0.1-0.1-0.2-0.1-0.2c0-0.1,0-0.1,0-0.1c0,0,0,0,0,0.1c0,0.1,0.1,0.1,0.1,0.2c0.1,0.2,0.2,0.5,0.3,0.8c0.3,0.7,0.7,1.6,1.1,2.6
			c0.8,1.9,1.6,3.7,1.6,3.7s1.7,4.1,3.6,8.2c0.9,2,1.8,4.1,2.6,5.6c0.7,1.5,1.2,2.5,1.2,2.5l0.4-0.2c0,0-0.5-1-1.2-2.4
			C60,62.6,59.2,61,58.5,59.4z"/>
	</g>
	<path fill="#CD3B40" d="M103.2,84.3c0-0.3,0-0.7-0.1-1c-2.1-7.4-2.8-14.6-2-22.1c0.1-1.3-0.2-2.6-1.1-3.5c-0.9-1-2.2-1.5-3.6-1.5
		c0,0,0,0,0,0c-8.7,0-16.9,3.6-24.8,7c-9.7,4.2-18.8,8.2-26.9,4.1c-1.3-0.7-2.5-2-3.2-3.4l0,0c0,0,0,0,0-0.1c-0.3-0.6-0.5-1.3-0.6-2
		c-0.3-2.1,1.9-4.2,2-4c0.1,0.2-1.5,2.1-1.2,3.9c0,0,0,0.1,0,0.1c0.1-0.5,0.3-1,0.6-1.4c0,0,0.2-0.3,0.5-0.6
		c0.3-0.3,0.6-0.5,0.6-0.5c0,0-0.2,0.4-0.4,0.7c-0.2,0.3-0.3,0.7-0.3,0.7c-0.4,0.8-0.5,1.7-0.4,2.6c0.1-0.4,0.2-0.9,0.4-1.3
		c0,0,0.2-0.3,0.4-0.6c0.2-0.3,0.5-0.5,0.5-0.5c0,0-0.1,0.3-0.3,0.6c-0.1,0.3-0.2,0.6-0.2,0.6c-0.3,0.8-0.2,1.7,0,2.5
		c0-0.4,0.1-0.7,0.2-1.1c0,0,0.1-0.3,0.2-0.5c0.1-0.2,0.3-0.4,0.4-0.4c0,0-0.1,0.3-0.1,0.5c-0.1,0.3-0.1,0.5-0.1,0.5
		c-0.1,0.7,0.1,1.4,0.4,2l0,0c0,0,0.1,0.1,0.1,0.1c0-0.2,0-0.3,0-0.5c0,0,0-0.2,0-0.4c0-0.2,0.1-0.4,0.2-0.4c0,0,0.1,0.2,0.1,0.4
		c0,0.2,0.1,0.4,0.1,0.4c0.1,0.4,0.3,0.7,0.5,1c0-0.1,0-0.2,0-0.3c0-0.2,0-0.3,0.1-0.3c0,0,0.1,0.1,0.2,0.3c0.1,0.1,0.1,0.3,0.1,0.3
		c0.2,0.3,0.5,0.6,0.8,0.7l0,0c2.2,0.9,4.5,1.3,6.8,1.2L52,66.2c0,0,0,0-0.1,0.1c0,0.1-0.3,0.1-0.3,0.1s-1.6,0-1.6,0
		c0,0-2.4,0-2.4,0s-0.3,0-0.5-0.2c-0.2-0.1-0.4-0.7-0.4-0.7l-1.1-4L44,54.2c-3.3,2.2-4.9,4.5-5,7.1c0,0.6,0.1,1.3,0.4,2
		c3.8,9.5,5.5,17.5,5,24.5c-0.1,1.3,0.6,2.6,1.7,3.3c9.3,6.1,21.5,0.6,32.3-4.4c7.5-3.4,14.6-6.7,19.6-5.4c1.6,0.4,2.7,1.3,3,2.6
		c0.7,2.7-3.3,6.6-3.4,6.4c-0.1-0.1,1.7-2.1,2.4-4.1c-0.3,0.5-0.6,1.1-1,1.5c0,0-0.3,0.4-0.7,0.7c-0.4,0.3-0.8,0.6-0.8,0.6
		c0,0,0.3-0.4,0.6-0.8c0.3-0.4,0.6-0.8,0.6-0.8c0.6-1,1.1-2.1,1.2-3.3c-0.3,0.9-0.7,1.8-1.3,2.5c0,0-0.3,0.4-0.6,0.7
		c-0.3,0.3-0.7,0.6-0.7,0.5c0,0,0.3-0.4,0.5-0.7c0.3-0.4,0.5-0.7,0.5-0.7c0.5-0.9,0.8-1.8,1-2.8c0,0.1-0.1,0.3-0.2,0.4
		c-0.2,0.5-0.5,1-0.9,1.5c0,0-0.2,0.3-0.5,0.6c-0.3,0.3-0.6,0.5-0.6,0.5c0,0,0.2-0.3,0.4-0.7c0.2-0.3,0.4-0.7,0.4-0.7
		c0.3-0.5,0.5-1,0.6-1.5c0.1-0.2,0.1-0.5,0.2-0.8c0-0.1,0-0.1,0-0.2c-0.1,0.6-0.4,1.2-0.7,1.7c0,0-0.2,0.2-0.4,0.5
		c-0.2,0.2-0.5,0.4-0.5,0.3c0,0,0.1-0.3,0.3-0.5c0.1-0.3,0.3-0.5,0.3-0.5c0.3-0.6,0.4-1.2,0.4-1.8c-0.1,0.3-0.3,0.6-0.4,0.8
		c0,0-0.1,0.2-0.3,0.3c-0.1,0.1-0.3,0.2-0.3,0.2c0,0,0.1-0.2,0.1-0.4c0.1-0.2,0.1-0.3,0.1-0.3c0.1-0.3,0.2-0.7,0.2-1
		c0,0-0.1,0-0.1,0c-0.1,0.2-0.2,0.3-0.3,0.5c0,0-0.3,0.2-0.4,0.1c-0.1-0.1,0-0.4,0-0.4c0-0.1,0-0.3,0-0.4c-1-0.1-2.1-0.1-3.2,0.1
		c0,0.1,0,0.1,0,0.2l0.4,0.1c0,0,0.2,0,0.3,0.1c0,0.1-0.2,0.2-0.2,0.2L93.9,83c0,0.1,0,0.2,0.1,0.3l0.4,0c0,0,0.3,0,0.3,0.1
		c0,0.1-0.2,0.3-0.2,0.3l-0.4,0.3c0,0.1,0,0.2,0.1,0.3l0.5,0c0,0,0.3,0,0.4,0.1c0,0.1-0.2,0.3-0.2,0.3l-0.5,0.3c0,0.1,0,0.2,0.1,0.3
		c0.2,0,0.3,0,0.5-0.1c0,0,0.3-0.1,0.4,0c0.1,0.1-0.2,0.3-0.2,0.3c-0.2,0.1-0.3,0.2-0.5,0.4c0,0.1,0,0.2,0.1,0.3
		c0.2,0,0.4,0,0.5-0.1c0,0,0.4-0.1,0.4,0c0,0,0,0.1-0.1,0.2c-0.1,0.1-0.1,0.2-0.1,0.2c-0.2,0.2-0.4,0.3-0.6,0.4c0,0.1,0,0.2,0.1,0.3
		c0.2,0,0.4-0.1,0.6-0.1c0,0,0.1,0,0.2-0.1c0.1,0,0.2,0,0.2,0c0,0,0,0.1-0.1,0.2c-0.1,0.1-0.2,0.2-0.2,0.2c-0.2,0.2-0.4,0.3-0.6,0.5
		c0,0.1,0,0.2,0.1,0.3c0.2,0,0.4-0.1,0.6-0.2c0,0,0.1,0,0.2-0.1c0.1,0,0.2-0.1,0.3,0c0,0,0,0.2-0.1,0.3c-0.1,0.1-0.2,0.2-0.2,0.2
		c-0.2,0.2-0.4,0.3-0.7,0.5c0,0.1,0,0.2,0.1,0.3c0.2,0,0.5-0.1,0.7-0.2c0,0,0.1,0,0.2-0.1c0.1,0,0.2-0.1,0.3,0c0,0,0,0.2-0.1,0.3
		c-0.1,0.1-0.2,0.2-0.2,0.2c-0.2,0.2-0.5,0.4-0.7,0.5c0,0.1,0,0.2,0.1,0.3c0.2-0.1,0.5-0.1,0.7-0.2c0,0,0.1-0.1,0.2-0.1
		c0.1,0,0.3-0.1,0.3-0.1c0,0,0,0.2-0.1,0.3c-0.1,0.1-0.2,0.2-0.2,0.2c-0.2,0.2-0.5,0.4-0.8,0.6c0,0.1,0,0.2,0.1,0.3
		c0.3-0.1,0.5-0.2,0.8-0.3c0,0,0.1-0.1,0.3-0.1c0.1-0.1,0.3-0.1,0.3-0.1c0,0,0,0.2-0.1,0.3c-0.1,0.1-0.2,0.2-0.2,0.2
		c-0.3,0.2-0.6,0.5-0.9,0.6c0.2,0.9,0.3,1.7,0.4,2.1C99.9,92.3,102.7,88.5,103.2,84.3z M53.7,69.6c-2.5,1-5.3,0.9-7.8,0
		c-2.5-1-4.6-2.8-5.8-5.3C43.3,68.8,48.5,70.8,53.7,69.6z M48.8,82.2c-1.5,0.3-3-0.2-4-1.3C46.2,81.5,47.4,81.8,48.8,82.2z
		 M44.9,79.3c0.6,0.4,1.3,0.7,1.9,0.9c0.6,0.2,1.3,0.4,2,0.6C47.3,81.3,45.7,80.7,44.9,79.3z M47.3,88c0.6,0.3,1.1,0.6,1.8,0.9
		c-1.4,0.2-2.8-0.6-3.5-1.8C46.2,87.4,46.8,87.7,47.3,88z M45.3,85.6c0.6,0.4,1.1,0.8,1.7,1.1c0.6,0.3,1.1,0.6,1.8,0.8
		C47.4,87.7,45.9,86.9,45.3,85.6z M45.2,84.6c1.4,0.7,2.5,1.2,3.9,1.7C47.6,86.5,46.1,85.9,45.2,84.6z M45.3,83.5
		c1.2,0.6,2.2,1,3.4,1.6C47.3,85.2,46,84.6,45.3,83.5z M45.2,82.1c0.6,0.4,1.2,0.7,1.8,1c0.6,0.3,1.2,0.5,1.9,0.7
		C47.4,84.1,45.9,83.4,45.2,82.1z M48.2,89.8c1.1,0.5,2.2,1,3.5,1.2c-2.6,0.1-5.1-1.1-6.6-3.2C46,88.6,47.1,89.2,48.2,89.8z
		 M41.6,67.2c1.3,1.3,2.8,2.1,4.3,2.7c1.5,0.7,3.1,1.2,4.9,1.5c-1.8,0-3.5-0.3-5.1-1C44,69.7,42.5,68.7,41.6,67.2z M46.3,71.2
		c1.2,0.4,2.4,0.8,3.8,1c-2.8,0.3-5.4-0.8-7.4-2.8C44,70.2,45.1,70.7,46.3,71.2z M49,73.3c-2,0.1-3.9-0.6-5.5-1.9
		C45.4,72.1,47,72.6,49,73.3z M46.3,73.9c1,0.4,2,0.7,3.1,0.9c-2.2,0.3-4.5-0.6-5.9-2.3C44.4,73.1,45.3,73.5,46.3,73.9z M49.1,76.5
		c-2,0.2-3.9-0.6-5.2-2.1C45.7,75.3,47.2,75.9,49.1,76.5z M48.6,78c-1.6,0.2-3.2-0.4-4.2-1.6C45.9,77,47.1,77.5,48.6,78z M44.4,77.7
		c1.5,0.8,2.8,1.3,4.5,1.8C47.1,79.7,45.4,79,44.4,77.7z M44.8,88.8c1.5,1.4,3.2,2.4,5,3.1c1.8,0.7,3.7,1.1,5.8,1
		C51.4,93.8,47.2,92.1,44.8,88.8z M99.9,65.4c-0.6-0.4-1.2-0.7-1.9-0.9c-0.6-0.2-1.2-0.4-2-0.5C97.4,63.5,99.2,64.1,99.9,65.4z
		 M95.8,62.7c1.5-0.6,3.3,0.2,3.9,1.7c-0.6-0.5-1.2-0.9-1.8-1.1C97.3,63,96.6,62.8,95.8,62.7z M100.2,71.7c-0.5-0.2-1-0.4-1.4-0.5
		c-0.4-0.2-0.9-0.3-1.4-0.5C98.4,70.2,99.6,70.7,100.2,71.7z M97.3,69.7c1-0.4,2.3,0,2.8,0.9c-0.5-0.2-0.9-0.3-1.4-0.5
		C98.3,70,97.8,69.9,97.3,69.7z M97.1,68.6c1.1-0.3,2.4,0.1,3.1,1C99,69.3,98.2,69,97.1,68.6z M98.2,65.7c-0.6-0.1-1.1-0.3-1.8-0.4
		c1.2-0.5,2.7-0.1,3.5,1C99.3,66,98.7,65.8,98.2,65.7z M99.9,67.1c-0.6-0.2-1.1-0.3-1.6-0.4c-0.5-0.1-1-0.3-1.6-0.4
		C97.8,65.9,99.1,66.2,99.9,67.1z M98.6,72.5c0.7,0.2,1.2,0.7,1.4,1.4c-0.5-0.5-1.1-0.7-1.6-0.9c-0.5-0.2-1.1-0.2-1.8-0.1
		C97.2,72.4,98,72.2,98.6,72.5z M100.4,74.9c-0.6-0.4-1.3-0.6-1.9-0.8c-0.6-0.2-1.3-0.3-2.1-0.2C97.7,73,99.6,73.5,100.4,74.9z
		 M98.8,72c-0.5-0.1-1-0.3-1.6-0.4c1.1-0.6,2.5-0.1,3.1,0.9C99.8,72.3,99.3,72.2,98.8,72z M96.9,67.4c1.2-0.3,2.6,0,3.4,1
		C99,68.1,98.1,67.8,96.9,67.4z M97.3,60.1c1.1,0.3,2.1,0.9,2.7,1.9c-0.9-0.8-1.9-1.1-2.9-1.4c-1-0.3-2.1-0.4-3.2-0.6
		C95.1,59.9,96.2,59.9,97.3,60.1z M92.3,59c1.4-0.4,2.9-0.5,4.4-0.2c0.7,0.1,1.4,0.4,2.1,0.7c0.6,0.4,1.2,0.9,1.4,1.7
		c-0.4-0.7-1-1-1.6-1.3c-0.6-0.3-1.3-0.4-2-0.6C95.2,59.1,93.8,59,92.3,59z M98,61.5c0.9,0.3,1.6,1,1.9,1.9
		c-0.6-0.7-1.3-1.1-2.1-1.3c-0.8-0.3-1.6-0.4-2.5-0.5C96.2,61.3,97.1,61.2,98,61.5z M98.3,74.6c0.9,0.1,1.8,0.6,2.3,1.4
		c-0.7-0.6-1.6-0.8-2.4-0.9c-0.8-0.1-1.7-0.1-2.6-0.2C96.5,74.7,97.4,74.5,98.3,74.6z M99.7,59.4c-0.3-0.3-0.7-0.5-1.1-0.7
		c-0.8-0.3-1.8-0.4-2.7-0.5c-1.8-0.2-3.6-0.1-5.5,0.3c1.8-0.8,3.7-1,5.6-0.9c0.9,0.1,1.9,0.3,2.8,0.7c0.4,0.2,0.9,0.5,1.2,0.9
		c0.3,0.4,0.5,0.9,0.5,1.4C100.3,60.1,100.1,59.7,99.7,59.4z M97.2,78.1c1,0.1,1.9,0.4,2.8,0.8c0.9,0.5,1.6,1.2,2.1,2
		c-0.6-0.8-1.5-1.3-2.3-1.7c-0.9-0.4-1.8-0.6-2.7-0.6c-1.8-0.2-3.7,0.1-5.7,0.4C93.3,78.4,95.2,77.9,97.2,78.1z M101.7,79
		c-1.2-0.9-2.5-1.4-3.9-1.6c-1.3-0.2-2.7-0.2-4.2,0.2C96.3,76,99.8,76.7,101.7,79z M100.9,77.4c-1-0.5-2-0.8-3-1
		c-1-0.2-2-0.3-3.1-0.1C96.9,75.3,99.4,75.8,100.9,77.4z M70.9,64.4c4.5-2.1,9-4.4,14-5.6c-5,1.5-9.3,3.9-13.8,6.1
		c-2.2,1.1-4.5,2.1-6.9,2.9c-2.4,0.8-4.9,1.5-7.5,1.7C61.9,68.7,66.5,66.6,70.9,64.4z M72.9,88.1c-2.3,0.9-4.5,1.9-6.9,2.7
		c-2.4,0.8-4.8,1.5-7.4,1.7c5.1-0.9,9.6-3.1,14.2-5c4.6-1.9,9.1-3.7,13.9-5.6C82,84.2,77.5,86.2,72.9,88.1z M95.6,56.6
		c1.2,0,2.5,0.2,3.5,1c0.5,0.4,0.9,0.8,1.2,1.4c0.3,0.6,0.4,1.2,0.3,1.8c0-1.3-0.8-2.3-1.8-2.9c-1-0.6-2.2-0.7-3.3-0.8
		c-2.3,0-4.7,0.3-7.1,1C90.8,57.1,93.2,56.6,95.6,56.6z M100.3,81c-1.1-0.6-2.4-0.8-3.7-0.9c-2.6-0.1-5.2,0.3-7.8,1.4
		c2.4-1.4,5.1-2.1,7.8-1.9c1.3,0.1,2.7,0.3,3.9,1.1c0.6,0.4,1.1,0.9,1.4,1.5c0.3,0.6,0.5,1.3,0.5,2C102.4,82.7,101.4,81.6,100.3,81z
		 M96.7,93.1c1.2-1,2.3-2,3.2-3.1c0.9-1.1,1.8-2.3,2.5-3.7C101.6,89.3,99.5,91.8,96.7,93.1z M60.3,107.3c-0.2,0.9-0.2,1.9,0,2.8
		c1.3,5,1.6,9.7,1.1,13.9c-0.2,1.2,0.6,2.4,1.8,2.8c1.5,0.5,3.2,0.4,5,0.3c2.2-0.1,4.6-0.2,7.3,0.6c1.5,0.5,2.7,1.5,3.1,2.5
		c0,0.1,0.1,0.2,0.1,0.4c0-0.5-0.2-1.1-0.5-1.6c0,0-0.2-0.3-0.4-0.5c-0.2-0.2-0.5-0.4-0.4-0.5c0,0,0.3,0.1,0.6,0.2
		c0.3,0.2,0.5,0.4,0.5,0.4c0.4,0.4,0.7,1,0.8,1.5c0-0.3,0-0.7-0.2-1c0,0-0.1-0.2-0.1-0.3c-0.1-0.2-0.2-0.3-0.1-0.4
		c0,0,0.2,0.1,0.3,0.2c0.1,0.1,0.3,0.3,0.3,0.3c0.2,0.2,0.3,0.5,0.4,0.7l-0.1-0.4c0,0-0.1-0.4,0-0.5c0.1,0,0.3,0.3,0.3,0.3l0.3,0.4
		c0.2-0.2,0.4-0.4,0.5-0.6c-1.9-1.3-3.6-3.1-5.1-5.5c-0.1-0.1-0.1-0.2,0-0.4c0-0.1,0.1-0.2,0.3-0.2c3.7-1,6-2,7.4-2.9l0,0
		c0.2-0.2,0.2-0.5,0.2-0.8c0,0,0-0.1,0-0.2c0-0.1-0.1-0.2,0-0.3c0,0,0.2,0,0.2,0.1c0.1,0.1,0.2,0.2,0.2,0.2c0,0.1,0.1,0.2,0.1,0.3
		c0.2-0.3,0.2-0.7,0.1-1.1c0,0,0-0.2-0.1-0.3c-0.1-0.2-0.1-0.3-0.1-0.4c0,0,0.2,0.1,0.3,0.2c0.1,0.1,0.2,0.3,0.2,0.3
		c0.1,0.2,0.2,0.5,0.2,0.7c0.2-0.4,0.3-0.9,0-1.4c0,0-0.1-0.2-0.2-0.3c-0.1-0.2-0.3-0.3-0.3-0.3c0,0,0.2,0,0.4,0.1
		c0.2,0.1,0.4,0.3,0.4,0.3c0.2,0.2,0.3,0.4,0.4,0.6c0.2-1-0.8-1.8-0.7-2c0.1-0.2,1.6,1.1,1.5,2.3c-0.4,2.4-5.3,4.2-9.5,5.4
		c1.5,2.2,3.2,3.9,5,5.1c0.1,0.1,0.2,0.2,0.2,0.3c0,0.1,0,0.2-0.1,0.3c-1,1.2-2.2,2.3-3.7,3.2c0,0,0,0-0.1,0
		c-0.9,0.6-1.9,1.1-2.9,1.6c3.5,1.3,7,0.7,10-1.6c0.6-0.5,0.9-1.2,0.9-2c-0.3-3.8,0.1-7.3,1.1-11.1c0.3-1.1,0.1-2.3-0.6-3.2
		c-2.3-3-6.8-4.7-11.4-4.3c-5.6,0.5-11.5,0.7-12.9-2.6c-1.8-4.2,4.3-8.3,4.4-8.1c0.1,0.2-4.2,3.9-3.9,6.9c0.5-1.4,1.3-2.8,2.3-3.9
		c0,0,0.4-0.5,0.9-0.9c0.5-0.4,1-0.8,1-0.8c0,0-0.4,0.5-0.9,1c-0.4,0.5-0.8,1-0.8,1c-1,1.4-1.7,3.1-2,4.8c0,0,0,0,0,0.1
		c0.5-1.5,1.2-2.9,2.1-4.1c0,0,0.3-0.5,0.7-0.9c0.4-0.4,0.8-0.8,0.8-0.8c0,0-0.3,0.5-0.7,1c-0.3,0.5-0.6,1-0.6,1
		c-0.8,1.4-1.4,2.9-1.8,4.4c0,0,0.1,0.1,0.1,0.1c0.5-1.3,1.1-2.5,1.8-3.6c0,0,0.3-0.4,0.6-0.8c0.3-0.4,0.7-0.8,0.7-0.7
		c0,0-0.3,0.5-0.5,0.9c-0.3,0.5-0.5,0.9-0.5,0.9c-0.6,1.2-1.1,2.4-1.4,3.7c0.1,0,0.1,0.1,0.2,0.1c0.3-0.9,0.6-1.8,1.1-2.7
		c0,0,0.2-0.3,0.4-0.6c0.2-0.3,0.5-0.6,0.5-0.5c0,0-0.1,0.4-0.3,0.7c-0.2,0.3-0.3,0.7-0.3,0.7c-0.4,0.9-0.6,1.8-0.7,2.7
		c0.1,0,0.2,0.1,0.3,0.1c0.1-0.6,0.3-1.1,0.5-1.6c0,0,0.1-0.2,0.2-0.4c0.1-0.2,0.3-0.4,0.3-0.3c0,0,0,0.2-0.1,0.5
		c-0.1,0.2-0.1,0.4-0.1,0.4c-0.1,0.5-0.2,1.1-0.2,1.6c0.1,0,0.1,0,0.2,0l0.3-0.7c0,0,0.2-0.4,0.3-0.4c0.1,0,0.1,0.5,0.1,0.5l0,0.6
		c0.1,0,0.2,0,0.3,0l0.2-0.3c0,0,0.2-0.2,0.3-0.2c0.1,0,0.1,0.3,0.1,0.3l0,0.3c2.1,0.2,4.5,0,6.9-0.2c0.3,0,0.5,0,0.8,0
		c0.1-0.2,0.2-0.4,0.3-0.5c0.1-0.1,0.2-0.2,0.3-0.3c-0.2-0.1-0.4-0.1-0.6-0.2c0,0-0.2,0-0.4-0.1c-0.2,0-0.4-0.1-0.4-0.1
		c0,0,0.2-0.1,0.4-0.2c0.2,0,0.4-0.1,0.4-0.1c0.4,0,0.8,0,1.3,0.1l-0.2-0.3c0,0-0.8,0-1.2-0.3l0,0.1c-0.3-0.1-0.6-0.3-1-0.4
		c0,0-0.5-0.1-0.5-0.2c0-0.1,0.5-0.2,0.5-0.2c0.1,0,0.3,0,0.4,0c0,0,0-0.1,0-0.1l-0.2-0.3c-0.3-0.1-0.6-0.3-1-0.3
		c0,0-0.5-0.1-0.6-0.2c0-0.1,0.5-0.3,0.5-0.2c0.2,0,0.4,0,0.5-0.1l-0.2-0.4c-0.6-0.1-1.1-0.1-1.7,0.1c0,0-0.2,0.1-0.4,0.1
		c-0.2,0.1-0.4,0.1-0.5,0.1c0,0,0.1-0.2,0.3-0.3c0.2-0.1,0.4-0.2,0.4-0.2c0.5-0.2,0.9-0.4,1.5-0.4l-0.2-0.4c-0.9,0-1.8,0.1-2.7,0.4
		c0,0-0.4,0.1-0.7,0.3c-0.3,0.2-0.7,0.3-0.7,0.3c0,0,0.2-0.3,0.5-0.5c0.3-0.2,0.6-0.4,0.6-0.4c0.8-0.4,1.6-0.7,2.5-0.8l-0.4-0.6
		c-1.1,0.1-2.1,0.3-3.1,0.8c0,0-0.4,0.2-0.8,0.4c-0.4,0.2-0.8,0.4-0.8,0.4c0,0,0.3-0.3,0.6-0.6c0.3-0.3,0.7-0.5,0.7-0.5
		c0.9-0.5,1.9-0.9,2.9-1.1l-0.5-0.8c-0.9,0.1-1.9,0.4-2.7,0.9c0,0-0.3,0.2-0.6,0.3c-0.3,0.2-0.6,0.4-0.6,0.4c0,0,0.2-0.3,0.5-0.5
		c0.3-0.2,0.5-0.5,0.5-0.5c0.8-0.6,1.6-1,2.6-1.3l-0.3-0.5c-0.8,0.1-1.5,0.4-2.2,0.7c0,0-0.3,0.1-0.6,0.3c-0.3,0.1-0.5,0.3-0.6,0.3
		c0,0,0.2-0.3,0.4-0.5c0.2-0.2,0.5-0.4,0.5-0.4c0.6-0.4,1.3-0.8,2.1-1.1l-0.3-0.5c-0.6,0.2-1.2,0.4-1.7,0.7c0,0-0.2,0.1-0.4,0.2
		c-0.2,0.1-0.4,0.3-0.5,0.2c0,0,0.1-0.2,0.3-0.4c0.2-0.2,0.3-0.3,0.3-0.3c0.5-0.4,1-0.8,1.6-1.1l-0.2-0.3c-0.4,0.1-0.8,0.2-1.2,0.5
		c0,0-0.6,0.4-0.7,0.4c-0.1-0.1,0.4-0.7,0.4-0.7c0.3-0.3,0.7-0.6,1.1-0.8l-0.5-0.8C64.1,100.4,61.3,103.4,60.3,107.3z M80.1,133.8
		c1-0.3,1.8-0.6,2.6-0.9c0.8-0.3,1.7-0.7,2.5-1.2C84,133.2,82,134,80.1,133.8z M82.4,131.9c1.1-0.4,1.9-0.6,3-0.8
		C84.6,131.9,83.5,132.2,82.4,131.9z M83.7,126.4c0.6-0.5,1-0.7,1.7-0.9C85.2,126.3,84.5,126.6,83.7,126.4z M85.4,126.9
		c-0.4,0.6-0.8,0.8-1.5,0.7C84.2,127,84.7,126.8,85.4,126.9z M83.2,125.3c0.4-0.2,0.7-0.4,1-0.5c0.3-0.1,0.7-0.2,1.1-0.4
		C85,125.2,84.1,125.6,83.2,125.3z M84.4,130.3c0.3-0.1,0.5-0.1,0.9-0.2c-0.3,0.7-1.1,1-1.7,0.6C83.9,130.6,84.2,130.4,84.4,130.3z
		 M83.8,129.8c0.5-0.5,0.8-0.6,1.5-0.6C85.1,129.8,84.4,130.1,83.8,129.8z M83.5,128.7c0.7-0.4,1.2-0.6,2-0.8
		C85.1,128.7,84.3,129,83.5,128.7z M83.3,124.3c0.8-0.6,1.5-1,2.4-1.4C85.3,123.9,84.3,124.4,83.3,124.3z M82.5,123.1
		c0.7-0.2,1.3-0.5,1.9-0.8c0.6-0.3,1.2-0.6,1.8-1C85.5,122.6,84,123.4,82.5,123.1z M86.7,119.7c-1,1.9-3.1,3-5.2,2.9
		c1-0.3,1.9-0.7,2.7-1.2C85.1,120.9,85.9,120.4,86.7,119.7z M79.7,115.2c1-0.2,1.9,0.4,2.2,1.3C81.1,116.1,80.5,115.8,79.7,115.2z
		 M78.6,114.1c1.6,0.1,3,0.6,4.2,1.6C81.3,115.3,80.1,114.9,78.6,114.1z M83.7,115.3c-1.3-0.6-2.5-1-3.8-1.4c-1.3-0.3-2.6-0.6-4-0.7
		C78.7,112.8,81.5,113.5,83.7,115.3z M61.6,112.3c1,0.4,2,0.7,3,1c1,0.3,2,0.5,3,0.6C65.5,114.3,63.3,113.7,61.6,112.3z M63.9,118.8
		c0.5,0.1,1,0.3,1.5,0.4c-1.1,0.5-2.4,0.1-3-0.9C62.9,118.6,63.4,118.7,63.9,118.8z M62.6,117.3c0.5,0.2,0.9,0.3,1.4,0.5
		c0.4,0.1,0.8,0.3,1.4,0.4C64.3,118.6,63.1,118.2,62.6,117.3z M65.5,120.3c-1,0.4-2.2,0.1-2.9-0.9C63.6,119.8,64.4,120,65.5,120.3z
		 M64.2,121c0.5,0.2,1,0.4,1.6,0.5c-1.2,0.4-2.5-0.1-3.2-1.2C63.2,120.6,63.7,120.8,64.2,121z M62.5,114.9c1.2,0.4,2.1,0.6,3.3,1
		C64.6,116.3,63.3,115.9,62.5,114.9z M65.2,117c-1.1,0.3-2.2-0.1-2.9-1C63.4,116.3,64.2,116.6,65.2,117z M63.8,124.2
		c0.5,0.2,1,0.4,1.5,0.6c-1.2,0.3-2.4-0.2-3.1-1.2C62.9,123.8,63.4,124,63.8,124.2z M62.5,122.6c0.5,0.3,1,0.4,1.5,0.6
		c0.5,0.2,0.9,0.3,1.5,0.4C64.4,124.1,63,123.7,62.5,122.6z M62.5,121.6c0.6,0.3,1.2,0.5,1.8,0.7c0.6,0.2,1.2,0.3,1.9,0.4
		C64.9,123.3,63.3,122.8,62.5,121.6z M62.2,113.6c0.7,0.3,1.3,0.5,1.9,0.6c0.6,0.2,1.2,0.3,2,0.4C64.7,115.2,63.1,114.8,62.2,113.6z
		 M64.4,125.3c0.8,0.2,1.5,0.4,2.4,0.5c-1.7,0.6-3.6,0-4.7-1.4C62.9,124.8,63.7,125.1,64.4,125.3z M64.5,126.8
		c-0.6-0.1-1.2-0.3-1.7-0.7c-0.5-0.3-0.9-0.8-1.1-1.4c0.8,0.9,1.9,1.3,2.9,1.5c1.1,0.2,2.2,0.2,3.4,0.2
		C66.9,126.8,65.7,127,64.5,126.8z M77.3,127.6c-1.1-0.4-2.1-0.6-3.1-0.9c-1-0.2-2.1-0.4-3.2-0.5C73.2,125.7,75.5,126.2,77.3,127.6z
		 M63.7,112.1c0.9,0.3,1.9,0.4,2.9,0.4c1,0,2,0,3,0c1,0,2,0,3.1,0c-1,0.2-2.1,0.3-3.1,0.4c-1,0.1-2,0.2-3,0.2c-1,0-2-0.2-3-0.6
		c-1-0.4-1.8-1-2.4-1.9C61.8,111.4,62.7,111.8,63.7,112.1z M84.8,118.9L84.8,118.9C84.8,118.9,84.8,118.9,84.8,118.9
		C84.8,118.9,84.8,118.9,84.8,118.9z M91.3,38.5c0.1-1.1-0.1-2.2-0.7-3c-0.1-0.1-0.2-0.3-0.3-0.4c-1.4-1.6-3.3-2.9-5.4-3.7
		c0,0-0.2-0.1-0.5-0.2c-0.3-0.1-0.7-0.2-1.2-0.3c-0.4-0.1-0.9-0.2-1.2-0.2c-0.3,0-0.6-0.1-0.6-0.1c0,0,0.2,0,0.5,0
		c0.3,0,0.8,0.1,1.2,0.1c0.9,0.1,1.7,0.4,1.7,0.4c1.6,0.5,3,1.3,4.3,2.3c-3.4-5.4-5.6-10.2-6.6-14.8c-0.1-0.3-0.3-0.6-0.6-0.7
		c-1.9-0.8-4.7-0.9-8.2-0.3c-0.2,0.3-0.3,0.6-0.4,0.9c2.2,0.7,5.9,2.2,8.4,5c0.1,0.1,0.1,0.3,0.1,0.4c0,0.1-0.2,0.2-0.3,0.3
		c-3.8,0.7-8.4,2-10.9,3.7l0.1,0c0,0,0.2,0.2,0.2,0.3c0,0.1-0.3,0.1-0.3,0.1l-0.6,0.1c0,0,0,0,0,0l0.6,0.2c0,0,0.6,0.2,0.6,0.3
		c0,0.1-0.6,0.1-0.6,0.1l-1.1,0c0,0,0,0,0,0c0.6,0.2,1.3,0.3,1.9,0.5c0,0,0.3,0.1,0.5,0.1c0.3,0.1,0.5,0.1,0.5,0.2
		c0,0-0.3,0.1-0.6,0.1c-0.3,0-0.6,0-0.6,0c-0.7,0-1.5-0.1-2.2-0.2c0,0,0,0,0,0c1.2,0.3,2.4,0.5,3.6,0.6c0,0,0.4,0,0.9,0.1
		c0.5,0,0.9,0,0.9,0.1c0,0-0.5,0.1-0.9,0.2c-0.5,0-1,0.1-1,0.1c-1.2,0-2.4,0-3.6-0.2c1.5,0.4,3.1,0.6,4.7,0.6c0,0,0.6,0,1.1,0
		c0.6,0,1.1-0.1,1.1-0.1c0,0-0.6,0.2-1.1,0.3c-0.6,0.1-1.2,0.2-1.2,0.2c-1.4,0.1-2.8,0.1-4.2-0.1c1.7,0.7,7.4,0.2,7.4,0.4
		c0,0.2-2.3,0.5-3.2,0.5c-2.6,0.2-4.8,0.4-5.3-1c-0.3-0.7-0.2-1.5,0.2-2.2c1.4-2.5,7.2-4.5,12.4-5.5c-2.5-2.5-6-3.8-8-4.3
		c-0.1,0-0.2-0.1-0.3-0.2c0-0.1,0-0.2,0-0.3c1.2-2.4,2.7-4.8,4.5-7.2c-4.8,1-8.7,2.9-11.9,5.8c-0.6,0.6-0.8,1.5-0.5,2.3
		c1.3,3.1,2.1,5.4,2.3,8.3c0.5-0.8,1.2-1.5,2-1.9c0,0,0.5-0.3,1-0.4c0.5-0.2,1-0.2,1-0.1c0,0-0.5,0.2-1,0.4
		c-0.5,0.2-0.9,0.5-0.9,0.5c-1.2,0.8-1.9,2.1-2,3.5l0,0c0,0.1,0,0.1,0,0.2c0,1.8,0.7,2.2,1.2,2.4c1.2,0.3,3.3,0.2,5.7,0
		c5.2-0.3,11.6-0.8,14.8,3c0.4,0.5,0.8,1,1,1.6l0,0c0,0,0,0,0,0c0.4,1,0.6,2,0.5,3c-0.3,3.3-3.1,5-3.2,4.8c-0.1-0.1,1.6-1.5,2.3-3.7
		c-0.3,0.5-0.6,1-1.1,1.5c0,0-0.4,0.4-0.8,0.7c-0.4,0.3-0.9,0.6-1,0.6c0,0,0.4-0.4,0.8-0.8c0.4-0.4,0.7-0.8,0.7-0.8
		c0.7-0.8,1.1-1.8,1.2-2.9c-0.3,0.7-0.7,1.4-1.3,2c0,0-0.4,0.4-0.8,0.7c-0.4,0.3-0.9,0.6-1,0.5c0,0,0.4-0.4,0.8-0.8
		c0.4-0.4,0.7-0.8,0.7-0.8c0.9-1.1,1.3-2.6,1.2-3.9c0,0,0,0,0,0c-0.2,1.2-0.7,2.3-1.5,3.1c0,0-0.4,0.4-0.8,0.7
		c-0.4,0.3-0.9,0.5-0.9,0.5c0,0,0.4-0.3,0.8-0.7c0.4-0.4,0.7-0.8,0.7-0.8c0.8-1,1.1-2.3,1-3.5c-0.1,1-0.6,2-1.3,2.7
		c0,0-0.3,0.3-0.7,0.6c-0.4,0.3-0.8,0.4-0.8,0.4c0,0,0.4-0.3,0.7-0.6c0.3-0.3,0.6-0.7,0.6-0.7c0.7-0.9,0.9-2,0.8-3.1
		c-0.1,0.8-0.5,1.6-1.1,2.2c0,0-0.3,0.3-0.7,0.5c-0.4,0.2-0.7,0.4-0.8,0.3c0,0,0.3-0.3,0.6-0.6c0.3-0.3,0.5-0.6,0.5-0.6
		c0.6-0.8,0.8-1.9,0.6-2.9c0,0,0,0,0,0c0,0.9-0.3,1.8-0.9,2.4c0,0-0.3,0.3-0.6,0.5c-0.3,0.2-0.6,0.3-0.7,0.3c0,0,0.3-0.2,0.5-0.5
		c0.2-0.2,0.4-0.5,0.4-0.5c0.4-0.6,0.6-1.4,0.4-2.1c0,0.6-0.2,1.1-0.6,1.5c0,0-0.2,0.3-0.4,0.4c-0.2,0.2-0.5,0.3-0.6,0.3
		c0,0,0.2-0.2,0.4-0.5c0.2-0.2,0.3-0.5,0.3-0.5c0.3-0.5,0.3-1.1,0.2-1.6c-0.1,0.5-0.2,0.9-0.5,1.3c0,0-0.1,0.2-0.3,0.4
		c-0.2,0.2-0.4,0.3-0.4,0.2c0,0,0.1-0.2,0.3-0.4c0.1-0.2,0.2-0.4,0.2-0.4c0.2-0.4,0.2-0.9,0.1-1.3c-0.1,0.3-0.2,0.6-0.4,0.8
		c0,0-0.1,0.2-0.3,0.3c-0.2,0.1-0.4,0.2-0.4,0.1c0,0,0.1-0.2,0.2-0.3c0.1-0.1,0.2-0.3,0.2-0.3c0.1-0.2,0.1-0.4,0.1-0.6
		c0-0.1,0-0.2-0.1-0.2c0,0.3-0.1,0.6-0.3,0.8c0,0-0.1,0.2-0.3,0.3C83.2,34.9,83,35,83,34.9c0,0,0.1-0.2,0.2-0.3
		c0.1-0.1,0.1-0.3,0.1-0.3c0.1-0.3,0.1-0.5,0-0.8c0,0.2-0.1,0.3-0.2,0.5c0,0-0.1,0.1-0.3,0.2c-0.1,0.1-0.3,0.1-0.3,0.1
		c0,0,0.1-0.1,0.1-0.3c0.1-0.1,0.1-0.2,0.1-0.2c0.1-0.2,0-0.4-0.1-0.6c0,0.2-0.1,0.3-0.2,0.4c0,0-0.1,0.1-0.2,0.2
		c-0.1,0.1-0.2,0.1-0.2,0.1c0,0,0-0.1,0-0.2c0-0.1,0-0.2,0-0.2c0-0.2-0.1-0.3-0.1-0.4c-1.5-0.2-3.1-0.2-4.7-0.2c0,0.1,0,0.1,0.1,0.2
		l0.7,0.1c0,0,0.4,0.1,0.4,0.2c0,0.1-0.4,0.2-0.4,0.2l-0.4,0.2c0,0.1,0.1,0.2,0.1,0.3l0.7,0c0,0,0.5,0,0.5,0.1
		c0,0.1-0.4,0.3-0.4,0.3l-0.5,0.2c0,0.1,0.1,0.2,0.1,0.3l0.8,0c0,0,0.5,0,0.5,0.1c0,0.1-0.4,0.3-0.4,0.3l-0.6,0.3
		c0,0.1,0.1,0.2,0.1,0.3l0.9-0.1c0,0,0.6-0.1,0.6,0c0,0.1-0.5,0.3-0.5,0.3l-0.7,0.4c0,0.1,0.1,0.2,0.1,0.3c0.3,0,0.6-0.1,0.9-0.1
		c0,0,0.6-0.1,0.6,0c0,0.1-0.5,0.4-0.5,0.4c-0.3,0.1-0.6,0.3-0.8,0.4c0,0.1,0.1,0.2,0.1,0.3c0.3-0.1,0.7-0.1,1-0.2
		c0,0,0.2,0,0.3-0.1c0.2,0,0.3-0.1,0.4,0c0,0.1-0.5,0.4-0.5,0.4c-0.3,0.2-0.6,0.3-0.9,0.5c0,0.1,0.1,0.2,0.1,0.3
		c0.4-0.1,0.7-0.2,1.1-0.3c0,0,0.2,0,0.4-0.1c0.2,0,0.4-0.1,0.4,0c0,0-0.1,0.2-0.3,0.3c-0.1,0.1-0.3,0.2-0.3,0.2
		c-0.3,0.2-0.7,0.4-1,0.6c0,0.1,0.1,0.2,0.1,0.3c0.4-0.1,0.8-0.2,1.2-0.3c0,0,0.2-0.1,0.4-0.1c0.2-0.1,0.4-0.1,0.4-0.1
		c0,0-0.1,0.2-0.3,0.3c-0.2,0.1-0.3,0.2-0.3,0.2c-0.4,0.2-0.8,0.4-1.1,0.6c0,0.1,0.1,0.2,0.1,0.3c0.4-0.1,0.9-0.2,1.3-0.4
		c0,0,0.2-0.1,0.4-0.1c0.2-0.1,0.4-0.1,0.4-0.1c0,0-0.1,0.2-0.3,0.3c-0.2,0.1-0.3,0.3-0.3,0.3c-0.4,0.3-0.8,0.5-1.3,0.7
		c0,0.1,0.1,0.2,0.1,0.3c0.5-0.1,0.9-0.3,1.4-0.5c0,0,0.2-0.1,0.4-0.2c0.2-0.1,0.4-0.2,0.5-0.1c0,0-0.1,0.2-0.3,0.3
		c-0.2,0.1-0.4,0.3-0.4,0.3c-0.4,0.3-0.9,0.5-1.4,0.8c0,0,0,0,0,0c0,0.1,0.1,0.2,0.1,0.3c0.5-0.1,1-0.3,1.5-0.5c0,0,0.2-0.1,0.5-0.2
		c0.2-0.1,0.5-0.2,0.5-0.1c0,0-0.1,0.2-0.3,0.4c-0.2,0.2-0.4,0.3-0.4,0.3c-0.5,0.3-1,0.6-1.5,0.9c0,0.1,0.1,0.2,0.1,0.3
		c0.6-0.2,1.1-0.4,1.6-0.6c0,0,0.2-0.1,0.5-0.2c0.2-0.1,0.5-0.2,0.5-0.2c0,0-0.2,0.2-0.3,0.4c-0.2,0.2-0.4,0.3-0.4,0.3
		c-0.5,0.4-1.1,0.7-1.6,1c0,0.1,0.1,0.2,0.1,0.3c0.6-0.2,1.2-0.4,1.8-0.7c0,0,0.3-0.1,0.5-0.2c0.3-0.1,0.5-0.2,0.5-0.2
		c0,0-0.2,0.2-0.4,0.4c-0.2,0.2-0.4,0.3-0.4,0.3c-0.6,0.4-1.1,0.7-1.8,1c0,0.1,0.1,0.2,0.1,0.3c0.6-0.2,1.3-0.5,1.9-0.8
		c0,0,0.3-0.1,0.5-0.3c0.3-0.1,0.5-0.3,0.6-0.2c0,0-0.2,0.2-0.4,0.4c-0.2,0.2-0.4,0.4-0.4,0.4c-0.6,0.4-1.2,0.8-1.9,1.1
		c0,0.1,0.1,0.2,0.1,0.3c0.7-0.2,1.4-0.5,2-0.8c0,0,0.3-0.1,0.5-0.3c0.3-0.1,0.6-0.3,0.6-0.2c0,0-0.2,0.3-0.4,0.5
		c-0.2,0.2-0.5,0.4-0.5,0.4c-0.6,0.5-1.3,0.9-2,1.2c0.2,0.5,0.4,1,0.5,1.3C88.2,46.9,90.7,43.5,91.3,38.5z M86.4,29.6
		c-0.9-0.2-1.5-0.4-2.4-0.7C84.8,28.5,85.9,28.8,86.4,29.6z M85.9,28.8c-0.7-0.1-1.1-0.3-1.8-0.6C84.8,27.9,85.6,28.1,85.9,28.8z
		 M85.1,27c-0.5,0.2-0.8,0.2-1.2-0.2C84.4,26.6,84.7,26.6,85.1,27z M85.4,27.8c-0.6,0-0.9,0-1.5-0.3C84.4,27.1,85.1,27.3,85.4,27.8z
		 M87.2,30.6c-1.3-0.3-2.4-0.6-3.7-1.1C84.8,29.4,86.1,29.8,87.2,30.6z M87.6,31.7c-1.8-0.7-3.3-1.2-5.2-1.5
		C84.3,29.8,86.2,30.4,87.6,31.7z M83,21.3c-0.3,0.2-0.6,0.1-0.7-0.2C82.6,20.9,82.8,20.9,83,21.3z M82.3,18.6
		c-0.8-0.3-1.5-0.5-2.2-0.6c-0.7-0.1-1.5-0.2-2.3-0.3C79.3,17.1,81.1,17.5,82.3,18.6z M82.4,19.1c-1-0.1-1.7-0.3-2.6-0.6
		C80.7,18.2,81.7,18.4,82.4,19.1z M80.9,19.4c0.7-0.1,1.3,0,1.8,0.4C82,20,81.5,19.8,80.9,19.4z M81.6,20.3c0.4-0.2,0.8-0.1,1.1,0.2
		C82.3,20.7,81.9,20.7,81.6,20.3z M66.8,16.5c-0.5,0.4-0.9,0.8-1.2,1.2c-0.3,0.4-0.7,0.9-0.9,1.4C64.6,17.9,65.6,16.7,66.8,16.5z
		 M66.6,17.7c-0.3,0.3-0.6,0.6-0.8,0.9c-0.2,0.3-0.5,0.6-0.8,1C64.9,18.6,65.7,17.7,66.6,17.7z M67,18.3c-0.3,0.3-0.6,0.6-0.9,0.9
		c-0.3,0.3-0.5,0.6-0.8,0.9C65.3,19.2,66.1,18.4,67,18.3z M67.4,19.2c-0.4,0.3-0.7,0.6-1,0.8c-0.3,0.3-0.6,0.6-0.9,1
		C65.4,19.9,66.4,19.1,67.4,19.2z M67.8,19.8c-0.4,0.3-0.7,0.5-1.1,0.8c-0.3,0.3-0.7,0.5-1,0.8C66,20.5,66.9,19.8,67.8,19.8z
		 M68.1,20.7c-0.4,0.2-0.8,0.5-1.1,0.7c-0.3,0.2-0.7,0.5-1,0.8C66.1,21.3,67.1,20.6,68.1,20.7z M68.6,21.3c-0.4,0.2-0.8,0.5-1.2,0.7
		c-0.4,0.2-0.7,0.5-1.1,0.8C66.6,21.8,67.6,21.2,68.6,21.3z M69.2,22.2c-0.6,0.2-1,0.4-1.5,0.6c-0.4,0.2-0.9,0.5-1.3,0.9
		C66.9,22.6,68.1,21.9,69.2,22.2z M69.7,23c-0.6,0.1-1.1,0.4-1.6,0.6c-0.5,0.3-0.9,0.6-1.4,1C67.1,23.4,68.5,22.6,69.7,23z
		 M69.9,23.7c-0.6,0.2-1.1,0.4-1.5,0.6c-0.5,0.2-0.9,0.5-1.4,0.9C67.4,24.1,68.7,23.4,69.9,23.7z M70.2,24.4
		c-0.6,0.2-1.1,0.4-1.6,0.6c-0.5,0.2-1,0.4-1.6,0.7C67.7,24.7,68.9,24.2,70.2,24.4z M68.9,25.6c-0.6,0.3-1.1,0.6-1.7,1
		c0.7-1.2,2.1-1.9,3.5-1.7C70,25.1,69.4,25.4,68.9,25.6z M88.2,36.1C88.2,36.1,88.2,36.1,88.2,36.1C88.2,36.1,88.2,36.1,88.2,36.1
		L88.2,36.1z"/>
	<path fill="#262845" d="M104,84.4c-0.6,4.6-3.8,8.7-8,10.5c0,0-0.1,0-0.1,0c-0.2,0-0.3-0.1-0.4-0.2c-0.1-0.2,0-0.4,0.2-0.5
		c0.1,0,0.2-0.1,0.3-0.2c3.8-1.7,6.7-5.5,7.2-9.7c0-0.3,0-0.7-0.1-1c-2.1-7.4-2.8-14.6-2-22.1c0.1-1.3-0.2-2.6-1.1-3.5
		c-0.9-1-2.2-1.5-3.6-1.5c0,0,0,0,0,0c-8.7,0-16.9,3.6-24.8,7c-9.7,4.2-18.8,8.2-26.9,4.1c-1.3-0.7-2.5-2-3.2-3.4l0,0c0,0,0,0,0-0.1
		c-0.3-0.6-0.5-1.3-0.6-2c-0.3-2.1,1.9-4.2,2-4c0.1,0.2-1.5,2.1-1.2,3.9c0,0,0,0.1,0,0.1c0.1-0.5,0.3-1,0.6-1.4c0,0,0.2-0.3,0.5-0.6
		c0.3-0.3,0.6-0.5,0.6-0.5c0,0-0.2,0.4-0.4,0.7c-0.2,0.3-0.3,0.7-0.3,0.7c-0.4,0.8-0.5,1.7-0.4,2.6c0.1-0.4,0.2-0.9,0.4-1.3
		c0,0,0.2-0.3,0.4-0.6c0.2-0.3,0.5-0.5,0.5-0.5c0,0-0.1,0.3-0.3,0.6c-0.1,0.3-0.2,0.6-0.2,0.6c-0.3,0.8-0.2,1.7,0,2.5
		c0-0.4,0.1-0.7,0.2-1.1c0,0,0.1-0.3,0.2-0.5c0.1-0.2,0.3-0.4,0.4-0.4c0,0-0.1,0.3-0.1,0.5c-0.1,0.3-0.1,0.5-0.1,0.5
		c-0.1,0.7,0.1,1.4,0.4,2l0,0c0,0,0.1,0.1,0.1,0.1c0-0.2,0-0.3,0-0.5c0,0,0-0.2,0-0.4c0-0.2,0.1-0.4,0.2-0.4c0,0,0.1,0.2,0.1,0.4
		c0,0.2,0.1,0.4,0.1,0.4c0.1,0.4,0.3,0.7,0.5,1c0-0.1,0-0.2,0-0.3c0-0.2,0-0.3,0.1-0.3c0,0,0.1,0.1,0.2,0.3c0.1,0.1,0.1,0.3,0.1,0.3
		c0.2,0.3,0.5,0.6,0.8,0.7l0,0c2.2,0.9,4.5,1.3,6.8,1.2c5.8-0.2,12-2.9,18.4-5.7c8-3.5,16.2-7.1,25.1-7.1c0,0,0,0,0,0
		c1.7,0,3.1,0.6,4.2,1.8c1,1.1,1.5,2.6,1.3,4.1c-0.8,7.4-0.1,14.5,2,21.8C104,83.5,104.1,84,104,84.4z M93.4,82.1l0.5,2.2
		c-0.8-0.4-15.5,5.8-16.8,7.4c-3.5,2.4-5.7,4.4-7.7,6.7L69.1,98c0,0.1-0.1,0.1-0.2,0.2c0,0-0.1,0-0.1,0c-4.8,2.2-7.6,5.2-8.6,9.1
		c-0.2,0.9-0.2,1.9,0,2.8c1.3,5,1.6,9.7,1.1,13.9c-0.2,1.2,0.6,2.4,1.8,2.8c1.5,0.5,3.2,0.4,5,0.3c2.2-0.1,4.6-0.2,7.3,0.6
		c1.5,0.5,2.7,1.5,3.1,2.5c0,0.1,0.1,0.2,0.1,0.4c0-0.5-0.2-1.1-0.5-1.6c0,0-0.2-0.3-0.4-0.5c-0.2-0.2-0.5-0.4-0.4-0.5
		c0,0,0.3,0.1,0.6,0.2c0.3,0.2,0.5,0.4,0.5,0.4c0.4,0.4,0.7,1,0.8,1.5c0-0.3,0-0.7-0.2-1c0,0-0.1-0.2-0.1-0.3
		c-0.1-0.2-0.2-0.3-0.1-0.4c0,0,0.2,0.1,0.3,0.2c0.1,0.1,0.3,0.3,0.3,0.3c0.2,0.2,0.3,0.5,0.4,0.7l-0.1-0.4c0,0-0.1-0.4,0-0.5
		c0.1,0,0.3,0.3,0.3,0.3l0.3,0.4c0.2-0.2,0.4-0.4,0.5-0.6c-1.9-1.3-3.6-3.1-5.1-5.5c-0.1-0.1-0.1-0.2,0-0.4c0-0.1,0.1-0.2,0.3-0.2
		c3.7-1,6-2,7.4-2.9l0,0c0.2-0.2,0.2-0.5,0.2-0.8c0,0,0-0.1,0-0.2c0-0.1-0.1-0.2,0-0.3c0,0,0.2,0,0.2,0.1c0.1,0.1,0.2,0.2,0.2,0.2
		c0,0.1,0.1,0.2,0.1,0.3c0.2-0.3,0.2-0.7,0.1-1.1c0,0,0-0.2-0.1-0.3c-0.1-0.2-0.1-0.3-0.1-0.4c0,0,0.2,0.1,0.3,0.2
		c0.1,0.1,0.2,0.3,0.2,0.3c0.1,0.2,0.2,0.5,0.2,0.7c0.2-0.4,0.3-0.9,0-1.4c0,0-0.1-0.2-0.2-0.3c-0.1-0.2-0.3-0.3-0.3-0.3
		c0,0,0.2,0,0.4,0.1c0.2,0.1,0.4,0.3,0.4,0.3c0.2,0.2,0.3,0.4,0.4,0.6c0.2-1-0.8-1.8-0.7-2c0.1-0.2,1.6,1.1,1.5,2.3
		c-0.4,2.4-5.3,4.2-9.5,5.4c1.5,2.2,3.2,3.9,5,5.1c0.1,0.1,0.2,0.2,0.2,0.3c0,0.1,0,0.2-0.1,0.3c-1,1.2-2.2,2.3-3.7,3.2
		c0,0,0,0-0.1,0c-0.9,0.6-1.9,1.1-2.9,1.6c3.5,1.3,7,0.7,10-1.6c0.6-0.5,0.9-1.2,0.9-2c-0.3-3.8,0.1-7.3,1.1-11.1
		c0.3-1.1,0.1-2.3-0.6-3.2c-2.3-3-6.8-4.7-11.4-4.3c-5.6,0.5-11.5,0.7-12.9-2.6c-1.8-4.2,4.3-8.3,4.4-8.1c0.1,0.2-4.2,3.9-3.9,6.9
		c0.5-1.4,1.3-2.8,2.3-3.9c0,0,0.4-0.5,0.9-0.9c0.5-0.4,1-0.8,1-0.8c0,0-0.4,0.5-0.9,1c-0.4,0.5-0.8,1-0.8,1c-1,1.4-1.7,3.1-2,4.8
		c0,0,0,0,0,0.1c0.5-1.5,1.2-2.9,2.1-4.1c0,0,0.3-0.5,0.7-0.9c0.4-0.4,0.8-0.8,0.8-0.8c0,0-0.3,0.5-0.7,1c-0.3,0.5-0.6,1-0.6,1
		c-0.8,1.4-1.4,2.9-1.8,4.4c0,0,0.1,0.1,0.1,0.1c0.5-1.3,1.1-2.5,1.8-3.6c0,0,0.3-0.4,0.6-0.8c0.3-0.4,0.7-0.8,0.7-0.7
		c0,0-0.3,0.5-0.5,0.9c-0.3,0.5-0.5,0.9-0.5,0.9c-0.6,1.2-1.1,2.4-1.4,3.7c0.1,0,0.1,0.1,0.2,0.1c0.3-0.9,0.6-1.8,1.1-2.7
		c0,0,0.2-0.3,0.4-0.6c0.2-0.3,0.5-0.6,0.5-0.5c0,0-0.1,0.4-0.3,0.7c-0.2,0.3-0.3,0.7-0.3,0.7c-0.4,0.9-0.6,1.8-0.7,2.7
		c0.1,0,0.2,0.1,0.3,0.1c0.1-0.6,0.3-1.1,0.5-1.6c0,0,0.1-0.2,0.2-0.4c0.1-0.2,0.3-0.4,0.3-0.3c0,0,0,0.2-0.1,0.5
		c-0.1,0.2-0.1,0.4-0.1,0.4c-0.1,0.5-0.2,1.1-0.2,1.6c0.1,0,0.1,0,0.2,0l0.3-0.7c0,0,0.2-0.4,0.3-0.4c0.1,0,0.1,0.5,0.1,0.5l0,0.6
		c0.1,0,0.2,0,0.3,0l0.2-0.3c0,0,0.2-0.2,0.3-0.2c0.1,0,0.1,0.3,0.1,0.3l0,0.3c2.1,0.2,4.5,0,6.9-0.2c0.3,0,0.5,0,0.8,0
		c4.6-0.2,9,1.6,11.3,4.7c0.8,1.1,1.1,2.5,0.7,3.9c-1,3.8-1.3,7.2-1,10.9c0.1,1-0.4,2-1.2,2.7c-2,1.6-4.4,2.4-6.8,2.4
		c-1.6,0-3.2-0.4-4.8-1.1c-0.1-0.1-0.2-0.2-0.2-0.4c0-0.2,0.1-0.3,0.2-0.4c1.3-0.6,2.5-1.2,3.6-1.9c0.3-0.4,0.3-0.9,0.2-1.3
		c-0.3-0.8-1.3-1.6-2.6-2c-2.6-0.8-4.8-0.7-7-0.6c-1.8,0.1-3.6,0.2-5.3-0.3c-1.5-0.5-2.5-2-2.3-3.6c0.5-4.1,0.1-8.7-1.1-13.6
		c-0.3-1-0.3-2.1,0-3.2c1.1-4.2,4-7.3,9.1-9.7c0.1,0,0.1,0,0.2,0l-2.7-4.7c-3.5,1.2-7.1,1.9-10.5,1.9c-3.5,0-6.8-0.8-9.9-2.8
		c-1.4-0.9-2.2-2.5-2.1-4c0.4-6.9-1.2-14.8-5-24.2c-0.3-0.8-0.5-1.5-0.5-2.3c0-2.8,1.9-5.4,5.4-7.8c0.2-0.1,0.4-0.1,0.5,0.1
		c0.1,0.2,0.1,0.4-0.1,0.5c0,0,0,0-0.1,0c-3.3,2.2-4.9,4.5-5,7.1c0,0.6,0.1,1.3,0.4,2c3.8,9.5,5.5,17.5,5,24.5
		c-0.1,1.3,0.6,2.6,1.7,3.3c9.3,6.1,21.5,0.6,32.3-4.4c7.5-3.4,14.6-6.7,19.6-5.4c1.6,0.4,2.7,1.3,3,2.6c0.7,2.7-3.3,6.6-3.4,6.4
		c-0.1-0.1,1.7-2.1,2.4-4.1c-0.3,0.5-0.6,1.1-1,1.5c0,0-0.3,0.4-0.7,0.7c-0.4,0.3-0.8,0.6-0.8,0.6c0,0,0.3-0.4,0.6-0.8
		c0.3-0.4,0.6-0.8,0.6-0.8c0.6-1,1.1-2.1,1.2-3.3c-0.3,0.9-0.7,1.8-1.3,2.5c0,0-0.3,0.4-0.6,0.7c-0.3,0.3-0.7,0.6-0.7,0.5
		c0,0,0.3-0.4,0.5-0.7c0.3-0.4,0.5-0.7,0.5-0.7c0.5-0.9,0.8-1.8,1-2.8c0,0.1-0.1,0.3-0.2,0.4c-0.2,0.5-0.5,1-0.9,1.5
		c0,0-0.2,0.3-0.5,0.6c-0.3,0.3-0.6,0.5-0.6,0.5c0,0,0.2-0.3,0.4-0.7c0.2-0.3,0.4-0.7,0.4-0.7c0.3-0.5,0.5-1,0.6-1.5
		c0.1-0.2,0.1-0.5,0.2-0.8c0-0.1,0-0.1,0-0.2c-0.1,0.6-0.4,1.2-0.7,1.7c0,0-0.2,0.2-0.4,0.5c-0.2,0.2-0.5,0.4-0.5,0.3
		c0,0,0.1-0.3,0.3-0.5c0.1-0.3,0.3-0.5,0.3-0.5c0.3-0.6,0.4-1.2,0.4-1.8c-0.1,0.3-0.3,0.6-0.5,0.8c0,0-0.1,0.2-0.3,0.3
		c-0.1,0.1-0.3,0.2-0.3,0.2c0,0,0.1-0.2,0.1-0.4c0.1-0.2,0.1-0.3,0.1-0.3c0.1-0.3,0.2-0.7,0.2-1c0,0-0.1,0-0.1,0
		c-0.1,0.2-0.2,0.3-0.3,0.5c0,0-0.3,0.2-0.4,0.1c-0.1-0.1,0-0.4,0-0.4c0-0.1,0-0.3,0-0.4c-1-0.1-2.1-0.1-3.2,0.1
		C93.6,82.1,93.5,82.1,93.4,82.1z M84.8,118.9C84.8,118.9,84.8,118.9,84.8,118.9C84.8,118.9,84.8,118.9,84.8,118.9L84.8,118.9z
		 M63.4,21c-0.2-0.5,0.1-0.8,0.5-0.9c0-0.1-0.1-0.2-0.1-0.2c-0.5-1.1-0.2-2.4,0.7-3.2c3.5-3.3,7.9-5.3,13.4-6.2c0.2,0,0.3,0,0.4,0.2
		c0.1,0.1,0.1,0.3,0,0.4c-1.6,1.9-2.9,3.8-3.9,5.7c3.4-0.6,6.1-0.4,8,0.4c0.6,0.2,1,0.7,1.1,1.3c1.1,5.1,3.7,10.5,7.9,16.7
		c0.7,1,1,2.2,0.8,3.5c-0.6,5.4-3.5,9-8.5,10.9c0,0-0.1,0-0.1,0c-0.2,0-0.3-0.1-0.4-0.3c-0.1-0.2,0-0.4,0.2-0.5
		c0.1,0,0.2-0.1,0.2-0.1c4.7-1.8,7.2-5.2,7.8-10.2c0.1-1.1-0.1-2.2-0.7-3c-0.1-0.1-0.2-0.3-0.3-0.4c-1.4-1.6-3.3-2.9-5.4-3.7
		c0,0-0.2-0.1-0.5-0.2c-0.3-0.1-0.7-0.2-1.2-0.3c-0.4-0.1-0.9-0.2-1.2-0.2c-0.3,0-0.6-0.1-0.6-0.1c0,0,0.2,0,0.5,0
		c0.3,0,0.8,0.1,1.2,0.1c0.9,0.1,1.7,0.4,1.7,0.4c1.6,0.5,3,1.3,4.3,2.3c-3.4-5.4-5.6-10.2-6.6-14.8c-0.1-0.3-0.3-0.6-0.6-0.7
		c-1.9-0.8-4.7-0.9-8.2-0.3c-0.2,0.3-0.3,0.6-0.4,0.9c2.2,0.7,5.9,2.2,8.4,5c0.1,0.1,0.1,0.3,0.1,0.4c0,0.1-0.2,0.2-0.3,0.3
		c-3.8,0.7-8.4,2-10.9,3.7l0.1,0c0,0,0.2,0.2,0.2,0.3c0,0.1-0.3,0.1-0.3,0.1l-0.6,0.1c0,0,0,0,0,0l0.6,0.2c0,0,0.6,0.2,0.6,0.3
		c0,0.1-0.6,0.1-0.6,0.1l-1.1,0c0,0,0,0,0,0c0.6,0.2,1.3,0.3,1.9,0.5c0,0,0.3,0.1,0.5,0.1c0.3,0.1,0.5,0.1,0.5,0.2
		c0,0-0.3,0.1-0.6,0.1c-0.3,0-0.6,0-0.6,0c-0.7,0-1.5-0.1-2.2-0.2l0,0c1.2,0.3,2.4,0.5,3.6,0.6c0,0,0.4,0,0.9,0.1
		c0.5,0,0.9,0,0.9,0.1c0,0-0.5,0.1-0.9,0.2c-0.5,0-1,0.1-1,0.1c-1.2,0-2.4,0-3.6-0.2c1.5,0.4,3.1,0.6,4.7,0.6c0,0,0.6,0,1.1,0
		c0.6,0,1.1-0.1,1.1-0.1c0,0-0.6,0.2-1.1,0.3c-0.6,0.1-1.2,0.2-1.2,0.2c-1.4,0.1-2.8,0.1-4.2-0.1c1.7,0.7,7.4,0.2,7.4,0.4
		c0,0.2-2.3,0.5-3.2,0.5c-2.6,0.2-4.8,0.4-5.3-1c-0.3-0.7-0.2-1.5,0.2-2.2c1.4-2.5,7.2-4.5,12.4-5.5c-2.5-2.5-6-3.8-8-4.3
		c-0.1,0-0.2-0.1-0.3-0.2c0-0.1,0-0.2,0-0.3c1.2-2.4,2.7-4.8,4.5-7.2c-4.8,1-8.7,2.9-11.9,5.8c-0.6,0.6-0.8,1.5-0.5,2.3
		c1.3,3.1,2.1,5.4,2.3,8.3c0.5-0.8,1.2-1.5,2-1.9c0,0,0.5-0.3,1-0.4c0.5-0.2,1-0.2,1-0.1c0,0-0.5,0.2-1,0.4
		c-0.5,0.2-0.9,0.5-0.9,0.5c-1.2,0.8-1.9,2.1-2,3.5l0,0c0,0.1,0,0.1,0,0.2c0,1.8,0.7,2.2,1.2,2.4c1.2,0.3,3.3,0.2,5.7,0
		c5.2-0.3,11.6-0.8,14.8,3c0.4,0.5,0.8,1,1,1.6l0,0c0,0,0,0,0,0c0.2,0.4,0.3,0.7,0.4,1.1h0c0,0,0,0,0,0c0.1,0.6,0.2,1.2,0.1,1.8
		c-0.3,3.3-3.1,5-3.2,4.8c-0.1-0.1,1.6-1.5,2.3-3.7c-0.3,0.5-0.6,1-1.1,1.5c0,0-0.4,0.4-0.8,0.7c-0.4,0.3-0.9,0.6-1,0.6
		c0,0,0.4-0.4,0.8-0.8c0.4-0.4,0.7-0.8,0.7-0.8c0.7-0.8,1.1-1.8,1.2-2.9c-0.3,0.7-0.7,1.4-1.3,2c0,0-0.4,0.4-0.8,0.7
		c-0.4,0.3-0.9,0.6-1,0.5c0,0,0.4-0.4,0.8-0.8c0.4-0.4,0.7-0.8,0.7-0.8c0.9-1.1,1.3-2.6,1.2-3.9c0,0,0,0,0,0
		c-0.2,1.2-0.7,2.3-1.5,3.1c0,0-0.4,0.4-0.8,0.7c-0.4,0.3-0.9,0.5-0.9,0.5c0,0,0.4-0.3,0.8-0.7c0.4-0.4,0.7-0.8,0.7-0.8
		c0.8-1,1.1-2.3,1-3.5c-0.1,1-0.6,2-1.3,2.7c0,0-0.3,0.3-0.7,0.6c-0.4,0.3-0.8,0.4-0.8,0.4c0,0,0.4-0.3,0.7-0.6
		c0.3-0.3,0.6-0.7,0.6-0.7c0.7-0.9,0.9-2,0.8-3.1c-0.1,0.8-0.5,1.6-1.1,2.2c0,0-0.3,0.3-0.7,0.5c-0.4,0.2-0.7,0.4-0.8,0.3
		c0,0,0.3-0.3,0.6-0.6c0.3-0.3,0.5-0.6,0.5-0.6c0.6-0.8,0.8-1.9,0.6-2.9c0,0,0,0,0,0c0,0.9-0.3,1.8-0.9,2.4c0,0-0.3,0.3-0.6,0.5
		c-0.3,0.2-0.6,0.3-0.7,0.3c0,0,0.3-0.2,0.5-0.5c0.2-0.2,0.4-0.5,0.4-0.5c0.4-0.6,0.6-1.4,0.4-2.1c0,0.6-0.2,1.1-0.6,1.5
		c0,0-0.2,0.3-0.4,0.4c-0.2,0.2-0.5,0.3-0.6,0.3c0,0,0.2-0.2,0.4-0.5c0.2-0.2,0.3-0.5,0.3-0.5c0.3-0.5,0.3-1.1,0.2-1.6
		c-0.1,0.5-0.2,0.9-0.5,1.3c0,0-0.1,0.2-0.3,0.4c-0.2,0.2-0.4,0.3-0.4,0.2c0,0,0.1-0.2,0.3-0.4c0.1-0.2,0.2-0.4,0.2-0.4
		c0.2-0.4,0.2-0.9,0.1-1.3c-0.1,0.3-0.2,0.6-0.4,0.8c0,0-0.1,0.2-0.3,0.3c-0.2,0.1-0.4,0.2-0.4,0.1c0,0,0.1-0.2,0.2-0.3
		c0.1-0.1,0.2-0.3,0.2-0.3c0.1-0.2,0.1-0.4,0.1-0.6c0-0.1,0-0.2-0.1-0.2c0,0.3-0.1,0.6-0.3,0.8c0,0-0.1,0.2-0.3,0.3
		C83.2,34.9,83,35,83,34.9c0,0,0.1-0.2,0.2-0.3c0.1-0.1,0.1-0.3,0.1-0.3c0.1-0.3,0.1-0.5,0-0.8c0,0.2-0.1,0.3-0.2,0.5
		c0,0-0.1,0.1-0.3,0.2c-0.1,0.1-0.3,0.1-0.3,0.1c0,0,0.1-0.1,0.1-0.3c0.1-0.1,0.1-0.2,0.1-0.2c0.1-0.2,0-0.4-0.1-0.6
		c0,0.2-0.1,0.3-0.2,0.4c0,0-0.1,0.1-0.2,0.2c-0.1,0.1-0.2,0.1-0.2,0.1c0,0,0-0.1,0-0.2c0-0.1,0-0.2,0-0.2c0-0.2-0.1-0.3-0.1-0.4
		c-1.5-0.2-3.1-0.2-4.7-0.2c-0.1,0-0.2,0-0.2,0l0.2,0.5l0-0.4l0.2,0l0.7,0.1c0,0,0.4,0.1,0.4,0.2c0,0.1-0.4,0.2-0.4,0.2l-0.4,0.2
		l-0.3,0.1l0.2,0.5c-4-0.2-9.6,1.2-11.1,0.1C64.3,32.8,65.8,27.8,63.4,21z M88.2,36.1C88.2,36.1,88.2,36.1,88.2,36.1L88.2,36.1
		C88.2,36.1,88.2,36.1,88.2,36.1z M83.1,47.4c0.7-0.4,1.4-0.8,2-1.2c0,0,0.2-0.2,0.5-0.4c0.2-0.2,0.4-0.4,0.4-0.5
		c0,0-0.3,0.1-0.6,0.2c-0.3,0.1-0.5,0.3-0.5,0.3c-0.7,0.3-1.3,0.6-2,0.8c-0.1,0-0.2,0.1-0.3,0.1l0.3,0.7
		C82.9,47.5,83,47.5,83.1,47.4z M82.7,46.4c0.7-0.3,1.3-0.7,1.9-1.1c0,0,0.2-0.2,0.4-0.4c0.2-0.2,0.4-0.4,0.4-0.4
		c0,0-0.3,0.1-0.6,0.2c-0.3,0.1-0.5,0.3-0.5,0.3c-0.6,0.3-1.3,0.5-1.9,0.8c-0.1,0-0.2,0.1-0.3,0.1l0.3,0.7
		C82.5,46.5,82.6,46.5,82.7,46.4z M82.3,45.4c0.6-0.3,1.2-0.7,1.8-1c0,0,0.2-0.2,0.4-0.3c0.2-0.2,0.4-0.4,0.4-0.4
		c0,0-0.3,0.1-0.5,0.2c-0.3,0.1-0.5,0.2-0.5,0.2c-0.6,0.3-1.2,0.5-1.8,0.7c-0.1,0-0.2,0.1-0.3,0.1l0.3,0.7
		C82.1,45.6,82.2,45.5,82.3,45.4z M82,44.5c0.6-0.3,1.1-0.6,1.6-1c0,0,0.2-0.1,0.4-0.3c0.2-0.2,0.4-0.3,0.3-0.4c0,0-0.3,0.1-0.5,0.2
		c-0.2,0.1-0.5,0.2-0.5,0.2c-0.5,0.2-1.1,0.4-1.6,0.6c-0.1,0-0.2,0.1-0.4,0.1l0.3,0.7C81.8,44.6,81.9,44.5,82,44.5z M81.6,43.5
		c0.5-0.3,1-0.5,1.5-0.9c0,0,0.2-0.1,0.4-0.3c0.2-0.2,0.4-0.3,0.3-0.4c0,0-0.3,0.1-0.5,0.1c-0.2,0.1-0.5,0.2-0.5,0.2
		c-0.5,0.2-1,0.4-1.5,0.5c-0.1,0-0.2,0.1-0.4,0.1l0.3,0.7C81.4,43.6,81.5,43.5,81.6,43.5z M81.2,42.5c0.5-0.2,0.9-0.5,1.4-0.8
		c0,0,0.2-0.1,0.4-0.3c0.2-0.1,0.3-0.3,0.3-0.3c0,0-0.2,0-0.5,0.1c-0.2,0.1-0.4,0.2-0.4,0.2c-0.5,0.2-0.9,0.3-1.4,0.5
		c-0.1,0-0.3,0.1-0.4,0.1l0.3,0.7C81,42.6,81.1,42.6,81.2,42.5z M80.9,41.5c0.4-0.2,0.9-0.4,1.3-0.7c0,0,0.2-0.1,0.3-0.3
		c0.2-0.1,0.3-0.3,0.3-0.3c0,0-0.2,0-0.4,0.1c-0.2,0.1-0.4,0.1-0.4,0.1c-0.4,0.2-0.9,0.3-1.3,0.4c-0.1,0-0.3,0.1-0.4,0.1l0.2,0.8
		C80.6,41.7,80.7,41.6,80.9,41.5z M80.5,40.5c0.4-0.2,0.8-0.4,1.1-0.6c0,0,0.2-0.1,0.3-0.2c0.2-0.1,0.3-0.3,0.3-0.3
		c0,0-0.2,0-0.4,0.1c-0.2,0.1-0.4,0.1-0.4,0.1c-0.4,0.1-0.8,0.2-1.2,0.3c-0.1,0-0.2,0.1-0.4,0.1l0.2,0.8
		C80.2,40.7,80.3,40.6,80.5,40.5z M80.1,39.6c0.4-0.2,0.7-0.4,1-0.6c0,0,0.2-0.1,0.3-0.2c0.1-0.1,0.3-0.2,0.3-0.3c0,0-0.2,0-0.4,0
		c-0.2,0-0.4,0.1-0.4,0.1c-0.4,0.1-0.7,0.2-1.1,0.3c-0.1,0-0.2,0-0.4,0.1l0.2,0.8C79.8,39.7,79.9,39.6,80.1,39.6z M79.7,38.6
		c0.3-0.2,0.6-0.3,0.9-0.5c0,0,0.6-0.4,0.5-0.4c0,0-0.2,0-0.4,0c-0.2,0-0.3,0.1-0.3,0.1c-0.3,0.1-0.7,0.1-1,0.2
		c-0.1,0-0.2,0-0.3,0.1l0.2,0.8C79.4,38.7,79.5,38.7,79.7,38.6z M79.3,37.6c0.3-0.1,0.6-0.3,0.9-0.4c0,0,0.5-0.3,0.5-0.4
		c0-0.1-0.6,0-0.6,0C79.6,36.9,79.3,37,79,37c-0.1,0-0.2,0-0.3,0l0.2,0.8C79,37.8,79.1,37.7,79.3,37.6z M78.9,36.7l0.7-0.4
		c0,0,0.5-0.3,0.5-0.3c0-0.1-0.6,0-0.6,0L78.6,36l-0.3,0l0.2,0.8L78.9,36.7z M78.5,35.7l0.6-0.3c0,0,0.4-0.2,0.4-0.3
		C79.5,35,79,35,79,35l-0.8,0l-0.2,0l0.2,0.8L78.5,35.7z M79,34.3c0-0.1-0.5-0.1-0.5-0.1l-0.7,0l-0.2,0l0.1,0.8l0.4-0.1l0.5-0.2
		C78.6,34.5,79,34.4,79,34.3z M94.3,82.7c0,0,0.2-0.2,0.2-0.2c0-0.1-0.3-0.1-0.3-0.1l-0.4-0.1l-0.1,0l0.2,0.8l0.1,0L94.3,82.7z
		 M94.1,83.9l0.4-0.3c0,0,0.2-0.2,0.2-0.3c0-0.1-0.3-0.1-0.3-0.1l-0.4,0l-0.1,0L94.1,83.9L94.1,83.9z M94.3,84.9l0.5-0.3
		c0,0,0.3-0.2,0.2-0.3c0-0.1-0.4-0.1-0.4-0.1l-0.5,0l-0.2,0l0.2,0.8L94.3,84.9z M94.5,85.9c0.2-0.1,0.4-0.2,0.5-0.4
		c0,0,0.3-0.3,0.2-0.3c0-0.1-0.4,0-0.4,0c-0.2,0-0.3,0-0.5,0.1c-0.1,0-0.2,0-0.2,0l0.2,0.8C94.4,86,94.5,86,94.5,85.9z M94.7,86.9
		c0.2-0.1,0.4-0.3,0.6-0.4c0,0,0.1-0.1,0.1-0.2c0.1-0.1,0.1-0.2,0.1-0.2c-0.1-0.1-0.4,0-0.4,0c-0.2,0-0.4,0.1-0.5,0.1
		c-0.1,0-0.2,0-0.3,0l0.2,0.8C94.6,87,94.7,87,94.7,86.9z M94.9,87.9c0.2-0.1,0.4-0.3,0.6-0.5c0,0,0.1-0.1,0.2-0.2
		c0.1-0.1,0.1-0.2,0.1-0.2c0,0-0.1,0-0.2,0c-0.1,0-0.2,0.1-0.2,0.1c-0.2,0.1-0.4,0.1-0.6,0.1c-0.1,0-0.2,0-0.3,0l0.2,0.8
		C94.8,88,94.8,88,94.9,87.9z M95.1,88.9c0.2-0.1,0.5-0.3,0.7-0.5c0,0,0.1-0.1,0.2-0.2c0.1-0.1,0.1-0.2,0.1-0.3c0,0-0.1,0-0.3,0
		c-0.1,0-0.2,0.1-0.2,0.1c-0.2,0.1-0.4,0.1-0.6,0.2c-0.1,0-0.2,0-0.3,0.1l0.2,0.8C95,89,95,89,95.1,88.9z M95.3,89.9
		c0.3-0.2,0.5-0.3,0.7-0.5c0,0,0.1-0.1,0.2-0.2c0.1-0.1,0.2-0.2,0.1-0.3c0,0-0.2,0-0.3,0C96,89,95.8,89,95.8,89
		c-0.2,0.1-0.4,0.2-0.7,0.2c-0.1,0-0.2,0.1-0.3,0.1l0.3,0.8C95.2,90,95.2,90,95.3,89.9z M95.5,90.9c0.3-0.2,0.6-0.4,0.8-0.6
		c0,0,0.1-0.1,0.2-0.2c0.1-0.1,0.2-0.3,0.1-0.3c0,0-0.2,0-0.3,0.1c-0.1,0.1-0.2,0.1-0.2,0.1c-0.2,0.1-0.5,0.2-0.7,0.2
		c-0.1,0-0.2,0.1-0.3,0.1l0.3,0.8C95.3,91,95.4,91,95.5,90.9z M95.7,91.9c0.3-0.2,0.6-0.4,0.9-0.6c0,0,0.1-0.1,0.2-0.2
		c0.1-0.1,0.2-0.3,0.1-0.3c0,0-0.2,0-0.3,0.1c-0.1,0.1-0.3,0.1-0.3,0.1c-0.3,0.1-0.5,0.2-0.8,0.3c-0.1,0-0.2,0.1-0.4,0.1l0.3,0.7
		C95.5,92,95.6,92,95.7,91.9z M69.7,99.7c0,0,0.1,0,0.1,0l-0.2-0.8c-0.1,0-0.2,0.1-0.3,0.1c-0.4,0.2-0.8,0.5-1.1,0.8
		c0,0-0.5,0.6-0.4,0.7c0.1,0,0.6-0.4,0.7-0.4C68.9,99.9,69.3,99.8,69.7,99.7z M68.2,101.7c0.2-0.1,0.4-0.2,0.4-0.2
		c0.6-0.3,1.1-0.6,1.7-0.7c0,0,0,0,0,0l-0.3-0.7c0,0-0.1,0.1-0.1,0.1c-0.6,0.3-1.1,0.7-1.6,1.1c0,0-0.2,0.2-0.3,0.3
		c-0.2,0.2-0.3,0.4-0.3,0.4C67.8,101.9,68,101.8,68.2,101.7z M68.3,102.9c0.3-0.1,0.6-0.3,0.6-0.3c0.7-0.3,1.4-0.6,2.2-0.7
		c0.1,0,0.1,0,0.2,0L71,101c-0.1,0-0.3,0.1-0.4,0.1c-0.7,0.3-1.4,0.6-2.1,1.1c0,0-0.2,0.2-0.5,0.4c-0.2,0.2-0.4,0.4-0.4,0.5
		C67.7,103.2,68,103,68.3,102.9z M69,103.9c0.9-0.5,1.8-0.8,2.7-0.9c0,0,0,0,0,0l-0.2-0.8c-0.1,0-0.2,0.1-0.3,0.1
		c-0.9,0.3-1.8,0.7-2.6,1.3c0,0-0.3,0.2-0.5,0.5c-0.3,0.2-0.5,0.5-0.5,0.5c0,0,0.3-0.2,0.6-0.4C68.7,104.1,69,103.9,69,103.9z
		 M69.6,105.3c1-0.4,2-0.7,3.1-0.8c0.1,0,0.2,0,0.3,0l-0.1-0.8c-0.2,0-0.4,0.1-0.6,0.1c-1,0.2-2,0.6-2.9,1.1c0,0-0.4,0.2-0.7,0.5
		c-0.3,0.3-0.6,0.6-0.6,0.6c0,0,0.4-0.2,0.8-0.4C69.2,105.5,69.6,105.3,69.6,105.3z M70.8,106.3c0.9-0.3,1.8-0.5,2.7-0.4
		c0.1,0,0.2,0,0.3,0l0-0.8c-0.3,0-0.5,0-0.7,0.1c-0.9,0.1-1.7,0.4-2.5,0.8c0,0-0.3,0.2-0.6,0.4c-0.3,0.2-0.6,0.5-0.5,0.5
		c0,0,0.4-0.1,0.7-0.3C70.4,106.4,70.8,106.3,70.8,106.3z M72,107.2c0.2-0.1,0.4-0.1,0.4-0.1c0.6-0.1,1.2-0.1,1.7-0.1
		c0,0,0.1,0,0.1,0l0.1-0.8c-0.2,0-0.4,0-0.6,0c-0.5,0.1-1,0.2-1.5,0.4c0,0-0.2,0.1-0.4,0.2c-0.2,0.1-0.4,0.3-0.3,0.3
		C71.5,107.3,71.7,107.2,72,107.2z M74.8,108.1C74.8,108.1,74.9,108.1,74.8,108.1l0.3-0.7c-0.2,0-0.5,0-0.7,0c-0.2,0-0.4,0-0.5,0.1
		c0,0-0.6,0.1-0.5,0.2c0,0.1,0.6,0.1,0.6,0.2C74.2,107.9,74.5,108,74.8,108.1z M75.6,109.3L75.6,109.3l0.2-0.8c-0.3,0-0.5,0-0.8,0
		c-0.1,0-0.3,0-0.4,0c0,0-0.5,0.1-0.5,0.2c0,0.1,0.5,0.2,0.5,0.2C75,109,75.3,109.1,75.6,109.3z M75.8,110c0.2,0,0.4,0.1,0.6,0.2
		c0.3,0.1,0.6,0.2,0.9,0.4l0.3-0.7c-0.2-0.1-0.4-0.1-0.6-0.2c-0.4-0.1-0.8-0.1-1.3-0.1c0,0-0.2,0-0.4,0.1c-0.2,0-0.4,0.1-0.4,0.2
		c0,0,0.2,0.1,0.4,0.1C75.6,110,75.8,110,75.8,110z M66.8,16.5c-1.3,0.2-2.2,1.3-2.2,2.6c0.3-0.6,0.6-1,0.9-1.4
		C65.9,17.3,66.3,16.9,66.8,16.5z M66.6,17.7c-0.9,0.1-1.7,1-1.6,1.9c0.3-0.4,0.5-0.7,0.8-1C66,18.3,66.3,18,66.6,17.7z M67,18.3
		c-0.9,0.1-1.7,0.9-1.7,1.8c0.3-0.4,0.6-0.6,0.8-0.9C66.4,18.9,66.7,18.7,67,18.3z M66.3,20c0.3-0.3,0.6-0.6,1-0.8
		c-1-0.1-1.9,0.8-2,1.8C65.7,20.6,66,20.3,66.3,20z M67.8,19.8c-1,0-1.9,0.7-2.1,1.6c0.4-0.3,0.7-0.6,1-0.8
		C67.1,20.4,67.4,20.1,67.8,19.8z M68.1,20.7c-1-0.1-2,0.6-2.2,1.6c0.4-0.3,0.7-0.6,1-0.8C67.3,21.2,67.6,21,68.1,20.7z M68.6,21.3
		c-1-0.1-2,0.5-2.3,1.5c0.4-0.3,0.8-0.6,1.1-0.8C67.8,21.8,68.1,21.6,68.6,21.3z M69.2,22.2c-1.1-0.3-2.4,0.4-2.8,1.5
		c0.4-0.4,0.9-0.6,1.3-0.9C68.2,22.5,68.7,22.3,69.2,22.2z M69.7,23c-1.2-0.4-2.6,0.4-3,1.7c0.4-0.5,0.9-0.8,1.4-1
		C68.6,23.3,69.1,23.1,69.7,23z M69.9,23.7c-1.2-0.3-2.5,0.4-2.9,1.5c0.5-0.4,0.9-0.6,1.4-0.9C68.8,24.1,69.3,23.9,69.9,23.7z
		 M70.2,24.4c-1.2-0.3-2.5,0.3-3.2,1.3c0.5-0.3,1-0.5,1.6-0.7C69,24.8,69.6,24.6,70.2,24.4z M70.7,24.9c-1.4-0.2-2.8,0.5-3.5,1.7
		c0.6-0.4,1.1-0.7,1.7-1C69.4,25.4,70,25.1,70.7,24.9z M82.4,30.1c1.9,0.3,3.4,0.8,5.2,1.5C86.2,30.4,84.3,29.8,82.4,30.1z
		 M87.2,30.6c-1.1-0.8-2.3-1.2-3.7-1.1C84.8,30,85.8,30.3,87.2,30.6z M86.4,29.6c-0.5-0.8-1.6-1-2.4-0.7
		C84.9,29.1,85.5,29.3,86.4,29.6z M84.1,28.2c0.7,0.3,1.1,0.4,1.8,0.6C85.6,28.1,84.8,27.9,84.1,28.2z M85.4,27.8
		c-0.3-0.5-1-0.7-1.5-0.3C84.5,27.8,84.8,27.8,85.4,27.8z M83.9,26.8c0.3,0.4,0.7,0.4,1.2,0.2C84.7,26.6,84.4,26.6,83.9,26.8z
		 M77.8,17.7c0.8,0,1.6,0.1,2.3,0.3c0.7,0.1,1.5,0.3,2.2,0.6C81.1,17.5,79.3,17.1,77.8,17.7z M79.8,18.5c0.9,0.3,1.6,0.5,2.6,0.6
		C81.7,18.4,80.7,18.2,79.8,18.5z M82.7,19.8c-0.6-0.4-1.1-0.6-1.8-0.4C81.5,19.8,82,20,82.7,19.8z M82.7,20.5
		c-0.3-0.4-0.7-0.4-1.1-0.2C81.9,20.7,82.3,20.7,82.7,20.5z M82.3,21c0.1,0.4,0.3,0.5,0.7,0.2C82.8,20.9,82.6,20.9,82.3,21z
		 M102,82.1c-0.3-0.6-0.8-1.1-1.4-1.5c-1.2-0.8-2.6-1-3.9-1.1c-2.7-0.2-5.4,0.5-7.8,1.9c2.5-1.1,5.2-1.5,7.8-1.4
		c1.3,0.1,2.6,0.3,3.7,0.9c1.1,0.6,2.1,1.7,2.1,3.1C102.5,83.4,102.3,82.7,102,82.1z M99.2,57.6c-1.1-0.7-2.3-0.9-3.5-1
		c-2.4,0-4.9,0.5-7.1,1.5c2.4-0.7,4.8-1,7.1-1c1.2,0,2.3,0.2,3.3,0.8c1,0.6,1.8,1.6,1.8,2.9c0.1-0.6,0-1.3-0.3-1.8
		C100.1,58.5,99.7,58,99.2,57.6z M100,78.9c-0.9-0.5-1.8-0.7-2.8-0.8c-2-0.2-3.9,0.3-5.7,1c2-0.3,3.8-0.6,5.7-0.4
		c0.9,0.1,1.8,0.3,2.7,0.6c0.9,0.4,1.7,0.9,2.3,1.7C101.6,80.1,100.9,79.4,100,78.9z M93.6,77.5c1.4-0.4,2.8-0.4,4.2-0.2
		c1.3,0.2,2.6,0.7,3.9,1.6C99.8,76.7,96.3,76,93.6,77.5z M94.8,76.3c1.1-0.1,2.1-0.1,3.1,0.1c1,0.2,2,0.5,3,1
		C99.4,75.8,96.9,75.3,94.8,76.3z M100.6,76.1c-0.4-0.8-1.4-1.3-2.3-1.4c-0.9-0.1-1.8,0.1-2.7,0.3c0.9,0.1,1.8,0.1,2.6,0.2
		C99.1,75.3,99.9,75.5,100.6,76.1z M98.8,58.3c-0.9-0.4-1.8-0.6-2.8-0.7c-1.9-0.2-3.8,0.1-5.6,0.9c1.9-0.4,3.7-0.5,5.5-0.3
		c0.9,0.1,1.8,0.2,2.7,0.5c0.4,0.2,0.8,0.4,1.1,0.7c0.3,0.3,0.6,0.7,0.7,1.2c0-0.5-0.2-1-0.5-1.4C99.6,58.8,99.2,58.5,98.8,58.3z
		 M98.5,59.9c0.6,0.3,1.2,0.7,1.6,1.3c-0.2-0.7-0.8-1.3-1.4-1.7c-0.6-0.4-1.3-0.6-2.1-0.7c-1.4-0.3-2.9-0.2-4.4,0.2
		c1.5-0.1,2.9,0.1,4.2,0.3C97.2,59.5,97.9,59.7,98.5,59.9z M100,62c-0.6-1-1.7-1.6-2.7-1.9c-1.1-0.3-2.2-0.3-3.4-0.1
		c1.1,0.2,2.2,0.4,3.2,0.6C98.2,60.9,99.2,61.3,100,62z M99.8,63.4c-0.2-0.9-1-1.6-1.9-1.9c-0.9-0.3-1.8-0.3-2.7,0
		c0.9,0.1,1.7,0.3,2.5,0.5C98.5,62.3,99.3,62.7,99.8,63.4z M99.7,64.4c-0.6-1.5-2.4-2.3-3.9-1.7c0.8,0.1,1.4,0.3,2.1,0.6
		C98.5,63.6,99.1,63.9,99.7,64.4z M99.9,65.4c-0.7-1.3-2.4-1.9-3.8-1.3c0.8,0.1,1.4,0.2,2,0.5C98.6,64.7,99.2,65,99.9,65.4z
		 M96.4,65.2c0.7,0.1,1.2,0.3,1.8,0.4c0.6,0.2,1.1,0.3,1.7,0.5C99.1,65.1,97.7,64.8,96.4,65.2z M96.7,66.4c0.6,0.1,1.1,0.3,1.6,0.4
		c0.5,0.1,1,0.2,1.6,0.4C99.1,66.2,97.8,65.9,96.7,66.4z M96.9,67.4c1.2,0.4,2.2,0.7,3.4,1C99.4,67.5,98.1,67.1,96.9,67.4z
		 M98.4,74.1c0.6,0.2,1.3,0.4,1.9,0.8c-0.8-1.4-2.7-1.8-4-1C97.1,73.8,97.8,73.9,98.4,74.1z M98.5,73c0.5,0.2,1.1,0.4,1.6,0.9
		c-0.2-0.7-0.8-1.2-1.4-1.4c-0.7-0.2-1.4-0.1-2,0.4C97.4,72.7,97.9,72.8,98.5,73z M97.1,68.6c1.1,0.4,1.9,0.7,3.1,1
		C99.5,68.7,98.2,68.3,97.1,68.6z M100.1,70.7c-0.5-1-1.8-1.4-2.8-0.9c0.5,0.1,1,0.3,1.4,0.4C99.1,70.3,99.6,70.4,100.1,70.7z
		 M100.2,71.7c-0.5-1-1.7-1.4-2.8-1c0.5,0.2,1,0.3,1.4,0.5C99.2,71.3,99.7,71.4,100.2,71.7z M97.2,71.7c0.6,0.1,1.1,0.2,1.6,0.4
		c0.5,0.2,1,0.3,1.5,0.6C99.8,71.5,98.3,71.1,97.2,71.7z M55.5,92.9c-2,0.1-4-0.3-5.8-1c-1.8-0.7-3.5-1.7-5-3.1
		C47.2,92.1,51.4,93.8,55.5,92.9z M40.2,64.3c1.2,2.4,3.3,4.3,5.8,5.3c2.5,1,5.3,1,7.8,0C48.5,70.8,43.3,68.8,40.2,64.3z M45.8,69.9
		c-1.5-0.7-3-1.5-4.3-2.7c1,1.5,2.5,2.6,4.1,3.2c1.6,0.7,3.3,1,5.1,1C49,71.1,47.4,70.6,45.8,69.9z M51.6,91
		c-1.3-0.3-2.4-0.7-3.5-1.2c-1.1-0.5-2.1-1.2-3.1-2C46.5,89.9,49,91.2,51.6,91z M49.1,88.8c-0.6-0.3-1.2-0.6-1.8-0.9
		c-0.6-0.3-1.1-0.6-1.7-1C46.3,88.2,47.7,89,49.1,88.8z M48.8,87.5c-0.7-0.2-1.3-0.5-1.8-0.8c-0.6-0.3-1.1-0.6-1.7-1.1
		C45.9,86.9,47.4,87.7,48.8,87.5z M45.2,84.6c0.9,1.3,2.4,1.9,3.9,1.7C47.7,85.8,46.6,85.3,45.2,84.6z M48.7,85.1
		c-1.2-0.6-2.2-1-3.4-1.6C46,84.6,47.3,85.2,48.7,85.1z M45.2,82.1c0.7,1.3,2.2,2,3.7,1.7c-0.7-0.2-1.3-0.5-1.9-0.7
		C46.4,82.8,45.8,82.5,45.2,82.1z M48.8,82.2c-1.4-0.4-2.6-0.8-4-1.3C45.8,82.1,47.3,82.6,48.8,82.2z M48.8,80.8
		c-0.7-0.1-1.4-0.3-2-0.6c-0.6-0.2-1.2-0.5-1.9-0.9C45.7,80.7,47.3,81.3,48.8,80.8z M48.8,79.5c-1.6-0.5-2.9-1-4.5-1.8
		C45.4,79,47.1,79.7,48.8,79.5z M48.6,78c-1.5-0.5-2.7-1-4.2-1.6C45.4,77.6,47,78.2,48.6,78z M49.1,76.5c-1.9-0.6-3.4-1.2-5.2-2.1
		C45.2,75.9,47.1,76.6,49.1,76.5z M49.4,74.8c-1.1-0.2-2.1-0.5-3.1-0.9c-1-0.4-1.9-0.8-2.9-1.4C44.9,74.2,47.1,75.1,49.4,74.8z
		 M43.5,71.4c1.6,1.3,3.4,2,5.5,1.9C47,72.6,45.4,72.1,43.5,71.4z M50.1,72.2c-1.4-0.2-2.6-0.6-3.8-1c-1.2-0.5-2.4-1-3.6-1.7
		C44.7,71.4,47.4,72.5,50.1,72.2z M96.7,93.1c2.8-1.4,4.9-3.8,5.7-6.8c-0.8,1.4-1.6,2.6-2.5,3.7C99,91.1,97.9,92.1,96.7,93.1z
		 M66.5,112.6c-1,0-2-0.1-2.9-0.4c-0.9-0.3-1.9-0.8-2.6-1.5c0.6,0.9,1.5,1.5,2.4,1.9c1,0.4,2,0.6,3,0.6c1,0,2-0.1,3-0.2
		c1-0.1,2-0.2,3.1-0.4c-1,0-2.1,0-3.1,0C68.5,112.6,67.5,112.6,66.5,112.6z M62.9,126.2c0.5,0.3,1.1,0.6,1.7,0.7
		c1.2,0.2,2.4,0,3.5-0.3c-1.2,0-2.3,0-3.4-0.2c-1.1-0.2-2.1-0.6-2.9-1.5C61.9,125.3,62.4,125.8,62.9,126.2z M66.8,125.8
		c-0.9-0.1-1.7-0.2-2.4-0.5c-0.8-0.2-1.5-0.5-2.3-1C63.2,125.8,65.1,126.4,66.8,125.8z M65.4,124.8c-0.6-0.2-1-0.4-1.5-0.6
		c-0.5-0.2-1-0.4-1.5-0.6C62.9,124.6,64.2,125.1,65.4,124.8z M63.9,123.2c-0.5-0.2-0.9-0.3-1.5-0.6c0.5,1.1,1.9,1.6,3,1
		C64.9,123.5,64.4,123.3,63.9,123.2z M64.6,113.3c-1-0.3-1.9-0.6-3-1c1.7,1.5,3.8,2,6,1.6C66.5,113.8,65.6,113.5,64.6,113.3z
		 M62.2,113.6c0.9,1.2,2.5,1.6,3.9,1.1c-0.7-0.1-1.3-0.2-2-0.4C63.5,114.1,62.9,113.9,62.2,113.6z M62.5,114.9c0.8,1,2.1,1.4,3.3,1
		C64.6,115.5,63.7,115.2,62.5,114.9z M65.2,117c-1-0.4-1.8-0.7-2.9-1C63,116.9,64.2,117.3,65.2,117z M65.3,118.2
		c-0.5-0.1-0.9-0.3-1.4-0.4c-0.4-0.1-0.9-0.3-1.4-0.5C63.1,118.2,64.3,118.6,65.3,118.2z M65.4,119.3c-0.6-0.1-1-0.3-1.5-0.4
		c-0.5-0.1-1-0.3-1.5-0.5C63,119.3,64.3,119.8,65.4,119.3z M65.5,120.3c-1-0.3-1.8-0.5-2.9-0.9C63.2,120.4,64.4,120.8,65.5,120.3z
		 M65.8,121.5c-0.6-0.2-1.1-0.3-1.6-0.5c-0.5-0.2-1-0.4-1.6-0.6C63.2,121.5,64.6,122,65.8,121.5z M64.3,122.3
		c-0.6-0.2-1.2-0.4-1.8-0.7c0.8,1.2,2.4,1.7,3.8,1.1C65.6,122.6,64.9,122.5,64.3,122.3z M84.3,121.4c-0.8,0.5-1.7,0.9-2.7,1.2
		c2.1,0.1,4.1-1,5.2-2.9C85.9,120.4,85.1,120.9,84.3,121.4z M84.4,122.3c-0.6,0.3-1.2,0.6-1.9,0.8c1.5,0.2,3-0.5,3.7-1.8
		C85.5,121.7,85,122,84.4,122.3z M83.3,124.3c1,0.1,2-0.5,2.4-1.4C84.8,123.3,84.1,123.7,83.3,124.3z M83.2,125.3
		c0.8,0.3,1.8-0.1,2.1-0.9c-0.4,0.2-0.7,0.3-1.1,0.4C83.9,124.9,83.6,125.1,83.2,125.3z M83.7,126.4c0.7,0.2,1.5-0.1,1.7-0.9
		C84.7,125.7,84.3,125.9,83.7,126.4z M83.9,127.6c0.7,0.1,1.1-0.2,1.5-0.7C84.7,126.8,84.2,127,83.9,127.6z M83.5,128.7
		c0.8,0.3,1.6,0,2-0.8C84.7,128.1,84.2,128.3,83.5,128.7z M85.3,129.2c-0.7,0-1,0.1-1.5,0.6C84.4,130.1,85.1,129.8,85.3,129.2z
		 M85.3,130.2c-0.4,0.1-0.6,0.1-0.9,0.2c-0.3,0.1-0.5,0.2-0.8,0.4C84.2,131.1,85.1,130.8,85.3,130.2z M82.4,131.9
		c1.1,0.3,2.2,0,3-0.8C84.3,131.2,83.5,131.4,82.4,131.9z M80.1,133.8c2,0.2,3.9-0.6,5.2-2.1c-0.9,0.5-1.7,0.9-2.5,1.2
		C81.9,133.2,81,133.5,80.1,133.8z M75.9,113.2c1.4,0.1,2.7,0.4,4,0.7c1.3,0.3,2.5,0.8,3.8,1.4C81.5,113.5,78.7,112.8,75.9,113.2z
		 M78.6,114.1c1.4,0.8,2.7,1.2,4.2,1.6C81.6,114.7,80.2,114.2,78.6,114.1z M79.7,115.2c0.8,0.6,1.3,0.9,2.2,1.3
		C81.6,115.6,80.7,115.1,79.7,115.2z M77.3,127.6c-1.8-1.4-4.1-1.9-6.3-1.3c1.1,0.1,2.2,0.3,3.2,0.5C75.2,127,76.2,127.2,77.3,127.6
		z M56.7,69.6c2.6-0.2,5.1-0.9,7.5-1.7c2.4-0.8,4.7-1.9,6.9-2.9c4.5-2.1,8.8-4.5,13.8-6.1c-5.1,1.2-9.5,3.4-14,5.6
		C66.5,66.6,61.9,68.7,56.7,69.6z M66,90.8c2.4-0.8,4.6-1.8,6.9-2.7c4.5-1.9,9.1-3.9,13.7-6.1c-4.8,1.8-9.4,3.6-13.9,5.6
		c-4.6,1.9-9,4.1-14.2,5C61.2,92.3,63.6,91.6,66,90.8z"/>
	<g>
		<g>
			<g>
				<path fill="#A27049" d="M55.9,86.8c0,0-0.1,0-0.1,0c0,0,0-0.1,0-0.1c0.1-0.2,0.3-0.6,0.2-0.8c0,0-1.9-3.4-1.9-3.4
					c0,0.3,0,0.8,0.1,1.6c0.1,1.1,0.4,2.1,0.6,2.7c0.1,0.5,0.1,0.5,0,0.5l-0.4,0.2c-0.1,0-0.1,0-0.3-0.4c-0.3-0.5-0.8-1.5-1.4-2.4
					c-0.4-0.7-0.8-1-1-1.3l0.9,3.8c0.1,0.2,0.5,0.4,0.7,0.5c0,0,0.1,0,0.1,0.1c0,0,0,0.1-0.1,0.1l-2.8,1.1c0,0-0.1,0-0.1,0
					c0,0,0-0.1,0-0.1c0,0,0.4-0.6,0.3-1l-0.6-2.5C50,85,49.5,85,49.5,85c0,0-0.1,0-0.1-0.1c0,0,0-0.1,0-0.1c0,0,0.4-0.4,0.3-0.8
					l-0.1-0.4c0,0-0.1,0-0.1,0c-0.6,0.2-1.1-0.1-1.1-0.2c0,0,0-0.1,0-0.1c0,0,0-0.1,0.1-0.1c0,0,0,0,0,0l0,0c0,0,0,0,0.1,0
					c0.2-0.1,0.5-0.3,0.6-0.8c0.2-0.6-0.3-1.4-0.5-1.6c-0.2-0.2-0.5-0.2-0.5-0.2c0,0-0.1,0-0.1-0.1c0,0,0-0.1,0.1-0.1l3-1.2
					c0,0,0.1,0,0.1,0c0,0,0,0.1,0,0.1c0,0-0.1,0.2-0.2,0.4c0,0-0.1,0.3,0,0.4c0.1,0.2,1.3,1.8,1.8,2.5c-0.1-0.8-0.3-2.9-0.3-3.1
					c0-0.2-0.3-0.3-0.3-0.3c0,0,0,0,0,0c-0.2-0.1-0.5-0.2-0.5-0.2c0,0-0.1,0-0.1-0.1c0,0,0-0.1,0.1-0.1l2.8-1.1c0,0,0.1,0,0.1,0
					c0,0,0,0.1,0,0.1c-0.1,0.2-0.2,0.7-0.1,0.9c0,0,0,0.1,0.1,0.1c0,0,0,0.1,0,0.1l1.3,2.3c0.2,0.3,0.6,0.4,0.8,0.4
					c0,0,0.1,0,0.1,0.1c0,0,0,0.1,0,0.1c0,0-0.3,0.4-0.2,0.7l1.2,2.2c0.2,0.4,0.9,0.5,0.9,0.5c0,0,0.1,0,0.1,0.1c0,0,0,0.1-0.1,0.1
					L55.9,86.8z"/>
			</g>
			<g>
				<path fill="#A27049" d="M54.5,78.2c0,0-0.3,0.6-0.2,1c0,0.1,0.1,0.1,0.1,0.2l1.3,2.3c0.2,0.4,0.9,0.4,0.9,0.4s-0.4,0.4-0.2,0.8
					l1.2,2.2h0c0.2,0.4,1,0.5,1,0.5l-0.5,0.2l-1.7,0.6l-0.6,0.2c0,0,0.4-0.6,0.2-0.9l0,0c0,0,0,0,0,0L54,82.1c0,0.2-0.1,0.8,0.1,2
					c0.2,1.5,0.7,3.1,0.7,3.1s-0.2,0.1-0.2,0.1s-0.2,0.1-0.2,0.1c0,0-0.7-1.5-1.6-2.8c-0.7-0.9-1.1-1.3-1.3-1.5l1,4.1c0,0,0,0,0,0
					c0.1,0.3,0.8,0.5,0.8,0.5L52.6,88l-1.7,0.6l-0.5,0.2c0,0,0.5-0.6,0.4-1l-0.6-2.5c-0.1-0.4-0.7-0.4-0.7-0.4s0.5-0.4,0.4-0.9
					l-0.1-0.5c0,0,0,0-0.1,0c0,0-0.1,0-0.1,0.1c-0.5,0.2-1-0.1-1-0.1s0,0,0.1,0c0.2-0.1,0.5-0.3,0.7-0.8c0.2-0.7-0.3-1.5-0.6-1.7
					c-0.3-0.2-0.6-0.2-0.6-0.2l0.2-0.1l0.6-0.2l0.3-0.1l1.3-0.5l0.5-0.2c0,0-0.2,0.2-0.3,0.5l0,0c0,0-0.1,0.3,0,0.5
					c0.1,0.2,2,2.8,2,2.8s-0.3-3.2-0.4-3.5c0-0.2-0.3-0.4-0.3-0.4l0,0c-0.3-0.1-0.5-0.2-0.5-0.2l0.5-0.2l1.7-0.6L54.5,78.2 M54.5,78
					l-0.6,0.2l-1.7,0.6l-0.5,0.2c-0.1,0-0.1,0.1-0.1,0.2c0,0.1,0.1,0.2,0.2,0.2c0,0,0.2,0,0.5,0.2c0,0,0,0,0,0
					c0.1,0,0.2,0.1,0.2,0.3c0,0.2,0.2,1.7,0.3,2.7c-0.6-0.9-1.5-2.1-1.6-2.2c-0.1-0.1,0-0.3,0-0.3c0.1-0.2,0.2-0.4,0.2-0.4
					c0.1-0.1,0.1-0.2,0-0.2c-0.1-0.1-0.1-0.1-0.2-0.1l-0.5,0.2l-1.3,0.5l-0.3,0.1l-0.6,0.2l-0.2,0.1c-0.1,0-0.1,0.1-0.1,0.2
					c0,0.1,0.1,0.2,0.2,0.2c0,0,0.2,0,0.5,0.2c0.2,0.1,0.7,0.9,0.5,1.5c-0.1,0.5-0.4,0.6-0.6,0.7c0,0-0.1,0-0.1,0c0,0,0,0,0,0
					c-0.1,0-0.1,0.1-0.1,0.1c0,0.1,0,0.2,0.1,0.2c0,0,0.6,0.4,1.2,0.2l0.1,0.2c0.1,0.3-0.2,0.6-0.3,0.7c-0.1,0.1-0.1,0.1,0,0.2
					c0,0.1,0.1,0.1,0.2,0.1c0,0,0.4,0,0.5,0.3l0.6,2.5c0.1,0.3-0.2,0.7-0.3,0.9c-0.1,0.1-0.1,0.2,0,0.2c0.1,0.1,0.1,0.1,0.2,0.1
					l0.5-0.2l1.7-0.6l0.6-0.2c0.1,0,0.1-0.1,0.1-0.2c0-0.1-0.1-0.2-0.1-0.2c-0.2-0.1-0.6-0.3-0.6-0.4l-0.8-3.5
					c0.2,0.2,0.5,0.5,0.8,1c0.6,0.9,1.1,1.9,1.4,2.4c0.1,0.1,0.1,0.2,0.1,0.3c0,0.1,0.1,0.2,0.3,0.2l0.2-0.1l0.2-0.1
					c0.2-0.1,0.1-0.2,0.1-0.3c0-0.1,0-0.2-0.1-0.3c-0.2-0.6-0.4-1.6-0.6-2.7c-0.1-0.6-0.1-1-0.1-1.3l1.7,3.1c0,0,0,0,0,0
					c0.1,0.1,0,0.5-0.2,0.7c0,0.1,0,0.2,0,0.2c0.1,0.1,0.1,0.1,0.2,0.1l0.6-0.2l1.7-0.6l0.5-0.2c0.1,0,0.1-0.1,0.1-0.2
					c0-0.1-0.1-0.2-0.2-0.2c-0.2,0-0.7-0.2-0.8-0.4l-1.2-2.2c-0.1-0.2,0.1-0.5,0.2-0.6c0-0.1,0.1-0.1,0-0.2c0-0.1-0.1-0.1-0.2-0.1
					c-0.2,0-0.6-0.1-0.7-0.3l-1.3-2.3c0,0,0-0.1,0-0.1c0,0,0-0.1,0-0.1c-0.1-0.2,0.1-0.6,0.1-0.8c0-0.1,0-0.2,0-0.2
					C54.6,78,54.6,78,54.5,78L54.5,78z"/>
			</g>
			<g>
				<path fill="#DADADA" d="M57.7,84.9L57.7,84.9l-1.2-2.2c-0.2-0.3,0.2-0.8,0.2-0.8s-0.6,0-0.9-0.4l0,0l-1.3-2.3
					c0-0.1-0.1-0.1-0.1-0.2c-0.1-0.3,0.2-1,0.2-1l-0.6,0.2l-1.7,0.6l-0.5,0.2c0,0,0.3,0,0.5,0.2l0,0c0,0,0.3,0.2,0.3,0.4
					c0,0.2,0.4,3.5,0.4,3.5s-1.9-2.6-2-2.8c-0.1-0.2,0-0.5,0-0.5l0,0c0.1-0.3,0.3-0.5,0.3-0.5l-0.5,0.2L49.2,80l-0.3,0.1l-0.6,0.2
					l-0.2,0.1c0,0,0.3,0,0.6,0.2c0.3,0.2,0.8,1.1,0.6,1.7c-0.2,0.8-0.8,0.9-0.8,0.9s0.5,0.4,1.1,0.1c0,0,0,0,0.1,0l0.1,0.5
					c0.1,0.4-0.4,0.9-0.4,0.9s0.6,0,0.7,0.4l0.6,2.5c0.1,0.4-0.4,1-0.4,1l0.5-0.2l1.7-0.6l0.6-0.2c0,0-0.7-0.2-0.8-0.5c0,0,0,0,0,0
					l-1-4.1c0.2,0.1,0.6,0.5,1.3,1.5c0.9,1.3,1.5,2.8,1.6,2.8c0,0,0.2-0.1,0.2-0.1s0.2-0.1,0.2-0.1s-0.5-1.6-0.7-3.1
					c-0.2-1.2-0.1-1.8-0.1-2l2.1,3.7c0,0,0,0,0,0l0,0c0.2,0.3-0.2,0.9-0.2,0.9l0.6-0.2l1.7-0.6l0.5-0.2
					C58.6,85.4,57.9,85.3,57.7,84.9z"/>
				<path fill="#161616" d="M58.7,85.5l-2.8,1.1c0,0-0.1,0-0.1,0c0,0,0-0.1,0-0.1c0.1-0.2,0.3-0.6,0.2-0.8c0,0,0,0,0,0L54,82.2
					c0,0.3,0,0.8,0.1,1.7c0.1,1.1,0.4,2.1,0.6,2.7c0.1,0.5,0.1,0.5,0,0.5l-0.4,0.2c-0.1,0-0.1,0-0.3-0.4c-0.3-0.5-0.8-1.5-1.4-2.4
					c-0.5-0.7-0.8-1.1-1.1-1.3l0.9,3.9c0.1,0.2,0.5,0.4,0.7,0.5c0,0,0.1,0,0.1,0.1c0,0,0,0.1-0.1,0.1l-2.8,1.1c0,0-0.1,0-0.1,0
					c0,0,0-0.1,0-0.1c0,0,0.4-0.6,0.3-1L50,85.2c-0.1-0.3-0.6-0.4-0.6-0.4c0,0-0.1,0-0.1-0.1c0,0,0-0.1,0-0.1c0,0,0.4-0.4,0.3-0.8
					l-0.1-0.4c-0.6,0.3-1.2-0.1-1.2-0.1c0,0,0-0.1,0-0.1c0,0,0-0.1,0.1-0.1c0,0,0.5-0.1,0.7-0.8c0.2-0.6-0.3-1.5-0.5-1.7
					c-0.2-0.2-0.5-0.2-0.5-0.2c0,0-0.1,0-0.1-0.1s0-0.1,0.1-0.1l3-1.2c0,0,0.1,0,0.1,0c0,0,0,0.1,0,0.1c0,0-0.2,0.2-0.3,0.4
					c0,0-0.1,0.3,0,0.4c0.1,0.2,1.4,1.9,1.9,2.6c-0.1-0.8-0.3-3-0.3-3.2c0-0.2-0.3-0.3-0.3-0.3c0,0,0,0,0,0
					c-0.2-0.1-0.5-0.2-0.5-0.2c0,0-0.1,0-0.1-0.1c0,0,0-0.1,0.1-0.1l2.8-1.1c0,0,0.1,0,0.1,0c0,0,0,0.1,0,0.1
					c-0.1,0.2-0.2,0.7-0.2,0.9c0,0,0,0.1,0.1,0.1c0,0,0,0.1,0,0.1l1.3,2.3c0.2,0.3,0.8,0.4,0.8,0.4c0,0,0.1,0,0.1,0c0,0,0,0.1,0,0.1
					c0,0-0.3,0.4-0.2,0.7l1.2,2.2c0.2,0.4,0.9,0.5,0.9,0.5C58.7,85.4,58.7,85.4,58.7,85.5C58.7,85.5,58.7,85.5,58.7,85.5z M56,86.4
					l2.4-0.9c-0.2-0.1-0.6-0.2-0.8-0.5c0,0,0,0,0,0l-1.2-2.2c-0.2-0.3,0-0.6,0.1-0.8c-0.2,0-0.6-0.1-0.8-0.4l-1.3-2.3
					c0,0,0-0.1,0-0.1c0,0,0-0.1-0.1-0.1c-0.1-0.2,0-0.6,0.1-0.8L52,79.1c0.1,0,0.2,0.1,0.3,0.1c0,0,0,0,0,0c0.1,0,0.3,0.2,0.4,0.4
					c0,0.2,0.4,3.3,0.4,3.5c0,0.1-0.1,0.1-0.1,0.1c-0.1-0.1-1.9-2.6-2-2.8c-0.1-0.2,0-0.6,0-0.6c0-0.1,0.1-0.2,0.1-0.3l-2.5,1
					c0.1,0,0.2,0.1,0.3,0.2c0.3,0.2,0.8,1.1,0.6,1.8c-0.2,0.5-0.5,0.8-0.7,0.9c0.2,0.1,0.5,0.2,0.9,0c0,0,0,0,0.1,0c0,0,0,0,0.1,0
					c0,0,0,0,0,0.1l0.1,0.5c0.1,0.3-0.1,0.7-0.3,0.8c0.2,0,0.5,0.2,0.6,0.5l0.6,2.5c0.1,0.3-0.1,0.7-0.2,0.9l2.4-0.9
					c-0.2-0.1-0.6-0.3-0.6-0.5l-1-4.1c0,0,0-0.1,0-0.1c0,0,0.1,0,0.1,0c0.2,0.2,0.6,0.6,1.3,1.5c0.6,0.9,1.1,1.9,1.4,2.4
					c0.1,0.1,0.1,0.2,0.2,0.3l0.3-0.1c0-0.1,0-0.2-0.1-0.3c-0.2-0.6-0.4-1.7-0.6-2.7c-0.2-1.2-0.1-1.8-0.1-2c0,0,0-0.1,0.1-0.1
					c0,0,0.1,0,0.1,0l2.1,3.7c0,0,0,0,0,0C56.2,85.8,56.1,86.2,56,86.4z"/>
			</g>
			<g>
				<path fill="#141414" d="M51.9,87.6c0,0-0.2-0.1-0.3-0.3c-0.1-0.1-0.2-0.3-0.2-0.3s0,0.2,0,0.4c0,0.2-0.1,0.4-0.1,0.4L51.9,87.6z
					"/>
			</g>
			<g>
				<path fill="#141414" d="M56.7,85.8c0,0,0.1-0.2,0.1-0.4c0-0.2,0-0.4,0-0.4s0.1,0.2,0.3,0.3c0.2,0.2,0.4,0.2,0.4,0.2L56.7,85.8z"
					/>
			</g>
			<g>
				<path fill="#141414" d="M53.7,78.9c0,0-0.1,0.2-0.1,0.4c0,0.2,0,0.4,0,0.4s-0.1-0.2-0.3-0.3c-0.2-0.2-0.4-0.2-0.4-0.2L53.7,78.9
					z"/>
			</g>
			<g>
				<path fill="#141414" d="M49.5,80.5c0,0,0.2,0.1,0.3,0.3c0.1,0.1,0.2,0.3,0.2,0.3s0-0.2,0-0.4c0-0.2,0.1-0.4,0.1-0.4L49.5,80.5z"
					/>
			</g>
		</g>
		<g>
			<g>
				<path fill="#A27049" d="M64.1,83.6c0,0-0.1,0-0.1,0c0,0,0-0.1,0-0.1c0.1-0.1,0.4-0.6,0.2-0.8L63,81l-1.8,0.7l0.2,1.9
					c0,0,0,0,0,0.1c0,0.3,0.5,0.4,0.7,0.5c0,0,0.1,0,0.1,0.1c0,0,0,0.1-0.1,0.1l-2.8,1.1c0,0-0.1,0-0.1,0c0,0,0-0.1,0-0.1
					c0,0,0.4-0.5,0.4-1l-0.2-1.9c0-0.4-0.5-0.4-0.5-0.4c0,0-0.1,0-0.1-0.1c0,0,0-0.1,0-0.1c0,0,0.4-0.4,0.4-0.7l-0.1-1
					c0,0,0,0-0.1,0c-0.6,0.2-1.1-0.1-1.1-0.2c0,0,0-0.1,0-0.1c0,0,0-0.1,0.1-0.1c0,0,0,0,0,0l0,0c0,0,0,0,0.1,0
					c0.2-0.1,0.5-0.3,0.6-0.8c0.2-0.6-0.3-1.4-0.5-1.6C58,77,57.7,77,57.7,77c0,0-0.1,0-0.1-0.1c0,0,0-0.1,0.1-0.1l4.3-1.7
					c0,0,0.1,0,0.1,0s0,0.1,0,0.1c-0.1,0.1-0.3,0.5-0.2,0.8l2.1,3c0.2,0.3,0.8,0.3,0.8,0.3c0,0,0.1,0,0.1,0.1c0,0,0,0.1,0,0.1
					c0,0-0.3,0.4-0.1,0.7c0,0,0,0,0,0l0.4,0.6c0,0,0.4,0.6,0.7,1c0.3,0.4,0.9,0.5,0.9,0.5c0,0,0.1,0,0.1,0.1c0,0,0,0.1-0.1,0.1
					L64.1,83.6z M62.3,79.9l-1.5-2.2l0.3,2.7L62.3,79.9z"/>
			</g>
			<g>
				<path fill="#A27049" d="M62,75.2c0,0-0.4,0.6-0.3,0.9l2.1,3c0,0,0,0,0,0c0.3,0.4,0.9,0.3,0.9,0.3s-0.3,0.4-0.1,0.8c0,0,0,0,0,0
					l0.4,0.6c0,0,0.4,0.6,0.7,1c0.3,0.4,1,0.5,1,0.5L64,83.5c0,0,0.4-0.6,0.2-0.9l-1.2-1.7l-1.9,0.7l0.2,2c0,0,0,0,0,0.1
					c0.1,0.4,0.8,0.6,0.8,0.6l-0.7,0.3l-1.6,0.6l-0.5,0.2c0,0,0.5-0.6,0.4-1.1l-0.2-1.9c-0.1-0.4-0.6-0.5-0.6-0.5s0.5-0.4,0.4-0.8
					l0,0l-0.1-1.2c0,0,0,0,0,0c0,0-0.1,0-0.1,0.1c-0.5,0.2-1-0.1-1-0.1s0,0,0.1,0c0.2-0.1,0.5-0.3,0.7-0.8c0.2-0.7-0.3-1.5-0.6-1.7
					c-0.3-0.2-0.6-0.2-0.6-0.2l1.1-0.4l0,0l0.4-0.1l0.5-0.2l0.7-0.3l0.9-0.4L62,75.2 M61,80.5l1.4-0.6l-1.8-2.6L61,80.5 M62,75
					l-0.7,0.3l-0.9,0.4l-0.7,0.3l-0.5,0.2l-0.4,0.1l0,0l-1.1,0.4c-0.1,0-0.1,0.1-0.1,0.2c0,0.1,0.1,0.2,0.2,0.2c0,0,0.2,0,0.5,0.2
					c0.2,0.2,0.7,1,0.5,1.5c-0.1,0.5-0.4,0.6-0.6,0.7c0,0-0.1,0-0.1,0c0,0,0,0,0,0c-0.1,0-0.1,0.1-0.1,0.1c0,0.1,0,0.2,0.1,0.2
					c0,0,0.5,0.4,1.1,0.2l0.1,0.9c0,0.3-0.4,0.6-0.4,0.6c-0.1,0-0.1,0.1-0.1,0.2c0,0.1,0.1,0.1,0.2,0.1c0,0,0.4,0.1,0.4,0.4l0.2,1.9
					c0,0.3-0.2,0.8-0.4,0.9c-0.1,0.1-0.1,0.2,0,0.2c0.1,0.1,0.1,0.1,0.2,0.1l0.5-0.2l1.6-0.6l0.7-0.3c0.1,0,0.1-0.1,0.1-0.2
					c0-0.1-0.1-0.2-0.2-0.2c-0.2-0.1-0.6-0.2-0.6-0.4c0,0,0,0,0-0.1l-0.2-1.8l1.7-0.6l1.1,1.6c0.1,0.2-0.1,0.5-0.2,0.7
					c-0.1,0.1-0.1,0.2,0,0.2c0.1,0.1,0.1,0.1,0.2,0.1l2.8-1.1c0.1,0,0.1-0.1,0.1-0.2c0-0.1-0.1-0.2-0.2-0.2c-0.2,0-0.7-0.2-0.9-0.4
					c-0.3-0.4-0.7-1-0.7-1l-0.4-0.6c0,0,0,0,0,0c-0.2-0.2,0.1-0.6,0.1-0.6c0-0.1,0.1-0.1,0-0.2c0-0.1-0.1-0.1-0.2-0.1
					c-0.1,0-0.5,0-0.7-0.2c0,0,0,0,0,0L62,76c-0.1-0.2,0.1-0.5,0.2-0.7c0.1-0.1,0-0.2,0-0.2C62.1,75,62.1,75,62,75L62,75z
					 M61.2,80.2l-0.3-2.1l1.2,1.8L61.2,80.2L61.2,80.2z"/>
			</g>
			<g>
				<path fill="#DADADA" d="M65.8,81.7c-0.3-0.4-0.7-1-0.7-1l-0.4-0.6c0,0,0,0,0,0c-0.2-0.4,0.1-0.8,0.1-0.8s-0.6,0-0.9-0.3
					c0,0,0,0,0,0l-2.1-3C61.6,75.5,62,75,62,75l-0.7,0.3l-0.9,0.4l-0.7,0.3l-0.5,0.2l-0.4,0.1l0,0l-1.1,0.4c0,0,0.3,0,0.6,0.2
					c0.3,0.2,0.8,1.1,0.6,1.7c-0.2,0.8-0.8,0.9-0.8,0.9s0.5,0.4,1.1,0.1c0,0,0,0,0,0l0.1,1.2l0,0c0.1,0.4-0.4,0.8-0.4,0.8
					s0.5,0.1,0.6,0.5l0.2,1.9c0.1,0.5-0.4,1.1-0.4,1.1l0.5-0.2l1.6-0.6l0.7-0.3c0,0-0.7-0.2-0.8-0.6c0,0,0,0,0-0.1l-0.2-2l1.9-0.7
					l1.2,1.7c0.2,0.3-0.2,0.9-0.2,0.9l2.8-1.1C66.8,82.2,66,82.1,65.8,81.7z M60.9,80.3l-0.4-3.2l1.8,2.6L60.9,80.3z"/>
				<path fill="#161616" d="M66.8,82.3L64,83.3c0,0-0.1,0-0.1,0c0,0,0-0.1,0-0.1c0.1-0.2,0.4-0.6,0.2-0.8L63,80.7l-1.8,0.7l0.2,1.9
					c0,0,0,0,0,0.1c0,0.3,0.5,0.4,0.7,0.5c0,0,0.1,0,0.1,0.1c0,0,0,0.1-0.1,0.1l-2.8,1.1c0,0-0.1,0-0.1,0c0,0,0-0.1,0-0.1
					c0,0,0.4-0.5,0.4-1l-0.2-1.9c0-0.4-0.5-0.5-0.5-0.5c0,0-0.1,0-0.1-0.1c0,0,0-0.1,0-0.1c0,0,0.5-0.4,0.4-0.7l-0.1-1.1
					c-0.6,0.3-1.1-0.1-1.2-0.1c0,0,0-0.1,0-0.1c0,0,0-0.1,0.1-0.1c0,0,0.5-0.1,0.7-0.8c0.2-0.6-0.3-1.4-0.5-1.7
					c-0.2-0.2-0.5-0.2-0.5-0.2c0,0-0.1,0-0.1-0.1c0,0,0-0.1,0.1-0.1l4.3-1.7c0,0,0.1,0,0.1,0c0,0,0,0.1,0,0.1
					c-0.1,0.1-0.3,0.6-0.2,0.8l2.1,3c0.2,0.3,0.8,0.3,0.8,0.3c0,0,0.1,0,0.1,0c0,0,0,0.1,0,0.1c0,0-0.3,0.4-0.1,0.7c0,0,0,0,0,0
					l0.4,0.6c0,0,0.4,0.6,0.7,1l0,0c0.3,0.4,1,0.5,1,0.5C66.8,82.1,66.8,82.1,66.8,82.3C66.9,82.2,66.8,82.2,66.8,82.3z M64.2,83.1
					l2.3-0.9c-0.3-0.1-0.6-0.2-0.8-0.5c-0.3-0.4-0.7-1-0.7-1l-0.4-0.6c-0.2-0.3-0.1-0.6,0-0.8c-0.2,0-0.6-0.1-0.8-0.4l-2.1-3
					c0,0,0,0,0,0c-0.1-0.2,0-0.6,0.1-0.8l-3.8,1.5c0.1,0,0.2,0.1,0.3,0.2c0.3,0.3,0.8,1.1,0.6,1.8c-0.2,0.5-0.5,0.8-0.7,0.9
					c0.2,0.1,0.5,0.2,0.9,0l0,0c0,0,0.1,0,0.1,0c0,0,0,0,0,0.1l0.1,1.2c0,0.3-0.2,0.6-0.4,0.8c0.2,0.1,0.5,0.2,0.5,0.6l0.2,1.9
					c0,0.3-0.1,0.7-0.3,0.9l2.3-0.9c-0.2-0.1-0.6-0.3-0.6-0.6c0,0,0,0,0,0l-0.2-2c0,0,0-0.1,0.1-0.1l1.9-0.7c0,0,0.1,0,0.1,0
					l1.2,1.7C64.4,82.5,64.3,82.9,64.2,83.1z M62.4,79.8L61,80.4c0,0,0,0-0.1,0c0,0,0,0,0-0.1l-0.4-3.2c0-0.1,0.1-0.1,0.1-0.1
					l1.8,2.6C62.4,79.7,62.5,79.7,62.4,79.8C62.4,79.8,62.4,79.8,62.4,79.8z M61,80.2l1.2-0.5l-1.6-2.3L61,80.2z"/>
			</g>
			<g>
				<path fill="#141414" d="M59.1,76.8l0.4-0.2c0,0,0.2,0.2,0.2,0.7c0,0.4-0.3,0.9-0.3,0.9s0.1-0.4,0-0.8
					C59.3,77,59.1,76.8,59.1,76.8z"/>
			</g>
			<g>
				<path fill="#141414" d="M61,83.9c0,0-0.2-0.1-0.3-0.3c-0.1-0.2-0.2-0.5-0.2-0.5s0,0.4,0,0.6c0,0.2-0.2,0.4-0.2,0.4L61,83.9z"/>
			</g>
			<g>
				<path fill="#141414" d="M64.7,82.4c0,0,0.1-0.2,0.1-0.4c0-0.2-0.2-0.5-0.2-0.5s0.2,0.3,0.4,0.4c0.2,0.2,0.4,0.2,0.4,0.2
					L64.7,82.4z"/>
			</g>
		</g>
		<g>
			<g>
				<path fill="#A27049" d="M70.8,80.9C70,81.2,67,82,65.7,78.5c-1.2-3.1,0.3-4.9,1.8-5.5c0.9-0.4,1.7-0.4,2.4,0
					c0.7,0.4,1.3,1,1.4,1c0,0,0,0.1,0,0.1c0,0-0.3,0.7-0.4,1.1c-0.2,0.5-0.5,0.9-0.9,1c0,0,0,0,0,0c-0.4,0.2-0.7,0-0.7,0
					c0,0,0,0,0-0.1c0,0,0-0.1,0-0.1c0,0,0.5-0.4,0-1.3c-0.5-0.9-1.2-1-1.5-0.9l0,0c-0.8,0.3-1.1,1.6-0.2,3.9
					c0.6,1.6,1.3,2.2,1.9,2.4c0.2,0.1,0.5,0.2,0.9,0.1c0.3-0.1,0.7-0.6,0.6-1.3c0-0.2-0.1-0.4-0.2-0.5c0,0.2-0.1,0.4-0.4,0.7
					c-0.1,0.1-0.2,0.2-0.4,0.2c-0.4,0.2-0.8,0-0.8,0c0,0-0.1,0-0.1-0.1c0,0,0-0.1,0-0.1c0,0,0.3-0.2,0.4-0.6
					c0.1-0.4-0.2-0.8-0.2-0.8c0,0,0-0.1,0-0.1c0,0,0,0,0,0c0,0,0,0,0,0c0,0,0.5,0.1,1-0.1c0.1,0,0.2-0.1,0.3-0.1
					c0.8-0.5,1-1.2,1-1.2c0,0,0-0.1,0.1-0.1c0,0,0,0,0,0c0,0,0.1,0,0.1,0c0,0,0.8,1.1,0.8,2.4C72.6,79.6,72,80.5,70.8,80.9z"/>
			</g>
			<g>
				<path fill="#A27049" d="M67.5,73c0.8-0.3,1.6-0.4,2.3,0c0.7,0.3,1.3,1,1.3,1s-0.3,0.7-0.4,1.1c-0.2,0.5-0.5,0.8-0.8,1
					c0,0,0,0,0,0c-0.4,0.1-0.6,0-0.6,0s0.5-0.4,0.1-1.4c-0.4-0.9-1.2-1.1-1.6-1c0,0,0,0,0,0c-0.8,0.3-1.2,1.7-0.3,4
					c0.6,1.5,1.3,2.2,1.9,2.4c0.2,0.1,0.6,0.2,1,0.1c0.4-0.1,0.8-0.7,0.7-1.4c-0.1-0.5-0.4-0.7-0.4-0.7s0.1,0.4-0.4,0.9
					c-0.1,0.1-0.2,0.2-0.3,0.2c-0.4,0.1-0.7,0-0.7,0s0.4-0.2,0.5-0.7c0.1-0.4-0.3-0.9-0.3-0.9s0.5,0.1,1-0.1c0.1,0,0.2-0.1,0.3-0.1
					c0.8-0.5,1-1.3,1-1.3s0.8,1,0.8,2.4c0,1.1-0.5,1.9-1.7,2.4c-1.7,0.6-3.9,0.5-5.1-2.4C64.6,75.5,65.9,73.7,67.5,73 M67.5,72.9
					c-0.9,0.4-1.7,1-2,1.9c-0.4,1-0.4,2.3,0.1,3.7c1.4,3.7,4.4,2.8,5.3,2.5c1.2-0.5,1.8-1.4,1.8-2.6c0-1.4-0.8-2.4-0.9-2.5
					c0-0.1-0.1-0.1-0.2-0.1c0,0,0,0,0,0c-0.1,0-0.1,0.1-0.1,0.1c0,0-0.2,0.7-0.9,1.2c-0.1,0.1-0.2,0.1-0.3,0.1
					c-0.5,0.2-0.9,0.1-0.9,0.1c0,0-0.1,0-0.1,0c0,0-0.1,0-0.1,0.1c0,0.1,0,0.2,0,0.2c0,0,0.3,0.4,0.2,0.8c-0.1,0.3-0.4,0.5-0.4,0.5
					c-0.1,0-0.1,0.1-0.1,0.2c0,0.1,0.1,0.1,0.1,0.2c0,0,0.4,0.1,0.8,0c0.1-0.1,0.3-0.1,0.4-0.2c0.2-0.2,0.3-0.4,0.4-0.5
					c0,0.1,0.1,0.2,0.1,0.3c0.1,0.6-0.3,1.1-0.6,1.2c-0.3,0.1-0.7,0-0.8-0.1c-0.5-0.2-1.2-0.8-1.8-2.3c-0.8-2.2-0.5-3.5,0.2-3.8
					c0,0,0,0,0,0c0.3-0.1,0.9,0,1.3,0.9c0.4,0.8,0,1.1,0,1.1c0,0-0.1,0.1-0.1,0.2c0,0.1,0,0.1,0.1,0.2c0,0,0.3,0.2,0.8,0.1l0,0
					c0.4-0.2,0.8-0.6,1-1.1c0.2-0.5,0.4-1.1,0.4-1.1c0-0.1,0-0.2,0-0.2c0,0-0.6-0.6-1.4-1C69.2,72.5,68.4,72.5,67.5,72.9L67.5,72.9z
					"/>
			</g>
			<g>
				<path fill="#DADADA" d="M69.3,75.8c0,0,0.2,0.2,0.6,0c0.4-0.1,0.7-0.5,0.9-1c0.2-0.5,0.4-1.1,0.4-1.1s-0.6-0.6-1.3-1
					c-0.7-0.3-1.5-0.3-2.3,0c-1.6,0.6-2.9,2.5-1.8,5.4c1.1,2.9,3.4,3,5.1,2.4c1.2-0.5,1.7-1.3,1.7-2.4c0-1.3-0.8-2.4-0.8-2.4
					s-0.2,0.8-1,1.3c-0.6,0.4-1.3,0.3-1.3,0.3s0.4,0.5,0.3,0.9c-0.1,0.4-0.5,0.7-0.5,0.7s0.6,0.2,1-0.2c0.5-0.4,0.4-0.9,0.4-0.9
					s0.3,0.3,0.4,0.7c0.1,0.7-0.3,1.2-0.7,1.4c-0.4,0.1-0.8,0-1-0.1c-0.6-0.3-1.3-1-1.9-2.4c-0.9-2.4-0.5-3.7,0.3-4c0,0,0,0,0,0
					c0.4-0.1,1.1,0.1,1.6,1C69.8,75.4,69.3,75.8,69.3,75.8z"/>
				<path fill="#161616" d="M70.8,80.7c-0.9,0.3-3.8,1.1-5.2-2.4c-1.2-3.1,0.3-4.9,1.8-5.5c0.9-0.4,1.7-0.4,2.4,0
					c0.7,0.4,1.3,0.9,1.4,1c0,0,0,0.1,0,0.1c0,0-0.3,0.7-0.4,1.1c-0.2,0.5-0.5,0.9-0.9,1c-0.4,0.2-0.6,0-0.6,0c0,0,0,0,0-0.1
					c0,0,0,0,0-0.1c0,0,0.5-0.4,0-1.3c-0.4-0.8-1.1-1.1-1.5-0.9l0,0c-0.8,0.3-1.1,1.6-0.3,3.9c0.6,1.6,1.4,2.2,1.9,2.4
					c0.2,0.1,0.6,0.2,0.9,0.1c0.3-0.1,0.8-0.6,0.6-1.3c0-0.2-0.2-0.4-0.3-0.6c0,0.2-0.1,0.5-0.4,0.7c-0.5,0.5-1.1,0.3-1.1,0.3
					c0,0-0.1,0-0.1-0.1c0,0,0-0.1,0-0.1c0,0,0.3-0.2,0.4-0.6c0.1-0.4-0.2-0.8-0.2-0.9c0,0,0-0.1,0-0.1c0,0,0,0,0.1,0
					c0,0,0.7,0.1,1.2-0.3c0.8-0.5,1-1.2,1-1.2c0,0,0-0.1,0.1-0.1c0,0,0.1,0,0.1,0c0,0,0.8,1.1,0.8,2.4
					C72.5,79.4,71.9,80.2,70.8,80.7z M67.5,72.9c-1.5,0.6-2.9,2.3-1.7,5.3c1.3,3.3,3.9,2.7,5,2.3c1.1-0.4,1.7-1.2,1.7-2.3
					c0-1-0.5-1.9-0.7-2.2c-0.1,0.3-0.4,0.8-1,1.2c-0.4,0.3-0.9,0.3-1.2,0.3c0.1,0.2,0.3,0.5,0.2,0.8c-0.1,0.3-0.2,0.5-0.4,0.6
					c0.2,0,0.5,0,0.8-0.3c0.4-0.4,0.4-0.8,0.4-0.8c0,0,0-0.1,0-0.1c0,0,0.1,0,0.1,0c0,0,0.3,0.3,0.4,0.8c0.1,0.8-0.3,1.3-0.7,1.5
					c-0.4,0.1-0.8,0-1-0.1c-0.5-0.2-1.3-0.8-2-2.5c-0.9-2.4-0.5-3.8,0.3-4.1c0,0,0,0,0,0c0.5-0.1,1.2,0.1,1.7,1
					c0.4,0.8,0.1,1.2,0,1.4c0.1,0,0.2,0,0.4,0c0.4-0.1,0.6-0.5,0.8-0.9c0.1-0.4,0.4-0.9,0.4-1.1c-0.1-0.1-0.7-0.6-1.3-0.9
					C69.1,72.6,68.4,72.6,67.5,72.9z"/>
			</g>
			<g>
				<path fill="#141414" d="M71.3,77.6c0,0,0.1-0.1,0.2-0.1c0.1-0.1,0.1-0.1,0.1-0.1s0.2,0.3,0.2,0.8c0,0.4-0.1,0.8-0.1,0.8
					s0-0.3-0.1-0.8C71.4,77.8,71.3,77.6,71.3,77.6z"/>
			</g>
			<g>
				<path fill="#141414" d="M70.1,74.7c0,0,0.1-0.1,0.1-0.3c0-0.1,0.1-0.2,0.1-0.2s-0.2-0.2-0.3-0.3c-0.2-0.1-0.4-0.2-0.4-0.2
					s0.2,0.3,0.3,0.6C70.1,74.4,70.1,74.7,70.1,74.7z"/>
			</g>
		</g>
		<g>
			<g>
				<path fill="#A27049" d="M92.9,72.5c0,0-0.1,0-0.1,0c0,0,0-0.1,0-0.1c0.1-0.2,0.4-0.7,0.3-1l-1.2-3.2l-2.9-2.5
					c-0.3-0.2-1.1-0.4-1.1-0.4c0,0-0.1,0-0.1-0.1c0,0,0-0.1,0.1-0.1l2.9-1.1c0,0,0.1,0,0.1,0c0,0,0,0.1,0,0.1c0,0-0.3,0.6,0,0.8
					c0,0,0,0,0,0l1.3,1.2l0.2-1.8c0,0,0,0,0,0c0.1-0.3-0.5-0.6-0.5-0.6c0,0-0.1-0.1-0.1-0.1c0,0,0-0.1,0.1-0.1l2.9-1.1
					c0,0,0.1,0,0.1,0c0,0,0,0.1,0,0.1c0,0-0.5,0.7-0.6,1.1l-0.5,3.8l1.2,3.2c0.2,0.4,0.9,0.5,0.9,0.5c0,0,0.1,0,0.1,0.1
					c0,0,0,0.1-0.1,0.1L92.9,72.5z"/>
			</g>
			<g>
				<path fill="#A27049" d="M94.6,62.6c0,0-0.5,0.7-0.6,1.1l-0.5,3.9l1.2,3.2c0.2,0.5,1,0.6,1,0.6l-0.6,0.2l-1.7,0.7l-0.6,0.2
					c0,0,0.4-0.7,0.3-1.1l-1.2-3.2l-2.9-2.6c-0.4-0.2-1.2-0.5-1.2-0.5l0.4-0.2l1.8-0.7l0.8-0.3c0,0-0.3,0.6,0,0.9c0,0,0,0,0,0
					l1.4,1.4l0.2-2c0,0,0,0,0,0c0.1-0.4-0.6-0.7-0.6-0.7l0.8-0.3l1.8-0.7L94.6,62.6 M94.5,62.4l-0.4,0.2l-1.8,0.7l-0.8,0.3
					c-0.1,0-0.1,0.1-0.1,0.2c0,0.1,0.1,0.2,0.1,0.2c0.1,0,0.5,0.2,0.5,0.5c0,0,0,0,0,0c0,0,0,0,0,0l-0.1,1.6l-1.1-1.1c0,0,0,0,0,0
					c0,0,0,0,0,0c-0.2-0.1,0-0.5,0-0.6c0-0.1,0-0.2,0-0.2c-0.1-0.1-0.1-0.1-0.2-0.1l-0.8,0.3l-1.8,0.7L87.7,65
					c-0.1,0-0.1,0.1-0.1,0.2c0,0.1,0.1,0.2,0.2,0.2c0.2,0.1,0.8,0.2,1.1,0.4l2.9,2.5l1.2,3.1c0.1,0.2-0.1,0.7-0.3,0.9
					c0,0.1,0,0.2,0,0.2c0.1,0.1,0.1,0.1,0.2,0.1l0.6-0.2l1.7-0.7l0.6-0.2c0.1,0,0.1-0.1,0.1-0.2s-0.1-0.2-0.2-0.2
					c-0.2,0-0.7-0.1-0.8-0.4l-1.2-3.1l0.5-3.8c0.1-0.3,0.4-0.9,0.5-1c0-0.1,0-0.2,0-0.2C94.7,62.4,94.6,62.4,94.5,62.4L94.5,62.4z"
					/>
			</g>
			<g>
				<path fill="#DADADA" d="M92.4,63.2l-0.8,0.3c0,0,0.7,0.3,0.6,0.7c0,0,0,0,0,0l-0.2,2l-1.4-1.4c0,0,0,0,0,0c-0.3-0.3,0-0.9,0-0.9
					l-0.8,0.3l-1.8,0.7L87.7,65c0,0,0.8,0.2,1.2,0.5l2.9,2.6l1.2,3.2c0.1,0.4-0.3,1.1-0.3,1.1l0.6-0.2l1.7-0.7l0.6-0.2
					c0,0-0.8-0.1-1-0.6l-1.2-3.2l0.5-3.9c0.1-0.4,0.6-1.1,0.6-1.1l-0.4,0.2L92.4,63.2z"/>
				<path fill="#161616" d="M95.7,71.2l-2.9,1.1c0,0-0.1,0-0.1,0c0,0,0-0.1,0-0.1c0.1-0.2,0.4-0.7,0.3-1l-1.2-3.2l-2.9-2.5
					c-0.3-0.2-1.1-0.4-1.1-0.4c0,0-0.1,0-0.1-0.1c0,0,0-0.1,0.1-0.1l2.9-1.1c0,0,0.1,0,0.1,0c0,0,0,0.1,0,0.1c0,0-0.3,0.6,0,0.8
					c0,0,0,0,0,0L92,66l0.2-1.8c0.1-0.3-0.5-0.6-0.5-0.6c0,0-0.1,0-0.1-0.1c0,0,0-0.1,0.1-0.1l2.9-1.1c0,0,0.1,0,0.1,0
					c0,0,0,0.1,0,0.1c0,0-0.5,0.7-0.6,1.1l-0.5,3.8l1.2,3.2c0.2,0.4,0.9,0.5,0.9,0.5C95.7,71,95.7,71.1,95.7,71.2
					C95.8,71.1,95.7,71.2,95.7,71.2z M92.9,72.1l2.5-0.9c-0.3-0.1-0.6-0.2-0.7-0.6l-1.2-3.2c0,0,0,0,0,0l0.5-3.9
					c0.1-0.3,0.3-0.7,0.4-0.9l-2.5,1c0.2,0.1,0.5,0.3,0.5,0.7l-0.2,2c0,0,0,0.1-0.1,0.1c0,0,0,0,0,0c0,0-0.1,0-0.1,0l-1.4-1.4
					c-0.3-0.2-0.2-0.6-0.1-0.8l-2.5,1c0.3,0.1,0.7,0.2,1,0.4l2.9,2.6c0,0,0,0,0,0l1.2,3.2C93.2,71.4,93,71.8,92.9,72.1z"/>
			</g>
			<g>
				<path fill="#141414" d="M93.7,71.5c0,0,0.1-0.2,0.1-0.4s0-0.6,0-0.6s0.2,0.3,0.3,0.4c0.2,0.2,0.3,0.3,0.3,0.3L93.7,71.5z"/>
			</g>
			<g>
				<path fill="#141414" d="M93.4,63.4c0,0-0.1,0.2-0.2,0.5c-0.1,0.3-0.1,0.5-0.1,0.5s0-0.2-0.2-0.4c-0.1-0.2-0.2-0.3-0.2-0.3
					L93.4,63.4z"/>
			</g>
			<g>
				<path fill="#141414" d="M89.2,65c0,0,0.2,0.1,0.4,0.2c0.2,0.1,0.5,0.3,0.5,0.3s-0.1-0.2-0.2-0.4c-0.1-0.2,0-0.4,0-0.4L89.2,65z"
					/>
			</g>
		</g>
		<g>
			<g>
				<path fill="#A27049" d="M83.2,76c0,0-0.1,0-0.1,0c0,0,0-0.1,0-0.1c0,0,0.5-0.5,0.3-0.9l-0.9-2.3c-0.1-0.3-0.6-0.3-0.8-0.3
					c0,0-0.1,0-0.1-0.1c0,0,0-0.1,0-0.1c0,0,0.5-0.4,0.3-0.8l-0.2-0.5c-0.1,0.1-0.2,0.2-0.3,0.3c0,0-0.1,0-0.1,0.1
					c-0.6,0.2-1.1-0.1-1.1-0.2c0,0,0-0.1,0-0.1c0,0,0-0.1,0.1-0.1c0,0,0,0,0,0l0,0c0,0,0,0,0.1,0c0.2-0.1,0.5-0.3,0.6-0.8
					c0.2-0.6-0.3-1.4-0.5-1.6c-0.2-0.2-0.5-0.2-0.5-0.2c0,0-0.1,0-0.1-0.1c0,0,0-0.1,0.1-0.1l6.7-2.6c0,0,0.1,0,0.1,0
					c0,0,0,0.1,0,0.1c0,0-0.1,0.5-0.1,1.5c0,1,0.3,1.8,0.3,1.8c0,0,0,0.1,0,0.1c0,0,0,0,0,0c0,0,0,0-0.1,0l-0.6-0.1
					c0,0-0.1,0-0.1-0.1c0,0-0.1-0.2-0.2-0.4c-0.2-0.3-1.2-1.2-2.1-0.8l-0.9,0.4l1.1,2.9c0.2-0.1,0.5-0.3,0.6-0.5
					c0.2-0.5,0-0.9,0-0.9c0,0,0-0.1,0-0.1c0,0,0,0,0.1,0c0,0,0,0,0,0l0.4-0.1c0,0,0.1,0,0.1,0.1l1.1,2.8c0,0,0,0.1,0,0.1l-0.3,0.2
					c0,0,0,0,0,0c0,0,0,0-0.1,0c0,0,0,0-0.1-0.1c0,0-0.1-0.4-0.6-0.6c-0.2-0.1-0.5-0.1-0.8,0l0.9,2.4l0.9-0.4c0.9-0.4,1.1-1.7,1-2
					c0-0.3-0.1-0.5-0.1-0.5c0,0,0-0.1,0-0.1l0.4-0.5c0,0,0,0,0,0c0,0,0,0,0,0c0,0,0.1,0,0.1,0.1c0,0,0.3,0.8,0.9,1.5
					c0.7,0.7,1.1,1,1.1,1c0,0,0,0.1,0,0.1c0,0,0,0.1-0.1,0.1L83.2,76z"/>
			</g>
			<g>
				<path fill="#A27049" d="M86.7,65.5c0,0-0.1,0.5-0.1,1.6c0,1,0.3,1.8,0.3,1.8l-0.6-0.1c0,0-0.1-0.2-0.2-0.4
					c-0.2-0.3-1.2-1.2-2.2-0.8l-1,0.4l1.2,3.1c0.3-0.1,0.6-0.3,0.7-0.6c0.2-0.5,0-0.9,0-0.9l0.4-0.1l0.5,1.4l0,0l0.5,1.4l-0.3,0.2
					c0,0-0.1-0.4-0.6-0.7c-0.3-0.2-0.7-0.1-0.9,0l1,2.5c0,0,0,0,0,0.1l1-0.4c1-0.4,1.2-1.8,1.1-2.1c-0.1-0.3-0.1-0.5-0.1-0.5
					l0.4-0.5c0,0,0.3,0.8,1,1.5c0.7,0.8,1.1,1.1,1.1,1.1l-1.3,0.5l-2.2,0.9l-0.3,0.1L85.5,75l-0.4,0.1l-1.3,0.5l-0.6,0.2
					c0,0,0.5-0.6,0.3-1l-0.9-2.3c-0.1-0.4-0.8-0.4-0.8-0.4s0.5-0.5,0.4-0.9l-0.2-0.6c-0.1,0.1-0.2,0.3-0.4,0.4c0,0-0.1,0-0.1,0.1
					c-0.5,0.2-1-0.1-1-0.1s0,0,0.1,0c0.2-0.1,0.5-0.3,0.7-0.8c0.2-0.7-0.3-1.5-0.6-1.7c-0.3-0.2-0.6-0.2-0.6-0.2l0.8-0.3l0.3-0.1
					l1-0.4l0.4-0.1l0.8-0.3l2.2-0.9L86.7,65.5 M86.6,65.3l-1.3,0.5l-2.2,0.9L82.4,67L82,67.1l-1,0.4l-0.3,0.1l-0.8,0.3
					c-0.1,0-0.1,0.1-0.1,0.2c0,0.1,0.1,0.2,0.2,0.2c0,0,0.2,0,0.5,0.2c0.2,0.1,0.7,0.9,0.5,1.5c-0.1,0.5-0.4,0.6-0.6,0.7
					c0,0-0.1,0-0.1,0c0,0,0,0,0,0c-0.1,0-0.1,0.1-0.1,0.1c0,0.1,0,0.2,0.1,0.2c0,0,0.6,0.4,1.2,0.2c0.1,0,0.1,0,0.2-0.1
					c0.1,0,0.2-0.1,0.2-0.2l0.1,0.3c0.1,0.2-0.2,0.6-0.3,0.7c-0.1,0.1-0.1,0.1-0.1,0.2c0,0.1,0.1,0.1,0.2,0.1c0.2,0,0.6,0.1,0.7,0.3
					l0.9,2.3c0.1,0.3-0.2,0.7-0.3,0.8C83,75.8,83,75.9,83,76c0.1,0.1,0.1,0.1,0.2,0.1l0.6-0.2l1.3-0.5l0.4-0.1L86,75l0.3-0.1
					l2.2-0.9l1.3-0.5c0.1,0,0.1-0.1,0.1-0.2c0-0.1,0-0.1-0.1-0.2c0,0-0.5-0.3-1.1-1c-0.6-0.7-0.9-1.5-0.9-1.5c0-0.1-0.1-0.1-0.2-0.1
					c0,0-0.1,0-0.1,0c0,0-0.1,0-0.1,0.1l-0.4,0.5c0,0.1-0.1,0.1,0,0.2c0,0,0.1,0.1,0.1,0.4c0,0.3-0.1,1.6-1,1.9L85.3,74l-0.9-2.2
					c0.2,0,0.4-0.1,0.6,0c0.4,0.2,0.6,0.5,0.6,0.6c0,0.1,0.1,0.1,0.1,0.1c0,0,0.1,0,0.1,0c0,0,0,0,0,0l0.3-0.2
					c0.1,0,0.1-0.1,0.1-0.2l-0.5-1.4l0,0l-0.5-1.4c0-0.1-0.1-0.1-0.2-0.1l-0.4,0.1c0,0,0,0,0,0c0,0-0.1,0-0.1,0.1c0,0.1,0,0.1,0,0.2
					c0,0,0.1,0.3,0,0.8c-0.1,0.2-0.2,0.3-0.4,0.4L83,68l0.8-0.3c0.9-0.3,1.9,0.5,2,0.8c0.2,0.2,0.2,0.4,0.2,0.4
					c0,0.1,0.1,0.1,0.1,0.1l0.6,0.1c0,0,0.1,0,0.1,0c0,0,0.1,0,0.1-0.1c0-0.1,0.1-0.1,0-0.2c0,0-0.3-0.8-0.3-1.7
					c0-1,0.1-1.5,0.1-1.5c0-0.1,0-0.1-0.1-0.2C86.8,65.3,86.7,65.3,86.6,65.3L86.6,65.3z"/>
			</g>
			<g>
				<path fill="#DADADA" d="M87.5,70.6l-0.4,0.5c0,0,0.1,0.2,0.1,0.5c0.1,0.3-0.1,1.7-1.1,2.1l-1,0.4c0,0,0,0,0-0.1l-1-2.5
					c0.3-0.1,0.6-0.2,0.9,0c0.5,0.3,0.6,0.7,0.6,0.7l0.3-0.2l-0.5-1.4l0,0L85,69.1l-0.4,0.1c0,0,0.2,0.4,0,0.9
					c-0.1,0.3-0.4,0.5-0.7,0.6l-1.2-3.1l1-0.4c1-0.4,2.1,0.6,2.2,0.8c0.2,0.3,0.2,0.4,0.2,0.4l0.6,0.1c0,0-0.3-0.8-0.3-1.8
					c0-1,0.1-1.6,0.1-1.6l-1.3,0.5l-2.2,0.9l-0.8,0.3L82,67.1l-1,0.4l-0.3,0.1l-0.8,0.3c0,0,0.3,0,0.6,0.2c0.3,0.2,0.8,1.1,0.6,1.7
					c-0.2,0.8-0.8,0.9-0.8,0.9s0.5,0.4,1.1,0.1c0.2-0.1,0.3-0.2,0.4-0.4l0.2,0.6c0.2,0.4-0.4,0.9-0.4,0.9s0.7,0,0.8,0.4l0.9,2.3
					c0.2,0.5-0.3,1-0.3,1l0.6-0.2l1.3-0.5l0.4-0.1l0.5-0.2l0.3-0.1l2.2-0.9l1.3-0.5c0,0-0.5-0.3-1.1-1.1
					C87.8,71.3,87.5,70.6,87.5,70.6z"/>
				<path fill="#161616" d="M89.7,73.2l-6.6,2.5c0,0-0.1,0-0.1,0c0,0,0-0.1,0-0.1c0,0,0.5-0.5,0.3-1l-0.9-2.3
					c-0.1-0.3-0.6-0.3-0.8-0.4c0,0-0.1,0-0.1-0.1c0,0,0-0.1,0-0.1c0,0,0.5-0.4,0.3-0.8l-0.2-0.5c-0.1,0.1-0.2,0.2-0.3,0.3
					c-0.6,0.3-1.2-0.1-1.2-0.1c0,0,0-0.1,0-0.1c0,0,0-0.1,0.1-0.1c0,0,0.5-0.1,0.7-0.8c0.2-0.6-0.3-1.5-0.5-1.7
					C80.2,68,79.9,68,79.9,68c0,0-0.1,0-0.1-0.1c0,0,0-0.1,0.1-0.1l6.7-2.6c0,0,0.1,0,0.1,0c0,0,0,0.1,0,0.1c0,0-0.1,0.5-0.1,1.5
					c0,1,0.3,1.8,0.3,1.8c0,0,0,0.1,0,0.1c0,0,0,0-0.1,0l-0.6-0.1c0,0-0.1,0-0.1-0.1c0,0-0.1-0.2-0.2-0.4c-0.2-0.3-1.2-1.2-2.1-0.8
					l-1,0.4l1.1,3c0.2-0.1,0.5-0.3,0.6-0.6c0.2-0.5,0-0.9,0-0.9c0,0,0,0,0-0.1c0,0,0,0,0.1,0l0.4-0.1c0,0,0.1,0,0.1,0.1l1.1,2.8
					c0,0,0,0.1,0,0.1l-0.3,0.2c0,0,0,0-0.1,0c0,0,0,0,0,0c0,0-0.1-0.4-0.6-0.6c-0.2-0.1-0.6-0.1-0.8,0l0.9,2.5l1-0.4
					c1-0.4,1.1-1.7,1-2c0-0.3-0.1-0.5-0.1-0.5c0,0,0-0.1,0-0.1l0.4-0.5c0,0,0,0,0.1,0c0,0,0.1,0,0.1,0.1c0,0,0.3,0.8,1,1.5
					c0.7,0.7,1.1,1,1.1,1C89.7,73.1,89.7,73.1,89.7,73.2C89.7,73.2,89.7,73.2,89.7,73.2z M83.3,75.5l6.2-2.4c-0.2-0.1-0.6-0.4-1-1
					c-0.5-0.6-0.8-1.2-0.9-1.4l-0.3,0.4c0,0.1,0.1,0.2,0.1,0.5c0.1,0.4-0.1,1.8-1.2,2.2l-1,0.4c0,0-0.1,0-0.1,0c0,0,0-0.1,0-0.1
					l-1-2.5c0,0,0,0,0-0.1c0,0,0,0,0,0c0.3-0.1,0.7-0.2,1,0c0.4,0.2,0.6,0.5,0.6,0.6l0.2-0.1l-1-2.7l-0.2,0c0,0.2,0.1,0.5-0.1,0.9
					c-0.1,0.4-0.5,0.6-0.7,0.7c0,0,0,0-0.1,0c0,0,0,0,0,0l-1.2-3.1c0,0,0-0.1,0-0.1l1-0.4c1.1-0.4,2.1,0.6,2.3,0.9
					c0.1,0.2,0.2,0.3,0.2,0.4l0.5,0.1c-0.1-0.3-0.3-0.9-0.3-1.7c0-0.7,0.1-1.2,0.1-1.4l-6.3,2.4c0.1,0,0.2,0.1,0.3,0.2
					c0.3,0.2,0.8,1.1,0.6,1.8c-0.2,0.5-0.5,0.8-0.7,0.9c0.2,0.1,0.5,0.2,0.9,0c0.2-0.1,0.3-0.2,0.4-0.3c0,0,0,0,0.1,0
					c0,0,0.1,0,0.1,0.1l0.2,0.6c0.1,0.3-0.1,0.7-0.3,0.8c0.2,0,0.6,0.1,0.8,0.4l0.9,2.3C83.6,74.9,83.5,75.3,83.3,75.5z"/>
			</g>
			<g>
				<path fill="#141414" d="M81.5,68.1l0.4-0.2c0,0,0.2,0.2,0.2,0.7c0,0.4-0.3,0.9-0.3,0.9s0.1-0.4,0-0.8
					C81.7,68.3,81.5,68.1,81.5,68.1z"/>
			</g>
			<g>
				<path fill="#141414" d="M85.2,66.7c0,0,0.2,0.1,0.4,0.2c0.2,0.1,0.3,0.2,0.3,0.2s0-0.2,0-0.3c0-0.2,0-0.3,0-0.3L85.2,66.7z"/>
			</g>
			<g>
				<path fill="#141414" d="M87.8,73.4c0,0,0.1-0.2,0.1-0.4c0.1-0.2,0.1-0.4,0.1-0.4s0.1,0.1,0.2,0.3c0.1,0.1,0.3,0.2,0.3,0.2
					L87.8,73.4z"/>
			</g>
			<g>
				<path fill="#141414" d="M84.8,74.6c0,0-0.2-0.1-0.3-0.3c-0.2-0.2-0.3-0.4-0.3-0.4s0,0.3,0,0.6c0,0.2-0.1,0.4-0.1,0.4L84.8,74.6z
					"/>
			</g>
		</g>
		<g>
			<g>
				<path fill="#A27049" d="M79.2,77.5c0,0-0.1,0-0.1,0c0,0,0-0.1,0-0.1c0,0,0.3-0.6,0-0.8c0,0,0,0,0,0l-2.4-1.9l-0.4,0.2l0.9,2.4
					c0.1,0.3,0.7,0.5,0.9,0.5c0,0,0.1,0,0.1,0.1c0,0,0,0.1-0.1,0.1l-3,1.2c0,0-0.1,0-0.1,0c0,0,0-0.1,0-0.1c0,0,0.5-0.5,0.3-1
					l-0.9-2.3c-0.1-0.3-0.6-0.3-0.8-0.4c0,0-0.1,0-0.1-0.1c0,0,0-0.1,0-0.1c0,0,0.5-0.4,0.3-0.8l-0.2-0.5c-0.1,0.1-0.2,0.2-0.3,0.3
					c0,0-0.1,0-0.1,0.1C72.5,74.4,72,74,72,74c0,0,0-0.1,0-0.1c0,0,0-0.1,0.1-0.1c0,0,0,0,0,0l0,0c0,0,0,0,0.1,0
					c0.2-0.1,0.5-0.3,0.6-0.8c0.2-0.6-0.3-1.5-0.5-1.7c-0.2-0.2-0.5-0.2-0.5-0.2c0,0-0.1,0-0.1-0.1c0,0,0-0.1,0.1-0.1l4.2-1.6
					c1.4-0.5,2.9,0.1,3.4,1.5c0.4,1-0.1,2.2-0.9,2.9l2.6,2c0.3,0.2,1.1,0.4,1.1,0.4c0,0,0.1,0,0.1,0.1c0,0,0,0.1-0.1,0.1L79.2,77.5z
					 M76.6,73.4c0.7-0.3,1-1.1,0.8-1.9c-0.4-1-1.2-1.2-1.8-0.9l-0.9,0.3l1.1,2.8L76.6,73.4z"/>
			</g>
			<g>
				<path fill="#A27049" d="M75.9,69.4c1.3-0.5,2.7,0.1,3.2,1.4c0.4,1-0.1,2.2-0.9,2.9l2.7,2c0.4,0.2,1.2,0.4,1.2,0.4l-0.4,0.2
					l-1.8,0.7l-0.8,0.3c0,0,0.3-0.6,0-0.9c0,0,0,0,0,0l-2.5-1.9l-0.6,0.2l0.9,2.5c0,0,0,0,0,0c0.1,0.4,1,0.6,1,0.6l-0.7,0.3
					l-1.7,0.7L75,79c0,0,0.5-0.6,0.3-1.1l-0.9-2.3c-0.1-0.4-0.9-0.4-0.9-0.4s0.5-0.5,0.4-0.9l-0.2-0.6c-0.1,0.1-0.2,0.3-0.4,0.4
					c0,0-0.1,0-0.1,0.1c-0.5,0.2-1-0.1-1-0.1s0,0,0.1,0c0.2-0.1,0.5-0.3,0.7-0.8c0.2-0.7-0.3-1.6-0.6-1.8C72,71.1,71.7,71,71.7,71
					l0.8-0.3l0.3-0.1l1-0.4l0.4-0.1L75.9,69.4 M75.7,73.8l0.2-0.1l0.7-0.3c0,0,0.1,0,0.1,0c0.8-0.3,1.1-1.2,0.8-2
					c-0.4-1-1.3-1.3-2-1l-1,0.4L75.7,73.8 M75.8,69.3l-1.7,0.6L73.8,70l-1,0.4l-0.3,0.1l-0.8,0.3c-0.1,0-0.1,0.1-0.1,0.2
					c0,0.1,0.1,0.2,0.2,0.2c0,0,0.2,0,0.5,0.2c0.2,0.1,0.7,1,0.5,1.6c-0.1,0.5-0.4,0.7-0.6,0.7c0,0-0.1,0-0.1,0c0,0,0,0,0,0
					c-0.1,0-0.1,0.1-0.1,0.1c0,0.1,0,0.2,0.1,0.2c0,0,0.6,0.4,1.2,0.2c0.1,0,0.1,0,0.2-0.1c0.1-0.1,0.2-0.1,0.3-0.2l0.1,0.3
					c0.1,0.2-0.2,0.6-0.3,0.7c-0.1,0.1-0.1,0.1-0.1,0.2s0.1,0.1,0.2,0.1c0.2,0,0.6,0.1,0.7,0.3l0.9,2.3c0.1,0.3-0.2,0.7-0.3,0.9
					c-0.1,0.1-0.1,0.2,0,0.2s0.1,0.1,0.2,0.1l0.6-0.2l1.7-0.7l0.7-0.3c0.1,0,0.1-0.1,0.1-0.2c0-0.1-0.1-0.2-0.2-0.2
					c-0.3-0.1-0.8-0.3-0.8-0.4l-0.9-2.3l0.3-0.1l2.4,1.8c0,0,0,0,0,0c0.2,0.1,0,0.5,0,0.6c0,0.1,0,0.2,0,0.2
					c0.1,0.1,0.1,0.1,0.2,0.1l0.8-0.3l1.8-0.7l0.4-0.2c0.1,0,0.1-0.1,0.1-0.2c0-0.1-0.1-0.2-0.2-0.2c-0.2-0.1-0.8-0.2-1.1-0.4
					l-2.5-1.9c0.7-0.7,1.2-1.9,0.8-3C78.8,69.4,77.3,68.7,75.8,69.3L75.8,69.3z M74.8,70.9l0.8-0.3c0.6-0.2,1.4,0,1.7,0.9
					c0.3,0.7-0.1,1.5-0.7,1.8l-0.1,0l-0.7,0.3l0,0L74.8,70.9L74.8,70.9z"/>
			</g>
			<g>
				<path fill="#DADADA" d="M80.8,75.6l-2.7-2c0.8-0.7,1.3-1.9,0.9-2.9c-0.5-1.4-2-1.9-3.2-1.4l-1.7,0.6L73.8,70l-1,0.4l-0.3,0.1
					l-0.8,0.3c0,0,0.3,0,0.6,0.2c0.3,0.2,0.8,1.1,0.6,1.8c-0.2,0.8-0.8,0.9-0.8,0.9s0.6,0.4,1.2,0.1c0.2-0.1,0.3-0.2,0.4-0.4
					l0.2,0.6c0.2,0.4-0.4,0.9-0.4,0.9s0.7,0,0.9,0.4l0.9,2.3c0.2,0.5-0.3,1.1-0.3,1.1l0.6-0.2l1.7-0.7l0.7-0.3c0,0-0.8-0.2-1-0.6
					c0,0,0,0,0,0L76,74.6l0.6-0.2l2.5,1.9c0,0,0,0,0,0c0.3,0.3,0,0.9,0,0.9l0.8-0.3l1.8-0.7L82,76C82,76,81.2,75.8,80.8,75.6z
					 M74.4,70.6l1-0.4c0.7-0.3,1.6,0,2,1c0.3,0.8-0.1,1.7-0.8,2c0,0-0.1,0-0.1,0l-0.7,0.3l-0.2,0.1L74.4,70.6z"/>
				<path fill="#161616" d="M82,76.1l-2.9,1.1c0,0-0.1,0-0.1,0c0,0,0-0.1,0-0.1c0,0,0.3-0.6,0-0.8c0,0,0,0,0,0l-2.4-1.9l-0.5,0.2
					L77,77c0.1,0.3,0.7,0.5,0.9,0.5c0,0,0.1,0,0.1,0.1c0,0,0,0.1-0.1,0.1l-3,1.2c0,0-0.1,0-0.1,0c0,0,0-0.1,0-0.1c0,0,0.5-0.6,0.3-1
					l-0.9-2.3c-0.1-0.3-0.6-0.4-0.8-0.4c0,0-0.1,0-0.1-0.1c0,0,0-0.1,0-0.1c0,0,0.5-0.4,0.3-0.8l-0.2-0.5c-0.1,0.1-0.2,0.2-0.4,0.3
					c-0.6,0.3-1.2-0.1-1.2-0.1c0,0,0-0.1,0-0.1c0,0,0-0.1,0.1-0.1c0,0,0.5-0.1,0.7-0.8c0.2-0.6-0.3-1.5-0.5-1.7
					c-0.3-0.2-0.5-0.2-0.5-0.2c0,0-0.1,0-0.1-0.1c0,0,0-0.1,0.1-0.1l4.2-1.6c1.4-0.5,2.8,0.1,3.4,1.5c0.4,1-0.1,2.2-0.9,2.9l2.6,2
					C81.2,75.8,82,76,82,76C82,76,82.1,76,82,76.1C82.1,76.1,82,76.1,82,76.1z M79.2,77l2.5-1c-0.3-0.1-0.7-0.2-1-0.4c0,0,0,0,0,0
					l-2.7-2c0,0,0,0,0-0.1c0,0,0,0,0-0.1c0.7-0.7,1.3-1.8,0.9-2.8c-0.5-1.3-1.8-1.9-3.1-1.4l-3.9,1.5c0.1,0,0.2,0.1,0.3,0.2
					c0.3,0.2,0.8,1.1,0.6,1.9c-0.2,0.6-0.5,0.8-0.7,0.9c0.2,0.1,0.5,0.2,0.9,0c0.2-0.1,0.3-0.2,0.4-0.4c0,0,0,0,0.1,0
					c0,0,0.1,0,0.1,0.1l0.2,0.6c0.1,0.3-0.1,0.7-0.3,0.9c0.2,0,0.7,0.1,0.8,0.5l0.9,2.3c0.1,0.3,0,0.7-0.2,0.9l2.5-1
					c-0.3-0.1-0.7-0.3-0.8-0.5l-0.9-2.5c0,0,0-0.1,0-0.1l0.6-0.2c0,0,0.1,0,0.1,0l2.5,1.9C79.4,76.4,79.3,76.8,79.2,77z M76.6,73.3
					l-1,0.4c0,0-0.1,0-0.1,0l-1.2-3c0,0,0-0.1,0-0.1l1-0.4c0.7-0.3,1.6-0.1,2.1,1C77.8,72,77.4,73,76.6,73.3z M75.7,73.5l0.9-0.4
					c0.7-0.3,1.1-1.1,0.8-1.9c-0.4-1-1.2-1.2-1.9-1l-0.9,0.4L75.7,73.5z"/>
			</g>
			<g>
				<path fill="#141414" d="M73.2,70.8l0.4-0.2c0,0,0.2,0.2,0.2,0.7c0,0.4-0.3,0.9-0.3,0.9s0.1-0.5,0-0.9
					C73.4,71,73.2,70.8,73.2,70.8z"/>
			</g>
			<g>
				<path fill="#141414" d="M76.6,77.7c0,0-0.2-0.1-0.4-0.3c-0.2-0.2-0.3-0.4-0.3-0.4s0,0.3,0,0.6c0,0.2-0.1,0.4-0.1,0.4L76.6,77.7z
					"/>
			</g>
			<g>
				<path fill="#141414" d="M80.5,76.2c0,0-0.2-0.1-0.4-0.2c-0.2-0.1-0.5-0.3-0.5-0.3s0.1,0.2,0.2,0.4c0.1,0.2,0,0.4,0,0.4
					L80.5,76.2z"/>
			</g>
		</g>
	</g>
</g>
</svg>
