<?xml version="1.0" encoding="utf-8"?>
<!-- Generator: Adobe Illustrator 26.3.1, SVG Export Plug-In . SVG Version: 6.00 Build 0)  -->
<svg version="1.1" id="Capa_1" xmlns="http://www.w3.org/2000/svg" xmlns:xlink="http://www.w3.org/1999/xlink" x="0px" y="0px"
	 width="128px" height="56px" viewBox="0 0 128 56" style="enable-background:new 0 0 128 56;" xml:space="preserve">
<style type="text/css">
	.st0{fill:#00EFE8;}
</style>
<path class="st0" d="M58.4,40.2c-0.2-0.1-0.5-0.1-0.7,0.1c-0.1,0.1-0.1,0.2-0.2,0.3c-0.4,0.6-0.7,1.2-1.1,1.8
	c-0.5,1-1.2,1.8-1.9,2.7c-0.3,0.3-0.6,0.7-1,0.9c-0.2,0.1-0.4,0.2-0.6,0.3c-0.4,0.1-0.8-0.1-0.9-0.5c-0.2-0.5-0.3-1-0.2-1.5
	c0-1.1,0.2-2.2,0.5-3.3c0-0.1,0.1-0.2,0.2-0.2c0.9-0.2,1.7-0.7,2.4-1.3c0,0,0.1,0,0.1-0.1c0.1-0.2,0.3-0.3,0.5-0.5l0,0l0,0
	c0.5-0.5,0.9-1.1,1.3-1.7c0.6-1,1.2-2,1.5-3.1c0.2-0.6,0.3-1.1,0.2-1.7c-0.1-0.5-0.3-1-0.8-1.2c-0.5-0.3-1.1-0.3-1.6-0.1
	c-0.5,0.2-1,0.6-1.4,1c-0.6,0.6-1.1,1.2-1.5,1.9c-0.8,1.3-1.5,2.7-2.1,4.1l0,0l0,0c0,0.1-0.1,0.2-0.1,0.3c-0.1,0.2-0.1,0.3-0.2,0.5
	l0,0V39c-0.3,0.9-0.6,1.7-0.7,2.6c-0.1,0.6-0.3,1.2-0.8,1.6c-0.7,0.7-1.2,1.5-1.9,2.2c-0.4,0.3-0.7,0.7-1.2,0.9
	c-0.6,0.3-1,0.2-1.1-0.5c0,0,0,0,0-0.1c-0.1-0.7,0-1.3,0.1-2c0-0.2,0.1-0.3,0.3-0.3c0.2,0,0.3-0.1,0.5-0.2c1.4-0.6,2.4-1.5,3-2.9
	c0.1-0.3,0.2-0.6,0.2-0.9c0-0.7-0.4-1.2-1.1-1.3c-0.3-0.1-0.6-0.1-0.8,0c-0.8,0.2-1.5,0.5-2.1,1.1c-1,1-1.8,2.1-2.3,3.5
	c0,0.1,0,0.2-0.1,0.2c-0.6,0.6-1.2,1-2,1.3c-0.6,0.2-0.8-0.1-0.7-0.7c0.1-0.4,0.2-0.9,0.4-1.3c0.1-0.2,0.2-0.4,0.2-0.6
	c0.1-0.4-0.1-0.7-0.4-0.9c-0.2-0.1-0.3-0.1-0.5-0.1c-0.5,0-0.8,0.3-1.1,0.6c-0.2,0.3-0.4,0.6-0.5,0.9s-0.3,0.6-0.4,0.9
	c-0.2,0.4-0.5,0.8-0.7,1.2c-0.6,1-1.2,1.9-1.9,2.9c-0.1,0.1-0.2,0.2-0.3,0.4c-0.1-0.6,0-1.2,0-1.7c0.1-1.1,0.3-2.2,0.5-3.3
	c0.1-0.4,0.2-0.8,0.1-1.2c0-0.6-0.5-1.1-1.1-1.2s-1.1,0.1-1.3,0.8c0,0,0,0.1-0.1,0.1c-0.4,1.2-0.7,2.5-0.8,3.8c0,0.1,0,0.3-0.1,0.4
	c-0.6,1-1.1,2-1.9,2.9c-0.3,0.4-0.6,0.7-1,1c-0.3,0.2-0.4,0.2-0.6-0.2c-0.1-0.4-0.1-0.8-0.1-1.2c0-0.8,0.2-1.5,0.5-2.3
	c0.3-0.9,0.6-1.8,0.9-2.7c0.1-0.3,0.1-0.5,0.1-0.8c0-0.6-0.4-1-1-1.1c-0.4,0-0.7,0.1-1,0.4c-0.2,0.2-0.3,0.4-0.5,0.7
	c-0.1,0.2-0.2,0.4-0.4,0.5L27,42.3c-0.4-0.8-1.1-1.1-2-1s-1.6,0.5-2.2,1s-1,1.2-1.4,1.9c-0.5,1-0.8,2-0.7,3.1c0,0.2,0,0.3-0.1,0.5
	c-0.7,1-1.6,2-2.6,2.8c-0.2,0.2-0.4,0.3-0.7,0.5c-0.1,0.1-0.2,0.1-0.3,0.1c-0.1,0-0.2,0-0.2-0.1s0-0.3,0-0.4c0-0.4,0.1-0.7,0.2-1.1
	c0.3-1.2,0.7-2.3,1.1-3.5c0.1-0.4,0.3-0.7,0.3-1.1c0.1-0.4-0.1-0.8-0.4-0.9s-0.5-0.2-0.8-0.1c-0.4,0.1-0.7,0.3-1,0.6
	c-0.4,0.4-0.9,0.8-1.6,0.9c-0.5,0.1-0.7-0.1-0.9-0.5c-0.1-0.3-0.1-0.5,0-0.8c0.1-0.4,0.2-0.7,0.3-1.1c0.1-0.3,0.1-0.6,0.1-0.9
	c-0.1-0.5-0.5-0.7-0.9-0.6c-0.5,0.1-0.9,0.3-1.2,0.7c-0.6,0.7-0.9,1.5-0.7,2.4c0.2,0.9,0.7,1.6,1.6,1.9c0.5,0.2,1.1,0.2,1.7,0.1
	c0.2,0,0.4-0.1,0.6-0.1v0.1c-0.1,0.2-0.1,0.4-0.2,0.6c-0.4,1.2-0.7,2.4-0.5,3.7c0.1,0.5,0.3,0.9,0.7,1.3c0.2,0.2,0.5,0.3,0.8,0.4
	c0.4,0.1,0.9,0,1.3-0.2c0.7-0.3,1.3-0.7,1.9-1.2c0.6-0.6,1.2-1.3,1.8-2c0.1-0.1,0.1-0.2,0.2-0.3c0,0.1,0,0.1,0.1,0.1
	c0.3,0.3,0.6,0.4,1,0.4c0.3,0,0.6-0.2,0.9-0.3c0.5-0.3,0.9-0.7,1.3-1.1c0.5-0.6,1-1.3,1.4-2c0-0.1,0.1-0.2,0.2-0.2
	c0.1,0.1,0,0.1,0,0.2c-0.1,0.6-0.1,1.2,0,1.8c0.1,0.7,0.3,1.3,0.6,1.9c0.6,1,1.7,1.3,2.7,0.8c0.4-0.2,0.7-0.4,1-0.7
	c0.6-0.6,1.1-1.3,1.6-2.1c0.1-0.1,0.1-0.2,0.2-0.3c0.1,0.6,0.3,1,0.7,1.4c0.7,0.8,1.6,0.9,2.3,0.1c0.3-0.3,0.6-0.7,0.8-1
	c0.7-1,1.3-2.2,1.9-3.2c0-0.1,0.1-0.2,0.2-0.3c0,0,0,0.1,0.1,0.1c0.5,0.6,1.1,0.8,1.8,0.7c0.8,0,1.5-0.3,2.2-0.7
	c0.1-0.1,0.1-0.1,0.3-0.1c0,0.4,0,0.8,0.1,1.1c0.5,1.8,2.4,2.8,4.1,1.6c0.3-0.2,0.7-0.5,1-0.8c0.7-0.6,1.3-1.4,1.9-2.1
	c0.1-0.1,0.1-0.2,0.2-0.2c0.1,0.5,0.2,1,0.4,1.5c0.6,1.4,2,1.9,3.3,1.4c0.5-0.2,0.9-0.5,1.3-0.9c0.7-0.7,1.3-1.4,1.8-2.2
	c0.7-1.1,1.3-2.2,1.9-3.3c0.1-0.1,0.1-0.2,0.1-0.3C58.6,40.5,58.6,40.3,58.4,40.2z M53,38.9c0.4-1.3,0.9-2.5,1.5-3.7
	c0.3-0.7,0.7-1.5,1.2-2.1c0.2-0.3,0.4-0.5,0.7-0.8c0.1-0.1,0.3-0.2,0.4-0.3c0.3-0.1,0.6-0.1,0.7,0.3c0.1,0.2,0.1,0.4,0.1,0.6
	c0,0.5-0.1,0.9-0.2,1.3c-0.3,0.9-0.7,1.7-1.3,2.5c-0.3,0.4-0.6,0.8-1,1.2c-0.1,0.1-0.2,0.3-0.3,0.4l-0.1,0.1
	c-0.1,0.1-0.2,0.2-0.2,0.2s0,0.1-0.1,0.1l0,0c-0.1,0.1-0.2,0.2-0.3,0.3c-0.1,0.1-0.1,0.1-0.2,0.2h-0.1l0,0l0,0c-0.1,0-0.1,0-0.2,0
	l-0.1,0.1h-0.1c-0.2,0.1-0.4,0.2-0.7,0.3C52.8,39.5,52.9,39.2,53,38.9z M45.6,42.3c0.3-0.9,0.8-1.7,1.4-2.4c0.1-0.1,0.2-0.3,0.4-0.4
	c0.3-0.2,0.5-0.1,0.5,0.2c0,0.5-0.1,0.9-0.4,1.3c-0.5,0.7-1.1,1.1-1.9,1.5h-0.1C45.5,42.5,45.6,42.4,45.6,42.3z M26,44.5
	c-0.8,1.1-1.6,2.3-2.6,3.2c-0.1,0.1-0.1,0.1-0.2,0.2c0-0.3,0.1-0.5,0.1-0.8c0.2-0.9,0.4-1.8,0.8-2.6c0.2-0.4,0.4-0.8,0.7-1.1
	c0.2-0.2,0.3-0.3,0.5-0.4c0.3-0.1,0.5,0,0.6,0.3s0.1,0.6,0.1,0.9C26.1,44.3,26.1,44.4,26,44.5z"/>
<path class="st0" d="M26.2,46L26.2,46L26.2,46L26.2,46L26.2,46z"/>
<path class="st0" d="M102.4,35.1c-0.1-0.1-0.2-0.2-0.4-0.1c-0.2,0-0.4,0.1-0.6,0.2c-0.5,0.3-1.1,0.6-1.6,0.9
	c-0.1,0.1-0.2,0.1-0.3,0.1c-0.1-0.2-0.2-0.4-0.3-0.6c-0.3-0.6-0.8-0.9-1.5-1c-0.5-0.1-1,0-1.5,0.3c-0.4,0.2-0.7,0.5-1,0.8
	c-0.6,0.7-1.1,1.4-1.6,2.1c0,0.1-0.1,0.1-0.1,0.2c0.1-0.5,0.2-1,0.3-1.4c0.1-0.5,0.2-1,0.3-1.5c0-0.1,0-0.2,0.2-0.2
	c0.8-0.4,1.4-1,1.8-1.7c0.5-0.8,0.8-1.6,1.1-2.5c0.1-0.4,0.2-0.9,0.1-1.4c0-0.4-0.2-0.7-0.6-0.8c-0.3-0.1-0.5-0.1-0.8,0
	c-0.4,0.1-0.7,0.3-1,0.6c-0.4,0.4-0.7,0.9-1,1.4s-0.5,1.1-0.7,1.7c-0.1,0.4-0.2,0.8-0.4,1.2c0,0.1-0.1,0.2-0.2,0.4
	c-0.1,0.6-0.3,1.1-0.4,1.7c-0.1,0.4-0.2,0.8-0.4,1.2c-0.4,0.9-0.8,1.7-1.3,2.6c-0.4,0.7-0.8,1.4-1.3,2c-0.1,0.2-0.3,0.3-0.5,0.5
	c-0.2,0.1-0.3,0.1-0.3-0.1c0-0.1,0-0.2,0-0.4c0-0.8,0.2-1.5,0.4-2.3c0.2-0.7,0.5-1.4,0.7-2.1c0.1-0.2,0.1-0.5,0.1-0.7
	c0-0.4-0.2-0.6-0.5-0.8c-0.5-0.2-1,0-1.2,0.5c-0.3,0.5-0.6,1-0.9,1.5c-0.6,1-1.2,2-2,2.9c-0.3,0.3-0.6,0.6-0.9,0.9
	c-0.1,0.1-0.1,0.2-0.3,0.2c-0.1-0.3,0-0.5,0.1-0.8c0.3-1,0.6-2,1-2.9c0.2-0.4,0.3-0.8,0.4-1.3s-0.2-0.9-0.6-1c-0.1,0-0.1,0-0.2,0
	s-0.2,0-0.3,0h-0.1c0,0,0,0.1-0.1,0.1l0,0c-0.1,0.1-0.1,0.2-0.2,0.2c-0.1,0.1-0.2,0.2-0.2,0.3v0.1c-0.3,0.6-0.6,1.2-0.8,1.9
	c-0.2,0.6-0.5,1.2-0.8,1.8c-0.5,1-1.2,1.9-1.9,2.7c-0.2,0.2-0.4,0.4-0.6,0.6c-0.2,0.1-0.3,0.2-0.5,0.3c-0.4,0.1-0.7-0.1-0.9-0.4
	c-0.2-0.4-0.2-0.9-0.2-1.3c0-1.1,0.2-2.1,0.5-3.1c0-0.1,0.1-0.2,0.2-0.2c0.9-0.2,1.6-0.7,2.2-1.3c0.1-0.1,0.3-0.2,0.4-0.3
	c0.1-0.1,0.2-0.3,0.3-0.4c0.1-0.1,0.2-0.2,0.2-0.3c0,0,0,0,0.1-0.1l0.1-0.1c0.2-0.3,0.4-0.5,0.6-0.8c0.6-1,1.2-2,1.4-3.2
	c0.1-0.5,0.2-1,0.1-1.5c-0.1-0.6-0.5-1.1-1.1-1.3c-0.5-0.1-0.9,0-1.3,0.2s-0.8,0.5-1.1,0.8c-0.6,0.6-1,1.2-1.4,1.9
	c-1,1.7-1.8,3.6-2.4,5.5c-0.3,1.2-0.6,2.4-0.6,3.7c0,0.7,0.1,1.4,0.4,2.1c0.6,1.2,1.9,1.7,3,1.1c0.4-0.2,0.7-0.4,1-0.7
	c0.6-0.6,1.1-1.3,1.6-2.1c0-0.1,0.1-0.2,0.2-0.2c0.1,0.4,0.2,0.7,0.4,1.1c0.2,0.3,0.5,0.5,0.9,0.5c0.3,0,0.5-0.1,0.7-0.3
	c0.4-0.2,0.7-0.6,1-0.9c0.5-0.5,0.9-1,1.2-1.6c0-0.1,0.1-0.1,0.1-0.2v-0.1V40c-0.1,0.5-0.1,1.1,0,1.6s0.2,1,0.6,1.4
	c0.3,0.3,0.6,0.5,1,0.4c0.4,0,0.7-0.2,1-0.5c0.1-0.1,0.3-0.3,0.4-0.4c0.6-0.6,1-1.4,1.4-2.1c0.1-0.1,0.1-0.2,0.2-0.3
	c0,0.1,0,0.2,0,0.4c0,0.3,0,0.6,0,0.9c0,0.4,0.3,0.7,0.7,0.7c0.3,0,0.6,0,0.8,0c0.2,0,0.3-0.2,0.4-0.4c0-0.2,0.1-0.3,0.1-0.5
	c0.4-1.8,1.5-3.2,2.7-4.4c0.2-0.2,0.4-0.3,0.6-0.4c0.1-0.1,0.3-0.1,0.4-0.2c0.4-0.1,0.6,0,0.7,0.4c0.1,0.3,0.1,0.6,0.2,0.8
	c0,0.2,0,0.3-0.2,0.4c-0.6,0.5-1.2,1-1.7,1.5c-0.7,0.7-1.3,1.5-1.8,2.4c-0.2,0.3-0.3,0.6-0.3,1c-0.1,0.7,0.3,1.2,0.9,1.4
	c0.3,0.1,0.5,0.1,0.8,0c0.5-0.1,0.9-0.3,1.3-0.6c1.1-0.7,1.9-1.8,2.3-3c0.4-0.9,0.5-1.9,0.4-2.8c0-0.1,0-0.2,0.1-0.3
	c0.7-0.4,1.4-0.9,2.1-1.3c0.1-0.1,0.2-0.1,0.3-0.3C102.4,35.4,102.5,35.3,102.4,35.1z M94.7,33.2L94.7,33.2L94.7,33.2
	c0-0.1,0-0.1,0.1-0.1l0,0l0,0c0-0.1,0-0.2,0.1-0.3c0-0.1,0-0.2,0.1-0.3l0,0c0.3-1.1,0.6-2.1,1.5-2.9c0.1,0.5,0.1,1,0,1.4
	s-0.3,0.8-0.4,1.1c0,0,0,0.1-0.1,0.1v0.1c0,0.1-0.1,0.2-0.1,0.3c0,0.1-0.1,0.2-0.1,0.3c0,0,0,0.1-0.1,0.1c-0.3,0.5-0.6,0.8-1,1.1
	C94.5,33.8,94.6,33.5,94.7,33.2z M78.7,36.9L78.7,36.9L78.7,36.9C78.7,36.9,78.7,36.8,78.7,36.9c0-0.1,0-0.1,0.1-0.2l0,0l0,0v-0.1
	l0,0c0,0,0,0,0-0.1s0-0.2,0-0.3c0.1-0.4,0.3-0.8,0.4-1.2c0.4-1,0.8-2,1.3-3c0.3-0.7,0.7-1.3,1.2-1.9c0.1-0.1,0.2-0.2,0.4-0.3
	c0.4-0.3,0.7-0.2,0.8,0.3c0.1,0.3,0.1,0.7,0.1,1c-0.1,0.5-0.2,0.9-0.4,1.4c-0.5,1.3-1.3,2.4-2.3,3.4l0,0c-0.1,0.1-0.3,0.3-0.4,0.3
	c-0.1,0.1-0.1,0.1-0.2,0.2l0,0c-0.2,0.2-0.5,0.3-0.8,0.5l0,0l0,0c-0.1,0-0.2,0.1-0.3,0.1C78.6,37,78.7,36.9,78.7,36.9z M95.3,42.4
	c0-0.2,0-0.4,0.1-0.6c0.1-0.5,0.4-1,0.7-1.4c0.5-0.7,1.1-1.3,1.8-1.9c0,0,0.1-0.1,0.1,0C97.8,40,96.5,42,95.3,42.4z"/>
<path class="st0" d="M9.7,34.7c-0.6,0.1-1.2,0.2-1.8,0.3c-1.6,0.3-3.2,0.6-4.7,0.9C2.6,36,2.1,36,1.5,36c-0.4,0-0.7-0.2-0.9-0.4
	c-0.3-0.3-0.4-0.6-0.2-1c0.1-0.3,0.4-0.4,0.7-0.6c0.4-0.2,0.9-0.3,1.3-0.4c0.8-0.2,1.6-0.3,2.3-0.4c1.8-0.3,3.6-0.5,5.3-0.8
	c1.2-0.2,2.4-0.3,3.7-0.5c1.6-0.2,3.3-0.4,4.9-0.5c1.3-0.1,2.6-0.2,3.9-0.2c1,0,2,0.1,2.9,0.3c0.2,0,0.3,0.1,0.4,0.2
	c0.5,0.3,0.5,0.9,0,1.2c-0.3,0.2-0.6,0.2-0.8,0.1c-1.2-0.2-2.4-0.1-3.6,0c-1.7,0.2-3.3,0.4-5,0.6c-1,0.1-2.1,0.3-3.1,0.5
	c-0.1,0-0.2,0.1-0.2,0.2c-0.1,1-0.5,1.8-0.9,2.7c-1.3,2.9-2.6,5.7-3.8,8.6c-1,2.4-2,4.9-2.7,7.4c-0.2,0.7-0.4,1.4-0.5,2.1
	c0,0.3-0.2,0.5-0.4,0.6C4.4,56,3.9,56,3.4,55.8c-0.3-0.1-0.4-0.3-0.5-0.6c-0.1-0.5-0.1-1.1,0-1.6c0.2-1.3,0.6-2.6,1-3.9
	c0.5-1.5,1-3,1.6-4.5c0.6-1.6,1.2-3.2,1.9-4.8c0.4-0.9,0.8-1.8,1.1-2.6C8.9,36.9,9.4,36,9.7,35C9.6,34.9,9.7,34.8,9.7,34.7z"/>
<path class="st0" d="M77,28.3c-0.3,0-0.5,0.1-0.7,0.3c-0.3,0.4-0.5,0.7-0.7,1.1c-0.3,0.5-0.5,0.9-0.8,1.4c-0.4-0.6-0.7-0.7-1.2-1
	c-0.2-0.1-0.4-0.2-0.6-0.2c-1-0.3-1.9-0.2-2.9,0c-1.6,0.4-3,1.2-4.3,2.2c-2,1.7-3.3,3.9-3.9,6.5c-0.4,1.6-0.4,3.1,0,4.7
	s1.2,2.8,2.6,3.7c1,0.7,2.1,0.8,3.3,0.5c1-0.3,1.8-0.8,2.6-1.4c0.9-0.7,1.8-1.5,2.6-2.3c0.5-0.5,0.8-1.1,1.3-1.6
	c0.2-0.2,0.3-0.4,0.5-0.6c0.1-0.1,0.1-0.2,0-0.4c-0.1-0.1-0.2-0.2-0.4-0.2c-0.1,0-0.2,0-0.3,0.1c-0.1,0.1-0.3,0.2-0.4,0.3
	c-0.3,0.3-0.7,0.7-1,1c-0.8,0.9-1.6,1.7-2.6,2.4c-0.7,0.5-1.4,1-2.2,1.3c-0.9,0.3-1.8,0.2-2.5-0.4c-0.4-0.3-0.7-0.7-0.9-1.1
	c-0.6-1-0.8-2.1-0.9-3.2c0-0.6,0-1.2,0.1-1.8l0,0c0,0,0.1-0.5,0.2-0.7v-0.1l0,0c0.2-0.8,0.5-1.5,0.8-2.3c1.1-2.3,2.8-4,5.2-5.1
	c0.7-0.3,1.4-0.5,2.1-0.5c0.4,0,0.9,0,1.2,0.3c0.2,0.1,0.4,0.3,0.5,0.5c0.1,0.4,0.2,0.8,0,1.2c-0.2,0.4-0.4,0.9-0.5,1.3
	c0,0.1-0.1,0.3,0,0.4c0.2,0.5,0.9,0.7,1.3,0.3c0.2-0.1,0.2-0.3,0.1-0.5s-0.1-0.3,0-0.5c0.6-1.2,1.4-2.4,2.1-3.6
	c0.2-0.3,0.4-0.7,0.6-1.1c0.1-0.2,0.2-0.5,0.2-0.7C77.5,28.6,77.3,28.4,77,28.3z"/>
<g>
	<path class="st0" d="M34.3,23.3c0.2,0,0.3,0,0.4-0.1c0.8-0.1,1.6-0.3,2.3-0.7c1-0.5,1.8-1.2,2.3-2.2c0.7-1.4,0.7-3.5-0.7-5
		c-1.4-1.6-3.2-2.3-5.3-2.4c-1,0-2-0.1-3.1-0.1h-0.1c-0.2,0-0.3,0-0.3,0s-0.3,0-0.6,0l0,0c-0.3,0-0.5,0-0.8,0c-0.7,0-1.5,0-2.2-0.1
		c-0.2,0-0.2,0-0.2,0.2c0,0.1,0,0.1,0,0.2c0,2.5,0,4.9,0,7.4c0,3,0,5.9,0,8.9c0,0,0,0,0,0.1c0,0.2,0,0.2,0.2,0.2c0.4,0,0.8,0,1.2,0
		c0.5,0,1.1,0,1.6,0c0.2,0,0.2,0,0.2-0.2c0-0.7,0-1.4,0-2.1v-0.3l0,0c0-0.2,0-0.4,0-0.6s0-0.4,0-0.6l0,0c0,0,0,0,0-0.1
		c0-1.2,0-2.4,0-3.6c0-0.1,0-0.1,0.1-0.2c0.1,0.1,0.2,0.2,0.2,0.3c2.1,2.4,4.2,4.7,6.4,7.1c0.1,0.2,0.3,0.2,0.5,0.2c1,0,2,0,3,0
		c0.2,0,0.3,0,0.6,0C38,27.5,36.2,25.4,34.3,23.3z M31.2,21.4L31.2,21.4c-0.6,0-1.3,0-1.9,0c-0.2,0-0.2,0-0.2-0.2c0-1,0-2.1,0-3.1
		s0-1.9,0-2.9c0-0.2,0-0.2,0.2-0.2c1.2,0,2.4,0,3.6,0.1c1.2,0,2.2,0.5,3,1.4c1.1,1.2,1,2.9-0.3,4c-0.8,0.7-1.7,1-2.7,1
		C32.4,21.4,31.8,21.4,31.2,21.4z"/>
	<path class="st0" d="M7.7,21c0-1.9,0-3.9,0-5.8c0-0.9,0-1.8,0-2.7c0-0.4,0-0.3,0.3-0.3c1.5,0,2.9,0.1,4.4,0.1c1,0,1.9,0,2.9,0.1
		c1.8,0.1,3.4,0.6,4.8,1.9c0.8,0.7,1.3,1.5,1.5,2.5c0.3,1.6,0,2.9-1.1,4.1c-1,1-2.2,1.6-3.6,1.9c-0.7,0.1-1.4,0.2-2.1,0.1
		c-1.1,0-2.1,0-3.2,0c-0.2,0-0.2,0-0.2,0.2c0,1.5,0,3,0,4.6c0,0.7,0,1.3,0,2c0,0.2,0,0.2-0.2,0.2c-1,0-2,0-3,0c-0.1,0-0.2,0-0.2-0.2
		c0-0.1,0-0.3,0-0.4C7.7,26.5,7.7,23.7,7.7,21L7.7,21z M11.1,17.4L11.1,17.4c0,0.9,0,1.8,0,2.7c0,0.2,0,0.2,0.2,0.2
		c1.2,0,2.3,0,3.5,0c0.9,0,1.8-0.3,2.5-0.9c1.1-1,1.2-2.6,0.2-3.7c-0.8-0.8-1.7-1.2-2.8-1.2c-1.1,0-2.1-0.1-3.2-0.1
		c-0.3,0-0.3,0-0.3,0.3C11.1,15.7,11.1,16.5,11.1,17.4z"/>
	<path class="st0" d="M103.7,18.2c-0.5,0-1,0-1.5,0c-0.4,0-0.8,0-1.2,0c-0.1,0-0.2,0-0.3-0.1c-1.4-1.3-3-1.8-4.8-1.6
		c-1.7,0.2-3.1,1-4.1,2.4c-1.4,1.9-1.1,4.6,0.6,6.4c0.9,1,2.1,1.6,3.4,1.8c2.3,0.3,4.2-0.4,5.6-2.3c0.2-0.2,0.3-0.4,0.4-0.7
		c-0.5,0-0.9,0-1.4,0c-1.8,0-3.5,0-5.3,0c0,0,0,0-0.1,0c-0.3,0-0.3,0-0.3-0.3c0-0.6,0-1.2,0-1.7c0-0.2,0-0.2,0.2-0.2
		c1.2,0,2.3,0,3.5,0c1.5,0,2.9,0,4.4,0.1c0.5,0,1,0,1.6,0c0.2,0,0.2,0,0.2,0.2c0,2-0.7,3.6-2.1,5c-1.2,1.2-2.6,2-4.3,2.3
		c-0.1,0-0.1,0-0.2,0s-0.2,0-0.2-0.1c-0.2-0.8-1-1.4-1.9-1.2c-0.7,0.1-1.2,0.4-1.7,0.9c-0.2,0.2-0.3,0.2-0.5,0.1
		c-2.2-0.8-3.8-2.2-4.8-4.3c-1.1-2.5-0.8-5.8,1.6-8.1c1.3-1.2,2.8-2,4.5-2.2c2.7-0.3,5.2,0.3,7.2,2.2C103,17,103.4,17.6,103.7,18.2z
		"/>
	<path class="st0" d="M43.6,13.2c0.5,0,1.1,0,1.6,0c1.4,0,2.8,0.1,4.2,0.1c1.2,0,2.4,0.1,3.5,0.1c0.2,0,0.2,0,0.2,0.2
		c0,0.6,0,1.2,0,1.8c-1.1,0-2.2,0-3.3-0.1c-1.1,0-2.2,0-3.3-0.1c-0.1,0.1,0,0.2,0,0.3c0,1.5,0,3,0,4.5c0,0.3,0,0.3,0.3,0.3
		c2,0,4,0,6,0.1c0.5,0,0.4-0.1,0.4,0.4s0,1,0,1.5c0,0.2,0,0.2-0.2,0.2c-1.2,0-2.3,0-3.5,0c-0.9,0-1.7,0-2.6,0c-0.3,0-0.3,0-0.3,0.3
		c0,1.5,0,3,0,4.6c0,0.2,0,0.2,0.2,0.2c1.8,0,3.6,0,5.4,0c0.3,0,0.6,0,0.9,0c0.1,0,0.2,0,0.2,0.2c0,0.6,0,1.1,0,1.7
		c0,0.2-0.1,0.2-0.2,0.2c-0.3,0-0.7,0-1,0c-2.6,0-5.3,0-7.9,0.1c-0.4,0-0.4,0-0.4-0.4c0-2.5,0-4.9,0-7.4c0-1.7,0-3.3,0-5
		c0-1.1,0-2.2,0-3.3C43.6,13.3,43.6,13.2,43.6,13.2z"/>
	<path class="st0" d="M57.3,24.7c0.4,0,0.8,0,1.1,0c0.2,0,0.2,0,0.2,0.2c0,0.4,0.1,0.7,0.3,1c0.2,0.5,0.6,0.8,1,1
		c0.8,0.3,1.6,0.5,2.4,0.3c1.5-0.3,2.3-1.6,2.1-3.1c-0.1-0.5-0.3-0.8-0.7-1.1c-0.4-0.3-0.9-0.5-1.4-0.7c-0.4-0.2-0.9-0.2-1.4-0.3
		c-0.8-0.2-1.6-0.5-2.3-0.9c-0.3-0.2-0.6-0.4-0.8-0.6c-0.6-0.5-0.8-1.1-1-1.8c-0.3-1.1-0.2-2.2,0.4-3.2c0.7-1.2,1.8-1.9,3.1-2.2
		c1.3-0.3,2.5-0.1,3.7,0.4c1.1,0.5,1.9,1.3,2.4,2.4c0.2,0.4,0.2,0.8,0.2,1.3c0,0.1,0,0.2-0.2,0.2c-0.7,0-1.4,0-2,0
		c-0.2,0-0.2,0-0.3-0.3c-0.2-0.7-0.6-1.3-1.3-1.6c-0.4-0.2-0.9-0.2-1.3-0.2c-0.7,0-1.3,0.3-1.7,0.7c-0.2,0.2-0.3,0.4-0.4,0.6
		c-0.1,0.4-0.2,0.8-0.1,1.3s0.4,0.9,0.9,1.1c0.4,0.2,0.8,0.3,1.3,0.5c0.9,0.3,1.8,0.5,2.7,0.9c0.4,0.2,0.9,0.4,1.2,0.6
		c0.6,0.4,1,0.9,1.3,1.5c0.4,1,0.6,2,0.4,3.1c-0.1,0.3-0.2,0.6-0.3,0.8c-0.3,0.6-0.7,1.1-1.2,1.7s-1.2,1-1.9,1.2
		c-1.6,0.4-3.1,0.3-4.6-0.3c-1.3-0.5-2.3-1.4-2.8-2.8c-0.2-0.5-0.2-1-0.3-1.5c0-0.3,0-0.3,0.3-0.3C56.6,24.7,57,24.7,57.3,24.7
		L57.3,24.7z"/>
	<path class="st0" d="M127.3,22c0,3.9-2.9,6.5-5.5,7.1c-3.7,0.8-7.6-1.4-8.7-5c-1.4-4.8,1.9-8.2,5-8.9c4.8-1.2,8.1,2.1,9,5.1
		C127.2,20.8,127.3,21.4,127.3,22z M120.1,17c-2.6-0.1-5,2.1-5,4.9c0,2.9,2.4,5.1,5.1,5.1c2.8,0,5.1-2.3,5.1-5
		C125.2,19.4,122.9,16.9,120.1,17z"/>
	<path class="st0" d="M73.2,22.6c0-1.2,0-2.3,0-3.5c0-1,0-2,0-3c0-0.2,0-0.2-0.2-0.2c-0.9,0-1.8,0-2.8-0.1c-0.2,0-0.2,0-0.2-0.2
		c0-0.5,0-1,0-1.5c0-0.3,0-0.2,0.2-0.2c1.4,0,2.8,0.1,4.2,0.1c1.4,0,2.8,0.1,4.2,0.1c0.4,0,0.4,0,0.4,0.5c0,0.4,0,0.8,0,1.3
		c0,0.2,0,0.2-0.2,0.2c-0.9,0-1.7,0-2.6-0.1h-0.1c-0.2,0-0.2,0-0.2,0.2c0,0.8,0,1.6,0,2.4c0,0.1,0,0.2,0,0.3c0,3,0,6,0,9
		c0,0.2,0,0.3-0.2,0.5s-0.4,0.5-0.5,0.8c-0.1,0.1-0.2,0.2-0.3,0.2c-0.5,0-0.9,0-1.4,0c-0.2,0-0.2,0-0.2-0.2c0-0.7,0-1.3,0-2
		C73.2,25.6,73.2,24.1,73.2,22.6L73.2,22.6z"/>
	<path class="st0" d="M84.9,21.7c0,2.4,0,4.8,0,7.1c0,0.1,0,0.1,0,0.2c0,0.2-0.1,0.2-0.2,0.2h-0.1c-0.2,0-0.4,0-0.5-0.2
		c-0.4-0.5-0.9-0.8-1.5-0.8c-0.2,0-0.2,0-0.2-0.2c0-1.4,0-2.8,0-4.2c0-3.1,0-6.1,0-9.2c0-0.3-0.1-0.3,0.3-0.3c0.6,0,1.3,0,1.9,0.1
		c0.3,0,0.3,0,0.3,0.3c0,1.7,0,3.4,0,5C84.9,20.2,84.9,21,84.9,21.7L84.9,21.7z"/>
	<path class="st0" d="M107.4,21.9c0-2.2,0-4.5,0-6.7c0-0.1,0-0.1,0-0.2c0-0.2,0-0.2,0.2-0.2c0.6,0,1.2,0,1.8,0
		c0.2,0,0.2,0.1,0.2,0.2c0,0.5,0,1.1,0,1.6c0,2.7,0,5.4,0,8.1c0,1.3,0,2.6,0,3.9c0,0.1,0,0.1,0,0.2s0,0.1-0.1,0.1
		c-0.6,0-1.3,0-1.9,0c-0.1,0-0.2-0.1-0.1-0.2v-0.1C107.4,26.4,107.4,24.2,107.4,21.9L107.4,21.9z"/>
</g>
<path class="st0" d="M57.8,39.6c-0.3,0-0.7,0-1-0.1c-0.1,0-0.1,0-0.2,0s-0.2-0.1-0.2-0.3c0-0.1,0.1-0.2,0.2-0.2h0.1
	c0.4,0,0.9,0.1,1.3,0.1c0.1,0,0.2,0,0.2,0.1c0.1,0.2,0,0.4-0.2,0.4C58,39.6,57.9,39.6,57.8,39.6L57.8,39.6z"/>
<path class="st0" d="M60.4,39.7c-0.2,0-0.5,0-0.7,0s-0.3-0.1-0.3-0.2c0-0.2,0.1-0.2,0.3-0.2c0.5,0,0.9,0,1.4,0
	c0.2,0,0.3,0.1,0.3,0.2c0,0.2-0.1,0.3-0.3,0.3C60.8,39.7,60.6,39.7,60.4,39.7L60.4,39.7z"/>
<g>
	<path class="st0" d="M36.9,33.4c0,0,0.1,0,0.2,0.1c0.4,0.2,0.8,0.4,1.2,0.7c0.2,0.1,0.2,0.2,0.2,0.4c-0.1,0.1-0.2,0.2-0.4,0.1
		c-0.4-0.2-0.8-0.5-1.3-0.7c-0.1-0.1-0.2-0.2-0.1-0.3C36.7,33.4,36.8,33.4,36.9,33.4z"/>
	<path class="st0" d="M31.1,29.4c-0.1,0-0.2,0-0.2-0.1c-0.3-0.3-0.6-0.7-0.9-1.1c-0.1-0.2-0.1-0.3,0-0.4s0.3-0.1,0.4,0.1
		c0.3,0.4,0.6,0.7,0.9,1c0.1,0.1,0.1,0.2,0.1,0.3C31.3,29.4,31.2,29.4,31.1,29.4z"/>
	<path class="st0" d="M34.4,31.8c0.1,0,0.2,0,0.2,0.1c0.4,0.3,0.8,0.5,1.1,0.8c0,0,0.1,0,0.1,0.1c0.1,0.1,0.1,0.2,0,0.3
		c-0.1,0.1-0.2,0.2-0.3,0.1c-0.5-0.3-0.9-0.6-1.3-0.9c-0.1-0.1-0.1-0.2,0-0.3C34.3,31.8,34.3,31.8,34.4,31.8z"/>
	<path class="st0" d="M33.5,31.1c0,0.2-0.2,0.3-0.4,0.2L33,31.2c-0.3-0.3-0.7-0.6-1-0.9c-0.2-0.1-0.2-0.3-0.1-0.4s0.2-0.1,0.4,0
		c0.3,0.3,0.7,0.6,1,0.9C33.5,31,33.5,31,33.5,31.1z"/>
	<path class="st0" d="M40.9,35.8h-0.1c-0.4-0.2-0.8-0.4-1.2-0.5c0,0-0.1,0-0.1-0.1c-0.1-0.1-0.1-0.2-0.1-0.3c0-0.1,0.1-0.1,0.2-0.1
		h0.1c0.4,0.2,0.8,0.4,1.2,0.6H41c0.1,0.1,0.1,0.2,0.1,0.3C41.1,35.8,41,35.8,40.9,35.8z"/>
	<path class="st0" d="M43.6,36.9h-0.1c-0.4-0.1-0.8-0.3-1.2-0.4h-0.1c-0.1-0.1-0.2-0.2-0.2-0.3c0-0.1,0.2-0.2,0.3-0.2
		c0.3,0.1,0.5,0.2,0.8,0.3c0.2,0.1,0.4,0.1,0.6,0.2c0.1,0,0.2,0.1,0.2,0.2C44,36.7,43.8,36.9,43.6,36.9z"/>
	<path class="st0" d="M49.4,38.5h-0.1c-0.4-0.1-0.8-0.2-1.3-0.3h-0.1c-0.1-0.1-0.1-0.2-0.1-0.3c0-0.1,0.1-0.2,0.2-0.2h0.1
		c0.4,0.1,0.8,0.2,1.3,0.3h0.1c0.1,0.1,0.2,0.2,0.2,0.3C49.6,38.4,49.5,38.4,49.4,38.5z"/>
	<path class="st0" d="M45.1,36.8c0.1,0,0.3,0.1,0.4,0.1c0.3,0.1,0.7,0.2,1,0.3c0.2,0.1,0.3,0.2,0.2,0.3c0,0.1-0.2,0.2-0.3,0.2
		c-0.5-0.1-0.9-0.3-1.4-0.4c-0.2-0.1-0.2-0.2-0.2-0.3C44.9,36.9,45,36.8,45.1,36.8z"/>
</g>
<g>
	<path class="st0" d="M101,7.8c0.1-0.1,0.1-0.1,0.1-0.1c0.2-0.2,0.5-0.2,0.6,0.1c0,0.1,0,0.1,0,0.2c-0.1,0.1-0.1,0.2-0.2,0.3
		c-0.2,0.2-0.2,0.4-0.1,0.6c0.2,0.4,0.3,0.7,0.5,1.1c0.1,0.1,0.1,0.3,0,0.4s-0.2,0.2-0.2,0.4c-0.2-0.1-0.3-0.2-0.4-0.3
		c0.1-0.2,0.1-0.2-0.2-0.6c-0.1,0-0.2,0.2-0.3,0c-0.1-0.2,0.1-0.2,0.1-0.3c-0.1-0.2-0.3-0.4-0.5-0.6c-0.2,0.1-0.2,0.1-0.4-0.1
		c0.1,0,0.1-0.1,0.2-0.1c-0.2-0.2-0.3-0.4-0.5-0.6c0,0-0.1-0.1-0.1,0c-0.1,0.1-0.2,0-0.3-0.1c0-0.1,0-0.1,0.1-0.1
		c0.1-0.1,0.1-0.1,0-0.2c-0.2-0.2-0.3-0.4-0.5-0.6c-0.1,0-0.1,0.1-0.2,0.1s-0.1,0-0.2-0.1s0-0.1,0-0.1c0.2-0.1,0.1-0.2,0-0.3
		c-0.2-0.2-0.4-0.5-0.6-0.7c-0.1,0-0.1,0.1-0.2,0.1c-0.8,1-1.7,2-2.5,3c-0.1,0.2-0.1,0.3-0.1,0.4c0.3,0.7,0.6,1.4,0.8,2
		c0.1,0.1,0.1,0.3,0,0.4c-0.1,0.2-0.2,0.4-0.4,0.7c-0.4-0.9-0.9-1.9-1.3-2.8c-0.1,0-0.2,0.2-0.3,0.3c-0.2,0.3-0.2,0.2-0.4,0.1
		c-0.1-0.1-0.2-0.1-0.4-0.2c0.1-0.2,0.3-0.4,0.4-0.6c-1.1-0.1-2.2-0.2-3.3-0.4c0-0.1,0.2-0.2,0.3-0.3c0.3-0.4,0.7-0.5,1.1-0.4
		c0.7,0.1,1.4,0.1,2.1,0.1c0.1,0,0.2,0,0.3-0.1c0.8-1.1,1.6-2.2,2.5-3.3c0,0,0,0,0-0.1s-0.2-0.1-0.2-0.1c-0.2-0.1-0.4-0.1-0.6-0.2
		s-0.3-0.1-0.4,0.1c-0.1,0.1-0.1,0.1-0.2,0C95,4.8,95,4.7,95,4.6s0.1-0.1,0.1-0.2c-0.3-0.1-0.6-0.2-0.8-0.3c-0.1,0-0.1,0-0.2,0.1
		c-0.1,0.2-0.1,0.2-0.3,0c0-0.1,0.1-0.2,0.1-0.3c-0.2-0.1-0.5-0.2-0.7-0.3c-0.1-0.1-0.1,0.1-0.2,0.1c0,0.1-0.1,0.2-0.2,0.1
		s-0.1-0.1-0.1-0.2c0,0,0-0.1,0.1-0.1c-0.2-0.1-0.4-0.2-0.6-0.3c-0.1,0-0.2,0-0.2,0.1s-0.1,0.2-0.2,0.1c-0.2-0.1-0.1-0.2,0-0.2V3.1
		c-0.1,0-0.2-0.1-0.4-0.1c-0.1,0-0.2-0.1-0.3,0.1c0,0.1-0.1,0.1-0.2,0c-0.1,0-0.2-0.1-0.3-0.1c0.1-0.2,0.3-0.4,0.4-0.5
		s0.2-0.1,0.3-0.1c0.5,0,1,0.1,1.5,0.1c0.2,0,0.3,0,0.4-0.2c0.1-0.1,0.2-0.2,0.3-0.3c0.1-0.1,0.2-0.1,0.3,0l0.1,0.1
		c0.2,0.1,0.2,0.2,0,0.4c0,0,0,0,0,0.1c0.5,0,1.1,0.1,1.6,0.1c0.1,0,0.2,0,0.2-0.1c0.1-0.1,0.2-0.2,0.3-0.4c0.1-0.1,0.2-0.2,0.4-0.1
		l0.1,0.1c0.2,0.1,0.2,0.2,0,0.3c0,0-0.1,0.1,0,0.1s0.2,0,0.3,0c0.4,0,0.8,0,1.2,0.1c0.2,0,0.3,0,0.5-0.2c0.6-0.7,1.1-1.3,1.7-2
		c0.3-0.4,0.7-0.5,1.2-0.5c0.1,0,0.2,0,0.2,0.2c0.1,0.2,0.1,0.5,0,0.7c-0.1,0.3-0.2,0.5-0.4,0.8c-0.4,0.6-0.9,1.2-1.4,1.8
		c-0.1,0.2-0.2,0.3-0.1,0.5c0.2,0.4,0.3,0.8,0.5,1.2c0.1,0,0.1-0.1,0.2-0.1c0.1-0.1,0.2-0.1,0.3,0c0.3,0.2,0.3,0.3,0.1,0.5
		c-0.2,0.2-0.3,0.5-0.1,0.8C100.7,7,100.8,7.4,101,7.8z"/>
	<path class="st0" d="M67.1,5.4c0.1,0,0.2,0.1,0.3,0.1c0.4,0.1,0.7,0.2,1.1,0.3c0.2,0.1,0.3,0.2,0.2,0.3c-0.1,0.1-0.2,0.2-0.4,0.2
		C67.9,6.2,67.4,6,67,5.9c-0.2-0.1-0.2-0.2-0.2-0.3C66.8,5.4,66.9,5.4,67.1,5.4z"/>
	<path class="st0" d="M77.1,9c0,0.2-0.1,0.3-0.3,0.2c-0.1,0-0.1,0-0.2-0.1c-0.4-0.1-0.7-0.3-1.1-0.4c-0.1,0-0.1,0-0.2-0.1
		s-0.2-0.2-0.1-0.3c0-0.1,0.2-0.2,0.3-0.2c0.5,0.2,0.9,0.3,1.4,0.5C77,8.8,77.1,8.9,77.1,9z"/>
	<path class="st0" d="M50.3,3c-0.2,0-0.5,0-0.7,0s-0.3-0.1-0.3-0.2c0-0.2,0.1-0.3,0.3-0.3c0.5,0,0.9,0,1.4,0c0.2,0,0.3,0.1,0.3,0.3
		C51.3,3,51.2,3,51,3S50.5,3,50.3,3L50.3,3z"/>
	<path class="st0" d="M53.9,3.2c-0.4,0-0.9-0.1-1.3-0.1c-0.2,0-0.3-0.1-0.3-0.3c0-0.2,0.1-0.2,0.3-0.2c0.5,0,0.9,0.1,1.4,0.1
		c0.2,0,0.3,0.1,0.3,0.3C54.2,3.1,54.1,3.2,53.9,3.2z"/>
	<path class="st0" d="M83.7,11.5h0.1c0.4,0.2,0.8,0.3,1.3,0.5c0,0,0.1,0,0.1,0.1c0.1,0.1,0.1,0.2,0.1,0.3c0,0.1-0.1,0.2-0.2,0.2
		s-0.1,0-0.2,0c-0.4-0.2-0.8-0.3-1.2-0.5h-0.1c-0.1-0.1-0.2-0.2-0.1-0.3C83.5,11.5,83.6,11.5,83.7,11.5z"/>
	<path class="st0" d="M87.8,13.5c-0.5-0.1-1-0.2-1.5-0.4c-0.2-0.1-0.2-0.2-0.2-0.3c0-0.2,0.2-0.2,0.4-0.2c0.4,0.2,0.9,0.3,1.3,0.3
		c0.2,0,0.3,0.2,0.2,0.3C88.1,13.4,87.9,13.5,87.8,13.5z"/>
	<path class="st0" d="M89.4,13.5c-0.2,0-0.3-0.1-0.3-0.2s0.1-0.3,0.3-0.3c0.5,0,0.9-0.1,1.3-0.3c0.2-0.1,0.3,0,0.3,0.1
		s0,0.3-0.2,0.3C90.4,13.4,89.9,13.5,89.4,13.5z"/>
	<path class="st0" d="M61.3,3.9C61.5,4,61.8,4,62,4.1c0.3,0.1,0.5,0.1,0.8,0.2C63,4.3,63,4.5,63,4.6c0,0.1-0.1,0.2-0.3,0.2
		c-0.5-0.1-0.9-0.2-1.4-0.3c-0.2,0-0.2-0.2-0.2-0.3C61.1,4,61.2,3.9,61.3,3.9z"/>
	<path class="st0" d="M58.5,3.3c0.4,0.1,0.9,0.2,1.4,0.3c0.1,0,0.2,0.2,0.2,0.3c0,0.1-0.1,0.2-0.3,0.2c-0.5-0.1-1-0.2-1.4-0.3
		c-0.2,0-0.2-0.2-0.2-0.3C58.2,3.4,58.3,3.3,58.5,3.3z"/>
	<path class="st0" d="M45.1,2.7c0.1,0,0.3,0,0.3,0.2c0.1,0.2,0,0.3-0.2,0.4c-0.4,0.1-0.7,0.1-1.1,0.2c-0.1,0-0.2,0-0.3,0.1
		c-0.2,0-0.3,0-0.3-0.2s0-0.3,0.2-0.3C44.1,2.9,44.6,2.8,45.1,2.7z"/>
	<path class="st0" d="M40.8,4.1c-0.1,0-0.2-0.1-0.3-0.2c0-0.1,0-0.2,0.1-0.3c0.1,0,0.1-0.1,0.2-0.1c0.4-0.1,0.7-0.2,1.1-0.3H42
		c0.2,0,0.3,0,0.3,0.2c0,0.1,0,0.3-0.2,0.3H42c-0.4,0.1-0.7,0.2-1.1,0.3C41,4.1,40.9,4.1,40.8,4.1z"/>
	<path class="st0" d="M34.6,7.3c0,0.1-0.1,0.2-0.1,0.2c-0.4,0.3-0.7,0.6-1,0.9c-0.1,0.1-0.3,0.1-0.4,0S33,8.1,33.1,8
		c0.3-0.3,0.7-0.6,1-0.9c0.1-0.1,0.2-0.1,0.3,0C34.5,7.1,34.5,7.2,34.6,7.3z"/>
	<path class="st0" d="M32.4,9.3c0,0.1,0,0.1-0.1,0.2c-0.3,0.3-0.6,0.7-0.9,1c-0.1,0.2-0.3,0.2-0.4,0.1s-0.1-0.2,0-0.4
		c0.3-0.4,0.6-0.7,0.9-1.1C32,9,32.1,9,32.2,9C32.4,9.1,32.4,9.2,32.4,9.3z"/>
	<path class="st0" d="M64.2,4.6h0.1c0.4,0.1,0.8,0.2,1.2,0.3h0.1c0.1,0.1,0.2,0.2,0.2,0.3c0,0.1-0.2,0.2-0.3,0.2h-0.1
		c-0.4-0.1-0.8-0.2-1.2-0.3h-0.1C64,5,63.9,4.9,64,4.8C63.9,4.6,64,4.6,64.2,4.6z"/>
	<path class="st0" d="M56.9,3.6c-0.5-0.1-1-0.1-1.4-0.2c-0.2,0-0.3-0.2-0.3-0.3c0-0.1,0.1-0.2,0.3-0.2C56,3,56.4,3,56.9,3.1
		c0.1,0,0.2,0.1,0.2,0.2s0,0.2-0.1,0.3H56.9z"/>
	<path class="st0" d="M82.6,11.2c0,0.1-0.1,0.2-0.2,0.2s-0.1,0-0.2-0.1c-0.4-0.2-0.8-0.3-1.2-0.5c-0.1,0-0.1,0-0.2-0.1
		s-0.1-0.2-0.1-0.3c0-0.1,0.1-0.1,0.2-0.1H81c0.5,0.2,0.9,0.4,1.4,0.6C82.5,11,82.6,11.1,82.6,11.2z"/>
	<path class="st0" d="M39.7,4.4c0,0.1-0.1,0.2-0.2,0.3c-0.4,0.2-0.9,0.4-1.3,0.5c-0.2,0.1-0.3,0-0.4-0.1s0-0.3,0.2-0.4
		c0.4-0.2,0.8-0.4,1.3-0.5C39.5,4.1,39.7,4.2,39.7,4.4z"/>
	<path class="st0" d="M71.5,6.9c0,0.2-0.1,0.3-0.3,0.3c-0.1,0-0.1,0-0.2-0.1c-0.4-0.1-0.7-0.2-1.1-0.4c-0.1,0-0.2-0.1-0.2-0.1
		c-0.1-0.1-0.1-0.2-0.1-0.3c0-0.1,0.1-0.2,0.2-0.2s0.1,0,0.2,0c0.4,0.1,0.8,0.3,1.2,0.4C71.4,6.7,71.5,6.8,71.5,6.9z"/>
	<path class="st0" d="M29.8,12.8c-0.1,0-0.2,0-0.3,0c-0.1-0.1-0.1-0.1-0.1-0.2s0-0.1,0.1-0.2c0.3-0.4,0.5-0.7,0.8-1.1
		c0,0,0-0.1,0.1-0.1c0.1-0.1,0.2-0.1,0.3,0c0.1,0.1,0.1,0.2,0.1,0.3l-0.1,0.1c-0.3,0.3-0.5,0.7-0.8,1C29.9,12.7,29.9,12.8,29.8,12.8
		z"/>
	<path class="st0" d="M35.5,6.6c-0.1,0-0.2,0-0.2-0.1s0-0.2,0-0.3l0.1-0.1c0.4-0.3,0.7-0.5,1.1-0.7c0,0,0.1,0,0.1-0.1
		c0.1,0,0.2,0,0.3,0.1c0.1,0.1,0,0.2-0.1,0.3l-0.1,0.1C36.3,6,36,6.2,35.5,6.6C35.6,6.6,35.6,6.6,35.5,6.6z"/>
	<path class="st0" d="M78.2,9.2c0,0,0.1,0,0.1,0.1c0.4,0.2,0.8,0.3,1.2,0.5h0.1c0.1,0.1,0.2,0.2,0.1,0.3c0,0.1-0.2,0.2-0.3,0.1
		c0,0-0.1,0-0.1-0.1c-0.4-0.1-0.7-0.3-1.1-0.4c-0.1,0-0.1,0-0.2-0.1s-0.1-0.2-0.1-0.3C78,9.3,78.1,9.2,78.2,9.2z"/>
	<path class="st0" d="M74,8.2L74,8.2c-0.5-0.2-1-0.3-1.5-0.5c-0.1-0.1-0.2-0.2-0.1-0.3c0-0.1,0.2-0.2,0.3-0.1
		c0.5,0.2,0.9,0.3,1.4,0.5c0,0,0,0,0.1,0c0.1,0.1,0.1,0.2,0.1,0.3C74.2,8.1,74.1,8.2,74,8.2z"/>
	<path class="st0" d="M46.7,3.1c-0.2,0-0.3-0.1-0.3-0.2c0-0.2,0.1-0.3,0.3-0.3c0.5,0,0.9-0.1,1.4-0.1c0,0,0,0,0.1,0
		c0.2,0,0.3,0.1,0.3,0.3c0,0.1-0.1,0.2-0.2,0.2S48,3,47.9,3C47.3,3,47,3.1,46.7,3.1z"/>
	<path class="st0" d="M92,12.3c-0.2,0-0.3-0.2-0.2-0.4c0.2-0.2,0.3-0.4,0.5-0.7c0.1-0.1,0.2-0.1,0.3-0.1c0.1,0.1,0.2,0.2,0.1,0.3
		c-0.1,0.3-0.3,0.5-0.5,0.8C92.1,12.3,92,12.4,92,12.3z"/>
</g>
<g>
	<path class="st0" d="M85.8,35.2c-0.1,0-0.2-0.1-0.3-0.2c0-0.1,0-0.2,0.1-0.3h0.1c0.4-0.1,0.9-0.2,1.3-0.3c0.2,0,0.3,0,0.4,0.2
		c0,0.2,0,0.3-0.2,0.3c-0.4,0.1-0.9,0.2-1.3,0.3H85.8z"/>
	<path class="st0" d="M107.2,36.3c-0.1,0-0.2,0-0.3,0c-0.2,0-0.3-0.1-0.3-0.3c0-0.1,0.1-0.2,0.3-0.2c0.3,0,0.5,0,0.8-0.1
		c0.2,0,0.4-0.1,0.5-0.1c0.2,0,0.3,0,0.3,0.1c0.1,0.1,0,0.3-0.2,0.3C108,36.3,107.6,36.3,107.2,36.3z"/>
	<path class="st0" d="M71.4,38.6c-0.1,0-0.2-0.1-0.3-0.2c0-0.1,0-0.2,0.2-0.3c0.1,0,0.3-0.1,0.5-0.1c0.3-0.1,0.6-0.1,0.9-0.2
		c0.1,0,0.2,0,0.2,0c0.1,0,0.2,0.1,0.2,0.2s0,0.2-0.1,0.3c-0.1,0-0.1,0.1-0.2,0.1c-0.4,0.1-0.8,0.2-1.2,0.3
		C71.5,38.6,71.4,38.6,71.4,38.6z"/>
	<path class="st0" d="M65.7,39.5c-0.1,0-0.1,0-0.1,0c-0.1,0-0.2-0.1-0.2-0.2s0.1-0.3,0.2-0.3c0.3,0,0.6-0.1,0.9-0.1
		c0.2,0,0.3,0,0.5-0.1c0.2,0,0.3,0.1,0.3,0.2s-0.1,0.3-0.3,0.3C66.5,39.4,66.1,39.5,65.7,39.5z"/>
	<path class="st0" d="M103.2,31.5c-0.2,0-0.4-0.1-0.4-0.2s0.1-0.3,0.3-0.3c0.5-0.1,0.9-0.1,1.4-0.2h0.1c0.1,0,0.2,0.1,0.2,0.2
		s0,0.2-0.2,0.3c-0.2,0.1-0.4,0-0.5,0.1C103.8,31.4,103.5,31.5,103.2,31.5z"/>
	<path class="st0" d="M97.4,32.5c-0.2,0-0.3-0.1-0.3-0.2s0-0.3,0.2-0.3c0.5-0.1,0.9-0.2,1.4-0.3c0.2,0,0.3,0,0.3,0.2
		c0,0.2,0,0.3-0.2,0.3c-0.3,0.1-0.7,0.1-1,0.2C97.6,32.5,97.4,32.5,97.4,32.5z"/>
	<path class="st0" d="M88.6,34.5c-0.1,0-0.2-0.1-0.2-0.2s0-0.2,0.2-0.3c0.1,0,0.2,0,0.2-0.1c0.4-0.1,0.7-0.2,1.1-0.3
		c0.1,0,0.1,0,0.2,0c0.2,0,0.3,0.1,0.3,0.2s0,0.3-0.2,0.3C89.7,34.3,89.2,34.4,88.6,34.5C88.7,34.5,88.6,34.5,88.6,34.5z"/>
	<path class="st0" d="M68.6,39.1c-0.2,0-0.3-0.1-0.4-0.2c0-0.1,0-0.3,0.2-0.3c0.5-0.1,1-0.2,1.4-0.3c0.2,0,0.3,0.1,0.3,0.2
		s-0.1,0.3-0.2,0.3C69.5,39,69,39.1,68.6,39.1z"/>
	<path class="st0" d="M100.3,32c-0.2,0-0.3-0.1-0.3-0.2s0.1-0.2,0.2-0.3c0.5-0.1,1-0.2,1.5-0.3c0.1,0,0.3,0.1,0.3,0.2
		s-0.1,0.3-0.2,0.3c-0.4,0.1-0.7,0.1-1.1,0.2C100.4,31.9,100.3,32,100.3,32z"/>
	<path class="st0" d="M106.8,31.3c-0.2,0-0.5,0-0.7,0s-0.3-0.1-0.3-0.2c0-0.2,0.1-0.3,0.3-0.3c0.5,0,1,0,1.4,0
		c0.2,0,0.3,0.1,0.3,0.3c0,0.1-0.1,0.2-0.3,0.2S107,31.3,106.8,31.3L106.8,31.3z"/>
	<path class="st0" d="M74.2,37.9c-0.1,0-0.2-0.1-0.2-0.2s0-0.2,0.1-0.3l0,0c0.5-0.1,1-0.2,1.5-0.3c0.2,0,0.3,0,0.3,0.2
		c0,0.1,0,0.3-0.2,0.3C75.3,37.7,74.8,37.8,74.2,37.9C74.3,37.9,74.3,37.9,74.2,37.9z"/>
	<path class="st0" d="M109,31c0.5,0.2,1,0.5,1.3,1c0.1,0.1,0,0.3-0.1,0.3c-0.1,0.1-0.3,0-0.4-0.1c-0.2-0.4-0.5-0.6-0.9-0.7
		c0,0-0.1,0-0.1-0.1c-0.1-0.1-0.2-0.2-0.1-0.3C108.8,31.1,108.9,31,109,31z"/>
	<path class="st0" d="M110.4,33.7c0,0.1,0,0.1-0.1,0.2c-0.1,0.4-0.3,0.8-0.5,1.2c-0.1,0.2-0.3,0.2-0.4,0.1s-0.1-0.2,0-0.4
		c0.2-0.4,0.4-0.7,0.5-1.1c0-0.1,0-0.1,0.1-0.2s0.2-0.1,0.3-0.1C110.3,33.4,110.4,33.5,110.4,33.7z"/>
	<path class="st0" d="M105.4,36.1c-0.3-0.1-0.5-0.1-0.8-0.3c-0.1-0.1-0.2-0.2-0.1-0.3c0-0.1,0.2-0.2,0.3-0.2
		c0.3,0.1,0.5,0.2,0.8,0.2c0.1,0,0.2,0.2,0.1,0.3C105.7,36,105.6,36.1,105.4,36.1z"/>
</g>
<path class="st0" d="M26.2,46L26.2,46L26.2,46L26.2,46L26.2,46z"/>
<path class="st0" d="M86.7,39.6L86.7,39.6L86.7,39.6L86.7,39.6z"/>
</svg>
