<?xml version="1.0" encoding="utf-8"?>
<!-- Generator: Adobe Illustrator 26.3.1, SVG Export Plug-In . SVG Version: 6.00 Build 0)  -->
<svg version="1.1" id="Capa_1" xmlns="http://www.w3.org/2000/svg" xmlns:xlink="http://www.w3.org/1999/xlink" x="0px" y="0px"
	 width="144px" height="144px" viewBox="0 0 144 144" enable-background="new 0 0 144 144" xml:space="preserve">
<g>
	<path fill="#3F3F3F" d="M45.4,20.2c0.6-0.7,1-1.4,1.2-2.2c0.7-2.3-0.1-5-2.5-7.9c-0.8-1-2.2-2.1-4-3.2C37,4.7,33.4,3,29.5,1.8
		c1.1,0.5,2.1,1.1,3.1,1.8c-4.1-1.4-8.2-2.3-11.3-2.3c-3,0-5.3,0.7-6.7,2.1l-2.2,2.3l2-0.3c-0.5,0.3-0.9,0.7-1.3,1.1l-0.9,1
		c-1.7,0-3.5,0.2-5.1,0.9L4.1,9.7l3.1,0.7c0,0,1.6,0.4,3.1,1c-1.1,0.2-2.6,0.3-3.9,0.4L4.5,12l1,1.5c0,0,0.5,0.9,0.1,1.3
		c-0.1,0.1-0.2,0.2-0.4,0.3C3.4,16.4,1.6,18.4,3,26.8l0.6,3.3L5,27.1c0,0,1.4-2.8,3.7-3.3c0,0.2,0.1,0.5,0.1,0.9c-0.9,3-1,5.7-1,7.1
		c0,5.8,0.9,9.7,1.2,10.9C9,42.9,9,43.1,9,43.3c0,0,0,0,0,0l0,0c-0.1,1,0.4,2.2,1.5,3.5c-0.7,2.6,0.2,3.7,0.9,4.5
		c0.4,0.4,0.6,0.7,0.6,1.1c0.1,0.5,0.1,1,0.1,1.4c0,0.3-0.1,0.7-0.2,1.1l-2,0.1l1.7,1.5c0,0.1,0,0.2-0.1,0.3c0,0.1-0.1,0.3-0.1,0.5
		c0,0.1,0,0.2-0.1,0.3c-0.4,1.5-0.8,2.9-0.7,4.8c0,0.2,0,0.4,0,0.6c0,0.5,0,1.1,0,1.6c0,1,0.2,2,0.4,2.8c0.2,0.8,0.5,1.4,0.7,1.9
		c0.1,0.2,0.2,0.4,0.3,0.5c0.1,0.1,0.1,0.2,0.1,0.2s0-0.1-0.1-0.2c0-0.1-0.1-0.3-0.2-0.5c-0.1-0.4-0.3-1.1-0.4-1.9
		c0-0.4-0.1-0.8-0.1-1.2c0.2,0.6,0.4,1.2,0.7,1.8C15.5,75.8,26.7,76,28,76l0,0l0,0c1,0,8.6-0.1,13.2-4.4c0,0.1-0.1,0.1-0.1,0.2
		c-0.1,0.1-0.2,0.3-0.3,0.4c-0.1,0.1-0.2,0.2-0.2,0.3c-0.1,0.1-0.1,0.2-0.2,0.3c-0.3,0.3-0.4,0.5-0.4,0.5s0.2-0.1,0.5-0.4
		c0.1-0.1,0.2-0.1,0.3-0.2c0.1-0.1,0.2-0.2,0.3-0.3c0.1-0.1,0.2-0.2,0.4-0.3c0.1-0.1,0.2-0.2,0.4-0.4c0.5-0.5,1-1.2,1.5-2
		c0.2-0.4,0.5-0.8,0.7-1.3c0.2-0.4,0.4-0.9,0.5-1.4c0.1-0.5,0.3-0.9,0.4-1.4c0.1-0.5,0.2-0.9,0.2-1.4c0-0.2,0-0.4,0-0.6
		c0.4-2.6-0.1-4.4-0.6-6.2c-0.1-0.3-0.2-0.7-0.3-1c0,0,0,0,0,0l1.4-1.4L44.1,55c-0.1-0.8-0.2-1.6-0.1-2.5c0.2-2,0.4-3.2,0.6-4.2
		c0-0.2,0.1-0.3,0.1-0.5c0.2-0.2,0.4-0.5,0.7-0.7c1.5-1.7,2-3.1,1.6-4.3c0.3-1.3,1.2-5.1,1.2-10.9C48.2,29.8,47.9,24.8,45.4,20.2z
		 M46,44.1c0,0.1-0.1,0.3-0.2,0.4c-0.3,0.5-0.6,1-1,1.4c-0.4,0.4-0.8,0.8-1.2,1.2c-0.4,0.4-0.8,0.8-1.3,1.1c0.4-0.4,0.8-0.8,1.2-1.2
		c0.4-0.4,0.8-0.8,1.1-1.3c0.3-0.4,0.7-0.9,0.9-1.4c0.1-0.3,0.2-0.5,0.2-0.8c0-0.1,0-0.3,0-0.4c0-0.1,0-0.1-0.1-0.2
		c0-0.1-0.1-0.1-0.1-0.2l0-0.1l0-0.1c0.1-0.4,0.2-0.8,0.3-1.2c0.1-0.4,0.2-0.8,0.2-1.2c0.1-0.4,0.1-0.8,0.2-1.2
		c0.1-0.4,0.1-0.8,0.2-1.3c0.1-0.8,0.2-1.7,0.2-2.5c0-0.4,0.1-0.8,0.1-1.3c0-0.4,0-0.8,0-1.3c0-0.4,0-0.8,0-1.3c0-0.4,0-0.8,0-1.3
		c0-0.4-0.1-0.8-0.1-1.3c0-0.4-0.1-0.8-0.2-1.3c-0.1-0.4-0.1-0.8-0.2-1.2c-0.1-0.4-0.2-0.8-0.3-1.2l-0.2-0.6l-0.2-0.6l-0.2-0.6
		l-0.2-0.6l0.2,0.6l0.2,0.6l0.2,0.6l0.2,0.6c0.1,0.4,0.2,0.8,0.3,1.2c0.1,0.4,0.2,0.8,0.3,1.2c0.1,0.4,0.1,0.8,0.2,1.3
		c0.1,0.4,0.1,0.8,0.1,1.3c0,0.4,0.1,0.9,0.1,1.3c0,0.4,0,0.8,0,1.3c0,0.4,0,0.8,0,1.3c0,0.4,0,0.8-0.1,1.3c0,0.4-0.1,0.8-0.1,1.3
		c0,0.4-0.1,0.8-0.1,1.3c0,0.4-0.1,0.8-0.2,1.3c-0.1,0.4-0.1,0.8-0.2,1.3c-0.1,0.4-0.2,0.8-0.3,1.3c-0.1,0.4-0.2,0.8-0.3,1.2
		c0,0,0,0.1,0.1,0.1c0,0.1,0.1,0.2,0.1,0.2c0,0.2,0,0.3,0,0.5C46,43.9,46,44,46,44.1z M9.3,28.8c0,0.1,0,0.2,0,0.2
		c0.1,0.7,0.2,1.3,0.3,2c0.1,0.6,0.2,1.2,0.4,1.7c0.1,0.2,0.1,0.5,0.2,0.7c0.1,0.2,0.1,0.4,0.2,0.5c0.1,0.3,0.2,0.4,0.2,0.4
		s0-0.2-0.1-0.5c0-0.1-0.1-0.3-0.1-0.5c0-0.2-0.1-0.4-0.1-0.7c-0.1-0.5-0.1-1.1-0.2-1.7c0-0.6-0.1-1.3-0.1-2c0-1,0-2,0-2.8
		c0.1,0.5,0.2,1.1,0.3,1.6c0.2,1.1,0.5,2.1,0.7,2.9c0.1,0.4,0.2,0.7,0.3,0.9c0.1,0.2,0.1,0.4,0.1,0.4s0-0.1-0.1-0.4
		c0-0.2-0.1-0.6-0.1-1c-0.1-0.8-0.2-1.9-0.3-2.9c0-0.7-0.1-1.4-0.1-2c0.1,0.4,0.2,0.7,0.3,1.1c0.4,1.7,1,3.2,1,3.2s-0.4-1.7-0.5-3.3
		c0-0.5-0.1-1-0.1-1.4c0,0.2,0.1,0.5,0.2,0.8c0.3,1.2,0.7,2.4,0.7,2.4s-0.1-1.2-0.1-2.4c0-0.6,0-1.3,0.1-1.7c0.2,0,0.5,0.1,0.7,0.1
		c0,0.2,0,0.5,0,0.8c0,1.1,0.2,2.4,0.4,3.7c0.1,0.7,0.1,1.3,0.1,2c0,0.7-0.1,1.4-0.2,2.1c-0.3,1.4-0.8,2.7-1.3,3.9
		c-0.1,0.3-0.3,0.6-0.4,0.9c-0.1,0.3-0.2,0.6-0.3,0.9c0,0,0,0.1-0.1,0.1c-0.1-0.2-0.2-0.4-0.3-0.5c-0.1-0.2-0.2-0.5-0.2-0.8
		c-0.1-0.3-0.1-0.5-0.1-0.7c-0.1-0.4-0.1-0.7-0.1-0.7s0,0.3,0,0.7c0,0.2,0,0.5,0,0.7c0,0.3,0,0.6,0.1,0.8c0.1,0.3,0.2,0.5,0.2,0.8
		c0,0.1,0,0.2,0.1,0.3c-0.1,0.3-0.2,0.5-0.3,0.8c0-0.2-0.1-0.3-0.1-0.5c-0.1-0.4-0.3-0.9-0.3-1.2C10,38.3,10,38,10,38s0,0.2,0,0.6
		c0,0.3,0,0.8,0,1.2c0,0.3,0,0.6-0.1,0.9c-0.4-1.9-0.8-4.9-0.8-8.9C9.1,30.9,9.2,29.9,9.3,28.8z M9.6,22.6c-1.1,0-2,0.4-2.8,0.9
		c0.1-0.1,0.1-0.1,0.2-0.2c0.3-0.3,0.6-0.6,1-0.9c0.3-0.2,0.7-0.5,0.9-0.6c0.1-0.1,0.3-0.2,0.4-0.2c0.1-0.1,0.2-0.1,0.3-0.2
		c0.2-0.1,0.3-0.1,0.3-0.1s-0.1,0-0.3,0.1c-0.1,0-0.2,0.1-0.3,0.1c-0.1,0-0.3,0.1-0.4,0.2c-0.3,0.1-0.7,0.3-1,0.5
		c-0.4,0.2-0.8,0.5-1.1,0.7c-0.4,0.3-0.7,0.6-1,0.9C5.4,24,5.2,24.3,5,24.5C5.1,24,5.2,23.5,5.4,23c0.4-1.2,1.1-2.5,2.1-3.6
		c1-1.1,2.5-2.1,4-2.6c0.4-0.1,0.8-0.2,1.2-0.3c0.4-0.1,0.8-0.1,1.2-0.1c0.8,0,1.6,0.2,2.4,0.4c1.6,0.4,2.9,1.2,4.1,1.8
		c1.2,0.6,2.1,1.2,2.8,1.5c0.3,0.2,0.6,0.3,0.8,0.4c0.2,0.1,0.3,0.1,0.3,0.1s-0.1,0-0.3-0.1c-0.2-0.1-0.5-0.2-0.8-0.4
		c-0.7-0.4-1.6-0.9-2.7-1.6c-1.1-0.7-2.5-1.5-4-2.1c-0.8-0.3-1.7-0.5-2.6-0.6c-0.5,0-0.9,0-1.4,0c-0.5,0-0.9,0.1-1.4,0.2
		c-1.8,0.5-3.4,1.4-4.7,2.7c-1.3,1.2-2.1,2.6-2.7,3.9c-0.1,0.3-0.2,0.6-0.3,0.9c-0.1-1.6-0.1-2.9,0.1-3.9c0.1-0.2,0.2-0.4,0.3-0.6
		c0.1-0.1,0.2-0.3,0.3-0.5c0.1-0.2,0.2-0.3,0.4-0.5c0.1-0.2,0.3-0.3,0.4-0.5c0.1-0.2,0.3-0.3,0.5-0.4c0.2-0.1,0.3-0.3,0.5-0.4
		c0.2-0.1,0.4-0.2,0.5-0.4c0.4-0.2,0.7-0.4,1-0.5c0.3-0.1,0.6-0.3,0.8-0.3c0.2-0.1,0.3-0.1,0.3-0.1s-0.1,0-0.3-0.1
		c-0.2,0-0.5-0.1-0.9,0c-0.3,0-0.7,0.1-1.1,0.2c0.5-0.6,0.4-1.4,0.2-1.9c0.1,0,0.2,0,0.3,0c0.2,0,0.4,0,0.7,0c0.5,0,1.1,0,1.7,0.1
		c0.6,0.1,1.3,0.2,2,0.3c0.7,0.1,1.3,0.3,1.9,0.5c0.6,0.2,1.2,0.4,1.7,0.5c0.2,0.1,0.5,0.2,0.6,0.3c0.2,0.1,0.4,0.1,0.5,0.2
		c0.3,0.1,0.4,0.2,0.4,0.2s-0.1-0.1-0.4-0.2c-0.1-0.1-0.3-0.2-0.5-0.3c-0.2-0.1-0.4-0.2-0.6-0.3c-0.5-0.2-1-0.5-1.6-0.7
		c-0.6-0.2-1.3-0.5-1.9-0.7c-0.7-0.2-1.3-0.4-2-0.5c-0.3-0.1-0.7-0.1-1-0.2c0.7-0.1,1.6-0.2,2.3-0.3c0.1,0,0.4,0,0.7,0
		c0.1,0,0.3,0,0.4,0c0.2,0,0.3,0,0.5,0.1c0.2,0,0.4,0,0.6,0.1c0.2,0,0.4,0.1,0.7,0.1c0.2,0,0.5,0.1,0.7,0.1c0.2,0.1,0.5,0.1,0.8,0.2
		c0.1,0,0.3,0.1,0.4,0.1c0.1,0,0.3,0.1,0.4,0.1c0.3,0.1,0.5,0.2,0.8,0.2c1.1,0.4,2.3,0.8,3.4,1.4c1.1,0.6,2.2,1.2,3.2,1.9
		c1,0.7,1.8,1.4,2.5,2c0.2,0.2,0.3,0.3,0.5,0.5c0.2,0.2,0.3,0.3,0.4,0.4c0.1,0.1,0.3,0.3,0.4,0.4c0.1,0.1,0.2,0.2,0.3,0.3
		c0.4,0.4,0.6,0.7,0.6,0.7s-0.2-0.3-0.5-0.7c-0.1-0.1-0.2-0.2-0.3-0.4c-0.1-0.1-0.2-0.3-0.3-0.4c-0.1-0.2-0.3-0.3-0.4-0.5
		c-0.1-0.2-0.3-0.3-0.5-0.5c-0.6-0.7-1.5-1.5-2.4-2.3c-0.9-0.8-2-1.5-3.1-2.2c-1.1-0.7-2.3-1.2-3.4-1.7c-0.3-0.1-0.6-0.2-0.8-0.3
		c-0.1-0.1-0.3-0.1-0.4-0.2c-0.1,0-0.3-0.1-0.4-0.1c-0.3-0.1-0.5-0.2-0.8-0.3c-0.3-0.1-0.5-0.1-0.7-0.2c-0.2-0.1-0.5-0.1-0.7-0.2
		c-0.2,0-0.4-0.1-0.6-0.1c-0.2,0-0.4-0.1-0.6-0.1c-0.2,0-0.3-0.1-0.5-0.1c-0.2,0-0.4-0.1-0.5-0.1c-0.5-0.2-1-0.4-1.5-0.6
		c0.2,0,0.3,0.1,0.5,0.1c0.2,0,0.5,0.1,0.7,0.1c0.3,0,0.5,0.1,0.7,0.1c0.2,0,0.5,0.1,0.7,0.1c0.5,0.1,0.9,0.1,1.3,0.1
		c0.8,0.1,1.3,0.1,1.3,0.1s-0.5-0.3-1.2-0.6c-0.4-0.2-0.8-0.3-1.3-0.4c-0.2-0.1-0.5-0.1-0.7-0.2c-0.3-0.1-0.5-0.1-0.8-0.2
		c-0.3,0-0.5-0.1-0.8-0.1c-0.3,0-0.5,0-0.7-0.1c-0.2,0-0.5,0-0.7,0c-0.2,0-0.4,0-0.6,0c-0.1,0-0.2,0-0.3,0c1.3-0.5,2.8-0.6,4.2-0.6
		c-0.1,0-0.1,0.1-0.2,0.1c-0.2,0.1-0.3,0.2-0.4,0.2c-0.1,0.1-0.1,0.1-0.1,0.1s0.1,0,0.2,0c0.1,0,0.2,0,0.4,0c0.4,0,0.9,0,1.5,0
		c0.6,0,1.3,0.1,2,0.2c0.4,0.1,0.7,0.1,1.1,0.2c0.4,0.1,0.8,0.2,1.1,0.2c0.4,0.1,0.8,0.2,1.1,0.3c0.4,0.1,0.8,0.2,1.1,0.3
		c0.7,0.2,1.4,0.4,2,0.5c0.6,0.1,1.1,0.3,1.5,0.3c0.4,0.1,0.6,0.1,0.6,0.1s-0.2-0.1-0.5-0.4c-0.3-0.2-0.7-0.5-1.2-0.9
		c-0.5-0.3-1.2-0.7-1.9-1c-0.4-0.2-0.7-0.3-1.1-0.4c-0.3-0.1-0.6-0.2-0.9-0.3c0.9,0,1.8,0.1,2.8,0.3c0.1,0,0.2,0,0.3,0.1l0.3,0.1
		c0.1,0,0.2,0.1,0.3,0.1c0.1,0,0.2,0.1,0.3,0.1c0.2,0.1,0.4,0.2,0.6,0.3c0.2,0.1,0.4,0.2,0.6,0.3c0.8,0.4,1.4,0.9,1.9,1.4
		c0.5,0.5,0.9,1,1.1,1.3c0.2,0.4,0.3,0.6,0.3,0.6s-0.1-0.2-0.2-0.6c-0.2-0.4-0.5-0.9-0.9-1.5C25.4,10.1,24.7,9.5,24,9
		c-0.2-0.1-0.4-0.3-0.6-0.4c-0.2-0.1-0.4-0.2-0.6-0.3c-0.1-0.1-0.2-0.1-0.3-0.2C22.3,8,22.2,8,22.1,7.9l-0.3-0.1
		c-0.1,0-0.2-0.1-0.4-0.1c-1.9-0.6-3.9-0.8-5.3-0.9c-0.6,0-1.2-0.1-1.6-0.1c1.4-1.2,3.6-1.7,4.7-2c0.2,0,0.5,0,0.7-0.1
		c0.7-0.1,1.5-0.1,2.2-0.1c0.8,0,1.5,0,2.2,0.1c0.7,0.1,1.4,0.1,1.9,0.2C26.5,4.9,26.8,5,27,5c0.2,0,0.4,0.1,0.6,0.1
		c0.3,0.1,0.5,0.1,0.5,0.1s-0.2-0.1-0.5-0.2C27.4,5.1,27.2,5,27,4.9c-0.2-0.1-0.5-0.1-0.8-0.2c-0.6-0.1-1.2-0.3-1.9-0.4
		c-0.7-0.1-1.5-0.2-2.2-0.3c-0.8-0.1-1.5-0.1-2.3-0.1c-0.7,0-1.4,0-2,0.1c0,0,0,0,0,0c-1.2,0-2.4,0.2-2.4,0.2
		c1.3-1.3,3.4-1.8,5.9-1.8c4,0,9.1,1.3,13.4,3.1c-0.4,0-0.7,0.1-1,0.1c-0.4,0.1-0.6,0.1-0.6,0.1s0.3,0,0.6,0c0.4,0,0.9,0.1,1.3,0.2
		c0.4,0.1,0.9,0.3,1.2,0.4c1,1,2,2.1,2.8,3.2c1.4,1.9,2.4,4,3.2,6.2c-0.1-0.1-0.1-0.2-0.2-0.3c-0.7-1.3-1.6-2.5-2.4-3.3
		c-0.2-0.2-0.4-0.4-0.5-0.5c-0.2-0.2-0.3-0.3-0.4-0.4c-0.2-0.2-0.4-0.3-0.4-0.3s0.1,0.1,0.3,0.4c0.1,0.1,0.2,0.3,0.4,0.5
		c0.1,0.2,0.3,0.4,0.4,0.6c0.6,0.9,1.3,2.2,1.7,3.6c0.2,0.7,0.4,1.4,0.6,2c0.1,0.3,0.1,0.6,0.2,0.9c0,0.1,0,0.3,0.1,0.4
		c0,0.1,0,0.3,0,0.4c0,0.3,0,0.5,0.1,0.7c0,0.2,0,0.4,0,0.6c0,0.2,0,0.4,0,0.4c-0.5,0.3-1.1,0.5-1.7,0.8c0,0,0-0.1,0-0.1
		c0-0.7-0.1-1.6-0.2-2.8c-0.1-0.6-0.1-1.2-0.2-1.9c-0.1-0.7-0.3-1.4-0.4-2.1c-0.2-0.7-0.4-1.5-0.8-2.2c-0.3-0.7-0.7-1.4-1.1-2.1
		c-0.4-0.7-0.8-1.3-1.3-1.9c-0.5-0.6-1-1.2-1.5-1.7c-1-1-2.2-1.8-3.2-2.4c-1-0.6-1.9-0.9-2.6-1.1c-0.3-0.1-0.6-0.2-0.8-0.2
		c-0.2,0-0.3-0.1-0.3-0.1s0.1,0,0.3,0.1c0.2,0.1,0.4,0.1,0.7,0.3c0.6,0.3,1.5,0.6,2.5,1.3c1,0.6,2,1.5,2.9,2.5
		c0.5,0.5,0.9,1.1,1.3,1.7c0.4,0.6,0.8,1.3,1.1,2c0.7,1.3,1.2,2.7,1.4,4.1c0.1,0.7,0.2,1.3,0.3,2c0.1,0.6,0.1,1.3,0.1,1.8
		c0,1.1,0,2.1,0,2.8c0,0.3,0,0.5,0,0.6c-0.4,0.1-0.9,0.3-1.3,0.4c-0.3,0.1-0.6,0.2-0.9,0.2c0,0,0,0,0,0c0-0.2-0.1-0.4-0.1-0.6
		c0-0.1,0-0.2-0.1-0.4c0-0.1-0.1-0.3-0.1-0.4c-0.1-0.5-0.3-1.1-0.6-1.8c-0.2-0.6-0.5-1.3-0.9-1.9c-0.3-0.6-0.7-1.3-1.1-1.8
		c-0.4-0.6-0.8-1.1-1.1-1.5c-0.2-0.2-0.3-0.4-0.5-0.5c-0.1-0.2-0.3-0.3-0.4-0.4c-0.2-0.2-0.3-0.3-0.3-0.3s0.1,0.1,0.3,0.4
		c0.1,0.1,0.2,0.3,0.3,0.5c0.1,0.2,0.3,0.4,0.4,0.6c0.3,0.4,0.6,1,0.9,1.6c0.3,0.6,0.6,1.2,0.8,1.9c0.2,0.7,0.4,1.3,0.6,1.9
		c0.1,0.6,0.2,1.2,0.3,1.7c0,0.1,0,0.2,0,0.4c0,0.1,0,0.2,0,0.3c0,0.2,0,0.4,0,0.5c0,0.1,0,0.2,0,0.2c-0.3,0.1-0.6,0.1-1,0.2
		c0,0,0,0,0,0c0-0.2-0.1-0.4-0.2-0.6c0-0.1-0.1-0.2-0.1-0.4c0-0.1-0.1-0.3-0.1-0.4c-0.2-0.6-0.5-1.3-0.8-1.9
		c-0.3-0.7-0.7-1.4-1.2-2.1c-0.4-0.7-0.9-1.3-1.4-1.9c-0.5-0.6-1-1.1-1.4-1.5c-0.2-0.2-0.4-0.4-0.6-0.5c-0.2-0.2-0.3-0.3-0.5-0.4
		c-0.3-0.2-0.4-0.3-0.4-0.3s0.1,0.1,0.4,0.4c0.1,0.1,0.3,0.3,0.5,0.4c0.2,0.2,0.4,0.4,0.6,0.6c0.4,0.4,0.8,1,1.3,1.6
		c0.4,0.6,0.9,1.3,1.2,2c0.4,0.7,0.7,1.4,1,2.1c0.3,0.7,0.5,1.3,0.6,1.9c0,0.1,0.1,0.3,0.1,0.4c0,0.1,0,0.3,0.1,0.4
		c0,0.2,0.1,0.4,0.1,0.6c-1.1,0.2-2.1,0.3-3.1,0.4c0,0-0.1-0.1-0.1-0.2c-0.1-0.1-0.1-0.2-0.2-0.3c-0.3-0.4-0.9-0.9-1.5-1.4
		c-0.3-0.2-0.6-0.4-0.9-0.6c-0.3-0.2-0.6-0.3-0.8-0.4c-0.2-0.1-0.5-0.2-0.6-0.2c-0.1,0-0.2-0.1-0.2-0.1s0.1,0,0.2,0.1
		c0.1,0.1,0.3,0.2,0.5,0.3c0.2,0.1,0.5,0.3,0.7,0.5c0.2,0.2,0.5,0.4,0.7,0.7c0.5,0.5,0.9,1,1.1,1.5c0,0,0,0,0,0.1
		c-1.1,0.1-2.2,0.1-3.2,0.1c-1.9,0-3.7-0.1-5.5-0.3c-0.2,0-0.5-0.1-0.9-0.2c-0.6-0.1-1.4-0.3-2.2-0.5c-0.4-0.1-0.8-0.3-1.1-0.5
		c-0.3-0.2-0.6-0.4-0.8-0.7c-0.2-0.2-0.4-0.4-0.4-0.6c0-0.1-0.1-0.1-0.1-0.2c0,0,0-0.1,0-0.1s0,0,0,0.1c0,0,0,0.1,0.1,0.2
		c0.1,0.2,0.2,0.4,0.4,0.7c0.2,0.3,0.4,0.6,0.8,0.8c0.2,0.2,0.4,0.3,0.7,0.5c-2.2-0.3-4.1-0.7-5.6-1.1C10.4,22.7,10,22.6,9.6,22.6z
		 M29.2,47.4c0-0.3,0-0.6-0.1-1c0-0.3,0-0.7,0-1c0-0.3,0-0.6,0-0.9c0-0.2,0-0.5-0.1-0.6c0-0.1,0-0.2,0-0.2s0,0.1,0.1,0.2
		c0.1,0.1,0.1,0.3,0.2,0.6c0.1,0.2,0.1,0.5,0.2,0.9c0,0.3,0.1,0.7,0.1,1c0,0.3,0,0.7,0,1c0,0.3-0.1,0.6-0.1,0.9
		c-0.1,0.3-0.1,0.5-0.2,0.6c-0.1,0.1-0.1,0.2-0.1,0.2s0-0.1,0-0.2c0-0.1,0-0.4,0-0.6C29.2,48,29.2,47.7,29.2,47.4z M13,56.3
		c0.7,0,1.7-0.1,2.7-0.4c1-0.3,1.9-0.7,2.4-1.2c0.3-0.2,0.5-0.5,0.6-0.6c0.1-0.1,0.1-0.2,0.1-0.2c0,0,0-0.1,0-0.1s0,0-0.1,0.1
		c0,0-0.1,0.1-0.2,0.2c-0.1,0.2-0.4,0.4-0.7,0.6c-0.6,0.4-1.5,0.7-2.5,0.9c-0.5,0.1-1,0.1-1.5,0.1c0.9-0.3,1.9-0.8,2.4-1.7
		c0.8-1.5,3.9-4.2,7.7-4.2c1,0,2.1,0.2,3.2,0.7v0.1c-0.1,0.1-0.2,0.2-0.5,0.3c-0.2,0.1-0.5,0.2-0.9,0.4c-0.3,0.1-0.7,0.3-1.1,0.5
		c-0.7,0.4-1.4,0.8-1.8,1.2c-0.2,0.2-0.4,0.4-0.5,0.5c-0.1,0.1-0.1,0.1-0.1,0.2c0,0,0,0.1,0,0.1s0,0,0-0.1c0,0,0.1-0.1,0.1-0.2
		c0.1-0.1,0.3-0.3,0.5-0.5c0.5-0.4,1.1-0.7,1.9-1c0.7-0.3,1.5-0.4,2.1-0.6c0.1,0,0.2-0.1,0.2-0.1v1.6c-0.1-0.2-0.2-0.4-0.2-0.5
		C27.1,52.1,27,52.1,27,52c0-0.1-0.1-0.1-0.1-0.1s0,0.2,0,0.4c0,0.2-0.1,0.5-0.2,0.7c-0.1,0.2-0.2,0.4-0.4,0.5
		c-0.5,0.1-1.1,0.3-2,0.4c0.1-0.2,0.3-0.4,0.5-0.6c0.3-0.3,0.6-0.5,0.8-0.7c0.2-0.2,0.4-0.3,0.4-0.3s-0.2,0-0.5,0.1
		c-0.3,0.1-0.7,0.2-1.1,0.4c-0.4,0.2-0.7,0.5-1,0.7c-0.2,0.2-0.4,0.4-0.4,0.4l0,0c-0.2,0-0.4,0-0.6,0c-0.6,0-1.1,0.1-1.7,0.3
		c0.1-0.1,0.2-0.2,0.3-0.4c0.4-0.5,0.8-1,1.2-1.3c0.1-0.1,0.2-0.2,0.3-0.2c0.1-0.1,0.1-0.1,0.2-0.2c0.1-0.1,0.2-0.1,0.2-0.1
		s-0.1,0-0.2,0.1c-0.1,0-0.1,0.1-0.2,0.1c-0.1,0-0.2,0.1-0.3,0.2c-0.4,0.3-1,0.7-1.5,1.1c-0.5,0.4-1,0.9-1.4,1.2
		c0,0-0.1,0.1-0.1,0.1c-1.7,0.8-3.5,1.8-5.1,1.8c-0.5,0-1-0.1-1.5-0.3C12.9,56.3,13,56.3,13,56.3z M30.5,55.8
		c0.2,0.1,0.5,0.2,0.8,0.4c-0.4,0-0.9-0.1-1.3-0.3c-0.6-0.2-1.2-0.4-1.9-0.4c-0.7,0-1.3,0.2-1.9,0.5c-0.4,0.2-0.9,0.3-1.2,0.3
		c-0.1,0-0.2,0-0.4-0.1c-0.1,0-0.1-0.1-0.2-0.1C26.5,55.5,27.9,54.8,30.5,55.8z M42,56.7c-1.5,0-3.4-1-5.3-1.8c0,0,0,0,0,0
		c-0.4-0.3-0.9-0.8-1.4-1.2c-0.5-0.4-1-0.9-1.5-1.1c-0.1-0.1-0.2-0.1-0.3-0.2c-0.1-0.1-0.2-0.1-0.2-0.1c-0.1-0.1-0.2-0.1-0.2-0.1
		s0.1,0,0.2,0.1c0.1,0,0.1,0.1,0.2,0.2c0.1,0.1,0.2,0.1,0.3,0.2c0.4,0.3,0.8,0.8,1.2,1.3c0.1,0.1,0.2,0.2,0.3,0.4
		C34.6,54.1,34,54,33.4,54c-0.2,0-0.3,0-0.5,0l0,0c0,0-0.1-0.2-0.4-0.4c-0.2-0.2-0.6-0.5-1-0.7c-0.4-0.2-0.8-0.4-1.1-0.4
		c-0.3-0.1-0.5-0.1-0.5-0.1s0.2,0.1,0.4,0.3c0.2,0.2,0.6,0.4,0.8,0.7c0.2,0.2,0.4,0.4,0.5,0.6c-0.8-0.1-1.5-0.2-1.9-0.4
		c-0.1-0.1-0.3-0.3-0.4-0.5c-0.1-0.2-0.2-0.5-0.2-0.7c0-0.2,0-0.4,0-0.4s0,0-0.1,0.1c0,0.1-0.1,0.1-0.2,0.2
		c-0.1,0.2-0.2,0.5-0.3,0.8c0,0,0,0,0,0v-2.2c0.1,0.1,0.1,0.1,0.2,0.2c0.3,0.2,0.6,0.4,1,0.5c0.4,0.1,0.8,0.2,1.1,0.4
		c0.7,0.3,1.5,0.7,1.9,1.1c0.2,0.2,0.4,0.4,0.5,0.5c0.1,0.1,0.1,0.1,0.1,0.2c0,0,0,0.1,0,0.1s0,0,0-0.1c0,0-0.1-0.1-0.1-0.2
		c-0.1-0.1-0.3-0.3-0.5-0.6c-0.4-0.4-1.1-0.9-1.9-1.3c-0.4-0.2-0.8-0.4-1.1-0.5c-0.3-0.2-0.6-0.3-0.8-0.5c-0.1-0.1-0.2-0.2-0.2-0.3
		c0,0,0.1,0,0.1-0.1c0,0,0.1,0,0.2,0c0.1,0,0.3-0.1,0.5-0.2c0,0,0.1,0,0.1-0.1c0.7-0.2,1.3-0.2,2-0.2c3.8,0,6.9,2.7,7.7,4.2
		c0.5,0.9,1.5,1.4,2.3,1.7c-0.5,0-0.9,0-1.4-0.1c-0.9-0.1-1.9-0.5-2.5-0.9c-0.3-0.2-0.5-0.4-0.7-0.6c-0.1-0.1-0.1-0.1-0.2-0.2
		c0,0-0.1-0.1-0.1-0.1s0,0,0,0.1c0,0,0.1,0.1,0.1,0.2c0.1,0.2,0.3,0.4,0.6,0.6c0.6,0.5,1.5,1,2.4,1.2c1,0.3,2,0.4,2.7,0.4
		c0.1,0,0.1,0,0.1,0C42.9,56.6,42.4,56.7,42,56.7z M40.4,53.4c-0.3-0.5-0.8-1.1-1.4-1.7c0.1-0.3,0.2-0.7,0.4-1
		c0.3-0.2,0.8-0.4,0.9-0.6c0,0,0,0,0-0.1c0,1.3,0.3,2.6,0.6,3.9C40.6,53.8,40.5,53.6,40.4,53.4z M27.7,49.5c-0.1,0-0.2-0.1-0.3-0.1
		c0.1-0.4,0.2-0.8,0.3-1.3c0.1,0.5,0.1,1,0.2,1.5L27.7,49.5z M10.4,43.9c0.1-0.2,0.2-0.4,0.4-0.7c0.3-0.6,0.7-1.5,1-2.5
		c0.2-0.5,0.3-1.1,0.5-1.7c0.1-0.3,0.2-0.6,0.3-0.9c0.1-0.3,0.2-0.6,0.3-0.9c0.4-1.3,0.8-2.7,1-4.2c0.1-0.7,0.1-1.5,0.1-2.2
		c0-0.1,0-0.2,0-0.3c0.1-0.1,0.3-0.3,0.6-0.5c0.2-0.2,0.4-0.4,0.7-0.6c0.1-0.1,0.2-0.2,0.4-0.3c0.1-0.1,0.3-0.1,0.5-0.2
		c0.3-0.1,0.7-0.1,1-0.2c0.3-0.1,0.6-0.2,0.8-0.3c0.5-0.2,0.8-0.3,0.8-0.3s-0.3,0.1-0.8,0.2c-0.3,0.1-0.5,0.1-0.9,0.2
		c-0.3,0.1-0.6,0.1-1,0.1c-0.2,0-0.4,0.1-0.5,0.1c-0.2,0.1-0.3,0.2-0.5,0.2c-0.3,0.2-0.5,0.4-0.7,0.5c-0.1,0.1-0.2,0.1-0.3,0.2
		c0-0.4-0.1-0.8-0.2-1.2c-0.1-0.7-0.3-1.3-0.4-1.9c-0.1-0.6-0.2-1.2-0.2-1.7c0-0.3,0-0.5,0-0.7c3.3,0.7,6.6,1.1,9.8,1.2
		c-0.2,0-0.5,0-0.7,0c-0.6,0-1.2,0-1.8,0c-0.6,0-1.1,0-1.6,0c-1.9,0-3.3,0-3.3,0s0.3,0.1,0.9,0.1c0.6,0.1,1.4,0.2,2.3,0.2
		c0.5,0,1,0.1,1.6,0.1c0.6,0,1.1,0.1,1.8,0.1c0.6,0,1.2,0,1.9,0c0.6,0,1.3,0,1.9,0c0.7,0,1.3,0,1.9-0.1c0.6,0,1.3-0.1,1.9-0.1
		c1.2-0.1,2.4-0.1,3.3-0.2c1-0.1,1.8-0.2,2.3-0.3c0.6-0.1,0.9-0.2,0.9-0.2s-0.3,0-0.9,0.1c-0.6,0.1-1.4,0.1-2.3,0.1
		c-0.7,0-1.5,0-2.3,0c2.3-0.2,4.5-0.6,6.6-1.2c1.6-0.4,2.9-0.9,4.1-1.4c-0.1,0.1-0.1,0.2-0.2,0.3c-0.1,0.2-0.2,0.4-0.3,0.6
		c-0.1,0.2-0.2,0.3-0.3,0.5c-0.5,0.6-1.3,1.1-1.9,1.4c-0.6,0.4-1,0.6-1,0.6s0.4-0.2,1.1-0.3c0.3-0.1,0.7-0.2,1.2-0.3
		c0.4-0.1,0.9-0.3,1.3-0.6c0.2-0.1,0.4-0.3,0.6-0.5c0.2-0.2,0.3-0.4,0.5-0.5c0.2-0.2,0.4-0.4,0.6-0.5c0,0.1,0,0.2,0.1,0.3
		c0.1,0.4,0.1,0.9,0.1,1.4c0,1-0.3,2.2-0.6,3.5c0,0.2-0.1,0.4-0.1,0.7c-0.2,0-0.4-0.1-0.7-0.1c-0.3,0-0.7,0-1,0c-0.3,0-0.6,0-0.9,0
		c-0.1,0-0.3-0.1-0.5-0.1c-0.2,0-0.4,0-0.5,0.1c-0.3,0.1-0.6,0.2-0.9,0.3c-0.6,0.2-1.1,0.4-1.6,0.6c-0.5,0.2-0.8,0.4-1.1,0.5
		c-0.3,0.1-0.4,0.2-0.4,0.2s0.2-0.1,0.4-0.2c0.3-0.1,0.6-0.2,1.1-0.4c0.5-0.1,1-0.3,1.6-0.4c0.3-0.1,0.6-0.1,0.9-0.2
		c0.2,0,0.3,0,0.4,0c0.1,0,0.2,0.1,0.4,0.2c0.4,0.1,0.7,0.1,1,0.2c0.3,0,0.6,0,0.9,0.1c0.2,0,0.4,0.1,0.6,0.2c0,0.2,0,0.4-0.1,0.6
		c0,0.7,0,1.4,0.1,2.1c0.2,1.4,0.5,2.8,0.9,4.1c0.1,0.3,0.2,0.6,0.3,0.9c0.1,0.3,0.2,0.5,0.2,0.8c-0.6,1.5-1.2,2.9-1.7,4.4l0,0
		l0,0.2c-0.7,1.7-1.3,3.3-2,5c0,0-0.1,0-0.1,0l-0.2-0.4l-0.1-0.2c0,0,0-0.1-0.1-0.1c0-0.1-0.1-0.1-0.1-0.2c-0.1-0.1-0.2-0.2-0.3-0.2
		c-0.1,0-0.2-0.1-0.3-0.1c-0.2,0-0.4-0.1-0.5-0.1c-0.4,0-0.7,0-1-0.1c-0.6-0.1-1.2-0.5-1.6-1.2c0.2,0.7,0.8,1.2,1.5,1.5
		c0.3,0.1,0.7,0.2,1,0.3c0.2,0,0.3,0.1,0.5,0.1c0.2,0.1,0.3,0.1,0.3,0.2c0,0,0,0,0,0l0,0.1l0.1,0.2l0.1,0.3c-0.3,0.1-0.7,0.3-1,0.5
		c-0.8,0.5-1.3,0.9-1.5,1.4c-1.4-0.8-3-1.3-4.8-1.3c-0.4,0-0.9,0-1.3,0.1c0-0.1,0.1-0.2,0.1-0.4c0-0.1,0.1-0.3,0.1-0.4
		c0-0.1,0-0.3,0-0.5c0-0.2-0.1-0.3-0.1-0.4c0-0.1-0.1-0.2-0.1-0.3c0-0.2-0.1-0.4-0.1-0.5c0-0.1,0-0.2,0-0.2s0,0.1-0.1,0.2
		c0,0.1-0.1,0.3-0.1,0.5c0,0.1,0,0.2,0,0.4c0,0.1,0,0.3,0,0.3c0,0.1-0.1,0.2-0.1,0.4c0,0.1,0,0.2-0.1,0.2c0-1.2,0-2.4-0.2-3.6
		c-0.2-1.3-0.7-2.6-1.4-3.7c-0.1,1.1-0.2,2.1-0.3,3.2c-0.4-0.2-0.6-0.7-0.6-1.2c0-0.5,0-1-0.1-1.4c-0.1-0.2-0.2-0.4-0.4-0.4
		c-0.3,0-0.4,0.3-0.4,0.5c-0.1,0.2-0.1,0.4-0.2,0.6c0,0.1-0.1,0.2-0.1,0.3c-0.1,0.1-0.1,0.2-0.2,0.3c-0.1,0.1-0.1,0.2-0.2,0.3
		c-0.1,0.1-0.1,0.2-0.2,0.4c-0.1,0.1-0.1,0.3-0.2,0.4c-0.1,0.1-0.1,0.3-0.2,0.4c-0.1,0.1-0.1,0.3-0.1,0.4c-0.1,0.3-0.1,0.5-0.1,0.8
		c0,0.2,0,0.4,0.1,0.6c0.1,0.1,0.1,0.2,0.1,0.2s0-0.1,0-0.2c0-0.1,0.1-0.3,0.1-0.5c0.1-0.2,0.2-0.4,0.3-0.7c0-0.1,0.1-0.2,0.2-0.4
		c0,0,0,0,0,0c-0.1,0.7-0.3,1.3-0.4,2l0.2-0.6c-0.3,1-0.4,2-0.3,3c-0.4-0.1-0.8-0.1-1.3-0.1h0c-1.6,0-3.1,0.4-4.4,1.1
		c-0.1-0.5-0.5-1.1-1.4-1.6c-1-0.7-2.1-0.6-3.1-0.5c-0.3,0-0.5,0-0.7,0c0.1-0.2,0.3-0.3,0.4-0.5c0.1-0.1,0.2-0.3,0.3-0.4
		c0,0,0-0.1,0.1-0.1c0,0,0.1,0,0.1,0c0,0,0.1,0,0.2,0c0.1,0,0.1,0,0.2,0c0.1,0,0.2-0.1,0.3-0.1c0.2-0.1,0.3-0.3,0.4-0.4
		c0.2-0.3,0.4-0.5,0.5-0.7c0.3-0.4,0.5-0.7,0.5-0.7s-0.3,0.2-0.6,0.6c-0.2,0.2-0.4,0.4-0.7,0.6c-0.1,0.1-0.2,0.2-0.4,0.3
		c-0.1,0-0.1,0-0.2,0c0,0-0.1,0-0.1,0c0,0,0,0-0.1,0c-0.1,0-0.3-0.1-0.4,0c-0.1,0-0.2,0.1-0.3,0.2c-0.1,0.1-0.3,0.2-0.4,0.4
		c-0.2,0.2-0.5,0.4-0.7,0.6c0,0,0,0-0.1,0.1c-1.1-1-1.7-1.3-1.8-1.4l-0.6-0.2c-0.4-0.6-0.8-1.1-0.9-1.7C10.3,44,10.4,44,10.4,43.9z
		 M11.3,47.8c0.1,0.3,0.2,0.6,0.3,0.9c0.2,0.4,0.4,0.8,0.7,1.2c0.5,0.7,1.1,1.4,1.5,1.9c0.2,0.3,0.4,0.5,0.5,0.6
		c0.1,0.1,0.2,0.2,0.2,0.2s-0.1-0.1-0.1-0.3c-0.1-0.2-0.2-0.4-0.4-0.7c-0.3-0.6-0.8-1.3-1.2-2.1c-0.2-0.4-0.3-0.8-0.4-1.1
		c-0.1-0.4-0.1-0.7-0.2-1c0.2,0.2,0.6,0.5,1,0.9c0.3,0.3,0.8,0.5,1.3,0.7c0.3,0.5,1.1,1.1,1.5,1.5c0.2,0.2,0.4,0.3,0.6,0.4
		c0.1,0.1,0.2,0.1,0.3,0.2c0.1,0.2,0.2,0.4,0.3,0.6c-0.6,0.6-1.1,1.2-1.4,1.7c0,0,0,0.1-0.1,0.1c0-0.1,0-0.2,0-0.3
		c0-0.2-0.1-0.5-0.2-0.7c-0.1-0.2-0.2-0.5-0.3-0.7c-0.1-0.2-0.2-0.4-0.4-0.6c-0.1-0.2-0.2-0.3-0.3-0.4c-0.1-0.1-0.1-0.1-0.1-0.1
		s0,0.1,0.1,0.2c0.1,0.1,0.1,0.2,0.2,0.4c0.1,0.2,0.2,0.4,0.3,0.6c0.1,0.2,0.2,0.5,0.3,0.7c0.1,0.2,0.2,0.5,0.2,0.7
		c0,0.2,0.1,0.4,0.1,0.5c-0.6,0.7-1.7,1-2.5,1.1c0.1-0.8,0.1-1.6,0-2.5C12.8,50.6,10.8,50.6,11.3,47.8z M13,58
		c-0.1,0.1-0.2,0.3-0.4,0.5c-0.3,0.4-0.6,1.1-0.8,1.8c0.2-1.1,0.5-2.1,0.7-3.1c0.6,0.3,1.2,0.4,1.8,0.4c0.3,0,0.6,0,0.9-0.1
		c0.3,0,0.6,0,0.9,0c0.7,0,1.5-0.2,2.2-0.3c0.5-0.1,1-0.3,1.4-0.6c-0.2,0.4-0.4,0.8-0.6,1.3c-0.1,0.4-0.2,0.9-0.3,1.3
		c0,0.4,0,0.8,0.1,1.1c0.1,0.3,0.2,0.6,0.2,0.7c0,0.1,0.1,0.1,0.1,0.2c0,0,0,0.1,0,0.1s0,0,0-0.1c0,0,0-0.1-0.1-0.2
		c-0.1-0.2-0.1-0.4-0.1-0.7c0-0.6,0.1-1.5,0.5-2.2c0.4-0.7,0.9-1.4,1.3-1.9c0.2-0.3,0.4-0.5,0.5-0.6c1,0.7,1.9,1.2,2.8,1.5
		c0.2,0.1,0.5,0.1,0.7,0.1c1.1,0,2.1-0.8,3.1-0.8c1.1,0,2.1,0.7,3.2,0.7c0.4,0,0.7-0.1,1.1-0.2c0.5-0.2,0.9-0.5,1.4-0.8
		c0,0.1,0.1,0.1,0.1,0.2c0.2,0.4,0.5,0.9,0.7,1.5c0.2,0.6,0.4,1.1,0.5,1.6c0.1,0.4,0.2,0.7,0.2,0.7s0-0.3,0-0.8c0-0.5,0-1.1-0.1-1.7
		c0-0.2-0.1-0.4-0.1-0.6c0.4,0.8,0.7,1.8,1,2.9c0.3,1.3,0.4,2.6,0.2,3.6c-0.1,0.5-0.2,0.9-0.3,1.2c-0.1,0.3-0.2,0.4-0.2,0.4
		s0.1-0.1,0.2-0.4c0.1-0.3,0.3-0.7,0.4-1.2c0.3-1,0.3-2.4,0.1-3.7c-0.2-1.4-0.6-2.7-0.9-3.6c-0.1-0.2-0.2-0.4-0.2-0.6c0,0,0,0,0,0
		c0.5,0.3,1,0.6,1.5,0.9c1,0.5,2.1,1,3.2,1.3c0.4,0.1,0.8,0.2,1.2,0.4c0,0,0.1,0,0.1,0.1c0,0.3,0.1,0.7,0.1,1c0,0.1,0,0.1-0.1,0.2
		c-0.1,0.4-0.2,0.9-0.3,1.4c-0.1,0.5-0.2,1-0.2,1.6c0,0.5-0.1,1.1-0.1,1.6c0,0.5,0,1,0.1,1.4c0,0.4,0.1,0.7,0.1,1
		c0,0.2,0.1,0.4,0.1,0.4s0-0.1,0-0.4c0-0.2,0-0.6,0-1c0-0.4,0-0.9,0.1-1.4c0-0.5,0.1-1,0.1-1.6c0-0.5,0.1-1.1,0.2-1.6
		c0-0.3,0.1-0.6,0.1-0.9c0.2,1.7,0.3,3.4,0.2,5c0,0.1,0,0.2-0.1,0.3c-0.2,1.2-0.4,2.5-1.1,3.5c-0.3,0.6-0.8,1.1-1.3,1.6
		c0-0.1,0-0.1,0-0.2c-0.1-0.6-0.2-1.4-0.4-2.1c-0.1-0.7-0.3-1.5-0.3-2.3c-0.1-1.6,0.3-3.1,0.6-4.3c0.2-0.6,0.3-1.1,0.4-1.4
		c0.1-0.3,0.2-0.5,0.2-0.5s-0.1,0.2-0.2,0.5c-0.2,0.3-0.4,0.8-0.6,1.3c-0.5,1.1-1.1,2.7-1.3,4.4c-0.1,0.9-0.1,1.7,0,2.5
		c0,0.8,0.1,1.5,0.1,2c0,0.6-0.1,1-0.1,1.3c-0.8,0.4-1.6,0.8-2.5,1.1c-0.4,0.1-0.8,0.3-1.2,0.4c-0.1-0.5-0.3-1.1-0.5-1.7
		c-0.3-0.6-0.6-1.2-0.9-1.8c-0.7-1.1-1.5-2.2-2-3.1c-0.3-0.4-0.5-0.8-0.6-1.1c-0.1-0.3-0.2-0.4-0.2-0.4s0.1,0.2,0.2,0.4
		c0.1,0.3,0.3,0.7,0.5,1.1c0.4,0.9,1.1,2.1,1.7,3.2c0.3,0.6,0.5,1.2,0.7,1.8c0.2,0.6,0.3,1.1,0.4,1.6c0,0,0,0,0,0.1
		c-1.2,0.3-2.4,0.5-3.7,0.6c0,0,0,0,0-0.1c0-0.6,0-1.3-0.2-2c-0.1-0.7-0.3-1.4-0.6-2.2c-0.5-1.4-1.1-2.8-1.5-3.8
		c-0.2-0.5-0.3-1-0.4-1.3c0-0.2-0.1-0.3-0.1-0.4c0-0.1,0-0.1,0-0.1s0,0,0,0.1c0,0.1,0,0.2,0.1,0.4c0,0.3,0.1,0.8,0.3,1.3
		c0.3,1.1,0.7,2.5,1.1,3.9c0.2,0.7,0.3,1.4,0.4,2.1c0.1,0.7,0,1.3,0,1.8c0,0.1,0,0.1,0,0.2c-1.2,0.1-2.3,0-3.5-0.1
		c0-0.7,0-1.6-0.1-2.5c-0.1-1-0.3-1.9-0.5-2.6c-0.1-0.3-0.2-0.6-0.3-0.8c-0.1-0.2-0.1-0.3-0.1-0.3s0,0.1,0.1,0.3
		c0,0.2,0.1,0.5,0.1,0.8c0.1,0.7,0.1,1.6,0.1,2.6c0,0.9-0.2,1.7-0.3,2.4c-2-0.2-4-0.7-5.9-1.5c-0.7-0.3-1.4-0.6-2-0.9
		c-0.2-0.1-0.3-0.3-0.5-0.4c0,0,0,0,0,0c0.3-0.3,0.6-0.9,0.7-1.5c0.1-0.7,0-1.4-0.2-2.1c-0.2-0.7-0.4-1.4-0.5-2.2
		c-0.2-0.7-0.3-1.5-0.3-2.2c-0.1-0.7-0.1-1.4,0-2c0-0.6,0.1-1,0.2-1.4c0.1-0.3,0.1-0.5,0.1-0.5s-0.1,0.2-0.2,0.5
		c-0.1,0.3-0.2,0.8-0.3,1.4c-0.1,0.6-0.2,1.3-0.2,2c0,0.7,0,1.5,0.1,2.3c0.1,0.8,0.2,1.6,0.3,2.3c0.1,0.7,0.2,1.3,0,1.8
		c-0.1,0.4-0.3,0.8-0.5,0.9c-0.7-0.7-1.2-1.6-1.7-2.6c-0.8-1.8-1.2-3.3-1.3-4.6c0-0.2,0.1-0.4,0.2-0.6c0.1-0.5,0.2-1.2,0.4-1.9
		c0.1-0.7,0.3-1.4,0.5-1.9C12.9,58.3,13,58.1,13,58c0.1-0.1,0.2-0.2,0.2-0.2S13.1,57.8,13,58z"/>
	<path fill="#3F3F3F" d="M26.9,68.7c-0.3-0.8-0.5-1.7-0.7-2.6c-0.2-0.9-0.4-1.8-0.5-2.6c-0.1-0.8-0.1-1.6-0.1-2.3
		c0-0.7,0-1.3,0.1-1.7c0-0.2,0-0.4,0-0.5c0-0.1,0-0.2,0-0.2s0,0.1-0.1,0.2c0,0.1-0.1,0.3-0.1,0.5c-0.1,0.4-0.2,1-0.3,1.7
		C25,61.9,25,62.7,25,63.6c0.1,0.9,0.2,1.8,0.4,2.7c0.3,0.9,0.6,1.8,0.9,2.6c0.3,0.8,0.6,1.6,0.8,2.2c0.2,0.7,0.3,1.2,0.4,1.6
		c0,0.2,0.1,0.4,0.1,0.5c0,0.1,0,0.2,0,0.2s0-0.1,0-0.2c0-0.1,0-0.3,0-0.5c0-0.4,0-1-0.1-1.7C27.4,70.3,27.2,69.5,26.9,68.7z"/>
	<path fill="#3F3F3F" d="M16.3,59.8c-0.1,0.6-0.2,1.3-0.2,2c0,0.7,0.1,1.5,0.2,2.3c0.2,0.8,0.4,1.5,0.6,2.2c0.2,0.3,0.3,0.7,0.5,1
		c0.1,0.1,0.2,0.3,0.2,0.4c0.1,0.1,0.2,0.3,0.2,0.4c0.2,0.2,0.3,0.5,0.5,0.7c0.1,0.1,0.1,0.2,0.2,0.3c0.1,0.1,0.1,0.2,0.2,0.2
		c0.2,0.3,0.4,0.4,0.4,0.4s-0.1-0.2-0.2-0.5c0-0.1-0.1-0.2-0.1-0.2c0-0.1-0.1-0.2-0.1-0.3c-0.1-0.2-0.2-0.5-0.3-0.7
		c-0.1-0.1-0.1-0.3-0.2-0.4c-0.1-0.1-0.1-0.3-0.2-0.4c-0.1-0.3-0.2-0.6-0.3-1c-0.2-0.7-0.4-1.4-0.5-2.1c-0.1-0.7-0.2-1.5-0.3-2.2
		c0-0.7,0-1.4,0-1.9c0-0.1,0-0.3,0-0.4c0-0.1,0-0.3,0-0.4c0-0.2,0-0.4,0.1-0.6c0-0.3,0.1-0.5,0.1-0.5s-0.1,0.2-0.2,0.5
		c-0.1,0.2-0.1,0.4-0.2,0.6c0,0.1-0.1,0.2-0.1,0.4C16.3,59.6,16.3,59.7,16.3,59.8z"/>
	<path fill="#3F3F3F" d="M20.6,61.7c0.1,0.4,0.2,0.8,0.4,1.1c0.1,0.4,0.3,0.7,0.5,0.9c0.1,0.3,0.3,0.5,0.4,0.6
		c0.1,0.1,0.2,0.2,0.2,0.2s0-0.1-0.1-0.3c-0.1-0.2-0.2-0.4-0.3-0.7c-0.1-0.3-0.2-0.6-0.3-1c-0.1-0.4-0.2-0.7-0.3-1.1
		c-0.1-0.4-0.2-0.8-0.3-1.1c-0.1-0.4-0.1-0.7-0.2-1c0-0.3-0.1-0.6-0.1-0.7c0-0.2,0-0.3,0-0.3s0,0.1,0,0.3c0,0.2-0.1,0.4,0,0.7
		c0,0.3,0,0.7,0.1,1.1C20.4,60.9,20.5,61.3,20.6,61.7z"/>
	<path fill="#3F3F3F" d="M21.7,66.1c-0.3-0.5-0.6-0.9-0.9-1.2c-0.1-0.2-0.3-0.3-0.4-0.4c-0.1-0.1-0.2-0.2-0.3-0.3
		c-0.2-0.2-0.3-0.3-0.3-0.3s0.1,0.1,0.2,0.3c0.1,0.1,0.2,0.2,0.2,0.4c0.1,0.1,0.2,0.3,0.3,0.5c0.2,0.4,0.4,0.8,0.7,1.3
		c0.2,0.5,0.4,1,0.6,1.5c0.2,0.5,0.3,1.1,0.4,1.6c0.1,0.5,0.2,1,0.2,1.4c0,0.1,0,0.2,0,0.3c0,0.1,0,0.2,0,0.3c0,0.2,0,0.3,0,0.5
		c0,0.3,0,0.4,0,0.4s0-0.1,0.1-0.4c0-0.1,0.1-0.3,0.1-0.5c0-0.1,0-0.2,0-0.3c0-0.1,0-0.2,0-0.3c0-0.4,0-1,0-1.5
		c-0.1-0.6-0.2-1.1-0.4-1.7C22.2,67.2,22,66.6,21.7,66.1z"/>
	<path fill="#3F3F3F" d="M28.2,64.1c-0.1-0.6-0.3-1.1-0.3-1.6c0-0.1,0-0.2-0.1-0.3c0-0.1,0-0.2,0-0.3c0-0.2,0-0.4-0.1-0.5
		c0-0.3-0.1-0.4-0.1-0.4s0,0.2-0.1,0.4c0,0.1,0,0.3,0,0.5c0,0.1,0,0.2,0,0.3c0,0.1,0,0.2,0,0.4c0,0.5,0.1,1.1,0.1,1.7
		c0.1,0.6,0.3,1.3,0.5,1.9c0.2,0.6,0.5,1.2,0.8,1.8c0.3,0.5,0.6,1,0.9,1.4c0.1,0.2,0.3,0.4,0.4,0.5c0.1,0.2,0.2,0.3,0.3,0.4
		c0.2,0.2,0.3,0.3,0.3,0.3s-0.1-0.1-0.2-0.4c-0.1-0.1-0.2-0.3-0.2-0.4c-0.1-0.2-0.2-0.4-0.3-0.6c-0.2-0.4-0.5-0.9-0.7-1.5
		c-0.2-0.5-0.5-1.1-0.7-1.7C28.5,65.3,28.4,64.7,28.2,64.1z"/>
	<path fill="#3F3F3F" d="M31.7,62.1c-0.1-0.3-0.3-0.6-0.4-0.9c-0.2-0.5-0.4-1-0.5-1.3c-0.1-0.3-0.2-0.5-0.2-0.5s0,0.2,0,0.6
		c0,0.4,0,0.9,0.1,1.5c0,0.3,0.1,0.6,0.2,1c0.1,0.3,0.2,0.7,0.3,1.1c0.1,0.4,0.3,0.7,0.4,1.1c0.2,0.4,0.3,0.7,0.5,1.1
		c0.2,0.4,0.4,0.7,0.6,1c0.2,0.3,0.5,0.6,0.7,0.9c0.4,0.6,0.8,1.1,1.1,1.6c0.3,0.5,0.4,0.9,0.5,1.3c0,0.2,0.1,0.3,0.1,0.4
		c0,0.1,0,0.1,0,0.1s0,0,0-0.1c0-0.1,0.1-0.2,0.1-0.4c0.1-0.4,0-0.9-0.1-1.5c-0.2-0.6-0.5-1.3-0.8-1.9c-0.2-0.3-0.4-0.7-0.6-1
		c-0.2-0.3-0.4-0.7-0.6-1c-0.2-0.3-0.4-0.7-0.5-1c-0.2-0.3-0.3-0.7-0.5-1C32,62.7,31.8,62.4,31.7,62.1z"/>
	<path fill="#3F3F3F" d="M20.1,68.6c-0.1-0.4-0.3-0.8-0.5-1.2c-0.2-0.4-0.4-0.7-0.6-0.9c-0.1-0.1-0.2-0.2-0.3-0.3
		c-0.1-0.1-0.2-0.2-0.2-0.2c-0.1-0.1-0.2-0.2-0.2-0.2s0,0.1,0.1,0.3c0,0.1,0.1,0.2,0.1,0.3c0,0.1,0.1,0.3,0.1,0.4
		c0.1,0.3,0.2,0.6,0.4,1c0.1,0.4,0.3,0.7,0.4,1.1c0.1,0.4,0.2,0.8,0.3,1.1c0.1,0.4,0.2,0.7,0.2,1c0,0.2,0.1,0.3,0.1,0.4
		c0,0.1,0.1,0.2,0.1,0.3c0,0.2,0.1,0.3,0.1,0.3s0-0.1,0.1-0.3c0-0.1,0-0.2,0.1-0.3c0-0.1,0-0.3,0.1-0.4c0-0.3,0-0.7,0-1.1
		C20.3,69.5,20.3,69,20.1,68.6z"/>
	<path fill="#3F3F3F" d="M37.7,61.1c0.1-0.2,0.1-0.5,0.2-0.7c0-0.3,0.1-0.6,0.1-0.8c0-0.3,0-0.6,0-0.8c0-0.3,0-0.5,0-0.7
		c0-0.2-0.1-0.4-0.1-0.5c0-0.1,0-0.2,0-0.2s0,0.1,0,0.2c0,0.1,0,0.3-0.1,0.5c0,0.2-0.1,0.5-0.1,0.7c0,0.3,0,0.5-0.1,0.8
		c0,0.3,0,0.6-0.1,0.8c0,0.3,0,0.5-0.1,0.7c0,0.2,0,0.4,0,0.5c0,0.1,0,0.2,0,0.2s0-0.1,0.1-0.2C37.6,61.5,37.7,61.3,37.7,61.1z"/>
	<path fill="#3F3F3F" d="M13.8,66.3c-0.1-0.3-0.1-0.7-0.1-1.2c0-0.4-0.1-0.9-0.1-1.3c0-0.5,0-0.9,0-1.3c0-0.4,0-0.8,0-1.2
		c0-0.3,0-0.6,0.1-0.8c0-0.2,0-0.3,0-0.3s0,0.1-0.1,0.3c0,0.2-0.1,0.5-0.2,0.8c-0.1,0.3-0.1,0.7-0.1,1.2c0,0.4,0,0.9,0,1.4
		c0,0.5,0.1,0.9,0.1,1.3c0.1,0.4,0.1,0.8,0.2,1.2c0.1,0.3,0.2,0.6,0.2,0.8c0.1,0.2,0.1,0.3,0.1,0.3s0-0.1,0-0.3
		C13.9,66.9,13.8,66.6,13.8,66.3z"/>
	<path fill="#3F3F3F" d="M25.4,57.7c0.4-0.1,0.8-0.2,1.3-0.2c0.5-0.1,1-0.1,1.5-0.1c0.5,0,1,0.1,1.5,0.2c0.5,0.1,0.9,0.2,1.3,0.3
		c0.4,0.1,0.7,0.2,0.9,0.3c0.2,0.1,0.3,0.1,0.3,0.1s-0.1-0.1-0.3-0.2c-0.2-0.1-0.5-0.3-0.8-0.5c-0.4-0.2-0.8-0.4-1.3-0.5
		c-0.5-0.1-1-0.2-1.6-0.3c-0.6,0-1.1,0.1-1.6,0.2c-0.5,0.1-1,0.3-1.3,0.4c-0.4,0.2-0.7,0.4-0.9,0.5c-0.2,0.1-0.3,0.2-0.3,0.2
		s0.1,0,0.4-0.1C24.7,57.9,25,57.8,25.4,57.7z"/>
	<path fill="#3F3F3F" d="M38.3,53.7c0.1,0.1,0.2,0.1,0.2,0.2c0.1,0.1,0.1,0.1,0.2,0.2c0.1,0.1,0.2,0.2,0.3,0.3
		c0.2,0.2,0.3,0.3,0.3,0.3s-0.1-0.1-0.2-0.4c-0.1-0.1-0.1-0.3-0.2-0.4c0-0.1-0.1-0.2-0.1-0.2c-0.1-0.1-0.1-0.2-0.2-0.3
		c-0.3-0.4-0.6-0.8-1-1.2c-0.4-0.4-0.9-0.7-1.4-1.1c-0.5-0.3-1.1-0.6-1.6-0.8c-0.3-0.1-0.5-0.2-0.8-0.2c-0.1,0-0.2-0.1-0.4-0.1
		c-0.1,0-0.2,0-0.3-0.1c-0.2,0-0.4-0.1-0.6-0.1c-0.2,0-0.3,0-0.5,0c-0.3,0-0.4,0-0.4,0s0.1,0,0.4,0.1c0.1,0,0.3,0.1,0.4,0.1
		c0.2,0.1,0.4,0.1,0.6,0.2c0.1,0,0.2,0.1,0.3,0.1c0.1,0,0.2,0.1,0.3,0.1c0.2,0.1,0.5,0.2,0.7,0.3c0.5,0.2,1,0.5,1.5,0.8
		c0.5,0.3,1,0.6,1.4,0.9C37.7,53,38,53.4,38.3,53.7z"/>
	<path fill="#3F3F3F" d="M35.8,53.3c0.1,0.1,0.1,0.1,0.1,0.2c0,0,0,0.1,0,0.1s0,0,0-0.1C35.9,53.4,35.9,53.3,35.8,53.3
		c0-0.2-0.2-0.4-0.4-0.6c-0.2-0.2-0.5-0.4-0.8-0.6c-0.3-0.2-0.7-0.4-1-0.5c-0.4-0.1-0.7-0.2-1.1-0.4c-0.3-0.1-0.7-0.2-0.9-0.3
		c-0.3-0.1-0.5-0.2-0.6-0.2c-0.2-0.1-0.2-0.1-0.2-0.1s0.1,0.1,0.2,0.2c0.1,0.1,0.3,0.2,0.6,0.3c0.3,0.1,0.6,0.3,0.9,0.4
		c0.3,0.1,0.7,0.2,1,0.4c0.4,0.1,0.7,0.3,1,0.4c0.3,0.2,0.6,0.3,0.8,0.5C35.5,53,35.7,53.2,35.8,53.3z"/>
	<path fill="#3F3F3F" d="M18.9,52.7c0.4-0.3,0.9-0.7,1.4-0.9c0.5-0.3,1-0.6,1.5-0.8c0.2-0.1,0.5-0.2,0.7-0.3c0.1,0,0.2-0.1,0.3-0.1
		c0.1,0,0.2-0.1,0.3-0.1c0.2-0.1,0.4-0.1,0.6-0.2c0.2-0.1,0.3-0.1,0.4-0.1c0.2-0.1,0.4-0.1,0.4-0.1s-0.1,0-0.4,0c-0.1,0-0.3,0-0.5,0
		c-0.2,0-0.4,0-0.6,0.1c-0.1,0-0.2,0-0.3,0.1c-0.1,0-0.2,0.1-0.4,0.1c-0.3,0.1-0.5,0.1-0.8,0.2c-0.5,0.2-1.1,0.5-1.6,0.8
		c-0.5,0.3-1,0.7-1.4,1.1c-0.4,0.4-0.7,0.8-1,1.2c-0.1,0.1-0.1,0.2-0.2,0.3c-0.1,0.1-0.1,0.2-0.1,0.2c-0.1,0.2-0.2,0.3-0.2,0.4
		c-0.1,0.2-0.2,0.4-0.2,0.4s0.1-0.1,0.3-0.3c0.1-0.1,0.2-0.2,0.3-0.3c0.1-0.1,0.1-0.1,0.2-0.2c0.1-0.1,0.1-0.1,0.2-0.2
		C18.1,53.4,18.5,53,18.9,52.7z"/>
	<path fill="#3F3F3F" d="M22.5,51.6c-0.4,0.1-0.7,0.3-1,0.5c-0.3,0.2-0.6,0.4-0.8,0.6c-0.2,0.2-0.3,0.4-0.4,0.6
		c0,0.1-0.1,0.1-0.1,0.2c0,0,0,0.1,0,0.1s0,0,0-0.1c0,0,0.1-0.1,0.1-0.2c0.1-0.1,0.3-0.3,0.5-0.5c0.2-0.2,0.5-0.3,0.8-0.5
		c0.3-0.2,0.6-0.3,1-0.4c0.3-0.1,0.7-0.3,1-0.4c0.3-0.1,0.6-0.3,0.9-0.4c0.3-0.1,0.5-0.3,0.6-0.3c0.1-0.1,0.2-0.2,0.2-0.2
		s-0.1,0-0.2,0.1c-0.2,0.1-0.4,0.1-0.6,0.2c-0.3,0.1-0.6,0.2-0.9,0.3C23.2,51.3,22.9,51.4,22.5,51.6z"/>
	<path fill="#3F3F3F" d="M13.8,19.8c0.3,0,0.6,0.1,0.9,0.1c0.3,0,0.6,0.1,0.9,0.2c0.6,0.1,1.2,0.3,1.8,0.5c0.6,0.2,1.2,0.4,1.7,0.7
		c1.1,0.5,2.2,0.9,3.1,1.2c0.9,0.3,1.7,0.4,2.3,0.5c0.3,0,0.5,0,0.7,0c0.2,0,0.2,0,0.2,0s-0.1,0-0.2-0.1c-0.1,0-0.4-0.1-0.6-0.2
		c-0.5-0.2-1.3-0.4-2.2-0.8c-0.9-0.4-1.9-0.9-3-1.4c-0.6-0.3-1.1-0.5-1.7-0.8c-0.6-0.2-1.2-0.4-1.9-0.6c-0.3-0.1-0.7-0.1-1-0.2
		c-0.3-0.1-0.7-0.1-1-0.1c-0.7,0-1.3,0-1.9,0.1c-0.6,0.1-1.2,0.3-1.7,0.5c-0.5,0.2-1,0.5-1.4,0.7c-0.9,0.5-1.5,1.1-1.8,1.5
		c-0.1,0.1-0.2,0.2-0.3,0.3c-0.1,0.1-0.1,0.2-0.2,0.2c-0.1,0.1-0.1,0.2-0.1,0.2s0.1-0.1,0.2-0.1c0.1,0,0.1-0.1,0.2-0.2
		C6.8,22,6.9,21.9,7,21.8c0.4-0.3,1.1-0.8,2-1.2c0.4-0.2,0.9-0.4,1.4-0.5c0.5-0.1,1.1-0.3,1.6-0.3C12.6,19.7,13.2,19.7,13.8,19.8z"
		/>
	<path fill="#3F3F3F" d="M28.3,7.1c0.2,0.1,0.4,0.2,0.6,0.3c0.4,0.2,0.8,0.5,1.2,0.8c0.4,0.3,0.8,0.6,1.2,0.9
		c0.4,0.3,0.8,0.7,1.1,1.1c0.4,0.4,0.7,0.8,1,1.2c0.3,0.4,0.6,0.9,0.8,1.3c0.5,0.9,0.8,1.7,1.1,2.5c0.2,0.8,0.4,1.4,0.5,1.9
		c0,0.2,0.1,0.4,0.1,0.5c0,0.1,0,0.2,0,0.2s0-0.1,0-0.2c0-0.1,0-0.3,0-0.6c0-0.5,0-1.2-0.1-2c-0.1-0.8-0.4-1.8-0.9-2.8
		c-0.2-0.5-0.5-1-0.8-1.4c-0.3-0.5-0.7-0.9-1-1.3c-0.4-0.4-0.8-0.8-1.2-1.2c-0.4-0.4-0.9-0.7-1.3-0.9c-0.5-0.3-0.9-0.5-1.4-0.7
		c-0.2-0.1-0.4-0.2-0.7-0.3c-0.2-0.1-0.4-0.1-0.6-0.2c-0.8-0.2-1.5-0.4-2-0.4c-0.2,0-0.4,0-0.6,0c-0.1,0-0.2,0-0.2,0s0.1,0,0.2,0.1
		c0.1,0,0.3,0.1,0.5,0.2c0.5,0.1,1.1,0.4,1.8,0.7C27.9,6.9,28.1,7,28.3,7.1z"/>
	<path fill="#3F3F3F" d="M30.8,31.6c0.1-0.1,0.3-0.2,0.5-0.3c0.2-0.1,0.3-0.2,0.5-0.3c0.2-0.1,0.4-0.2,0.5-0.3
		c0.2-0.1,0.4-0.2,0.6-0.3c0.2-0.1,0.4-0.1,0.6-0.2c0.2,0,0.4-0.1,0.6-0.1c0.4-0.1,0.8-0.2,1.2-0.3c0.3-0.1,0.6-0.3,0.8-0.4
		c0.1-0.1,0.1-0.1,0.2-0.2c0,0,0.1-0.1,0.1-0.1s0,0-0.1,0c-0.1,0-0.1,0.1-0.2,0.1c-0.2,0.1-0.5,0.1-0.8,0.2c-0.3,0-0.7,0.1-1.2,0.1
		c-0.2,0-0.4,0-0.7,0.1c-0.2,0-0.5,0.1-0.7,0.2c-0.2,0.1-0.5,0.2-0.7,0.3c-0.2,0.1-0.4,0.3-0.6,0.4c-0.2,0.1-0.3,0.3-0.5,0.4
		c-0.1,0.1-0.3,0.3-0.4,0.4c-0.2,0.2-0.5,0.4-0.6,0.6c-0.1,0.1-0.2,0.2-0.2,0.2s0.1,0,0.3-0.1C30.2,31.9,30.5,31.8,30.8,31.6z"/>
	<path fill="#3F3F3F" d="M20.9,30.1c0.2,0.1,0.3,0.1,0.5,0.2c0.2,0.1,0.4,0.2,0.6,0.2c0.2,0.1,0.4,0.2,0.6,0.3
		c0.2,0.1,0.4,0.2,0.6,0.3c0.2,0.1,0.4,0.2,0.6,0.3c0.2,0.1,0.4,0.2,0.6,0.3c0.4,0.2,0.7,0.4,1,0.6c0.3,0.2,0.6,0.3,0.8,0.4
		c0.1,0,0.2,0,0.2,0c0.1,0,0.1,0,0.1,0s-0.1,0-0.3-0.2c-0.2-0.1-0.4-0.3-0.6-0.5c-0.2-0.2-0.5-0.5-0.9-0.8c-0.2-0.1-0.4-0.3-0.6-0.4
		c-0.2-0.1-0.4-0.2-0.6-0.3c-0.2-0.1-0.4-0.2-0.6-0.3c-0.2-0.1-0.4-0.2-0.6-0.2c-0.2-0.1-0.4-0.1-0.6-0.2c-0.2,0-0.4-0.1-0.5-0.1
		c-0.3,0-0.6-0.1-0.8-0.1c-0.2,0-0.3,0-0.3,0s0.1,0,0.3,0.1C20.3,29.9,20.6,30,20.9,30.1z"/>
	<path fill="#3F3F3F" d="M29.8,40.4c0.2,0.7,0.6,1.2,0.8,1.5c0.1,0.2,0.3,0.3,0.3,0.3c0.1,0.1,0.1,0.1,0.1,0.1s0,0-0.1-0.1
		c-0.1-0.1-0.1-0.2-0.2-0.4c-0.2-0.3-0.4-0.9-0.5-1.5c-0.1-0.5-0.1-1-0.1-1.6c0.1,0.3,0.3,0.7,0.6,1.1c1.6,1.9,4.2,2.9,6.8,2.8
		c0,0,0,0,0,0c-0.2,0-0.3,0.1-0.5,0.1c-0.7,0.1-1.4,0.1-2,0c-0.6,0-1.1,0-1.5,0c-0.2,0-0.3,0-0.4,0.1c-0.1,0-0.1,0-0.1,0
		s0.1,0,0.1,0c0.1,0,0.2,0,0.4,0.1c0.3,0.1,0.8,0.2,1.4,0.3c0.6,0.1,1.3,0.3,2.1,0.2c0.4,0,0.8-0.1,1.3-0.3c0.4-0.2,0.8-0.4,1.1-0.6
		c0.4-0.2,0.7-0.5,1-0.8c0.3-0.3,0.6-0.7,0.8-1.1c0.2-0.4,0.2-0.8,0.2-1.2c0-0.3,0-0.7,0-1c0-0.6,0-1.1,0-1.5c0-0.4,0-0.6,0-0.6
		s-0.1,0.2-0.2,0.5c-0.1,0.3-0.2,0.6-0.2,1c-0.3-0.7-0.6-1.5-0.5-2.8c0.1-1.3-2.2-1.8-4.1-1.7c0.1,0,0.2-0.1,0.3-0.1
		c0.2-0.1,0.3-0.1,0.4-0.1c0.1,0,0.2,0,0.2,0s-0.1,0-0.2,0c-0.1,0-0.3,0-0.5,0c-0.4,0-1,0.2-1.6,0.4c-0.1,0-0.2,0.1-0.3,0.1
		c-0.1,0-0.1,0-0.2,0.1c-0.3,0.1-0.5,0.2-0.7,0.4c-0.1,0.1-0.2,0.1-0.4,0.2c-0.2,0.1-0.4,0.2-0.5,0.4c-0.2,0.1-0.4,0.3-0.6,0.4
		c-0.4,0.2-1,0.4-1.7,0.5c0,0-0.1,0-0.1,0c-0.1,0-0.1,0-0.2,0c-0.1,0-0.1,0-0.3,0c-0.1,0-0.2,0.1-0.3,0.2c-0.1,0.1-0.1,0.1-0.2,0.2
		c-0.1,0.1-0.2,0.3-0.2,0.4c-0.1,0.3-0.1,0.5-0.1,0.8c0,0.2,0,0.5,0,0.7C29.5,38.9,29.6,39.7,29.8,40.4z M39.3,41.2
		c0.1-0.2,0.3-0.4,0.5-0.7c0.1-0.1,0.2-0.3,0.3-0.4c0.1-0.2,0.1-0.3,0.1-0.5c0-0.4-0.2-0.8-0.3-1.3c-0.1-0.4-0.3-0.9-0.3-1.3
		c0-0.2,0-0.4,0-0.7c0-0.2,0.1-0.4,0.1-0.6c0-0.3,0-0.6-0.1-0.8c0-0.1-0.1-0.1-0.1-0.2c0,0-0.1-0.1-0.1-0.1s0,0,0.1,0
		c0,0,0.1,0.1,0.2,0.2c0.1,0.1,0.1,0.2,0.2,0.3c0,0.1,0.1,0.3,0.1,0.5c0,0.2,0,0.4,0,0.6c0,0.2,0,0.4,0.1,0.6
		c0.1,0.4,0.2,0.8,0.4,1.3c0.1,0.4,0.3,0.9,0.3,1.4c0,0.2-0.1,0.5-0.2,0.7c-0.1,0.2-0.3,0.3-0.4,0.5C39.7,40.9,39.5,41.1,39.3,41.2
		c-0.1,0.2-0.2,0.3-0.2,0.3S39.2,41.4,39.3,41.2z"/>
	<path fill="#3F3F3F" d="M14.8,41.6c0.3,0.3,0.6,0.6,1,0.8c0.4,0.2,0.8,0.4,1.1,0.4c0.4,0.1,0.8,0.2,1.1,0.2c0.7,0.1,1.4,0.1,2,0
		c0.6-0.1,1.1-0.2,1.4-0.4c0.2-0.1,0.3-0.2,0.3-0.2c0.1-0.1,0.1-0.1,0.1-0.1s0,0-0.1,0c-0.1,0-0.2,0.1-0.4,0.1
		c-0.3,0.1-0.8,0.1-1.3,0c-0.1,0-0.3,0-0.4-0.1c2-0.3,4-1.2,5.2-2.7c0.6-0.8,0.9-1.5,0.9-2.2c0,0.3,0,0.7-0.1,1
		c-0.1,0.4-0.1,0.8-0.2,1.1c-0.1,0.3-0.2,0.6-0.3,0.9c-0.1,0.3-0.1,0.6-0.1,0.8c0,0.2,0.1,0.4,0.2,0.5c0.1,0.1,0.1,0.1,0.1,0.1
		s0-0.1-0.1-0.2c0-0.1-0.1-0.3,0-0.5c0-0.2,0.1-0.4,0.2-0.7c0.1-0.2,0.3-0.5,0.4-0.9c0.1-0.3,0.2-0.7,0.4-1.1
		c0.1-0.4,0.2-0.8,0.2-1.4c0-0.3,0-0.5-0.1-0.8c-0.1-0.3-0.2-0.5-0.5-0.7c-0.1-0.1-0.3-0.2-0.5-0.3c-0.2-0.1-0.3-0.1-0.4-0.1
		c-0.3,0-0.5-0.1-0.6-0.1c-0.5-0.1-0.9-0.2-1.4-0.3c-0.2-0.1-0.4-0.1-0.6-0.2c-0.1,0-0.2-0.1-0.3-0.1l-0.1,0c0,0-0.1,0-0.1-0.1
		c-0.1-0.1-0.3-0.2-0.5-0.4c-0.2-0.1-0.3-0.3-0.5-0.4c0,0-0.1-0.1-0.2-0.1c0,0-0.1-0.1-0.1-0.1c-0.1-0.1-0.2-0.1-0.3-0.1
		c-0.2-0.1-0.4-0.1-0.6-0.2c-0.7-0.2-1.3-0.2-1.7-0.2c-0.4,0-0.7,0-0.7,0s0.2,0.1,0.6,0.2c0.3,0.1,0.8,0.2,1.3,0.4
		c-1.9-0.3-4.7,0-4.6,1.6c0.1,1.2-0.2,2.1-0.5,2.7c0-0.3-0.1-0.6-0.1-0.8c0-0.3,0-0.5,0-0.5s-0.1,0.2-0.2,0.5
		c-0.1,0.3-0.2,0.8-0.2,1.4c0,0.6,0.1,1.3,0.4,2C14.3,40.9,14.6,41.3,14.8,41.6z M25,37.4c-0.1,0.2-0.2,0.4-0.3,0.6
		c-0.1,0.2-0.2,0.4-0.3,0.6c-0.1,0.2-0.2,0.4-0.3,0.6c-0.1,0.2-0.3,0.4-0.5,0.6c-0.2,0.2-0.4,0.3-0.6,0.4c-0.4,0.2-0.8,0.4-1.1,0.5
		c-0.3,0.2-0.6,0.3-0.8,0.3c-0.2,0.1-0.3,0.1-0.3,0.1s0.1-0.1,0.3-0.2c0.2-0.1,0.4-0.3,0.7-0.5c0.3-0.2,0.6-0.4,1-0.6
		c0.2-0.1,0.4-0.2,0.5-0.4c0.2-0.1,0.3-0.3,0.4-0.5c0.1-0.2,0.2-0.4,0.3-0.6c0.1-0.2,0.2-0.4,0.3-0.6c0.2-0.4,0.4-0.7,0.5-1
		c0-0.3-0.2-0.5-0.4-0.6c-0.1-0.1-0.2-0.1-0.2-0.1c0,0-0.1,0-0.1,0s0,0,0.1,0c0.1,0,0.1,0,0.2,0.1c0.1,0,0.2,0.1,0.3,0.2
		c0.1,0.1,0.2,0.3,0.2,0.5C25.2,37,25.1,37.2,25,37.4z"/>
	<path fill="#3F3F3F" d="M41,42.4c-0.1,0.1-0.2,0.2-0.3,0.2c-0.1,0.1-0.2,0.2-0.3,0.3c-0.1,0.1-0.2,0.1-0.3,0.2
		c-0.1,0.1-0.2,0.1-0.4,0.2c-0.1,0.1-0.3,0.1-0.4,0.2c-0.1,0-0.3,0.1-0.4,0.1c-0.1,0-0.2,0.1-0.4,0.1c-0.1,0-0.2,0.1-0.3,0.1
		c-0.2,0.1-0.4,0.1-0.5,0.2c-0.1,0-0.2,0.1-0.2,0.1s0.1,0,0.2,0c0.1,0,0.3,0,0.6,0c0.1,0,0.2,0,0.4,0c0.1,0,0.3,0,0.4-0.1
		c0.1,0,0.3-0.1,0.4-0.1c0.1,0,0.3-0.1,0.4-0.2c0.1-0.1,0.3-0.1,0.4-0.2c0.1-0.1,0.3-0.2,0.4-0.3c0.1-0.1,0.2-0.2,0.2-0.3
		c0.1-0.1,0.1-0.2,0.2-0.3c0.1-0.2,0.3-0.3,0.4-0.4c0.1-0.1,0.2-0.1,0.2-0.1s-0.1,0-0.2,0C41.4,42.2,41.2,42.3,41,42.4z"/>
	<path fill="#3F3F3F" d="M13.4,41.9c0.2,0.2,0.4,0.5,0.5,0.7c0.2,0.2,0.4,0.4,0.6,0.6c0.2,0.1,0.4,0.2,0.6,0.2c0.1,0,0.2,0,0.2,0
		s-0.1,0-0.2-0.1c-0.1-0.1-0.3-0.2-0.4-0.3c-0.2-0.1-0.3-0.4-0.5-0.6c-0.2-0.2-0.3-0.5-0.5-0.8c-0.2-0.3-0.4-0.5-0.6-0.7
		c-0.1-0.2-0.2-0.5-0.2-0.7c0-0.2,0-0.4,0-0.6c0-0.1,0-0.2,0-0.2s0,0.1-0.1,0.2c0,0.1-0.1,0.3-0.1,0.6c0,0.2,0,0.5,0.1,0.8
		C13,41.5,13.2,41.7,13.4,41.9z"/>
</g>
<g>
	<path fill="#3F3F3F" d="M139.3,97.5c-0.4-0.8-1-1.4-1.8-1.5c-0.1,0-0.3,0-0.4,0c0-0.2,0.1-0.5,0.1-0.7c0.9-5.2,2.1-12.3-0.5-16.5
		c0-1.7-0.9-3.6-2.5-5.6c-0.8-0.9-2.1-1.9-3.7-2.9c-2.9-2.1-6.2-3.7-9.8-4.8c1,0.5,1.9,1,2.8,1.6c-3.5-1.2-7.3-2.1-10.4-2.1
		c-2.8,0-4.9,0.7-6.2,2l-2.1,2.1l1.8-0.3c-0.4,0.3-0.9,0.6-1.2,1l-0.9,1c-1.6,0-3.2,0.2-4.7,0.8l-2.7,1.2l2.8,0.7
		c0,0,1.5,0.4,2.9,0.9c-1,0.2-2.4,0.3-3.6,0.4l-1.7,0.1l0.9,1.4c0,0,0.5,0.8,0.1,1.2c-0.1,0.1-0.2,0.2-0.3,0.2
		c-1.7,1.1-3.4,3-2.1,10.8l0.5,3.1l1.3-2.8c0,0,1-2,2.7-2.8c0.2,2.6,0.8,5.3,1.3,7.8c0.2,0.7,0.3,1.5,0.5,2.2c-0.1,0-0.3,0-0.4,0
		c-0.8,0.1-1.5,0.7-1.8,1.5c-0.3,0.6-0.3,1.3-0.4,1.8c-0.1,1.7-0.2,3.6,0.3,5.5c0.4,1.6,1.3,3,2.4,4c0.1,0.3,0.1,0.6,0.2,0.9
		c0.3,1.1,0.7,2.7,0.9,5.3c0.1,0.8,0.1,1.5,0,2.1c0,0.2-0.1,0.4-0.1,0.6l-2,0.1l1.7,1.5c0,0,0,0,0,0c-0.1,0.4-0.2,0.7-0.3,1.1
		c-0.4,1.6-0.8,3.3-0.7,5.4c0,0.2,0,0.3,0,0.5c0,0.6,0,1.1,0,1.7c0,1.1,0.2,2.1,0.4,2.9c0.2,0.8,0.5,1.5,0.7,2
		c0.1,0.2,0.2,0.4,0.3,0.5c0.1,0.1,0.1,0.2,0.1,0.2s0-0.1-0.1-0.2c0-0.1-0.1-0.3-0.2-0.6c-0.1-0.5-0.3-1.2-0.4-2
		c0-0.4-0.1-0.7-0.1-1.2c0.2,0.6,0.4,1.2,0.6,1.8c3.4,8.3,14.6,8.6,15.9,8.6l0,0l0,0c1,0,8.6-0.2,13.2-4.6c0,0.1-0.1,0.1-0.1,0.2
		c-0.1,0.1-0.2,0.3-0.3,0.4c-0.2,0.3-0.3,0.5-0.4,0.6c-0.3,0.4-0.4,0.6-0.4,0.6s0.2-0.1,0.6-0.4c0.2-0.1,0.4-0.3,0.6-0.5
		c0.1-0.1,0.2-0.2,0.4-0.3c0.1-0.1,0.2-0.3,0.4-0.4c0.5-0.6,1-1.3,1.5-2.2c0.1-0.2,0.2-0.4,0.3-0.7c0.1-0.2,0.2-0.5,0.3-0.7
		c0.1-0.2,0.2-0.5,0.3-0.7c0.1-0.2,0.2-0.5,0.3-0.7c0.1-0.5,0.3-1,0.4-1.5c0.1-0.5,0.1-1,0.2-1.5c0-0.2,0-0.3,0-0.5
		c0.4-2.8-0.1-4.8-0.5-6.7c-0.1-0.4-0.2-0.7-0.3-1.1c0,0,0,0,0.1-0.1l1.3-1.5l-1.7-0.1c-0.1-0.8-0.2-1.7-0.1-2.7
		c0.2-2,0.5-3.4,0.8-4.6c0.1-0.6,0.3-1.1,0.3-1.6c1.1-1,1.9-2.4,2.4-3.9c0.5-1.9,0.4-3.8,0.3-5.5C139.6,98.8,139.5,98.2,139.3,97.5z
		 M100.9,99.4c0-0.5,0.1-1,0.3-1.5c0.2-0.5,0.6-0.9,1.1-1c0.1,0,0.2,0,0.4,0c0,0,0.1,0,0.1,0c0,0,0,0.1,0.1,0.1
		c0.2,0.3,0.4,0.8,0.6,1.3c0.2,0.6,0.5,1.2,0.7,2c-0.2,0-0.3,0.1-0.5,0.2c-0.2,0.1-0.5,0.4-0.7,0.6c-0.2,0.3-0.3,0.6-0.3,0.9
		c-0.1,0.6,0,1.3,0.2,1.7c0.1,0.2,0.2,0.4,0.3,0.5c0.1,0.1,0.1,0.2,0.1,0.2s0-0.1-0.1-0.2c0-0.1-0.1-0.3-0.2-0.5
		c-0.1-0.4-0.1-1,0.1-1.5c0.1-0.3,0.2-0.5,0.4-0.6c0.2-0.2,0.3-0.2,0.5-0.3c0.2,0,0.3,0,0.4,0c0,0,0,0,0,0c0.1,0.4,0.1,0.9,0.1,1.3
		c0,0.9-0.3,1.7-0.6,2.4l-0.7,1c-0.1,0.1-0.1,0.2-0.2,0.3c0-0.1-0.1-0.2-0.1-0.4c-0.4-0.9-0.8-2.3-1-3.6c-0.1-0.3-0.1-0.7-0.1-1
		c0-0.3,0-0.7,0-1c0-0.6,0-1.3,0.2-1.8c0.1-0.2,0.1-0.5,0.3-0.5c0.1-0.1,0.3,0.1,0.4,0.2c0.1,0.1,0.2,0.2,0.2,0.3
		c0,0.1,0.1,0.1,0.1,0.1s0,0-0.1-0.1c0-0.1-0.1-0.2-0.2-0.3c0-0.1-0.1-0.1-0.2-0.2c-0.1-0.1-0.2-0.1-0.3-0.1c-0.1,0-0.2,0.1-0.3,0.3
		c-0.1,0.1-0.1,0.2-0.2,0.4c-0.2,0.5-0.3,1.1-0.4,1.8c-0.1,0.3-0.1,0.7-0.1,1c0,0.4-0.1,0.7-0.1,1.1c0,0.6,0,1.2,0.1,1.8
		C100.7,102.7,100.8,101,100.9,99.4z M101.6,83.9c0.3-0.2,0.5-0.3,0.7-0.4c0.2-0.1,0.3-0.1,0.3-0.1s-0.1,0-0.3,0.1
		c-0.2,0.1-0.4,0.1-0.7,0.3c-0.6,0.2-1.3,0.7-2,1.2c-0.6,0.4-1.1,1-1.5,1.4c0.1-0.4,0.2-0.8,0.3-1.3c0.4-1.1,1-2.3,2-3.3
		c1-1.1,2.3-2,3.7-2.4c0.7-0.2,1.5-0.4,2.3-0.3c0.8,0,1.5,0.2,2.2,0.4c1.4,0.4,2.7,1.1,3.8,1.6c1.1,0.6,2,1.1,2.6,1.4
		c0.6,0.3,1,0.5,1,0.5s-0.4-0.2-1-0.5c-0.6-0.3-1.5-0.9-2.5-1.5c-1-0.6-2.3-1.4-3.7-1.9c-0.7-0.3-1.5-0.5-2.4-0.5
		c-0.8-0.1-1.7,0-2.5,0.2c-1.7,0.4-3.2,1.3-4.3,2.4c-1.2,1.1-2,2.4-2.4,3.6c-0.1,0.3-0.2,0.6-0.3,0.9c-0.1-1.5-0.1-2.7,0.1-3.6
		c0.1-0.2,0.2-0.4,0.3-0.6c0.1-0.1,0.2-0.3,0.3-0.4c0.1-0.1,0.2-0.3,0.3-0.4c0.1-0.2,0.3-0.3,0.4-0.4c0.1-0.1,0.3-0.3,0.4-0.4
		c0.1-0.1,0.3-0.3,0.5-0.4c0.2-0.1,0.3-0.2,0.5-0.3c0.3-0.2,0.7-0.4,1-0.5c0.3-0.1,0.6-0.2,0.7-0.3c0.2-0.1,0.3-0.1,0.3-0.1
		s-0.1,0-0.3-0.1c-0.2,0-0.5-0.1-0.8,0c-0.3,0-0.6,0.1-1,0.2c0.5-0.6,0.4-1.3,0.2-1.8c0.3,0,0.6,0,0.9,0c0.9,0,2.2,0.1,3.4,0.3
		c1.2,0.2,2.4,0.6,3.3,0.9c0.4,0.2,0.8,0.3,1.1,0.4c0.3,0.1,0.4,0.2,0.4,0.2s-0.1-0.1-0.4-0.2c-0.2-0.1-0.6-0.3-1-0.5
		c-0.9-0.4-2-0.9-3.3-1.3c-0.9-0.3-1.9-0.5-2.7-0.6c0.7-0.1,1.4-0.2,2.1-0.3c0.1,0,0.3,0,0.6,0c0.2,0,0.5,0,0.9,0.1
		c0.2,0,0.4,0,0.5,0.1c0.2,0,0.4,0.1,0.6,0.1c0.8,0.1,1.8,0.4,2.9,0.7c1,0.3,2.1,0.8,3.1,1.3c1,0.5,2,1.1,2.9,1.7
		c0.9,0.6,1.7,1.3,2.3,1.9c0.2,0.2,0.3,0.3,0.5,0.4c0.1,0.1,0.3,0.3,0.4,0.4c0.2,0.3,0.5,0.5,0.6,0.7c0.3,0.4,0.5,0.6,0.5,0.6
		s-0.2-0.2-0.5-0.7c-0.1-0.2-0.3-0.5-0.6-0.7c-0.1-0.1-0.2-0.3-0.4-0.4c-0.1-0.2-0.3-0.3-0.4-0.5c-0.6-0.7-1.3-1.4-2.2-2.1
		c-0.9-0.7-1.8-1.4-2.9-2c-1-0.6-2.1-1.2-3.2-1.6c-1.1-0.4-2.1-0.8-2.9-1c-0.2-0.1-0.4-0.1-0.6-0.2c-0.2,0-0.4-0.1-0.6-0.1
		c-0.4-0.1-0.7-0.1-0.9-0.2c-0.2,0-0.4-0.1-0.5-0.1c-0.5-0.2-0.9-0.4-1.4-0.6c0.1,0,0.3,0.1,0.4,0.1c0.2,0,0.5,0.1,0.7,0.1
		c0.2,0,0.5,0.1,0.7,0.1c0.2,0,0.5,0.1,0.7,0.1c0.4,0.1,0.8,0.1,1.2,0.1c0.7,0.1,1.2,0.1,1.2,0.1s-0.4-0.3-1.1-0.5
		c-0.3-0.1-0.7-0.3-1.2-0.4c-0.2-0.1-0.4-0.1-0.7-0.2c-0.2,0-0.5-0.1-0.7-0.1c-0.2,0-0.5-0.1-0.7-0.1c-0.2,0-0.5,0-0.7-0.1
		c-0.2,0-0.4,0-0.6,0c-0.2,0-0.4,0-0.6,0c-0.1,0-0.2,0-0.3,0c1.2-0.4,2.5-0.5,3.9-0.6c-0.1,0-0.1,0.1-0.2,0.1
		c-0.2,0.1-0.3,0.2-0.3,0.2c-0.1,0.1-0.1,0.1-0.1,0.1s0.2,0,0.5,0c0.3,0,0.8,0,1.4,0c0.6,0,1.2,0.1,1.8,0.2c0.3,0.1,0.7,0.1,1,0.2
		c0.3,0.1,0.7,0.1,1,0.2c0.4,0.1,0.7,0.2,1.1,0.3c0.3,0.1,0.7,0.2,1,0.3c0.7,0.2,1.3,0.4,1.9,0.5c0.6,0.1,1,0.2,1.4,0.3
		c0.3,0.1,0.5,0.1,0.5,0.1s-0.1-0.1-0.4-0.3c-0.3-0.2-0.7-0.5-1.2-0.8c-0.5-0.3-1.1-0.6-1.8-0.9c-0.3-0.1-0.7-0.3-1.1-0.4
		c-0.3-0.1-0.6-0.2-0.9-0.3c0.8,0,1.7,0.1,2.5,0.3c1.7,0.3,3.2,1.2,4.1,2.1c0.5,0.5,0.8,0.9,1,1.2c0.2,0.3,0.3,0.5,0.3,0.5
		s-0.1-0.2-0.2-0.6c-0.2-0.4-0.4-0.8-0.9-1.4c-0.4-0.5-1-1.1-1.7-1.6c-0.2-0.1-0.4-0.2-0.5-0.4c-0.2-0.1-0.4-0.2-0.6-0.3
		c-0.2-0.1-0.4-0.2-0.6-0.3c-0.2-0.1-0.4-0.2-0.6-0.2c-1.8-0.5-3.6-0.7-4.9-0.8c-0.6,0-1.1-0.1-1.5-0.1c1.3-1.1,3.3-1.6,4.4-1.8
		c0.8-0.1,1.7-0.2,2.7-0.2c1.4,0,2.8,0.1,3.8,0.3c0.5,0.1,1,0.2,1.3,0.2c0.3,0.1,0.5,0.1,0.5,0.1s-0.2-0.1-0.5-0.1
		c-0.3-0.1-0.7-0.2-1.2-0.3c-1-0.3-2.4-0.5-3.8-0.7c-1.4-0.1-2.9-0.1-3.9,0c0,0,0,0,0,0c-1.1,0-2.2,0.2-2.2,0.2
		c1.2-1.2,3.1-1.7,5.5-1.7c3.7,0,8.4,1.2,12.4,2.9c-0.4,0-0.7,0.1-0.9,0.1c-0.3,0.1-0.6,0.1-0.6,0.1s0.2,0,0.6,0
		c0.3,0,0.8,0.1,1.2,0.2c0.4,0.1,0.8,0.3,1.1,0.4c0.9,0.9,1.8,1.9,2.6,3c1.3,1.7,2.2,3.7,2.9,5.7c-0.1-0.1-0.1-0.2-0.2-0.3
		c-0.7-1.2-1.5-2.3-2.2-3.1c-0.3-0.4-0.7-0.7-0.9-0.9c-0.2-0.2-0.4-0.3-0.4-0.3s0.1,0.1,0.3,0.4c0.2,0.2,0.4,0.6,0.7,1
		c0.6,0.8,1.2,2,1.6,3.3c0.4,1.2,0.7,2.5,0.8,3.5c0,0.2,0,0.5,0.1,0.7c0,0.2,0,0.4,0,0.5c0,0.2,0,0.3,0,0.4c-0.5,0.2-1,0.5-1.6,0.7
		c0,0,0-0.1,0-0.1c0-0.6-0.1-1.5-0.2-2.6c-0.1-1.1-0.3-2.3-0.6-3.7c-0.3-1.3-1-2.7-1.7-3.9c-0.4-0.6-0.8-1.2-1.2-1.8
		c-0.4-0.6-0.9-1.1-1.4-1.6c-1-1-2-1.7-2.9-2.2c-0.9-0.5-1.8-0.8-2.4-1c-0.6-0.2-0.9-0.3-0.9-0.3s0.3,0.1,0.9,0.3
		c0.6,0.2,1.4,0.6,2.3,1.2c0.9,0.6,1.8,1.3,2.7,2.3c0.4,0.5,0.8,1,1.2,1.6c0.4,0.6,0.7,1.2,1,1.8c0.6,1.2,1.1,2.5,1.3,3.8
		c0.2,1.3,0.3,2.5,0.3,3.5c0,1,0,1.9,0,2.5c0,0.2,0,0.4,0,0.6c-0.4,0.1-0.8,0.2-1.2,0.4c-0.3,0.1-0.5,0.1-0.8,0.2c0,0,0,0,0,0
		c0-0.1-0.1-0.3-0.1-0.5c0-0.2-0.1-0.4-0.2-0.7c-0.1-0.5-0.3-1.1-0.5-1.7c-0.2-0.6-0.5-1.2-0.8-1.8c-0.3-0.6-0.7-1.2-1-1.7
		c-0.4-0.5-0.7-1-1-1.3c-0.2-0.2-0.3-0.4-0.4-0.5c-0.1-0.1-0.3-0.3-0.4-0.4c-0.2-0.2-0.3-0.3-0.3-0.3s0.1,0.1,0.3,0.4
		c0.1,0.1,0.2,0.3,0.3,0.4c0.1,0.2,0.2,0.3,0.4,0.6c0.3,0.4,0.5,0.9,0.8,1.4c0.3,0.5,0.5,1.1,0.7,1.7c0.4,1.2,0.7,2.5,0.8,3.4
		c0,0.2,0,0.4,0.1,0.6c0,0.2,0,0.4,0,0.5c0,0.1,0,0.1,0,0.2c-0.3,0.1-0.6,0.1-0.9,0.2c0,0,0,0,0,0c0-0.2-0.1-0.4-0.1-0.6
		c-0.1-0.2-0.1-0.5-0.2-0.7c-0.2-0.5-0.4-1.2-0.7-1.8c-0.3-0.6-0.7-1.3-1.1-1.9c-0.4-0.6-0.9-1.2-1.3-1.8c-0.5-0.5-0.9-1-1.3-1.4
		c-0.2-0.2-0.4-0.4-0.6-0.5c-0.2-0.1-0.3-0.3-0.4-0.4c-0.3-0.2-0.4-0.3-0.4-0.3s0.1,0.1,0.4,0.3c0.1,0.1,0.3,0.2,0.4,0.4
		c0.2,0.2,0.3,0.3,0.5,0.5c0.4,0.4,0.8,0.9,1.2,1.5c0.4,0.6,0.8,1.2,1.1,1.8c0.3,0.6,0.6,1.3,0.9,1.9c0.2,0.6,0.4,1.2,0.5,1.8
		c0.1,0.3,0.1,0.5,0.2,0.7c0,0.2,0.1,0.4,0.1,0.5c-1,0.1-1.9,0.3-2.9,0.3c-0.1-0.1-0.2-0.3-0.3-0.4c-0.3-0.4-0.8-0.9-1.3-1.3
		c-0.5-0.4-1.1-0.7-1.6-0.9c-0.5-0.2-0.8-0.3-0.8-0.3s0.3,0.1,0.7,0.4c0.4,0.2,0.9,0.6,1.3,1.1c0.4,0.4,0.8,1,1,1.3c0,0,0,0,0,0.1
		c-1,0.1-2,0.1-3,0.1c-1.8,0-3.5-0.1-5.1-0.2c-0.1,0-0.5-0.1-0.9-0.2c-0.6-0.1-1.3-0.3-2-0.5c-0.7-0.2-1.4-0.6-1.8-1.1
		c-0.2-0.2-0.3-0.4-0.4-0.6c0-0.1-0.1-0.1-0.1-0.2c0,0,0-0.1,0-0.1s0,0,0,0.1c0,0,0,0.1,0.1,0.2c0.1,0.2,0.2,0.4,0.3,0.6
		c0.3,0.4,0.8,0.9,1.3,1.2c-2-0.3-3.8-0.7-5.2-1c-0.4-0.1-0.8-0.1-1.1-0.1c-1,0-1.8,0.3-2.5,0.8c0.1-0.1,0.1-0.1,0.2-0.2
		C100.4,84.7,101.1,84.2,101.6,83.9z M138.4,97.9c0.2,0.5,0.2,1,0.3,1.5c0.1,1.7,0.2,3.5-0.3,5.2c0,0,0,0.1,0,0.1
		c0.1-0.7,0.2-1.5,0.2-2.2c0-0.4,0-0.7-0.1-1.1c0-0.3-0.1-0.7-0.1-1c-0.1-0.7-0.2-1.3-0.4-1.8c-0.1-0.1-0.1-0.2-0.2-0.4
		c-0.1-0.1-0.2-0.2-0.3-0.3c-0.1,0-0.3,0-0.3,0.1c-0.1,0.1-0.1,0.1-0.2,0.2c0.1-0.4,0.2-0.8,0.3-1.2c0,0,0.1,0,0.1,0
		C137.8,97.1,138.2,97.5,138.4,97.9z M119.7,118.8c-0.5,0-1,0.1-1.5,0.2c-0.4,0.1-0.8,0.2-1.1,0.2c-0.3,0-0.5,0-0.8-0.1
		c-0.8-0.3-1.6-0.8-2.5-1.4c0.2,0,0.4-0.1,0.5-0.1c0.4,0,0.7,0,1,0c0.7,0.1,2.2,0.4,4.6,0.3c2.2,0,3.6-0.2,4.4-0.3
		c0.2,0,0.5,0,0.7,0c0.2,0,0.3,0,0.5,0.1c-0.7,0.5-1.3,0.9-1.9,1.2c-0.4,0.2-0.8,0.3-1.3,0.3c-0.4,0-0.8-0.1-1.2-0.1
		C120.7,118.9,120.2,118.8,119.7,118.8z M104.7,119.1c0.7,0,1.8-0.1,2.8-0.4c1-0.3,1.9-0.8,2.4-1.3c0.3-0.3,0.5-0.5,0.6-0.7
		c0.1-0.1,0.1-0.2,0.1-0.2c0,0,0-0.1,0-0.1s0,0-0.1,0.1c0,0-0.1,0.1-0.2,0.2c-0.1,0.2-0.4,0.4-0.7,0.6c-0.6,0.4-1.5,0.8-2.5,0.9
		c-0.5,0.1-1.1,0.1-1.6,0.1c0.9-0.3,1.9-0.8,2.4-1.8c0.8-1.6,3.9-4.5,7.7-4.5c1,0,2.1,0.2,3.2,0.7v0.1c-0.1,0.1-0.2,0.2-0.5,0.4
		c-0.5,0.3-1.3,0.5-2,0.9c-0.7,0.4-1.4,0.9-1.8,1.3c-0.2,0.2-0.4,0.4-0.5,0.6c-0.1,0.1-0.1,0.2-0.1,0.2s0.1-0.1,0.2-0.2
		c0.1-0.1,0.3-0.3,0.5-0.5c0.5-0.4,1.1-0.8,1.9-1.1c0.7-0.3,1.5-0.4,2.1-0.7c0.1,0,0.2-0.1,0.2-0.1v1.7c-0.1-0.2-0.2-0.4-0.2-0.5
		c-0.1-0.2-0.2-0.3-0.2-0.3s0,0.2,0,0.4c0,0.2-0.1,0.5-0.2,0.8c-0.1,0.2-0.2,0.4-0.3,0.5c-0.5,0.2-1.1,0.3-2,0.4
		c0.1-0.2,0.3-0.4,0.5-0.7c0.3-0.3,0.6-0.6,0.8-0.7c0.2-0.2,0.4-0.3,0.4-0.3s-0.2,0-0.5,0.1c-0.3,0.1-0.7,0.3-1.1,0.5
		c-0.4,0.2-0.7,0.5-1,0.7c-0.2,0.2-0.4,0.4-0.4,0.4l0,0c-0.2,0-0.4,0-0.5,0c-0.6,0-1.1,0.1-1.7,0.3c0.1-0.1,0.2-0.3,0.3-0.4
		c0.4-0.5,0.8-1.1,1.2-1.4c0.2-0.2,0.3-0.3,0.5-0.4c0.1-0.1,0.2-0.1,0.2-0.1s-0.1,0-0.2,0.1c-0.1,0.1-0.3,0.2-0.5,0.3
		c-0.4,0.3-1,0.7-1.5,1.2c-0.5,0.5-1,1-1.4,1.3c0,0-0.1,0.1-0.1,0.1c-1.7,0.8-3.5,1.9-5.1,1.9c-0.5,0-1-0.1-1.5-0.4
		C104.6,119.1,104.7,119.1,104.7,119.1z M133.7,119.4c-1.5,0-3.5-1.1-5.3-1.9c0,0,0,0,0,0c-0.4-0.3-0.9-0.8-1.4-1.3
		c-0.5-0.5-1-0.9-1.5-1.2c-0.2-0.1-0.4-0.3-0.5-0.3c-0.1-0.1-0.2-0.1-0.2-0.1s0.1,0.1,0.2,0.1c0.1,0.1,0.3,0.2,0.5,0.4
		c0.4,0.4,0.8,0.9,1.2,1.4c0.1,0.1,0.2,0.3,0.3,0.4c-0.6-0.2-1.2-0.3-1.8-0.4c-0.2,0-0.3,0-0.5,0l0,0c0,0-0.1-0.2-0.4-0.4
		c-0.2-0.2-0.6-0.5-1-0.7c-0.4-0.2-0.8-0.4-1.1-0.5c-0.3-0.1-0.5-0.1-0.5-0.1s0.2,0.1,0.4,0.3c0.3,0.2,0.6,0.4,0.8,0.7
		c0.2,0.2,0.4,0.5,0.5,0.7c-0.8-0.1-1.5-0.2-1.9-0.4c-0.1-0.1-0.3-0.3-0.4-0.5c-0.1-0.2-0.2-0.5-0.2-0.8c0-0.2,0-0.4,0-0.4
		s-0.1,0.1-0.2,0.3c-0.1,0.2-0.2,0.5-0.3,0.8v-2.3c0,0,0.1,0.1,0.1,0.1c0.3,0.2,0.6,0.4,1,0.6c0.4,0.1,0.8,0.3,1.1,0.4
		c0.7,0.3,1.5,0.7,1.9,1.1c0.2,0.2,0.4,0.4,0.5,0.5c0.1,0.1,0.2,0.2,0.2,0.2s0-0.1-0.2-0.2c-0.1-0.2-0.3-0.4-0.5-0.6
		c-0.4-0.5-1.1-0.9-1.9-1.3c-0.4-0.2-0.8-0.4-1.1-0.5c-0.3-0.2-0.6-0.4-0.8-0.6c-0.1-0.1-0.2-0.2-0.2-0.3c1-0.4,2-0.6,2.9-0.6
		c3.8,0,6.9,2.9,7.7,4.5c0.5,0.9,1.5,1.5,2.4,1.8c-0.5,0-1,0-1.5-0.1c-0.9-0.1-1.9-0.5-2.5-0.9c-0.3-0.2-0.5-0.4-0.7-0.6
		c-0.1-0.1-0.1-0.1-0.2-0.2c0,0-0.1-0.1-0.1-0.1s0,0,0,0.1c0,0,0.1,0.1,0.1,0.2c0.1,0.2,0.3,0.4,0.6,0.7c0.6,0.5,1.5,1,2.4,1.3
		c1,0.3,2,0.4,2.8,0.4c0.1,0,0.1,0,0.2,0C134.6,119.3,134.2,119.4,133.7,119.4z M136.4,102.2c0-0.1,0-0.2,0-0.2
		c0.1,0.1,0.1,0.2,0.1,0.3c0.2,0.5,0.2,1.1,0.1,1.5c0,0.1,0,0.2-0.1,0.3C136.5,103.4,136.5,102.8,136.4,102.2z M132.8,116.8
		c-0.3-0.2-0.5-0.4-0.6-0.7c-0.3-0.5-0.7-1.2-1.3-1.8c0.8-0.8,1.4-1.7,1.9-2.6C132.5,113.4,132.6,115.1,132.8,116.8z M136.9,105.3
		c-0.1-0.4-0.2-0.8-0.2-1.1c0.1-0.1,0.1-0.2,0.2-0.4c0.2-0.4,0.3-1,0.2-1.7c0-0.3-0.1-0.6-0.3-0.9c-0.1-0.1-0.2-0.3-0.3-0.4
		c0-0.8,0.1-1.6,0.3-2.4c0,0,0-0.1,0-0.1c0,0,0-0.1,0.1-0.1c0.1-0.1,0.3-0.2,0.4-0.2c0.1,0.1,0.2,0.3,0.3,0.5
		c0.1,0.5,0.2,1.1,0.2,1.8c0,0.3,0,0.7,0,1c0,0.3,0,0.7-0.1,1C137.5,103.4,137.2,104.5,136.9,105.3z M104.2,111.1
		c0.4,1,0.9,2,1.3,2.7c0.2,0.4,0.4,0.7,0.5,0.9c0.1,0.2,0.2,0.3,0.2,0.3s-0.1-0.1-0.2-0.3c-0.1-0.2-0.3-0.5-0.4-0.9
		c-0.3-0.8-0.7-1.8-0.9-2.9c-0.2-1-0.3-2-0.3-2.8c0.6,1.4,1.7,3.6,4.3,6.2c-0.6,0.6-1.1,1.2-1.3,1.7c0,0,0,0,0,0c0-0.1,0-0.2,0-0.3
		c0-0.3-0.1-0.5-0.2-0.8c-0.1-0.3-0.2-0.5-0.3-0.8c-0.1-0.2-0.2-0.4-0.4-0.6c-0.1-0.2-0.2-0.3-0.3-0.4c-0.1-0.1-0.1-0.1-0.1-0.1
		s0,0.1,0.1,0.2c0.1,0.1,0.1,0.3,0.2,0.4c0.1,0.2,0.2,0.4,0.3,0.6c0.1,0.2,0.2,0.5,0.3,0.7c0.1,0.3,0.2,0.5,0.2,0.7
		c0,0.2,0.1,0.4,0.1,0.6c-0.6,0.7-1.7,1.1-2.5,1.2c0.1-0.8,0.1-1.7,0-2.7C104.6,113.3,104.4,112.1,104.2,111.1z M102.4,90.4
		c0.6,2.4,1.4,4.7,1.4,4.7s-0.6-2.4-0.9-4.7c-0.1-0.7-0.2-1.4-0.2-2.1c0.1,0.4,0.2,0.8,0.3,1.1c0.5,2,1.1,3.9,1.1,3.9s-0.4-2-0.6-4
		c-0.1-0.4-0.1-0.9-0.1-1.3c0,0.2,0.1,0.3,0.1,0.5c0.4,1.5,0.9,3,0.9,3s-0.3-1.5-0.4-3.1c0-0.4-0.1-0.8-0.1-1.2
		c0,0.2,0.1,0.4,0.1,0.6c0.2,1.1,0.6,2.2,0.6,2.2s-0.1-1.1-0.1-2.2c0-0.6,0-1.2,0.1-1.6c4.3,0.9,8.5,1.4,12.5,1.4
		c3.9,0,7.6-0.5,10.9-1.3c0.8-0.2,1.6-0.5,2.3-0.7c-0.3,0.2-0.7,0.3-1,0.5c-0.3,0.1-0.5,0.2-0.8,0.3c-0.3,0.1-0.5,0.2-0.8,0.3
		c-0.3,0.1-0.5,0.2-0.8,0.3l-0.4,0.1l-0.4,0.1c-0.3,0.1-0.5,0.1-0.8,0.2c-0.3,0.1-0.5,0.1-0.8,0.2c-0.5,0.1-1,0.2-1.5,0.3
		c-0.5,0.1-0.9,0.1-1.4,0.2c-0.2,0-0.4,0.1-0.6,0.1c-0.2,0-0.4,0-0.5,0c-0.3,0-0.6,0-0.9,0.1c-0.5,0-0.8,0.1-0.8,0.1s0.3,0,0.8,0
		c0.2,0,0.5,0,0.9,0c0.2,0,0.4,0,0.6,0c0.2,0,0.4,0,0.6,0c0.4,0,0.9,0,1.4-0.1c0.5,0,1-0.1,1.5-0.2c0.3,0,0.5-0.1,0.8-0.1
		c0.3,0,0.5-0.1,0.8-0.1l0.4-0.1l0.4-0.1c0.3-0.1,0.6-0.1,0.8-0.2c0.3-0.1,0.6-0.1,0.8-0.2c0.3-0.1,0.6-0.2,0.8-0.2
		c0.5-0.2,1.1-0.4,1.6-0.6c0.5-0.2,1-0.4,1.4-0.7c0.5-0.2,0.9-0.5,1.3-0.7c0.1-0.1,0.3-0.2,0.4-0.3c0.2,1.1,0.4,2.2,0.5,3.2
		c0.1,3.3-0.1,6.2-0.8,9.5c-0.8,3.2-1.7,6.5-2,9.7c-0.2,0.4-0.4,0.9-0.7,1.4c-0.4,0.6-0.9,1.2-1.3,1.5c-0.2,0.2-0.4,0.3-0.5,0.4
		c-0.1,0.1-0.2,0.1-0.2,0.1s0.1,0,0.2-0.1c0.2-0.1,0.4-0.1,0.6-0.3c0.5-0.2,1.1-0.6,1.7-1.1c0,0.7,0,1.4,0,2.2
		c-0.3,0.5-0.6,1.1-1,1.6c0.2-0.6,0.4-1.1,0.4-1.1s-0.4,0.5-0.9,0.9c-0.3,0.2-0.5,0.5-0.7,0.6c-0.6-0.4-1.2-0.8-1.8-1.1
		c-0.4-0.3-0.7-0.6-1-0.9c-0.8-1.1-1.5-2.1-2.3-3.2c-0.5-0.7-1-1.5-1.4-2.3c-0.1-0.2-0.2-0.4-0.2-0.6c0-0.7,0.1-1.4,0-2.2
		c0-0.6,0.1-1.2,0.1-1.8c0-0.6,0.1-1.1,0.3-1.6c0.3-0.5,0.8-0.9,1.4-1.1c0.6-0.2,1.2-0.3,1.8-0.4c0.2,0,0.3,0,0.5-0.1
		c0.1,0,0.3,0,0.4,0c2.1,0,4.2-0.1,6.3-0.1c-1-0.5-2.2-0.5-3.4-0.7c-1.5-0.2-3.1-0.5-4.6-0.6c-1.1-0.1-2.2-0.1-3.3,0
		c-0.2,0-0.5,0-0.7,0c-0.4,0.1-0.7,0.3-0.9,0.6c-0.1,0.2-0.2,0.5-0.2,0.8c-0.1,1.1-0.2,2.2,0.2,3.3c0.1,0.4,0.4,0.8,0.6,1.2
		c0,0.1,0.1,0.2,0.1,0.4c0.1,0.4,0.2,0.9,0.2,1.4c0,0.5-0.1,1-0.1,1.7c0,0.3,0.1,0.7,0.3,1c0.2,0.3,0.3,0.6,0.5,0.9
		c0.4,0.5,0.7,1,0.7,1.4c0.1,0.2,0.1,0.4,0,0.5c0,0.1-0.1,0.2-0.1,0.2c0,0.1,0,0.1-0.1,0.1c-0.1,0-0.2,0.1-0.4,0.1
		c-0.2,0.1-0.3,0.1-0.4,0.2c0,0-0.1,0-0.1,0c0.4-0.4,0.9-0.8,0.9-0.8s-0.7,0.2-1.3,0.5c-0.5,0.3-1,0.7-1.1,0.8
		c-0.2,0.1-0.4,0.1-0.6,0.1c-0.5,0.1-0.9,0-1.4,0c-0.1,0-0.1,0-0.1,0c0,0-0.1-0.1-0.3-0.2c-0.2-0.1-0.4-0.3-0.7-0.4
		c-0.5-0.3-1.1-0.4-1.1-0.4s0.5,0.3,0.8,0.8c0,0,0,0,0,0c-0.3-0.1-0.5-0.1-0.7-0.2c0,0-0.1,0-0.1,0c-0.1-0.1-0.3-0.2-0.4-0.3
		c-0.1-0.1-0.2-0.3-0.2-0.5c0-0.2,0-0.3,0.1-0.5c0.1-0.1,0.1-0.3,0.2-0.3c0.1-0.1,0.1-0.1,0.1-0.1s0,0-0.1,0.1
		c-0.1,0.1-0.2,0.2-0.3,0.3c-0.1,0.1-0.2,0.3-0.2,0.5c0,0.2,0,0.5,0.1,0.7c0.1,0.2,0.2,0.4,0.4,0.6c-2.3,0-4.3,1-5.9,2.2
		c-0.3-0.2-0.7-0.6-1.1-1.1c-0.6-0.7-1.1-1.5-1.1-1.5s0.3,0.9,0.7,1.8c-3-3.5-3.4-6-3.4-6l-0.3-2.4c0-0.1,0-0.1,0.1-0.2
		c0.1-0.4,0.2-0.8,0.3-1.2c0.1-0.9,0-1.7-0.1-2.5c-0.2-0.8-0.4-1.5-0.6-2.1c-0.2-0.6-0.4-1.1-0.5-1.4c0,0,0-0.1,0-0.1
		c-0.4-2-1-4.4-1.4-6.9C102.2,90,102.3,90.2,102.4,90.4z M104.7,120.8c-0.1,0.1-0.2,0.3-0.4,0.6c-0.3,0.5-0.6,1.2-0.9,1.9
		c0,0,0,0,0,0c0.2-1.2,0.5-2.3,0.7-3.4c0.6,0.3,1.2,0.4,1.8,0.4c0.3,0,0.5,0,0.8-0.1c0.4,0,0.7,0,1.1,0c0.7,0,1.5-0.2,2.2-0.3
		c0.5-0.1,1-0.3,1.4-0.6c-0.2,0.4-0.4,0.9-0.6,1.4c-0.3,0.9-0.3,1.8-0.2,2.5c0.1,0.3,0.2,0.6,0.2,0.8c0.1,0.2,0.1,0.3,0.1,0.3
		s0-0.1-0.1-0.3c-0.1-0.2-0.1-0.5-0.1-0.8c0-0.7,0.1-1.5,0.5-2.3c0.4-0.8,0.9-1.5,1.3-2c0.2-0.3,0.4-0.5,0.5-0.7
		c1,0.7,1.9,1.3,2.8,1.6c0.4,0.2,0.8,0.2,1.1,0.2c0,0,0,0,0,0c-0.1,0-0.1,0-0.2,0.1c-0.4,0.2-0.7,0.4-0.9,0.5
		c-0.2,0.1-0.3,0.2-0.3,0.2s0.1-0.1,0.4-0.1c0.2-0.1,0.5-0.2,0.9-0.3c0.4-0.1,0.8-0.2,1.3-0.3c0.5-0.1,1-0.1,1.5-0.1
		c0.5,0,1,0.1,1.5,0.2c0.5,0.1,0.9,0.2,1.3,0.3c0.4,0.1,0.7,0.2,0.9,0.3c0.2,0.1,0.3,0.1,0.3,0.1s-0.1-0.1-0.3-0.3
		c-0.2-0.2-0.5-0.4-0.8-0.6c-0.3-0.1-0.5-0.3-0.9-0.4c0.1,0,0.3,0,0.4,0c0.6,0,1.1-0.1,1.7-0.4c0.5-0.2,0.9-0.5,1.4-0.8
		c0.2,0.4,0.5,1.1,0.8,1.8c0.5,1.2,0.7,2.5,0.7,2.5s0.1-1.3-0.1-2.6c0-0.2-0.1-0.4-0.1-0.6c0.4,0.9,0.7,1.9,0.9,3
		c0.3,1.4,0.4,2.8,0.2,3.8c-0.1,0.5-0.2,0.9-0.3,1.2c-0.1,0.3-0.2,0.5-0.2,0.5s0.1-0.2,0.2-0.4c0.1-0.3,0.3-0.7,0.4-1.2
		c0.3-1,0.3-2.5,0.1-3.9c-0.2-1.4-0.6-2.8-0.9-3.9c-0.1-0.2-0.2-0.5-0.2-0.7c0,0,0,0,0,0c0.5,0.3,1,0.6,1.5,0.9c1,0.6,2.1,1,3.2,1.4
		c0.4,0.1,0.8,0.2,1.2,0.5c0,0,0.1,0.1,0.1,0.1c0,0.3,0.1,0.7,0.1,1c0,0.1,0,0.2-0.1,0.2c-0.1,0.4-0.2,0.9-0.3,1.5
		c-0.1,0.5-0.2,1.1-0.2,1.7c0,0.6-0.1,1.2-0.1,1.7c0,0.5,0,1,0.1,1.5c0,0.4,0.1,0.8,0.1,1c0,0.2,0.1,0.4,0.1,0.4s0-0.1,0-0.4
		c0-0.3,0-0.6,0-1c0-0.4,0-0.9,0.1-1.5c0-0.5,0.1-1.1,0.1-1.7c0-0.6,0.1-1.1,0.2-1.7c0-0.3,0.1-0.6,0.1-0.9c0.2,1.8,0.3,3.6,0.2,5.3
		c0,0.1,0,0.2-0.1,0.3c-0.2,1.3-0.4,2.6-1.1,3.8c-0.3,0.6-0.8,1.2-1.3,1.7c0-0.1,0-0.1,0-0.2c-0.1-0.7-0.2-1.4-0.4-2.2
		c-0.1-0.8-0.3-1.6-0.3-2.4c-0.1-1.6,0.3-3.3,0.6-4.6c0.2-0.6,0.3-1.1,0.4-1.5c0.1-0.4,0.2-0.6,0.2-0.6s-0.1,0.2-0.2,0.5
		c-0.2,0.3-0.4,0.8-0.6,1.4c-0.5,1.2-1.1,2.8-1.3,4.6c-0.1,0.9-0.1,1.8,0,2.6c0,0.8,0.1,1.6,0,2.2c0,0.6-0.1,1.1-0.1,1.4
		c-0.8,0.4-1.6,0.8-2.4,1.1c-0.4,0.1-0.8,0.3-1.2,0.4c-0.2-1.1-0.8-2.4-1.5-3.6c-0.7-1.2-1.5-2.4-2-3.3c-0.3-0.5-0.5-0.8-0.6-1.1
		c-0.1-0.3-0.2-0.4-0.2-0.4s0.1,0.2,0.2,0.5c0.1,0.3,0.3,0.7,0.5,1.2c0.4,1,1.1,2.2,1.7,3.5c0.6,1.3,1,2.6,1.1,3.6c0,0,0,0,0,0.1
		c-1.2,0.3-2.4,0.5-3.7,0.6c0,0,0,0,0-0.1c0-0.6,0-1.3-0.2-2.1c-0.1-0.7-0.3-1.5-0.6-2.3c-0.5-1.5-1.1-2.9-1.5-4.1
		c-0.2-0.6-0.3-1-0.4-1.4c-0.1-0.3-0.1-0.5-0.1-0.5s0,0.2,0.1,0.5c0,0.3,0.1,0.8,0.3,1.4c0.3,1.2,0.7,2.7,1.1,4.2
		c0.2,0.8,0.3,1.5,0.4,2.2c0.1,0.7,0,1.4,0,1.9c0,0.1,0,0.1,0,0.2c-1.2,0.1-2.3,0-3.5-0.1c0-0.8,0-1.7-0.1-2.7c-0.1-1-0.3-2-0.5-2.7
		c-0.2-0.7-0.4-1.2-0.4-1.2s0.1,0.5,0.2,1.2c0.1,0.7,0.1,1.7,0.1,2.7c0,0.9-0.2,1.8-0.3,2.5c-2-0.3-4-0.8-5.9-1.6
		c-0.7-0.3-1.4-0.6-2-1c-0.2-0.1-0.3-0.3-0.5-0.4c0,0,0,0,0,0c0.3-0.3,0.6-0.9,0.7-1.6c0.1-0.7-0.1-1.5-0.3-2.2
		c-0.2-0.7-0.4-1.5-0.5-2.3c-0.3-1.6-0.4-3.2-0.4-4.4c0-0.6,0.1-1.1,0.2-1.5c0.1-0.3,0.1-0.5,0.1-0.5s-0.1,0.2-0.2,0.5
		c-0.1,0.3-0.2,0.8-0.3,1.5c-0.2,1.2-0.2,2.9-0.1,4.5c0.1,0.8,0.2,1.6,0.3,2.4c0.1,0.7,0.2,1.4,0.1,1.9c-0.1,0.5-0.3,0.8-0.5,1
		c-0.7-0.8-1.2-1.7-1.7-2.8c-0.8-1.9-1.2-3.5-1.3-4.9c0-0.2,0.1-0.4,0.2-0.7c0.1-0.6,0.2-1.3,0.4-2c0.1-0.7,0.3-1.4,0.5-2
		C104.6,121.2,104.7,121,104.7,120.8c0.1-0.1,0.2-0.2,0.2-0.2S104.8,120.7,104.7,120.8z"/>
	<path fill="#3F3F3F" d="M125.8,98.7c-0.7,0.1-1.5,0.5-2,1c-0.2,0.3-0.2,0.5,0.1,0.4c0.4,0,0.8,0,1.2,0.1c0.7,0.2,1.3,0.5,2,0.7
		c0.6,0.1,1.2,0,1.7-0.2c0.4-0.2,0.8-0.4,1.2-0.5c0.5-0.1,0.9,0.1,1.4,0.2c-0.8-0.6-1.7-1.1-2.7-1.4
		C127.9,98.6,126.8,98.5,125.8,98.7z M126.3,100c-0.4-0.1-0.9-0.2-1.1-0.4c0.1-0.1,0.4-0.4,0.8-0.6C126.1,99.3,126.1,99.6,126.3,100
		z M129.6,100c-0.2,0.1-0.8,0.2-1.3,0.3c0.2-0.1,0.5-0.4,0.5-0.8C129,99.6,129.3,99.9,129.6,100z"/>
	<path fill="#3F3F3F" d="M109,100.2c0.4,0.1,0.8,0.3,1.2,0.5c0.5,0.2,1.2,0.3,1.7,0.2c0.7-0.1,1.3-0.5,2-0.7
		c0.4-0.1,0.8-0.1,1.2-0.1c0.4,0,0.4-0.2,0.1-0.4c-0.5-0.5-1.3-0.9-2-1c-1-0.2-2,0-3,0.3c-1,0.3-1.8,0.8-2.7,1.4
		C108,100.2,108.5,100.1,109,100.2z M113,99.1c0.5,0.1,0.7,0.5,0.8,0.6c-0.2,0.1-0.7,0.3-1.1,0.3C113,99.6,113,99.3,113,99.1z
		 M109.5,100c0.2-0.2,0.6-0.4,0.8-0.5c0,0.4,0.2,0.7,0.5,0.8C110.3,100.3,109.8,100.1,109.5,100z"/>
	<path fill="#3F3F3F" d="M116.9,99.4c0.2-0.7,0.5-1.2,1.1-1.8c-1.4-0.7-2.8-0.8-4.3-0.8c-1.5,0-3.1,0.2-4.6,0.3
		c-1.1,0.1-2.3,0.1-3.4,0.5c2.1,0.2,4.2,0.4,6.2,0.5C113.6,98.2,115.5,98.4,116.9,99.4z"/>
	<path fill="#3F3F3F" d="M104.5,82.1c0.5-0.1,1.1-0.1,1.6,0c0.6,0,1.1,0.1,1.7,0.3c0.6,0.1,1.1,0.3,1.6,0.5c0.5,0.2,1.1,0.4,1.6,0.6
		c1,0.4,2,0.8,2.9,1.1c0.9,0.3,1.6,0.4,2.1,0.5c0.3,0,0.5,0,0.6,0c0.1,0,0.2,0,0.2,0s-0.1,0-0.2-0.1c-0.1,0-0.3-0.1-0.6-0.2
		c-0.5-0.1-1.2-0.4-2-0.8c-0.8-0.4-1.7-0.8-2.7-1.3c-0.5-0.2-1-0.5-1.6-0.7c-0.6-0.2-1.1-0.4-1.7-0.6c-0.6-0.1-1.2-0.2-1.8-0.3
		c-0.6,0-1.2,0-1.8,0.1c-0.6,0.1-1.1,0.3-1.6,0.4c-0.5,0.2-0.9,0.4-1.3,0.6c-0.8,0.5-1.3,1-1.7,1.4c-0.2,0.2-0.3,0.4-0.4,0.5
		c-0.1,0.1-0.1,0.2-0.1,0.2s0.1,0,0.2-0.1c0.1-0.1,0.3-0.2,0.5-0.4c0.4-0.3,1-0.7,1.8-1.1c0.4-0.2,0.8-0.3,1.3-0.5
		C103.4,82.2,103.9,82.1,104.5,82.1z"/>
	<path fill="#3F3F3F" d="M120,70.6c0.4,0.2,0.7,0.5,1.1,0.7c0.4,0.3,0.7,0.6,1.1,0.9c0.4,0.3,0.7,0.6,1,1c0.3,0.4,0.6,0.7,0.9,1.1
		c0.3,0.4,0.5,0.8,0.7,1.2c0.4,0.8,0.8,1.6,1,2.3c0.2,0.7,0.4,1.3,0.4,1.8c0,0.2,0.1,0.4,0.1,0.5c0,0.1,0,0.2,0,0.2s0-0.1,0-0.2
		c0-0.1,0-0.3,0-0.5c0-0.4,0-1.1-0.1-1.9c-0.1-0.8-0.4-1.7-0.8-2.5c-0.2-0.4-0.4-0.9-0.7-1.3c-0.3-0.4-0.6-0.8-1-1.2
		c-0.4-0.4-0.7-0.7-1.1-1.1c-0.4-0.3-0.8-0.6-1.2-0.9c-0.4-0.3-0.8-0.5-1.2-0.6c-0.4-0.2-0.8-0.3-1.2-0.4c-0.7-0.2-1.4-0.3-1.8-0.4
		c-0.2,0-0.4,0-0.5,0c-0.1,0-0.2,0-0.2,0s0.2,0.1,0.7,0.2c0.4,0.1,1,0.4,1.7,0.7C119.3,70.3,119.6,70.4,120,70.6z"/>
	<path fill="#3F3F3F" d="M117.1,129.6c0.3,1,0.6,1.9,0.9,2.8c0.3,0.9,0.6,1.7,0.8,2.4c0.2,0.7,0.3,1.3,0.4,1.7
		c0,0.2,0.1,0.4,0.1,0.5c0,0.1,0,0.2,0,0.2s0-0.1,0-0.2c0-0.1,0-0.3,0-0.5c0-0.4,0-1.1-0.1-1.8c-0.1-0.7-0.3-1.6-0.5-2.5
		c-0.3-0.9-0.5-1.8-0.7-2.7c-0.2-0.9-0.4-1.9-0.5-2.8c-0.1-0.9-0.2-1.7-0.1-2.5c0-0.7,0-1.3,0.1-1.8c0-0.4,0-0.7,0-0.7
		s-0.1,0.2-0.2,0.6c-0.1,0.4-0.2,1-0.3,1.8c-0.1,0.7-0.1,1.6-0.1,2.5C116.8,127.7,116.9,128.7,117.1,129.6z"/>
	<path fill="#3F3F3F" d="M108,122.8c-0.1,0.6-0.2,1.3-0.3,2.1c0,0.8,0,1.6,0.2,2.4c0.2,0.8,0.4,1.6,0.6,2.4c0.3,0.7,0.6,1.4,0.9,1.9
		c0.2,0.3,0.3,0.5,0.5,0.7c0.1,0.2,0.3,0.4,0.4,0.5c0.2,0.3,0.4,0.4,0.4,0.4s-0.1-0.2-0.2-0.5c-0.1-0.2-0.2-0.4-0.3-0.6
		c-0.1-0.2-0.2-0.5-0.3-0.8c-0.2-0.6-0.5-1.2-0.7-1.9c-0.2-0.7-0.4-1.5-0.5-2.3c-0.1-0.8-0.2-1.6-0.3-2.3c0-0.7,0-1.4,0-2
		c0-0.3,0-0.6,0-0.8c0-0.2,0-0.5,0.1-0.6c0-0.4,0.1-0.6,0.1-0.6s-0.1,0.2-0.2,0.5c-0.1,0.2-0.1,0.4-0.2,0.6
		C108.1,122.2,108,122.5,108,122.8z"/>
	<path fill="#3F3F3F" d="M112.2,124.8c0.1,0.4,0.2,0.8,0.4,1.2c0.1,0.4,0.3,0.7,0.5,1c0.1,0.3,0.3,0.5,0.4,0.7
		c0.1,0.2,0.2,0.2,0.2,0.2s0-0.1-0.1-0.3c-0.1-0.2-0.2-0.4-0.3-0.7c-0.1-0.3-0.2-0.7-0.3-1c-0.1-0.4-0.2-0.8-0.3-1.2
		c-0.1-0.4-0.2-0.8-0.3-1.2c-0.1-0.4-0.1-0.8-0.2-1.1c0-0.3-0.1-0.6-0.1-0.8c0-0.2,0-0.3,0-0.3s0,0.1,0,0.3c0,0.2-0.1,0.5-0.1,0.8
		c0,0.3,0,0.7,0.1,1.1C112.1,123.9,112.1,124.3,112.2,124.8z"/>
	<path fill="#3F3F3F" d="M114.1,131.2c-0.2-0.6-0.4-1.2-0.7-1.7c-0.3-0.5-0.6-1-0.9-1.3c-0.1-0.2-0.3-0.3-0.4-0.5
		c-0.1-0.1-0.2-0.3-0.3-0.4c-0.2-0.2-0.3-0.3-0.3-0.3s0.1,0.1,0.2,0.4c0.1,0.1,0.2,0.2,0.2,0.4c0.1,0.2,0.2,0.3,0.3,0.5
		c0.2,0.4,0.5,0.9,0.7,1.4c0.2,0.5,0.4,1.1,0.6,1.6c0.2,0.6,0.3,1.1,0.4,1.7c0.1,0.5,0.2,1.1,0.2,1.5c0,0.2,0,0.4,0.1,0.6
		c0,0.2,0,0.3,0,0.5c0,0.3,0,0.4,0,0.4s0-0.1,0.1-0.4c0-0.1,0.1-0.3,0.1-0.5c0-0.2,0.1-0.4,0.1-0.6c0-0.5,0-1,0-1.6
		C114.4,132.4,114.3,131.8,114.1,131.2z"/>
	<path fill="#3F3F3F" d="M119.8,129.5c0.2,0.7,0.5,1.3,0.8,1.9c0.3,0.6,0.6,1.1,0.9,1.5c0.1,0.2,0.3,0.4,0.4,0.6
		c0.1,0.2,0.2,0.3,0.3,0.4c0.2,0.2,0.3,0.3,0.3,0.3s-0.1-0.2-0.2-0.4c-0.1-0.1-0.2-0.3-0.3-0.5c-0.1-0.2-0.2-0.4-0.3-0.6
		c-0.2-0.4-0.5-1-0.7-1.6c-0.2-0.6-0.5-1.2-0.7-1.9c-0.2-0.6-0.4-1.3-0.5-1.9c-0.1-0.6-0.3-1.2-0.3-1.7c0-0.2-0.1-0.5-0.1-0.7
		c0-0.2,0-0.4-0.1-0.5c0-0.3-0.1-0.5-0.1-0.5s0,0.2-0.1,0.5c0,0.1,0,0.3,0,0.5c0,0.2,0,0.4,0,0.7c0,0.5,0,1.1,0.1,1.8
		C119.5,128.1,119.6,128.8,119.8,129.5z"/>
	<path fill="#3F3F3F" d="M122.6,125.4c0.1,0.4,0.2,0.7,0.3,1.1c0.1,0.4,0.3,0.8,0.4,1.2c0.2,0.4,0.3,0.8,0.5,1.2
		c0.2,0.4,0.4,0.7,0.6,1.1c0.2,0.4,0.5,0.7,0.7,1c0.4,0.6,0.8,1.2,1.1,1.7c0.3,0.5,0.4,1,0.5,1.4c0,0.2,0.1,0.3,0.1,0.4
		c0,0.1,0,0.2,0,0.2s0-0.1,0-0.1c0-0.1,0.1-0.2,0.1-0.4c0.1-0.4,0.1-0.9-0.1-1.6c-0.1-0.6-0.5-1.4-0.8-2.1c-0.2-0.3-0.4-0.7-0.6-1
		c-0.2-0.3-0.4-0.7-0.6-1.1c-0.2-0.4-0.4-0.7-0.5-1.1c-0.2-0.4-0.3-0.7-0.5-1.1c-0.1-0.3-0.3-0.7-0.4-1c-0.1-0.3-0.3-0.6-0.4-0.9
		c-0.2-0.6-0.4-1.1-0.5-1.4c-0.1-0.3-0.2-0.5-0.2-0.5s0,0.2,0,0.6c0,0.4,0,0.9,0.1,1.5C122.4,124.7,122.5,125.1,122.6,125.4z"/>
	<path fill="#3F3F3F" d="M111.9,132.1c-0.1-0.4-0.3-0.9-0.5-1.2c-0.2-0.4-0.4-0.7-0.6-1c-0.2-0.3-0.4-0.5-0.5-0.6
		c-0.1-0.1-0.2-0.2-0.2-0.2s0,0.1,0.1,0.3c0.1,0.2,0.2,0.4,0.3,0.8c0.1,0.3,0.2,0.7,0.4,1.1c0.1,0.4,0.3,0.8,0.4,1.2
		c0.1,0.4,0.2,0.8,0.3,1.2c0.1,0.4,0.2,0.8,0.2,1.1c0.1,0.3,0.1,0.6,0.2,0.8c0,0.2,0.1,0.3,0.1,0.3s0-0.1,0.1-0.3
		c0-0.2,0.1-0.5,0.1-0.8c0-0.3,0-0.7,0-1.2C112,133,112,132.6,111.9,132.1z"/>
	<path fill="#3F3F3F" d="M129.2,124.9c0,0,0-0.1,0.1-0.2c0-0.1,0.1-0.3,0.2-0.5c0.1-0.2,0.1-0.5,0.2-0.8c0-0.3,0.1-0.6,0.1-0.9
		c0-0.3,0-0.6,0-0.9c0-0.3,0-0.6,0-0.8c0-0.2-0.1-0.4-0.1-0.5c0-0.1,0-0.2,0-0.2s0,0.1,0,0.2c0,0.1,0,0.3-0.1,0.5
		c0,0.2-0.1,0.5-0.1,0.8c0,0.3,0,0.6-0.1,0.9c0,0.3,0,0.6-0.1,0.9c0,0.3,0,0.5-0.1,0.8c0,0.2,0,0.4,0,0.5
		C129.2,124.8,129.2,124.9,129.2,124.9z"/>
	<path fill="#3F3F3F" d="M105.3,129.7c0.1,0.4,0.2,0.6,0.2,0.9c0.1,0.2,0.1,0.3,0.1,0.3s0-0.1,0-0.3c0-0.2-0.1-0.5-0.1-0.9
		c-0.1-0.4-0.1-0.8-0.1-1.2c0-0.4-0.1-0.9-0.1-1.4c0-0.5,0-1,0-1.4c0-0.4,0-0.9,0-1.2c0-0.4,0-0.7,0-0.9c0-0.2,0-0.3,0-0.3
		s0,0.1-0.1,0.3c0,0.2-0.1,0.5-0.2,0.9c-0.1,0.4-0.1,0.8-0.1,1.2c0,0.5,0,0.9,0,1.4c0,0.5,0.1,1,0.1,1.4
		C105.1,128.9,105.2,129.3,105.3,129.7z"/>
	<path fill="#3F3F3F" d="M130.1,116.3c0.2,0.2,0.3,0.3,0.4,0.4c0.1,0.1,0.2,0.3,0.3,0.4c0.2,0.2,0.3,0.3,0.3,0.3s-0.1-0.1-0.2-0.4
		c-0.1-0.1-0.1-0.3-0.2-0.4c-0.1-0.2-0.2-0.3-0.3-0.5c-0.3-0.4-0.6-0.8-1-1.2c-0.4-0.4-0.9-0.8-1.4-1.1c-0.5-0.3-1.1-0.6-1.6-0.8
		c-0.5-0.2-1.1-0.3-1.5-0.4c-0.2,0-0.4-0.1-0.6-0.1c-0.2,0-0.3,0-0.5,0c-0.3,0-0.4,0-0.4,0s0.1,0,0.4,0.1c0.1,0,0.3,0.1,0.4,0.1
		c0.2,0.1,0.4,0.1,0.6,0.2c0.4,0.1,0.9,0.3,1.4,0.6c0.5,0.2,1,0.5,1.5,0.8c0.5,0.3,1,0.6,1.4,1C129.4,115.6,129.8,116,130.1,116.3z"
		/>
	<path fill="#3F3F3F" d="M127.6,115.8c-0.1-0.2-0.2-0.4-0.4-0.6c-0.2-0.2-0.5-0.5-0.8-0.7c-0.3-0.2-0.7-0.4-1-0.5
		c-0.4-0.1-0.7-0.3-1.1-0.4c-0.3-0.1-0.7-0.2-0.9-0.3c-0.3-0.1-0.5-0.2-0.7-0.3c-0.2-0.1-0.2-0.1-0.2-0.1s0.1,0.1,0.2,0.2
		c0.1,0.1,0.3,0.2,0.6,0.4c0.3,0.1,0.6,0.3,0.9,0.4c0.3,0.1,0.7,0.3,1.1,0.4c0.4,0.1,0.7,0.3,1,0.5c0.3,0.2,0.6,0.4,0.8,0.5
		C127.3,115.6,127.4,115.7,127.6,115.8c0.1,0.2,0.1,0.2,0.1,0.2S127.6,116,127.6,115.8z"/>
	<path fill="#3F3F3F" d="M110.6,115.3c0.4-0.4,0.9-0.7,1.4-1c0.5-0.3,1-0.6,1.5-0.8c0.5-0.2,1-0.5,1.4-0.6c0.2-0.1,0.4-0.2,0.6-0.2
		c0.2-0.1,0.3-0.1,0.4-0.1c0.3-0.1,0.4-0.1,0.4-0.1s-0.2,0-0.4,0c-0.1,0-0.3,0-0.5,0c-0.2,0-0.4,0-0.6,0.1c-0.4,0.1-1,0.2-1.5,0.4
		c-0.5,0.2-1.1,0.5-1.6,0.8c-0.5,0.4-1,0.7-1.4,1.1c-0.4,0.4-0.7,0.8-1,1.2c-0.1,0.2-0.2,0.4-0.3,0.5c-0.1,0.2-0.2,0.3-0.2,0.4
		c-0.1,0.2-0.2,0.4-0.2,0.4s0.1-0.1,0.3-0.3c0.1-0.1,0.2-0.2,0.3-0.4c0.1-0.1,0.3-0.3,0.4-0.4C109.8,116,110.2,115.6,110.6,115.3z"
		/>
	<path fill="#3F3F3F" d="M114.2,114c-0.4,0.2-0.7,0.3-1,0.5c-0.3,0.2-0.6,0.4-0.8,0.7c-0.2,0.2-0.3,0.4-0.4,0.6
		c-0.1,0.2-0.1,0.2-0.1,0.2s0.1-0.1,0.2-0.2c0.1-0.1,0.3-0.3,0.5-0.5c0.2-0.2,0.5-0.4,0.8-0.5c0.3-0.2,0.7-0.3,1-0.5
		c0.4-0.2,0.7-0.3,1.1-0.4c0.3-0.1,0.6-0.3,0.9-0.4c0.3-0.1,0.5-0.3,0.6-0.4c0.1-0.1,0.2-0.2,0.2-0.2s-0.1,0-0.2,0.1
		c-0.2,0.1-0.4,0.2-0.7,0.3c-0.3,0.1-0.6,0.2-0.9,0.3C114.9,113.8,114.6,113.9,114.2,114z"/>
	<path fill="#3F3F3F" d="M111.8,91c1.1-0.1,2.4-0.2,3.7,0c0.7,0.1,1.4,0.2,2.1,0.3c0.7,0.1,1.5,0.1,2.2,0c1.5-0.1,2.9-0.5,4.3-0.6
		c1.3-0.2,2.6-0.2,3.7-0.1c1.1,0.1,2,0.3,2.6,0.4c0.3,0.1,0.6,0.1,0.7,0.2c0.2,0.1,0.3,0.1,0.3,0.1s-0.1,0-0.2-0.1
		c-0.2-0.1-0.4-0.2-0.7-0.3c-0.6-0.2-1.5-0.5-2.6-0.7c-1.1-0.2-2.4-0.2-3.8-0.1c-1.4,0.1-2.8,0.4-4.3,0.5c-0.7,0.1-1.4,0.1-2.1,0
		c-0.7-0.1-1.4-0.2-2.1-0.2c-1.4-0.1-2.7,0-3.8,0.2c-1.1,0.2-2,0.4-2.6,0.5c-0.6,0.2-1,0.3-1,0.3s0.4,0,1-0.1
		C109.8,91.3,110.7,91.1,111.8,91z"/>
	<path fill="#3F3F3F" d="M127.5,93c-0.4-0.2-1-0.3-1.8-0.4c-0.8-0.1-1.6-0.1-2.6,0c-0.9,0.1-1.9,0.2-2.9,0.3c-0.5,0.1-1,0.1-1.4,0.1
		c-0.5,0-0.9,0-1.4-0.1c-0.9-0.1-1.8-0.2-2.5-0.3c-0.8,0-1.4,0-1.8,0c-0.2,0-0.4,0.1-0.5,0.1c-0.1,0-0.2,0-0.2,0s0.1,0,0.2,0
		c0.1,0,0.3,0,0.5,0c0.4,0,1,0.1,1.8,0.2c0.7,0.1,1.6,0.3,2.5,0.5c0.5,0.1,1,0.1,1.5,0.1c0.5,0,1,0,1.5,0c1-0.1,2-0.3,2.9-0.4
		c0.9-0.1,1.8-0.2,2.5-0.2c0.7,0,1.3,0.1,1.8,0.2c0.2,0,0.4,0.1,0.5,0.1c0.1,0,0.2,0.1,0.2,0.1s-0.1,0-0.2-0.1
		C127.9,93.1,127.7,93.1,127.5,93z"/>
	<path fill="#3F3F3F" d="M115.2,101.3c-0.4,0.1-0.8,0.2-1.3,0.4c-0.5,0.1-1,0.2-1.5,0.3c-0.5,0.1-1,0.1-1.5,0.2
		c-0.5,0-0.9,0.1-1.3,0.1c-0.4,0-0.7,0-0.9,0c-0.2,0-0.4,0-0.4,0s0.1,0,0.3,0.1c0.2,0,0.5,0.1,0.9,0.1c0.4,0,0.8,0.1,1.3,0
		c0.5,0,1-0.1,1.5-0.1c0.5-0.1,1-0.2,1.5-0.3c0.5-0.1,0.9-0.3,1.2-0.5c0.4-0.1,0.6-0.3,0.8-0.4c0.2-0.1,0.3-0.2,0.3-0.2
		s-0.1,0-0.3,0.1C115.9,101.1,115.6,101.2,115.2,101.3z"/>
	<path fill="#3F3F3F" d="M129.2,102.3c-0.3,0-0.7-0.1-1.1-0.2c-0.4-0.1-0.8-0.1-1.3-0.2c-0.4-0.1-0.9-0.2-1.3-0.3
		c-0.4-0.1-0.8-0.2-1.1-0.3c-0.3-0.1-0.6-0.2-0.8-0.2c-0.2-0.1-0.3-0.1-0.3-0.1s0.1,0.1,0.3,0.1c0.2,0.1,0.4,0.2,0.7,0.3
		c0.3,0.1,0.7,0.3,1.1,0.4c0.4,0.1,0.8,0.2,1.3,0.3c0.4,0.1,0.9,0.1,1.3,0.2c0.4,0,0.8,0.1,1.1,0.1c0.3,0,0.6,0,0.8,0
		c0.2,0,0.3,0,0.3,0s-0.1,0-0.3,0C129.8,102.4,129.6,102.3,129.2,102.3z"/>
</g>
<g>
	<path fill="#C44949" d="M64.9,64.4c0.3,0,0.5-0.1,0.8-0.1c-0.4,0-0.7,0-1.1,0.1c0,0-0.1,0.1-0.1,0.1C64.6,64.4,64.7,64.4,64.9,64.4
		z"/>
	<path fill="#C44949" d="M63.4,71.7c0-0.6,0-1.2,0.1-1.8c0.1-1.5,0.1-2.8,0.2-3.7c0-0.3,0-0.6,0.1-0.8c-0.5,0.6-1,1.1-1.4,1.7v6.2
		C62.6,72.7,63,72.2,63.4,71.7z"/>
	<path fill="#C44949" d="M63.8,66.2c0.1,0.9,0.1,2.2,0.2,3.7c0,0.3,0,0.6,0,1c1.4-1.7,3.1-3.5,4.9-5.2c0.3-0.3,0.6-0.5,0.9-0.8
		c-0.1,0-0.2,0-0.4,0c-0.4,0-0.8-0.1-1.2-0.1c-0.4,0-0.8,0-1.2,0c-0.4,0-0.8,0-1.1,0c-0.4,0-0.7,0-1.1,0c-0.2,0-0.5,0-0.7,0
		c-0.2,0.2-0.3,0.3-0.5,0.5C63.8,65.5,63.8,65.8,63.8,66.2z"/>
	<path fill="#5C78A1" d="M71.8,74.5c1-1.1,1.9-2.1,2.8-3.2l-0.3-5.9c0,0-0.1,0-0.2,0c-0.6,0.9-1.3,1.8-2.1,2.7L71.8,74.5z"/>
	<path fill="#5C78A1" d="M64.1,78.1c0,1,0,2,0,3.1c0,0.4,0,0.8,0,1.2c0.1-0.1,0.2-0.3,0.3-0.4c0-0.2,0-0.3,0-0.5c0-0.5,0-0.9,0-1.3
		c0-0.4,0-0.8,0.1-1.2c0.1-1.5,0.2-2.5,0.2-2.5s0.1,1,0.2,2.5c0,0.4,0,0.8,0.1,1.2c0,0.4,0,0.8,0,1.2c1.2-1.3,2.5-2.7,3.9-3.9
		c0.8-0.7,1.5-1.5,2.2-2.2L71,69.4c-1.4,1.7-3.1,3.4-4.9,5.2c-0.7,0.6-1.3,1.3-1.9,2C64.1,77,64.1,77.6,64.1,78.1z"/>
	<path fill="#5C78A1" d="M63.3,77.5c-0.4,0.4-0.7,0.8-1,1.2v6.2c0.3-0.5,0.6-0.9,1-1.4c0-0.8,0-1.5,0-2.3c0-1,0-2.1,0-3.1
		C63.3,77.9,63.3,77.7,63.3,77.5z"/>
	<path fill="#C44949" d="M71.5,85.2l-0.1-4.6c-1.5,1.8-3.3,3.7-5.3,5.6c-0.3,0.3-0.7,0.6-1,1c0,0.1,0,0.1,0,0.2c0,0.5,0,0.9,0,1.3
		c0,0.4,0,0.8-0.1,1.2c-0.1,1.5-0.2,2.5-0.2,2.5s-0.1-1-0.2-2.5c0-0.4,0-0.8-0.1-1.2c0-0.3,0-0.6,0-0.9c-0.1,0.2-0.3,0.3-0.4,0.5
		c0,0.6,0,1.2,0,1.8c0,0.9-0.1,1.7-0.1,2.5c0,0.6,0,1.2-0.1,1.8c1.4-1.7,3.2-3.5,5-5.3c1.2-1.2,2.4-2.3,3.5-3.5l0.1-6.4
		c-0.3,0.4-0.6,0.7-0.9,1.1L71.5,85.2z"/>
	<path fill="#C44949" d="M72.6,79l0.1,6.1c0.6-0.7,1.3-1.4,1.8-2.1l0.2-5.5l0,0.2v-1.5C74.2,77.1,73.4,78,72.6,79z"/>
	<path fill="#C44949" d="M63.4,92.5c0-0.8-0.1-1.6-0.1-2.5c0-0.3,0-0.6,0-1c-0.4,0.4-0.7,0.9-1.1,1.3v6.1c0.4-0.6,0.8-1.2,1.3-1.7
		C63.5,94.1,63.5,93.4,63.4,92.5z"/>
	<path fill="#5C78A1" d="M66.2,97.7c0.1,0,0.2,0,0.3,0c0.2,0,0.4,0,0.6,0c0.4,0,0.8,0,1.2-0.1c0.4,0,0.8-0.1,1.2-0.1
		c0.4,0,0.8-0.1,1.1-0.1c0.4,0,0.7-0.1,1-0.1c0.2,0,0.4-0.1,0.6-0.1l0.1-6C70.6,93.3,68.6,95.5,66.2,97.7z"/>
	<path fill="#5C78A1" d="M73,96.5c0.4-0.5,0.8-0.9,1.2-1.4l0.2-6.8c-0.5,0.7-1,1.3-1.6,2.1L73,96.5z"/>
	<path fill="#3F3F3F" d="M78.3,58c-0.2-2.1-1.2-4.1-2.8-5.7c-1.9-1.8-4.4-2.9-6.9-2.9l0,0l0,0c-2.6,0-5,1-6.9,2.9
		c-1.6,1.6-2.6,3.6-2.8,5.7c-0.5,0.2-0.9,0.8-0.9,1.4v1c0,0.5,0.3,0.9,0.6,1.1v0.4c0,0.4,0.1,0.7,0.4,0.9c0.1,0.1,0.3,0.2,0.5,0.3
		v0.3c0,0.6,0.4,1.1,1,1.2v33.1c-0.6,0.1-1,0.6-1,1.2v0.3c-0.2,0.1-0.3,0.2-0.5,0.3c-0.2,0.2-0.4,0.6-0.4,0.9v0.4
		c-0.1,0.1-0.2,0.1-0.3,0.2c-0.2,0.2-0.4,0.6-0.4,0.9v1c0,0.6,0.3,1.1,0.8,1.3c0.2,2.2,1.2,4,2.9,5.2c1.7,1.2,4.1,1.8,6.9,1.8l0,0
		l0,0c2.8,0,5.2-0.6,6.9-1.8c1.8-1.2,2.8-3,2.9-5.2c0.5-0.3,0.8-0.8,0.8-1.3v-1c0-0.4-0.1-0.7-0.4-0.9c-0.1-0.1-0.2-0.1-0.3-0.2
		v-0.4c0-0.6-0.3-1-0.8-1.2v-0.3c0-0.6-0.4-1.1-1-1.2V64.6c0.6-0.1,1-0.6,1-1.2v-0.3c0.5-0.2,0.8-0.6,0.8-1.2v-0.4
		c0.1-0.1,0.2-0.1,0.3-0.2c0.2-0.2,0.4-0.6,0.4-0.9v-1C79.2,58.8,78.8,58.2,78.3,58z M61.1,108.2c-0.1-0.1-0.2-0.2-0.3-0.3
		c-0.1-0.1-0.2-0.2-0.2-0.3c-0.1-0.2-0.3-0.4-0.4-0.6c-0.1-0.2-0.2-0.4-0.3-0.5c-0.1-0.2-0.1-0.3-0.2-0.5c0-0.1,0-0.1-0.1-0.2
		c0-0.1,0-0.1,0-0.2c0,0,0-0.1,0-0.1c-0.1-0.3-0.2-0.7-0.2-1.1c3,0.4,6.1,0.7,9.1,0.7c3,0,6.1-0.2,9.1-0.7c0,0.2-0.1,0.4-0.1,0.6
		c0,0,0,0,0,0c-0.1,0-0.3,0.1-0.5,0.1c-0.5,0.1-1.1,0.2-1.9,0.3c-0.4,0.1-0.8,0.1-1.3,0.2c-0.5,0.1-1,0.1-1.5,0.2
		c-0.5,0-1,0.1-1.6,0.1c-0.5,0-1.1,0.1-1.6,0.1c-0.3,0-0.5,0-0.8,0c-0.3,0-0.5,0-0.8,0c-0.5,0-1.1,0-1.6,0c-0.5,0-1,0-1.5-0.1
		c-0.2,0-0.5,0-0.7,0c-0.2,0-0.4,0-0.6-0.1c-0.4,0-0.8-0.1-1.1-0.1c-0.3,0-0.6-0.1-0.9-0.1c-0.5-0.1-0.7-0.1-0.7-0.1
		s0.3,0.1,0.7,0.1c0.2,0,0.5,0.1,0.8,0.2c0.3,0.1,0.7,0.1,1.1,0.2c0.2,0,0.4,0.1,0.6,0.1c0.2,0,0.4,0.1,0.7,0.1
		c0.5,0.1,1,0.1,1.5,0.2c0.5,0,1,0.1,1.6,0.1c0.3,0,0.5,0,0.8,0c0.3,0,0.5,0,0.8,0c0.5,0,1.1,0,1.6,0c0.5,0,1.1,0,1.6,0c0,0,0,0,0,0
		c-1.3,0.3-3.3,0.7-5.7,0.6c-3.3-0.1-4.9,0.6-4.3,1.7c0,0,0.1,0.1,0.1,0.1c0.1,0,0.1,0.1,0.2,0.1c0.1,0,0.1,0.1,0.2,0.1
		c0.1,0.1,0.3,0.1,0.4,0.2c0.1,0.1,0.3,0.1,0.4,0.2c0.1,0,0.1,0.1,0.2,0.1c0.1,0,0.1,0,0.2,0.1c0.1,0,0.3,0.1,0.5,0.1
		c0.2,0,0.3,0.1,0.5,0.1c0.3,0.1,0.6,0.1,1,0.2c0.2,0,0.3,0,0.5,0.1c0.2,0,0.3,0,0.5,0.1c0.3,0,0.7,0.1,1,0.1l0.5,0l0.5,0
		c0.3,0,0.7,0,1,0c0.7-0.1,1.3-0.1,1.9-0.3c0.6-0.1,1.2-0.3,1.7-0.5c0.3-0.1,0.5-0.2,0.8-0.4c0.1-0.1,0.2-0.1,0.3-0.2
		c0.1-0.1,0.2-0.1,0.3-0.2c0.2-0.1,0.4-0.3,0.6-0.4c0.1-0.1,0.2-0.1,0.3-0.2c0.1-0.1,0.1-0.2,0.2-0.2c0.1-0.1,0.1-0.1,0.2-0.2
		c0.1-0.1,0.1-0.1,0.2-0.2c0.1-0.1,0.1-0.1,0.2-0.2c0-0.1,0.1-0.1,0.1-0.2c0.1-0.1,0.2-0.2,0.2-0.3c0.1-0.1,0.1-0.2,0.1-0.3
		c0.1-0.1,0.1-0.2,0.1-0.2s0,0.1-0.1,0.2c0,0.1-0.1,0.2-0.1,0.3c0,0.1-0.1,0.2-0.2,0.4c0,0.1-0.1,0.1-0.1,0.2c0,0.1-0.1,0.1-0.1,0.2
		c-0.1,0.1-0.1,0.2-0.2,0.2c-0.1,0.1-0.1,0.2-0.2,0.2c-0.1,0.1-0.1,0.2-0.2,0.2c-0.1,0.1-0.2,0.2-0.2,0.2c-0.2,0.2-0.4,0.3-0.6,0.5
		c-0.1,0.1-0.2,0.2-0.3,0.2c-0.1,0.1-0.2,0.2-0.3,0.2c-0.2,0.1-0.5,0.3-0.8,0.4c-0.5,0.3-1.1,0.4-1.8,0.6c-0.2,0-0.3,0.1-0.5,0.1
		c-0.2,0-0.3,0.1-0.5,0.1l-0.2,0l-0.2,0c-0.2,0-0.3,0-0.5,0.1c-0.3,0-0.7,0.1-1,0.1l-0.5,0l-0.5,0c-0.3,0-0.7,0-1-0.1
		c-0.2,0-0.3,0-0.5-0.1c-0.2,0-0.3,0-0.5-0.1c-0.3-0.1-0.7-0.1-1-0.2c-0.2,0-0.3-0.1-0.5-0.1c-0.2-0.1-0.3-0.1-0.5-0.2
		c-0.1,0-0.2,0-0.2-0.1c-0.1,0-0.1-0.1-0.2-0.1c-0.1-0.1-0.3-0.1-0.4-0.2c-0.1-0.1-0.3-0.1-0.4-0.2c-0.1,0-0.1-0.1-0.2-0.1
		c-0.1,0-0.1-0.1-0.2-0.1c-0.1-0.1-0.2-0.2-0.4-0.2c-0.1-0.1-0.2-0.2-0.3-0.3C61.4,108.6,61.2,108.4,61.1,108.2z M58.6,103
		c0-0.3,0-0.7,0-1c0-0.3,0.2-0.6,0.6-0.6c0,0,0.1,0,0.1,0c0-0.3,0-0.6,0-1c0-0.3,0.2-0.5,0.5-0.5c0,0,0.1,0,0.1,0c0.1,0,0.1,0,0.2,0
		c0-0.3,0-0.7,0-1c0-0.3,0.2-0.5,0.5-0.5c0,0,0.1,0,0.1,0c2.6,0.3,5.2,0.5,7.9,0.5c1.6,0,3.1-0.1,4.7-0.2L70.7,99
		c0.2,0.4,0.3,0.8,0.3,1c-0.1,0-0.3,0-0.4,0c-0.5,0-1.1,0.1-1.6,0.1c-0.5,0-1.1,0-1.6,0.1c-0.5,0-1.1,0-1.6,0c-0.5,0-1,0-1.5,0
		c-0.5,0-0.9,0-1.3-0.1c-0.4,0-0.8-0.1-1.1-0.1c-0.3,0-0.6-0.1-0.8-0.1c-0.5-0.1-0.7-0.1-0.7-0.1s0.3,0,0.7,0.1
		c0.2,0,0.5,0.1,0.8,0.1c0.3,0,0.7,0.1,1.1,0.1c0.4,0,0.8,0.1,1.3,0.1c0.5,0,1,0.1,1.5,0.1c0.5,0,1,0.1,1.6,0.1c0.5,0,1.1,0,1.6,0
		c0.5,0,1.1,0,1.6,0c0.5,0,1.1,0,1.6-0.1c0.3,0,0.5,0,0.7,0c0.2,0,0.5,0,0.7-0.1c0.5,0,0.9-0.1,1.3-0.1c0.2,0,0.5-0.1,0.7-0.1
		c-2.4,0.4-4.5,0.4-4.5,0.4c0.2,0.4,0.3,0.7,0.3,1c-0.2,0-0.5,0-0.7,0c-0.3,0-0.6,0-0.9,0.1c-0.3,0-0.6,0-0.9,0c-0.6,0-1.2,0-1.7,0
		c-0.6,0-1.1,0-1.7,0c-0.5,0-1.1,0-1.6-0.1c-0.3,0-0.5,0-0.7,0c-0.2,0-0.5,0-0.7-0.1c-0.4,0-0.8-0.1-1.2-0.1c-0.4,0-0.7-0.1-0.9-0.1
		c-0.5-0.1-0.8-0.1-0.8-0.1s0.3,0,0.8,0.1c0.3,0,0.6,0.1,0.9,0.1c0.4,0.1,0.8,0.1,1.2,0.1c0.2,0,0.4,0.1,0.7,0.1
		c0.2,0,0.5,0,0.7,0.1c0.5,0,1,0.1,1.6,0.1c0.5,0,1.1,0.1,1.7,0.1c0.6,0,1.2,0,1.8,0c0.3,0,0.6,0,0.9,0c0.3,0,0.6,0,0.9,0
		c0.6,0,1.1,0,1.7,0c0.6,0,1.1-0.1,1.6-0.1c0.5,0,1-0.1,1.4-0.1c0.9-0.1,1.6-0.2,2.1-0.2c0,0,0.1,0,0.1,0c-2.8,0.5-6,0.7-6,0.7
		c0.5,0.7,0.4,1.6,0.3,1.9c-1.1,0.1-2.3,0.1-3.4,0.1c-3.1,0-6.2-0.2-9.3-0.7C58.9,103.7,58.6,103.4,58.6,103z M60.1,63.4
		c0-0.3,0-0.7,0-1c-0.1,0-0.1,0-0.2,0c0,0-0.1,0-0.1,0c-0.3,0-0.5-0.2-0.5-0.5c0-0.3,0-0.6,0-1c0,0-0.1,0-0.1,0
		c-0.3,0-0.6-0.2-0.6-0.6c0-0.3,0-0.7,0-1c0-0.4,0.3-0.7,0.7-0.8c3.1-0.5,6.2-0.7,9.3-0.7c2.6,0,5.2,0.2,7.7,0.5
		c-1.9-0.2-4.4-0.2-4.4-0.2s0.2,0.8-0.3,1.6c-0.3,0-0.6,0-0.9,0c-0.3,0-0.6,0-0.9,0c-0.3,0-0.6,0-0.9,0c-0.6,0-1.2,0-1.8,0
		c-0.6,0-1.1,0.1-1.7,0.1c-0.6,0-1.1,0.1-1.6,0.2c-0.3,0-0.5,0.1-0.7,0.1c-0.2,0-0.5,0.1-0.7,0.1c-0.4,0.1-0.8,0.1-1.2,0.2
		c-0.4,0.1-0.7,0.1-0.9,0.2c-0.5,0.1-0.8,0.2-0.8,0.2s0.3,0,0.8-0.1c0.3,0,0.6-0.1,0.9-0.2c0.4-0.1,0.8-0.1,1.2-0.1
		c0.2,0,0.4-0.1,0.7-0.1c0.2,0,0.5,0,0.7-0.1c0.5,0,1-0.1,1.6-0.1c0.5,0,1.1,0,1.7,0c0.6,0,1.2,0,1.7,0c0.3,0,0.6,0,0.9,0
		c0.3,0,0.6,0,0.9,0.1c0.6,0,1.1,0.1,1.7,0.1c0.5,0.1,1.1,0.1,1.6,0.2c0.2,0,0.5,0.1,0.7,0.1c-1.6-0.1-3.2-0.2-3.2-0.2
		s0.1,0.5-0.1,1.1c-0.2,0-0.5,0-0.7,0c-0.5,0-1.1,0-1.6,0c-0.5,0-1.1,0-1.6,0c-0.5,0-1.1,0.1-1.6,0.1c-0.5,0-1,0.1-1.5,0.1
		c-0.5,0.1-0.9,0.1-1.3,0.2c-0.4,0.1-0.8,0.1-1.1,0.2c-0.3,0.1-0.6,0.1-0.8,0.2c-0.5,0.1-0.7,0.1-0.7,0.1s0.3,0,0.7-0.1
		c0.2,0,0.5-0.1,0.8-0.1c0.3,0,0.7-0.1,1.1-0.1c0.4,0,0.8-0.1,1.3-0.1c0.5,0,0.9,0,1.5-0.1c0.5,0,1,0,1.6,0c0.5,0,1.1,0,1.6,0
		c0.5,0,1.1,0.1,1.6,0.1c0.3,0,0.5,0,0.8,0.1c0.3,0,0.5,0,0.8,0.1c0.2,0,0.5,0.1,0.7,0.1c0.2,0,0.5,0.1,0.7,0.1
		c0.4,0.1,0.8,0.1,1.2,0.2C73,62.3,71,62.2,71,62.2s0.1,0.6-0.2,1.3c-0.8,0-1.5,0-2.3,0c-2.6,0-5.3,0.2-7.9,0.5c0,0-0.1,0-0.1,0
		C60.3,63.9,60.1,63.7,60.1,63.4z M68.5,50.1C68.5,50.1,68.5,50.1,68.5,50.1C68.5,50.1,68.5,50.1,68.5,50.1c3.4,0,6.3,1.9,7.9,4.4
		c-2.9-3.8-7.9-3.9-7.9-3.9c3.2,1.1,4.7,1.9,0.5,2.6c-1.5,0.3-1.3,1.3-1,2c0.2,0,0.4,0,0.6,0c0.5,0,0.9,0.1,1.3,0.1
		c0.4,0.1,0.9,0.1,1.3,0.1c0.4,0.1,0.8,0.1,1.2,0.2c0.4,0.1,0.7,0.1,1.1,0.2c0.7,0.1,1.2,0.2,1.6,0.3c0.4,0.1,0.6,0.1,0.6,0.1
		s-0.2,0-0.6-0.1c-0.4,0-1-0.1-1.6-0.1c-0.3,0-0.7-0.1-1.1-0.1c-0.4,0-0.8,0-1.2-0.1c-0.4,0-0.9,0-1.3,0c-0.4,0-0.9,0-1.3,0
		c-0.2,0-0.5,0-0.7,0c-0.1,0-0.3,0-0.4,0c-0.5,0-1.1,0.1-1.6,0.1c-0.5,0-1,0.1-1.5,0.1c-0.2,0-0.5,0.1-0.7,0.1
		c-0.2,0-0.4,0.1-0.6,0.1c-0.4,0.1-0.8,0.1-1.1,0.2c-0.3,0.1-0.6,0.1-0.8,0.2c-0.5,0.1-0.7,0.1-0.7,0.1s0.3,0,0.7-0.1
		c0.2,0,0.5-0.1,0.9-0.1c0.3,0,0.7-0.1,1.1-0.1c0.2,0,0.4,0,0.6-0.1c0.2,0,0.4,0,0.7,0c0.5,0,1-0.1,1.5-0.1c0.5,0,1,0,1.6,0
		c0.3,0,0.5,0,0.8,0c0.3,0,0.5,0,0.8,0c0.5,0,1.1,0,1.6,0.1c0.5,0,1.1,0.1,1.6,0.1c0.5,0,1,0.1,1.5,0.1c0.5,0.1,0.9,0.1,1.3,0.2
		c0.8,0.1,1.5,0.2,1.9,0.3c0.2,0,0.4,0.1,0.5,0.1c0.1,0.3,0.1,0.5,0.1,0.8c-3-0.4-6.1-0.6-9.1-0.6c-3,0-6.1,0.2-9.1,0.6
		C59.9,53.8,63.8,50.1,68.5,50.1z M75.4,97.8l-0.6-20.1l0-0.2L74.6,83l-0.2,5.3l-0.2,6.8l-0.1,1.7c-0.1,0-0.2,0-0.3,0.1
		c-0.3,0.1-0.8,0.2-1.4,0.3c-0.1,0-0.2,0-0.4,0.1c-0.2,0-0.4,0.1-0.6,0.1c-0.3,0.1-0.7,0.1-1,0.1c-0.4,0-0.7,0.1-1.1,0.1
		c-0.4,0-0.8,0.1-1.2,0.1c-0.4,0-0.8,0.1-1.2,0.1c-0.2,0-0.4,0-0.6,0c-0.1,0-0.2,0-0.3,0c-0.1,0-0.2,0-0.3,0c-0.2,0-0.4,0-0.5,0
		c-0.2,0-0.4,0-0.5,0c-0.3,0-0.7,0-1,0c-0.3,0-0.6,0-0.8-0.1c-0.2,0-0.4,0-0.6-0.1c-0.3,0-0.5-0.1-0.5-0.1s0.2,0,0.5,0.1
		c0.2,0,0.4,0.1,0.6,0.1c0.2,0,0.5,0.1,0.8,0.1c0.2,0,0.5,0.1,0.8,0.1c-1.1-0.1-2.1-0.2-3.1-0.3V64.6c1-0.1,2-0.2,3.1-0.3
		c0.4,0,0.7,0,1.1-0.1c-0.3,0-0.5,0.1-0.8,0.1c-0.1,0-0.2,0-0.4,0.1c-0.2,0-0.4,0.1-0.6,0.1c-0.3,0.1-0.6,0.1-0.8,0.1
		c-0.2,0.1-0.4,0.1-0.6,0.1c-0.3,0.1-0.5,0.1-0.5,0.1s0.2,0,0.5-0.1c0.2,0,0.4,0,0.6-0.1c0.2,0,0.5,0,0.8-0.1c0.1,0,0.2,0,0.3,0
		c0.2,0,0.5,0,0.7,0c0.3,0,0.7,0,1.1,0c0.4,0,0.7,0,1.1,0c0.4,0,0.8,0,1.2,0c0.4,0,0.8,0.1,1.2,0.1c0.1,0,0.2,0,0.4,0
		c0.3,0,0.5,0,0.8,0.1c0.4,0,0.7,0.1,1.1,0.1c0.3,0,0.6,0.1,0.9,0.1c0.6,0.1,1.1,0.2,1.4,0.2c0.1,0,0.1,0,0.2,0c0.1,0,0.1,0,0.2,0
		l0.3,5.9l0.2,2.8l0.5-9.5c0.1,0,0.1,0,0.2,0L75.4,97.8C75.5,97.8,75.5,97.8,75.4,97.8z"/>
	<path fill="#3F3F3F" d="M61.1,102.3c0.4,0.1,0.8,0.1,1.2,0.2c0.4,0.1,0.9,0.1,1.4,0.1c0.2,0,0.5,0,0.7,0c0.2,0,0.5,0,0.7,0
		c0.4,0,0.9,0,1.2,0c0.4,0,0.7,0,0.9,0c0.2,0,0.3,0,0.3,0s-0.1,0-0.3,0c-0.2,0-0.5,0-0.9-0.1c-0.4,0-0.8,0-1.2-0.1
		c-0.4,0-0.9-0.1-1.4-0.1c-0.2,0-0.5,0-0.7-0.1c-0.2,0-0.5,0-0.7-0.1c-0.4,0-0.9-0.1-1.2-0.1c-0.4,0-0.6-0.1-0.9-0.1
		c-0.2,0-0.3,0-0.3,0s0.1,0,0.3,0.1C60.5,102.2,60.7,102.3,61.1,102.3z"/>
	<path fill="#3F3F3F" d="M61.4,100.4c-0.2,0-0.3,0-0.3,0S61.2,100.4,61.4,100.4c0.2,0.1,0.4,0.2,0.7,0.2c0.3,0.1,0.7,0.1,1.1,0.2
		c0.4,0.1,0.8,0.1,1.2,0.1c0.2,0,0.4,0,0.6,0c0.2,0,0.4,0,0.6,0c0.4,0,0.8,0,1.1,0c0.3,0,0.6,0,0.8,0c0.2,0,0.3,0,0.3,0
		s-0.1,0-0.3,0c-0.2,0-0.5,0-0.8,0c-0.3,0-0.7,0-1.1-0.1c-0.4,0-0.8-0.1-1.2-0.1c-0.8-0.1-1.7-0.1-2.3-0.2
		C61.8,100.4,61.6,100.4,61.4,100.4z"/>
	<path fill="#3F3F3F" d="M65.5,59.4c-0.3,0-0.6,0-0.9,0c-0.3,0-0.7,0-1,0.1c-0.4,0-0.7,0.1-1,0.1c-0.3,0.1-0.6,0.1-0.9,0.2
		c-0.3,0.1-0.5,0.1-0.6,0.2c-0.2,0-0.2,0.1-0.2,0.1s0.1,0,0.2,0c0.2,0,0.4,0,0.6-0.1c0.3,0,0.6-0.1,0.9-0.1c0.3,0,0.7-0.1,1-0.1
		c0.4,0,0.7-0.1,1-0.1c0.3,0,0.6-0.1,0.9-0.1c0.3,0,0.5,0,0.6,0c0.2,0,0.2,0,0.2,0s-0.1,0-0.2,0C66,59.4,65.7,59.4,65.5,59.4z"/>
	<path fill="#3F3F3F" d="M62.4,61.7c0.2,0,0.5-0.1,0.8-0.1c0.3,0,0.6-0.1,0.9-0.1c0.3,0,0.6-0.1,0.9-0.1c0.3,0,0.6,0,0.8-0.1
		c0.2,0,0.4,0,0.6,0c0.1,0,0.2,0,0.2,0s-0.1,0-0.2,0c-0.1,0-0.3,0-0.6,0c-0.2,0-0.5,0-0.8,0c-0.3,0-0.6,0-0.9,0.1
		c-0.3,0-0.6,0.1-0.9,0.1c-0.3,0-0.6,0.1-0.8,0.2c-0.2,0-0.4,0.1-0.6,0.1c-0.1,0-0.2,0.1-0.2,0.1s0.1,0,0.2,0
		C62,61.7,62.2,61.7,62.4,61.7z"/>
	<path fill="#3F3F3F" d="M63.6,63.3c0.3,0,0.5-0.1,0.8-0.1c0.3,0,0.6,0,0.8-0.1c0.3,0,0.5,0,0.7,0c0.2,0,0.4,0,0.5,0
		c0.1,0,0.2,0,0.2,0s-0.1,0-0.2,0c-0.1,0-0.3,0-0.5,0c-0.2,0-0.5,0-0.7,0c-0.3,0-0.5,0-0.8,0c-0.3,0-0.6,0.1-0.8,0.1
		c-0.3,0-0.5,0.1-0.7,0.1c-0.2,0-0.4,0.1-0.5,0.1c-0.1,0-0.2,0.1-0.2,0.1s0.1,0,0.2,0c0.1,0,0.3,0,0.5-0.1
		C63.1,63.4,63.3,63.3,63.6,63.3z"/>
	<path fill="#3F3F3F" d="M61.4,55.7c0,0,0.1,0,0.2,0c0.1,0,0.4-0.1,0.6-0.1c0.3,0,0.5-0.1,0.9-0.1c0.3,0,0.7-0.1,1-0.1
		c0.3,0,0.7-0.1,1-0.1c0.3,0,0.6,0,0.9,0c0.3,0,0.5,0,0.6,0c0.2,0,0.2,0,0.2,0s-0.1,0-0.2,0c-0.1,0-0.4,0-0.6-0.1
		c-0.3,0-0.6,0-0.9,0c-0.3,0-0.7,0-1,0.1c-0.3,0-0.7,0.1-1,0.1c-0.3,0.1-0.6,0.1-0.9,0.2c-0.3,0.1-0.5,0.1-0.6,0.2
		C61.5,55.7,61.4,55.7,61.4,55.7z"/>
	<path fill="#3F3F3F" d="M64.3,99.2c0.3,0,0.5,0,0.8,0.1c0.3,0,0.6,0,0.8,0c0.3,0,0.5,0,0.7,0c0.2,0,0.4,0,0.5,0c0.1,0,0.2,0,0.2,0
		s-0.1,0-0.2,0c-0.1,0-0.3,0-0.5-0.1c-0.2,0-0.5,0-0.7-0.1c-0.3,0-0.5,0-0.8-0.1c-0.3,0-0.6,0-0.8,0c-0.3,0-0.5,0-0.7,0
		c-0.2,0-0.4,0-0.5,0c-0.1,0-0.2,0-0.2,0s0.1,0,0.2,0c0.1,0,0.3,0,0.5,0.1C63.8,99.2,64.1,99.2,64.3,99.2z"/>
</g>
</svg>
