<?xml version="1.0" encoding="utf-8"?>
<!-- Generator: Adobe Illustrator 26.3.1, SVG Export Plug-In . SVG Version: 6.00 Build 0)  -->
<svg version="1.1" id="Capa_1" xmlns="http://www.w3.org/2000/svg" xmlns:xlink="http://www.w3.org/1999/xlink" x="0px" y="0px"
	 width="144px" height="144px" viewBox="0 0 144 144" enable-background="new 0 0 144 144" xml:space="preserve">
<g>
	<g>
		<g>
			<g>
				<path fill="#FFFFFF" d="M80.7,31.7c3.1,8.9,20.1,7.4,30.4,16.4c9.5,8.3,26.5,17.6,31,21.1c0.7,0.5,1,1.4,0.8,2.3
					c-0.7,2.9-2.3,5-4.8,6.1c-0.3,0.1-0.7,0.2-1,0c-6.6-2.3-25.4-13.3-30.8-21c-0.1-0.2-0.1-0.4,0-0.6c0.7-1.3,1.1-2.2,1.4-3.1
					c0.3-1.1-0.1-2.8-1.1-3.4c-6.6-3.7-26.2-8-28.2-17C77.9,30.6,80.2,30,80.7,31.7z"/>
			</g>
		</g>
		<g>
			<g>
				<path fill="#373745" d="M121.1,69.3c-4.2-2.7-11.8-8-15-12.6c-0.2-0.2-0.2-0.5,0-0.8c0.7-1.1,1.1-2,1.3-3.1
					c0.3-1.1-0.1-2.6-1-3.1c-1.8-1-4.6-2.1-7.8-3.3c-8.5-3.2-19.1-7.2-20.5-13.9c-0.2-1.1,0.4-1.8,1-2c0.6-0.2,1.5,0.1,1.8,1.1
					c1.6,4.7,7.3,6.4,13.8,8.5c5.5,1.7,11.8,3.7,16.5,7.8c6.3,5.5,15.8,11.4,22.8,15.7c3.7,2.3,6.7,4.1,8.2,5.3
					c0.7,0.6,1.1,1.5,0.9,2.5c-0.7,3-2.4,5.1-4.9,6.3c-0.4,0.2-0.8,0.2-1.2,0.1c-3-1-8.2-3.7-13.3-6.8
					C122.8,70.4,121.9,69.8,121.1,69.3z M94.5,40.5c-6.6-2.1-12.3-3.8-14-8.7l0,0c-0.2-0.7-0.8-0.9-1.3-0.8
					c-0.5,0.1-0.9,0.7-0.7,1.5c1.4,6.4,11.9,10.4,20.3,13.6c3.2,1.2,6,2.3,7.8,3.3c1.1,0.6,1.6,2.4,1.2,3.6c-0.3,1.1-0.7,2-1.4,3.2
					c-0.1,0.1-0.1,0.2,0,0.3c5.1,7.4,23.7,18.6,30.7,21c0.3,0.1,0.6,0.1,0.9,0c2.4-1.1,4-3.1,4.7-6c0.2-0.8-0.1-1.6-0.7-2.1
					c-1.5-1.2-4.4-3-8.2-5.3c-7-4.3-16.5-10.3-22.8-15.8c-1.1-0.9-2.2-1.7-3.4-2.5C103.5,43.3,98.8,41.8,94.5,40.5z"/>
			</g>
		</g>
		<g>
			<g>
				<path fill="#373745" d="M82.6,37.4c1.9,1.5,4,2.7,6.2,3.7c2.1,1,4.3,1.9,6.5,2.7c2.2,0.8,4.4,1.5,6.6,2.4
					c0.5,0.2,1.1,0.4,1.6,0.7c0.3,0.1,0.5,0.2,0.8,0.4c0.3,0.1,0.5,0.3,0.8,0.4c0.1,0.1,0.3,0.1,0.4,0.2L106,48
					c0.3,0.2,0.5,0.3,0.8,0.5c0.3,0.2,0.5,0.3,0.8,0.4c0.3,0.1,0.6,0.2,0.9,0.1c-0.3,0.1-0.6,0-0.9-0.1c-0.3-0.1-0.5-0.3-0.8-0.5
					c-0.2-0.2-0.5-0.3-0.8-0.5l-0.4-0.2l-0.4-0.2c-0.3-0.1-0.5-0.3-0.8-0.4c-0.3-0.1-0.5-0.3-0.8-0.4c-0.5-0.3-1.1-0.5-1.6-0.7
					c-2.2-0.9-4.4-1.7-6.6-2.5c-2.2-0.8-4.4-1.6-6.5-2.6C86.7,39.9,84.6,38.8,82.6,37.4z"/>
			</g>
		</g>
		<g>
			<g>
				<path fill="#373745" d="M86.4,39.5c1.6,0.8,3.2,1.5,4.8,2.2c1.6,0.6,3.2,1.2,4.9,1.8c1.6,0.6,3.2,1.2,4.9,1.8
					c1.6,0.6,3.2,1.3,4.8,2.2c-1.5-1-3.1-1.7-4.7-2.4c-1.6-0.7-3.2-1.3-4.9-1.9c-1.6-0.6-3.2-1.1-4.9-1.7
					C89.7,40.8,88,40.2,86.4,39.5z"/>
			</g>
		</g>
		<g>
			<g>
				<path fill="#373745" d="M107.1,56.2c0.5-0.8,1-1.5,1.6-2.2c0.3-0.3,0.6-0.7,1-1c0.2-0.1,0.3-0.3,0.5-0.4
					c0.2-0.1,0.4-0.2,0.6-0.3c0.4-0.2,0.9-0.2,1.3-0.1c0.2,0.1,0.4,0.2,0.6,0.3c0.2,0.1,0.4,0.3,0.6,0.4l2.2,1.6c3,2.2,6,4.3,9,6.3
					c1.5,1,3.1,2,4.6,3c1.6,1,3.1,2,4.7,2.9c1.6,0.9,3.2,1.8,4.8,2.7l1.2,0.6c0.2,0.1,0.4,0.2,0.6,0.3c0.2,0.1,0.4,0.3,0.5,0.4
					c0.3,0.3,0.4,0.8,0.4,1.2c0,0.5-0.1,0.9-0.3,1.3c0.2-0.4,0.3-0.9,0.4-1.3c0-0.5-0.1-0.9-0.4-1.3c-0.1-0.2-0.3-0.3-0.5-0.5
					c-0.2-0.1-0.4-0.2-0.6-0.3l-1.2-0.7c-1.6-0.9-3.2-1.8-4.8-2.8c-3.1-1.9-6.2-3.9-9.3-6c-1.5-1-3-2.1-4.6-3.1l-4.5-3.2l-2.3-1.6
					c-0.2-0.1-0.4-0.3-0.6-0.4c-0.2-0.1-0.4-0.2-0.7-0.3c-0.5-0.1-1-0.1-1.4,0.1c-0.2,0.1-0.4,0.2-0.6,0.4c-0.2,0.1-0.4,0.3-0.5,0.5
					c-0.3,0.3-0.7,0.7-0.9,1C108,54.6,107.5,55.4,107.1,56.2z"/>
			</g>
		</g>
		<g>
			<g>
				<path fill="#373745" d="M78.8,32.3c0.2,0.9,0.6,1.8,1.2,2.6c0.5,0.8,1.2,1.5,1.9,2.2c0.7,0.6,1.4,1.2,2.2,1.8
					c0.8,0.5,1.6,1,2.4,1.5c1.6,0.9,3.3,1.7,5,2.4c1.7,0.7,3.4,1.4,5.2,2c1.7,0.6,3.5,1.1,5.2,1.8c0.9,0.3,1.7,0.7,2.5,1.1
					c0.8,0.4,1.7,0.8,2.5,1.3c0.2,0.1,0.4,0.2,0.6,0.3c0.2,0.1,0.4,0.2,0.7,0.2c0.1,0,0.3,0,0.4,0c0.1,0,0.3-0.1,0.4-0.2
					c0.2-0.2,0.3-0.4,0.4-0.7c0-0.5-0.2-1-0.5-1.4c-0.3-0.4-0.7-0.7-1.1-0.9c-0.8-0.5-1.6-1-2.5-1.4c-0.9-0.4-1.7-0.8-2.6-1.2
					c0.9,0.4,1.8,0.8,2.6,1.2c0.8,0.4,1.7,0.9,2.4,1.4c0.4,0.3,0.8,0.6,1,0.9c0.3,0.4,0.4,0.8,0.4,1.2c0,0.2-0.1,0.4-0.3,0.5
					c-0.2,0.1-0.4,0.1-0.6,0.1c-0.4-0.1-0.8-0.4-1.2-0.6c-0.4-0.2-0.8-0.5-1.2-0.7c-0.4-0.2-0.8-0.4-1.2-0.6
					c-0.8-0.4-1.7-0.8-2.6-1.1c-1.7-0.7-3.5-1.2-5.2-1.8c-1.7-0.6-3.4-1.3-5.1-2c-1.7-0.7-3.4-1.5-5-2.4c-0.8-0.4-1.6-0.9-2.4-1.4
					c-0.8-0.5-1.5-1.1-2.2-1.7c-0.7-0.6-1.3-1.3-1.9-2.1C79.4,34.1,79,33.2,78.8,32.3z"/>
			</g>
		</g>
		<g>
			<g>
				<path fill="#373745" d="M79,31.5c0-0.1,0.2-0.2,0.3-0.3c0.1,0,0.3,0,0.4,0c0.3,0.1,0.4,0.3,0.5,0.6c0.1,0.2,0.2,0.5,0.3,0.7
					c0.1,0.2,0.2,0.5,0.4,0.7c0.5,0.9,1.3,1.7,2.1,2.4c0.8,0.7,1.7,1.2,2.6,1.7c0.9,0.5,1.9,0.9,2.9,1.3c-2-0.9-3.9-1.8-5.5-3.2
					c-0.8-0.7-1.5-1.4-2.1-2.3c-0.1-0.2-0.3-0.4-0.4-0.7c-0.1-0.1-0.1-0.2-0.2-0.4c-0.1-0.1-0.1-0.2-0.2-0.4
					c-0.1-0.2-0.3-0.5-0.6-0.6c-0.1,0-0.3,0-0.4,0C79.2,31.3,79.1,31.4,79,31.5z"/>
			</g>
		</g>
		<g>
			<g>
				<path fill="#373745" d="M80.8,33.5c0.8,1.4,1.9,2.4,3.3,3.2C82.8,35.7,81.8,34.7,80.8,33.5z"/>
			</g>
		</g>
		<g>
			<g>
				<path fill="#373745" d="M110.3,52.8c0.3-0.3,0.7-0.4,1.1-0.5c0.4,0,0.8,0.1,1.1,0.3c0.7,0.4,1.3,0.9,1.9,1.4
					c0.6,0.5,1.2,1,1.9,1.5c0.6,0.5,1.2,0.9,1.9,1.4c2.5,1.9,5,3.6,7.6,5.3c2.6,1.7,5.2,3.3,7.9,4.9c1.3,0.8,2.7,1.5,4.2,2.2
					c0.7,0.3,1.4,0.7,2.1,1.1c0.3,0.2,0.7,0.4,0.9,0.7c0.1,0.2,0.2,0.3,0.3,0.5c0,0.2,0,0.4,0,0.6c0.1-0.2,0.1-0.4,0.1-0.6
					c0-0.2-0.1-0.4-0.3-0.6c-0.3-0.3-0.6-0.5-0.9-0.8c-0.7-0.4-1.4-0.8-2.1-1.1c-1.4-0.7-2.8-1.5-4.1-2.3c-2.7-1.6-5.3-3.3-7.8-5
					c-2.6-1.7-5.1-3.4-7.7-5.2c-0.6-0.4-1.3-0.9-1.9-1.4c-0.6-0.5-1.3-0.9-1.9-1.4c-0.6-0.5-1.2-1-1.9-1.4c-0.4-0.2-0.8-0.3-1.2-0.3
					C110.9,52.4,110.6,52.6,110.3,52.8z"/>
			</g>
		</g>
		<g>
			<g>
				<path fill="#373745" d="M109.8,47.4c2.6,2.3,5.2,4.4,7.8,6.4c2.7,2,5.4,3.9,8.1,5.7c1.4,0.9,2.8,1.8,4.1,2.7
					c0.7,0.4,1.4,0.9,2.1,1.3c0.7,0.4,1.4,0.9,2.1,1.3c1.4,0.8,2.9,1.6,4.4,2.5c0.7,0.4,1.5,0.8,2.2,1.3c0.4,0.2,0.7,0.5,1,0.7
					c0.2,0.1,0.3,0.3,0.5,0.4c0.1,0.2,0.3,0.3,0.3,0.5c0-0.2-0.2-0.4-0.3-0.6c-0.1-0.2-0.3-0.3-0.5-0.4c-0.3-0.3-0.7-0.5-1-0.8
					c-0.7-0.5-1.4-0.9-2.1-1.4c-1.4-0.9-2.9-1.7-4.3-2.6c-0.7-0.4-1.4-0.9-2.1-1.3c-0.7-0.4-1.4-0.9-2.1-1.3
					c-1.4-0.9-2.8-1.8-4.1-2.7c-1.4-0.9-2.7-1.8-4.1-2.7c-1.4-0.9-2.7-1.9-4-2.8C115,51.7,112.4,49.6,109.8,47.4z"/>
			</g>
		</g>
		<g>
			<g>
				<path fill="#373745" d="M107.1,49.5c0.3,0.2,0.5,0.6,0.6,0.9c0.1,0.3,0.2,0.7,0.3,1c0.1,0.7,0,1.4,0,2.2
					c0.3-0.7,0.5-1.5,0.4-2.2c0-0.4-0.2-0.8-0.4-1.1C107.7,49.9,107.4,49.6,107.1,49.5z"/>
			</g>
		</g>
		<g>
			<g>
				<path fill="#373745" d="M108.1,50.2c0.1,0.3,0.2,0.5,0.3,0.7c0.1,0.2,0.2,0.4,0.3,0.7c0.1-0.3,0.1-0.6,0-0.9
					C108.6,50.5,108.4,50.3,108.1,50.2z"/>
			</g>
		</g>
		<g>
			<g>
				<path fill="#373745" d="M113.8,54.1c4,3.2,7.9,6,12,8.7c4.1,2.7,8.2,5.2,12.7,7.6c-4.4-2.6-8.5-5.3-12.6-7.9
					C121.9,59.8,117.9,57.1,113.8,54.1z"/>
			</g>
		</g>
		<g>
			<g>
				<path fill="#373745" d="M119.2,58.5c4.1,3.5,8.2,6.2,13,8.6C127.6,64.3,123.5,61.5,119.2,58.5z"/>
			</g>
		</g>
		<g>
			<g>
				<path fill="#373745" d="M107.1,57c4.5,4.4,9.2,8.2,14.2,11.5c5,3.3,10.4,6.1,16.2,8.5c-5.8-2.6-11.1-5.5-16.1-8.8
					C116.4,64.9,111.7,61.3,107.1,57z"/>
			</g>
		</g>
		<g>
			<g>
				<g>
					<path fill="#FFFFFF" d="M96.9,40.7C82.1,57.3,72.2,75.3,63.5,97c-2.8,7.1-13.8,6.4-10.9-2.5c7-21.3,22.4-42.7,40.7-57.6
						C96.4,34.4,99.3,38,96.9,40.7z"/>
				</g>
			</g>
			<g>
				<g>
					<path fill="#373745" d="M52.7,97.8c0.3,2.2,2.2,2.7,3,2.8c2.2,0.3,5.1-1.1,6.3-4.1c9.4-23.6,19.7-41,33.5-56.6
						c0.5-0.5,0.7-1.2,0.6-1.7c-0.1-0.5-0.4-0.9-0.8-1.1c-0.5-0.2-1.2,0-1.9,0.5C75.1,52.5,60,73.8,53.1,94.6
						C52.7,95.8,52.6,96.9,52.7,97.8L52.7,97.8z"/>
				</g>
			</g>
			<g>
				<g>
					<path fill="#373745" d="M52.5,94.4c6.9-21,22.1-42.6,40.8-57.7c1.6-1.3,3.2-1,4-0.1c0.9,1,1.1,2.7-0.2,4.2
						C83.3,56.3,73,73.6,63.7,97c-1.6,4.1-5.9,5.7-8.8,4.6c-1.4-0.5-2.6-1.6-2.8-3.5C51.9,97.1,52,95.9,52.5,94.4z M96.7,40.6
						c1.2-1.3,1-2.8,0.2-3.6c-0.7-0.7-2-1.1-3.4,0.1C74.9,52.1,59.8,73.6,52.9,94.6c-1.1,3.3-0.3,5.8,2.2,6.7c2.8,1,6.8-0.5,8.3-4.4
						C72.7,73.4,83,56,96.7,40.6L96.7,40.6L96.7,40.6z"/>
				</g>
			</g>
			<g>
				<g>
					<path fill="#FFFFFF" d="M56.7,94.6c0.8-0.1,1.6,0.5,1.8,1.3c0.1,0.8-0.5,1.6-1.3,1.8c-0.8,0.1-1.6-0.5-1.8-1.3
						C55.3,95.5,55.9,94.7,56.7,94.6z M91.3,40.6c0.6-0.1,1.2,0.3,1.3,1c0.1,0.6-0.3,1.2-1,1.3c-0.6,0.1-1.2-0.3-1.3-1
						C90.2,41.3,90.6,40.7,91.3,40.6z"/>
				</g>
			</g>
			<g>
				<g>
					<path fill="#FFFFFF" d="M57,94.9c0.7-0.1,1.4,0.4,1.5,1.1c0.1,0.7-0.4,1.4-1.1,1.5c-0.7,0.1-1.4-0.4-1.5-1.1
						C55.7,95.7,56.2,95,57,94.9z"/>
				</g>
				<g>
					<path fill="#373745" d="M56.9,94.7c0.8-0.1,1.6,0.5,1.8,1.3c0.1,0.8-0.5,1.6-1.3,1.8c-0.8,0.1-1.6-0.5-1.8-1.3
						C55.5,95.6,56.1,94.9,56.9,94.7z M57,95.1c-0.6,0.1-1.1,0.7-1,1.3c0.1,0.6,0.7,1.1,1.3,1c0.6-0.1,1.1-0.7,1-1.3
						C58.2,95.5,57.6,95,57,95.1z"/>
				</g>
			</g>
			<g>
				<g>
					<path fill="#FFFFFF" d="M91.5,41c0.5-0.1,1,0.3,1.1,0.8c0.1,0.5-0.3,1-0.8,1.1c-0.5,0.1-1-0.3-1.1-0.8
						C90.6,41.6,91,41.1,91.5,41z"/>
				</g>
				<g>
					<path fill="#373745" d="M91.5,40.8c0.6-0.1,1.2,0.3,1.3,1c0.1,0.6-0.3,1.2-1,1.3c-0.6,0.1-1.2-0.3-1.3-1
						C90.4,41.5,90.8,40.9,91.5,40.8z M91.5,41.2c-0.4,0.1-0.7,0.4-0.6,0.9c0.1,0.4,0.4,0.7,0.9,0.6c0.4-0.1,0.7-0.4,0.6-0.9
						C92.3,41.4,91.9,41.2,91.5,41.2z"/>
				</g>
			</g>
			<g>
				<g>
					<path fill="#373745" d="M95.9,37c0.1,0.1,0.3,0.3,0.4,0.5c0.1,0.2,0.2,0.4,0.2,0.6c0.1,0.4,0,0.8-0.2,1.2
						c-0.3,0.7-0.9,1.3-1.4,1.9l-0.4,0.4c-0.1,0.2-0.3,0.3-0.4,0.5c-0.3,0.3-0.5,0.6-0.8,0.9c-0.5,0.6-1,1.2-1.5,1.8
						c-2,2.5-3.9,5-5.7,7.5c-3.7,5.1-7,10.2-10.1,15.6c-3.1,5.3-5.9,10.8-8.5,16.5c-0.6,1.4-1.3,2.9-1.9,4.3
						c-0.3,0.7-0.6,1.5-0.9,2.2c-0.3,0.7-0.6,1.5-0.9,2.2c-0.1,0.4-0.3,0.7-0.4,1.1c-0.1,0.4-0.3,0.7-0.4,1.1
						c-0.3,0.7-0.6,1.5-1,2.1c-0.4,0.7-0.9,1.3-1.5,1.9c-0.6,0.5-1.3,1-2.1,1.2c0.8-0.2,1.5-0.6,2.2-1.1c0.6-0.5,1.1-1.2,1.5-1.9
						c0.9-1.4,1.4-2.9,2.1-4.3c0.3-0.7,0.6-1.5,0.9-2.2c0.3-0.7,0.6-1.4,1-2.2c0.6-1.4,1.3-2.9,2-4.3c2.7-5.7,5.6-11.1,8.7-16.4
						c3.1-5.3,6.4-10.5,10-15.6c1.8-2.6,3.6-5.1,5.5-7.6c0.5-0.6,1-1.2,1.5-1.9l0.7-0.9c0.1-0.2,0.2-0.3,0.4-0.5l0.4-0.4
						c0.5-0.6,1-1.2,1.3-2c0.1-0.4,0.2-0.8,0.1-1.2c0-0.2-0.1-0.4-0.3-0.6C96.2,37.2,96,37.1,95.9,37z"/>
				</g>
			</g>
			<g>
				<g>
					<path fill="#373745" d="M57.1,95.3c0.3,0.1,0.6,0.3,0.7,0.6c0.1,0.2,0.1,0.5,0,0.8c-0.1,0.2-0.3,0.4-0.6,0.5
						c-0.3,0.1-0.6,0.1-0.9-0.1c0.2,0.3,0.6,0.4,0.9,0.4c0.2,0,0.4-0.1,0.5-0.2c0.1-0.1,0.3-0.3,0.3-0.4c0.1-0.2,0.1-0.3,0.1-0.5
						c0-0.2-0.1-0.4-0.2-0.5C57.8,95.4,57.5,95.2,57.1,95.3z"/>
				</g>
			</g>
			<g>
				<g>
					<path fill="#373745" d="M91.1,42.2c0,0.2,0.2,0.4,0.4,0.4c0.2,0.1,0.5,0,0.6-0.2c0.2-0.2,0.2-0.5,0.1-0.7
						c-0.1-0.2-0.3-0.3-0.5-0.3c0.2,0.1,0.3,0.3,0.3,0.4c0,0.1,0,0.3-0.1,0.4c-0.1,0.1-0.2,0.2-0.4,0.2
						C91.4,42.4,91.3,42.3,91.1,42.2z"/>
				</g>
			</g>
		</g>
	</g>
	<g>
		<g>
			<g>
				<g>
					<path fill="#FFFFFF" d="M63.2,31.7c-3.1,8.9-20.1,7.4-30.4,16.4c-9.5,8.3-26.5,17.6-31,21.1c-0.7,0.5-1,1.4-0.8,2.3
						c0.7,2.9,2.3,5,4.8,6.1c0.3,0.1,0.7,0.2,1,0c6.6-2.3,25.4-13.3,30.8-21c0.1-0.2,0.1-0.4,0-0.6c-0.7-1.3-1.1-2.2-1.4-3.1
						c-0.3-1.1,0.1-2.8,1.1-3.4c6.6-3.7,26.2-8,28.2-17C66,30.6,63.7,30,63.2,31.7z"/>
				</g>
			</g>
			<g>
				<g>
					<path fill="#373745" d="M20.2,70.9c-5.1,3.1-10.3,5.8-13.3,6.8c-0.4,0.1-0.8,0.1-1.2-0.1c-2.5-1.1-4.2-3.3-4.9-6.3
						c-0.2-0.9,0.1-1.9,0.9-2.5c1.5-1.2,4.5-3,8.2-5.3c7-4.3,16.5-10.3,22.8-15.7c4.8-4.2,11-6.1,16.5-7.8c6.5-2,12.1-3.8,13.8-8.5
						c0.3-1,1.1-1.2,1.8-1.1c0.7,0.2,1.3,0.9,1,2c-1.5,6.6-12,10.6-20.5,13.9c-3.2,1.2-6,2.3-7.8,3.3c-0.9,0.5-1.3,2.1-1,3.1
						c0.3,1,0.7,1.9,1.3,3.1c0.1,0.2,0.1,0.6,0,0.8c-3.2,4.6-10.7,9.9-15,12.6C21.9,69.8,21.1,70.4,20.2,70.9z M36.3,45.8
						c-1.2,0.7-2.3,1.5-3.4,2.5C26.7,53.7,17.1,59.6,10.1,64c-3.7,2.3-6.7,4.1-8.2,5.3c-0.6,0.5-0.9,1.3-0.7,2.1
						c0.7,2.9,2.3,4.9,4.7,6c0.3,0.1,0.6,0.1,0.9,0c7-2.4,25.5-13.6,30.7-21c0.1-0.1,0.1-0.2,0-0.3c-0.7-1.2-1.1-2.1-1.4-3.2
						c-0.3-1.2,0.1-3,1.2-3.6c1.8-1,4.6-2.1,7.8-3.3c8.4-3.2,18.9-7.1,20.3-13.6c0.2-0.9-0.2-1.4-0.7-1.5c-0.5-0.1-1.1,0.1-1.3,0.8
						l0,0c-1.7,4.9-7.4,6.7-14,8.7C45.1,41.8,40.4,43.3,36.3,45.8z"/>
				</g>
			</g>
			<g>
				<g>
					<path fill="#373745" d="M61.3,37.4c-1.9,1.5-4,2.7-6.2,3.7c-2.1,1-4.3,1.9-6.5,2.7c-2.2,0.8-4.4,1.5-6.6,2.4
						c-0.5,0.2-1.1,0.4-1.6,0.7c-0.3,0.1-0.5,0.2-0.8,0.4c-0.3,0.1-0.5,0.3-0.8,0.4c-0.1,0.1-0.3,0.1-0.4,0.2L37.9,48
						c-0.3,0.2-0.5,0.3-0.8,0.5c-0.3,0.2-0.5,0.3-0.8,0.4C36,49,35.7,49,35.4,49c0.3,0.1,0.6,0,0.9-0.1c0.3-0.1,0.5-0.3,0.8-0.5
						c0.2-0.2,0.5-0.3,0.8-0.5l0.4-0.2l0.4-0.2c0.3-0.1,0.5-0.3,0.8-0.4c0.3-0.1,0.5-0.3,0.8-0.4c0.5-0.3,1.1-0.5,1.6-0.7
						c2.2-0.9,4.4-1.7,6.6-2.5c2.2-0.8,4.4-1.6,6.5-2.6C57.2,39.9,59.3,38.8,61.3,37.4z"/>
				</g>
			</g>
			<g>
				<g>
					<path fill="#373745" d="M57.5,39.5c-1.6,0.8-3.2,1.5-4.8,2.2c-1.6,0.6-3.2,1.2-4.9,1.8c-1.6,0.6-3.2,1.2-4.9,1.8
						c-1.6,0.6-3.2,1.3-4.8,2.2c1.5-1,3.1-1.7,4.7-2.4c1.6-0.7,3.2-1.3,4.9-1.9c1.6-0.6,3.2-1.1,4.9-1.7
						C54.2,40.8,55.9,40.2,57.5,39.5z"/>
				</g>
			</g>
			<g>
				<g>
					<path fill="#373745" d="M36.8,56.2c-0.5-0.8-1-1.5-1.6-2.2c-0.3-0.3-0.6-0.7-1-1c-0.2-0.1-0.3-0.3-0.5-0.4
						c-0.2-0.1-0.4-0.2-0.6-0.3c-0.4-0.2-0.9-0.2-1.3-0.1c-0.2,0.1-0.4,0.2-0.6,0.3c-0.2,0.1-0.4,0.3-0.6,0.4l-2.2,1.6
						c-3,2.2-6,4.3-9,6.3c-1.5,1-3.1,2-4.6,3c-1.6,1-3.1,2-4.7,2.9c-1.6,0.9-3.2,1.8-4.8,2.7l-1.2,0.6c-0.2,0.1-0.4,0.2-0.6,0.3
						c-0.2,0.1-0.4,0.3-0.5,0.4c-0.3,0.3-0.4,0.8-0.4,1.2c0,0.5,0.1,0.9,0.3,1.3c-0.2-0.4-0.3-0.9-0.4-1.3c0-0.5,0.1-0.9,0.4-1.3
						c0.1-0.2,0.3-0.3,0.5-0.5C3.6,70.2,3.8,70.1,4,70l1.2-0.7c1.6-0.9,3.2-1.8,4.8-2.8c3.1-1.9,6.2-3.9,9.3-6c1.5-1,3-2.1,4.6-3.1
						l4.5-3.2l2.3-1.6c0.2-0.1,0.4-0.3,0.6-0.4c0.2-0.1,0.4-0.2,0.7-0.3c0.5-0.1,1-0.1,1.4,0.1c0.2,0.1,0.4,0.2,0.6,0.4
						c0.2,0.1,0.4,0.3,0.5,0.5c0.3,0.3,0.7,0.7,0.9,1C35.9,54.6,36.4,55.4,36.8,56.2z"/>
				</g>
			</g>
			<g>
				<g>
					<path fill="#373745" d="M65.1,32.3c-0.2,0.9-0.6,1.8-1.2,2.6c-0.5,0.8-1.2,1.5-1.9,2.2c-0.7,0.6-1.4,1.2-2.2,1.8
						c-0.8,0.5-1.6,1-2.4,1.5c-1.6,0.9-3.3,1.7-5,2.4c-1.7,0.7-3.4,1.4-5.2,2c-1.7,0.6-3.5,1.1-5.2,1.8c-0.9,0.3-1.7,0.7-2.5,1.1
						c-0.8,0.4-1.7,0.8-2.5,1.3c-0.2,0.1-0.4,0.2-0.6,0.3c-0.2,0.1-0.4,0.2-0.7,0.2c-0.1,0-0.3,0-0.4,0c-0.1,0-0.3-0.1-0.4-0.2
						c-0.2-0.2-0.3-0.4-0.4-0.7c0-0.5,0.2-1,0.5-1.4c0.3-0.4,0.7-0.7,1.1-0.9c0.8-0.5,1.6-1,2.5-1.4c0.9-0.4,1.7-0.8,2.6-1.2
						c-0.9,0.4-1.8,0.8-2.6,1.2c-0.8,0.4-1.7,0.9-2.4,1.4c-0.4,0.3-0.8,0.6-1,0.9c-0.3,0.4-0.4,0.8-0.4,1.2c0,0.2,0.1,0.4,0.3,0.5
						c0.2,0.1,0.4,0.1,0.6,0.1c0.4-0.1,0.8-0.4,1.2-0.6c0.4-0.2,0.8-0.5,1.2-0.7c0.4-0.2,0.8-0.4,1.2-0.6c0.8-0.4,1.7-0.8,2.6-1.1
						c1.7-0.7,3.5-1.2,5.2-1.8c1.7-0.6,3.4-1.3,5.1-2c1.7-0.7,3.4-1.5,5-2.4c0.8-0.4,1.6-0.9,2.4-1.4c0.8-0.5,1.5-1.1,2.2-1.7
						c0.7-0.6,1.3-1.3,1.9-2.1C64.5,34.1,64.9,33.2,65.1,32.3z"/>
				</g>
			</g>
			<g>
				<g>
					<path fill="#373745" d="M64.8,31.5c0-0.1-0.2-0.2-0.3-0.3c-0.1,0-0.3,0-0.4,0c-0.3,0.1-0.4,0.3-0.5,0.6
						c-0.1,0.2-0.2,0.5-0.3,0.7c-0.1,0.2-0.2,0.5-0.4,0.7c-0.5,0.9-1.3,1.7-2.1,2.4c-0.8,0.7-1.7,1.2-2.6,1.7
						c-0.9,0.5-1.9,0.9-2.9,1.3c2-0.9,3.9-1.8,5.5-3.2c0.8-0.7,1.5-1.4,2.1-2.3c0.1-0.2,0.3-0.4,0.4-0.7c0.1-0.1,0.1-0.2,0.2-0.4
						c0.1-0.1,0.1-0.2,0.2-0.4c0.1-0.2,0.3-0.5,0.6-0.6c0.1,0,0.3,0,0.4,0C64.7,31.3,64.8,31.4,64.8,31.5z"/>
				</g>
			</g>
			<g>
				<g>
					<path fill="#373745" d="M63.1,33.5c-0.8,1.4-1.9,2.4-3.3,3.2C61.1,35.7,62.1,34.7,63.1,33.5z"/>
				</g>
			</g>
			<g>
				<g>
					<path fill="#373745" d="M33.6,52.8c-0.3-0.3-0.7-0.4-1.1-0.5c-0.4,0-0.8,0.1-1.1,0.3c-0.7,0.4-1.3,0.9-1.9,1.4
						c-0.6,0.5-1.2,1-1.9,1.5c-0.6,0.5-1.2,0.9-1.9,1.4c-2.5,1.9-5,3.6-7.6,5.3c-2.6,1.7-5.2,3.3-7.9,4.9c-1.3,0.8-2.7,1.5-4.2,2.2
						C5.4,69.7,4.7,70,4,70.4c-0.3,0.2-0.7,0.4-0.9,0.7c-0.1,0.2-0.2,0.3-0.3,0.5c0,0.2,0,0.4,0,0.6c-0.1-0.2-0.1-0.4-0.1-0.6
						c0-0.2,0.1-0.4,0.3-0.6c0.3-0.3,0.6-0.5,0.9-0.8c0.7-0.4,1.4-0.8,2.1-1.1c1.4-0.7,2.8-1.5,4.1-2.3c2.7-1.6,5.3-3.3,7.8-5
						c2.6-1.7,5.1-3.4,7.7-5.2c0.6-0.4,1.3-0.9,1.9-1.4c0.6-0.5,1.3-0.9,1.9-1.4c0.6-0.5,1.2-1,1.9-1.4c0.4-0.2,0.8-0.3,1.2-0.3
						C33,52.4,33.3,52.6,33.6,52.8z"/>
				</g>
			</g>
			<g>
				<g>
					<path fill="#373745" d="M34.1,47.4c-2.6,2.3-5.2,4.4-7.8,6.4c-2.7,2-5.4,3.9-8.1,5.7c-1.4,0.9-2.8,1.8-4.1,2.7
						c-0.7,0.4-1.4,0.9-2.1,1.3c-0.7,0.4-1.4,0.9-2.1,1.3c-1.4,0.8-2.9,1.6-4.4,2.5c-0.7,0.4-1.5,0.8-2.2,1.3
						c-0.4,0.2-0.7,0.5-1,0.7c-0.2,0.1-0.3,0.3-0.5,0.4c-0.1,0.2-0.3,0.3-0.3,0.5c0-0.2,0.2-0.4,0.3-0.6c0.1-0.2,0.3-0.3,0.5-0.4
						c0.3-0.3,0.7-0.5,1-0.8c0.7-0.5,1.4-0.9,2.1-1.4c1.4-0.9,2.9-1.7,4.3-2.6c0.7-0.4,1.4-0.9,2.1-1.3c0.7-0.4,1.4-0.9,2.1-1.3
						c1.4-0.9,2.8-1.8,4.1-2.7c1.4-0.9,2.7-1.8,4.1-2.7c1.4-0.9,2.7-1.9,4-2.8C28.9,51.7,31.5,49.6,34.1,47.4z"/>
				</g>
			</g>
			<g>
				<g>
					<path fill="#373745" d="M36.8,49.5c-0.3,0.2-0.5,0.6-0.6,0.9c-0.1,0.3-0.2,0.7-0.3,1c-0.1,0.7,0,1.4,0,2.2
						c-0.3-0.7-0.5-1.5-0.4-2.2c0-0.4,0.2-0.8,0.4-1.1C36.1,49.9,36.5,49.6,36.8,49.5z"/>
				</g>
			</g>
			<g>
				<g>
					<path fill="#373745" d="M35.8,50.2c-0.1,0.3-0.2,0.5-0.3,0.7c-0.1,0.2-0.2,0.4-0.3,0.7c-0.1-0.3-0.1-0.6,0-0.9
						C35.3,50.5,35.5,50.3,35.8,50.2z"/>
				</g>
			</g>
			<g>
				<g>
					<path fill="#373745" d="M30.1,54.1c-4,3.2-7.9,6-12,8.7C14,65.5,9.9,68,5.4,70.4c4.4-2.6,8.5-5.3,12.6-7.9
						C22,59.8,26,57.1,30.1,54.1z"/>
				</g>
			</g>
			<g>
				<g>
					<path fill="#373745" d="M24.7,58.5c-4.1,3.5-8.2,6.2-13,8.6C16.3,64.3,20.3,61.5,24.7,58.5z"/>
				</g>
			</g>
			<g>
				<g>
					<path fill="#373745" d="M36.8,57c-4.5,4.4-9.2,8.2-14.2,11.5c-5,3.3-10.4,6.1-16.2,8.5c5.8-2.6,11.1-5.5,16.1-8.8
						C27.5,64.9,32.2,61.3,36.8,57z"/>
				</g>
			</g>
		</g>
		<g>
			<g>
				<g>
					<path fill="#FFFFFF" d="M47,40.7C61.8,57.3,71.7,75.3,80.4,97c2.8,7.1,13.8,6.4,10.9-2.5c-7-21.3-22.4-42.7-40.7-57.6
						C47.5,34.4,44.6,38,47,40.7z"/>
				</g>
			</g>
			<g>
				<g>
					<path fill="#373745" d="M91.1,97.8c-0.3,2.2-2.2,2.7-3,2.8c-2.2,0.3-5.1-1.1-6.3-4.1c-9.4-23.6-19.7-41-33.5-56.6
						c-0.5-0.5-0.7-1.2-0.6-1.7c0.1-0.5,0.4-0.9,0.8-1.1c0.5-0.2,1.2,0,1.9,0.5c18.4,15,33.5,36.3,40.4,57.1
						C91.1,95.8,91.3,96.9,91.1,97.8L91.1,97.8z"/>
				</g>
			</g>
			<g>
				<g>
					<path fill="#373745" d="M91.8,98.1c-0.3,1.9-1.5,3.1-2.8,3.5c-3,1.1-7.2-0.5-8.8-4.6c-9.3-23.4-19.6-40.8-33.3-56.2
						c-1.3-1.5-1.1-3.2-0.2-4.2c0.8-0.9,2.4-1.2,4,0.1c18.6,15.1,33.9,36.7,40.8,57.7C91.9,95.9,92,97.1,91.8,98.1z M47.1,40.6
						L47.1,40.6C60.9,56,71.2,73.4,80.5,96.9c1.5,3.9,5.5,5.4,8.3,4.4c2.4-0.9,3.3-3.4,2.2-6.7c-6.9-20.9-22.1-42.4-40.6-57.5
						c-1.5-1.2-2.8-0.8-3.4-0.1C46.2,37.7,46,39.3,47.1,40.6L47.1,40.6z"/>
				</g>
			</g>
			<g>
				<g>
					<path fill="#FFFFFF" d="M88.5,96.3c-0.1,0.8-0.9,1.4-1.8,1.3c-0.8-0.1-1.4-0.9-1.3-1.8c0.1-0.8,0.9-1.4,1.8-1.3
						C88,94.7,88.6,95.5,88.5,96.3z M53.6,41.9c-0.1,0.6-0.7,1.1-1.3,1c-0.6-0.1-1.1-0.7-1-1.3c0.1-0.6,0.7-1.1,1.3-1
						C53.3,40.7,53.7,41.3,53.6,41.9z"/>
				</g>
			</g>
			<g>
				<g>
					<path fill="#FFFFFF" d="M86.9,94.9c-0.7-0.1-1.4,0.4-1.5,1.1c-0.1,0.7,0.4,1.4,1.1,1.5c0.7,0.1,1.4-0.4,1.5-1.1
						C88.2,95.7,87.6,95,86.9,94.9z"/>
				</g>
				<g>
					<path fill="#373745" d="M88.2,96.5c-0.1,0.8-0.9,1.4-1.8,1.3c-0.8-0.1-1.4-0.9-1.3-1.8c0.1-0.8,0.9-1.4,1.8-1.3
						C87.8,94.9,88.4,95.6,88.2,96.5z M85.6,96.1c-0.1,0.6,0.3,1.2,1,1.3c0.6,0.1,1.2-0.3,1.3-1c0.1-0.6-0.3-1.2-1-1.3
						C86.3,95,85.7,95.5,85.6,96.1z"/>
				</g>
			</g>
			<g>
				<g>
					<path fill="#FFFFFF" d="M52.4,41c-0.5-0.1-1,0.3-1.1,0.8c-0.1,0.5,0.3,1,0.8,1.1c0.5,0.1,1-0.3,1.1-0.8
						C53.3,41.6,52.9,41.1,52.4,41z"/>
				</g>
				<g>
					<path fill="#373745" d="M53.4,42.1c-0.1,0.6-0.7,1.1-1.3,1c-0.6-0.1-1.1-0.7-1-1.3c0.1-0.6,0.7-1.1,1.3-1
						C53,40.9,53.5,41.5,53.4,42.1z M51.5,41.8c-0.1,0.4,0.2,0.8,0.6,0.9c0.4,0.1,0.8-0.2,0.9-0.6c0.1-0.4-0.2-0.8-0.6-0.9
						C51.9,41.2,51.6,41.4,51.5,41.8z"/>
				</g>
			</g>
			<g>
				<g>
					<path fill="#373745" d="M48,37c-0.1,0.1-0.3,0.3-0.4,0.5c-0.1,0.2-0.2,0.4-0.2,0.6c-0.1,0.4,0,0.8,0.2,1.2
						c0.3,0.7,0.9,1.3,1.4,1.9l0.4,0.4c0.1,0.2,0.3,0.3,0.4,0.5c0.3,0.3,0.5,0.6,0.8,0.9c0.5,0.6,1,1.2,1.5,1.8c2,2.5,3.9,5,5.7,7.5
						c3.7,5.1,7,10.2,10.1,15.6c3.1,5.3,5.9,10.8,8.5,16.5c0.6,1.4,1.3,2.9,1.9,4.3c0.3,0.7,0.6,1.5,0.9,2.2
						c0.3,0.7,0.6,1.5,0.9,2.2c0.1,0.4,0.3,0.7,0.4,1.1c0.1,0.4,0.3,0.7,0.4,1.1c0.3,0.7,0.6,1.5,1,2.1c0.4,0.7,0.9,1.3,1.5,1.9
						c0.6,0.5,1.3,1,2.1,1.2c-0.8-0.2-1.5-0.6-2.2-1.1c-0.6-0.5-1.1-1.2-1.5-1.9c-0.9-1.4-1.4-2.9-2.1-4.3c-0.3-0.7-0.6-1.5-0.9-2.2
						c-0.3-0.7-0.6-1.4-1-2.2c-0.6-1.4-1.3-2.9-2-4.3c-2.7-5.7-5.6-11.1-8.7-16.4c-3.1-5.3-6.4-10.5-10-15.6
						c-1.8-2.6-3.6-5.1-5.5-7.6c-0.5-0.6-1-1.2-1.5-1.9L49.6,42c-0.1-0.2-0.2-0.3-0.4-0.5l-0.4-0.4c-0.5-0.6-1-1.2-1.3-2
						c-0.1-0.4-0.2-0.8-0.1-1.2c0-0.2,0.1-0.4,0.3-0.6C47.7,37.2,47.9,37.1,48,37z"/>
				</g>
			</g>
			<g>
				<g>
					<path fill="#373745" d="M86.8,95.3c-0.3,0.1-0.6,0.3-0.7,0.6c-0.1,0.2-0.1,0.5,0,0.8c0.1,0.2,0.3,0.4,0.6,0.5
						c0.3,0.1,0.6,0.1,0.9-0.1c-0.2,0.3-0.6,0.4-0.9,0.4c-0.2,0-0.4-0.1-0.5-0.2c-0.1-0.1-0.3-0.3-0.3-0.4c-0.1-0.2-0.1-0.3-0.1-0.5
						c0-0.2,0.1-0.4,0.2-0.5C86.1,95.4,86.4,95.2,86.8,95.3z"/>
				</g>
			</g>
			<g>
				<g>
					<path fill="#373745" d="M52.8,42.2c0,0.2-0.2,0.4-0.4,0.4c-0.2,0.1-0.5,0-0.6-0.2c-0.2-0.2-0.2-0.5-0.1-0.7
						c0.1-0.2,0.3-0.3,0.5-0.3c-0.2,0.1-0.3,0.3-0.3,0.4c0,0.1,0,0.3,0.1,0.4c0.1,0.1,0.2,0.2,0.4,0.2
						C52.4,42.4,52.6,42.3,52.8,42.2z"/>
				</g>
			</g>
		</g>
	</g>
	<g>
		<path fill="#CD272D" d="M120.3,98.3c2.7-1.8,5.5-3.5,8.3-5.1c0.1-0.1,0.2-0.2,0.2-0.4c0-0.2-0.1-0.3-0.3-0.4l-4.7-2.1
			c-0.8-0.3-1.6-0.7-2.4-1l-2.4-0.9c0.4-0.9,0.8-1.7,1.2-2.5l0,0l0,0c0.5-0.8,1-1.5,1.6-2.3c0.4-0.5,0.6-1,0.7-1.6
			c0.4-2.3-1.1-4.6-3.5-5.5c-0.9-0.4-1.9-0.6-2.8-1l-2.8-0.9l-2.8-0.9l-2.9-0.8L105,72c-1-0.2-1.9-0.5-2.9-0.7L96.2,70
			c-7.9-1.4-15.9-2.3-24.1-2.4c-8.1,0-16.2,0.7-24.2,2.1c-8,1.5-15.7,3.7-23.2,6.5c-2.4,1-3.8,3.3-3.4,5.6c0.1,0.5,0.3,1,0.8,1.5
			c0.6,0.7,1.1,1.5,1.6,2.3l0,0l0,0c0.5,0.8,0.9,1.6,1.3,2.5l-2.4,1c-0.8,0.3-1.6,0.7-2.3,1.1l-4.7,2.2c-0.2,0.1-0.3,0.2-0.3,0.4
			c0,0.2,0.1,0.3,0.2,0.4c2.9,1.6,5.7,3.3,8.4,5c-0.5,3.2-0.9,6.4-1.2,9.5c0,0.2,0.1,0.3,0.2,0.4c0.1,0.1,0.3,0.1,0.4,0.1l3.1-1.5
			l1.6-0.7c0.5-0.2,1-0.5,1.6-0.7l3.2-1.3l1.6-0.6l0.8-0.3l0.8-0.3c1.5-0.5,2.5-1.4,2.9-2.6c0.2-0.7,0.1-1.5-0.3-2.2l0,0
			c-1.4-2.9-2.2-5.1-2.4-7.1c0.7-0.2,1.4-0.5,2.2-0.7l2.2-0.6c1.5-0.4,2.9-0.8,4.4-1.2l4.4-0.9c0.7-0.2,1.5-0.3,2.2-0.5l2.2-0.3
			c1.5-0.2,3-0.5,4.5-0.7l4.5-0.4c0.8-0.1,1.5-0.2,2.3-0.2l2.3-0.1c1.5,0,3-0.1,4.5-0.1l4.5,0.2c0.8,0,1.5,0,2.3,0.1l2.3,0.2
			c1.5,0.2,3,0.3,4.5,0.4l4.5,0.7c0.7,0.1,1.5,0.2,2.2,0.4l2.2,0.5c1.5,0.3,3,0.6,4.5,1l4.4,1.2l2.2,0.6l2.2,0.7
			c-0.2,1.9-0.9,4.1-2.3,7.1l0,0c-0.4,0.7-0.5,1.5-0.3,2.2c0.4,1.1,1.4,2,2.9,2.5c0.6,0.2,1.1,0.4,1.6,0.6l1.6,0.6l3.3,1.3
			c2.2,0.9,4.3,1.9,6.4,2.8c0.1,0.1,0.3,0,0.4-0.1c0.1-0.1,0.2-0.3,0.2-0.4C121.3,104.7,120.9,101.5,120.3,98.3z"/>
	</g>
	<g>
		<path fill="#373745" d="M57.3,70.5c2.3,0,4.4-0.2,6.6-0.4c2.2-0.1,4.3-0.3,6.6-0.6c-2.3-0.1-4.4-0.1-6.6,0
			C61.7,69.7,59.5,70,57.3,70.5z M66.2,83c-1.3,0.2-2.5,0.5-3.7,0.6c-1.2,0.1-2.4,0.2-3.7,0.1c1.3-0.3,2.5-0.5,3.7-0.7
			C63.7,83,64.9,82.9,66.2,83z M31.9,102.2c-1.1,0.7-2.3,1.3-3.4,1.7c-1.1,0.5-2.3,1-3.6,1.4c1.1-0.7,2.2-1.4,3.4-1.9
			C29.4,103,30.6,102.6,31.9,102.2z M25,102.9c0.5-0.6,1.1-0.9,1.8-0.9C26.4,102.7,25.8,102.9,25,102.9z M25,104.2
			c0.9-0.9,1.9-1.4,3.2-1.6C27.3,103.5,26.3,104,25,104.2z M25,101.5c0.4-0.5,0.8-0.7,1.5-0.7C26.2,101.4,25.6,101.7,25,101.5z
			 M56.3,84.1c-1.4,0.3-2.9,0.6-4.3,0.9c-0.3,0.1-0.7,0.1-1,0.2l-1,0.2c-0.7,0.2-1.4,0.3-2.1,0.5c-0.7,0.1-1.4,0.3-2.1,0.4
			c-0.7,0.1-1.4,0.2-2.1,0.4c-1.4,0.3-2.8,0.6-4.3,0.9c1.4-0.5,2.8-0.9,4.2-1.4c0.7-0.2,1.4-0.4,2.1-0.5c0.7-0.2,1.4-0.3,2.1-0.5
			l2.1-0.4l1-0.2c0.3-0.1,0.7-0.1,1.1-0.1C53.4,84.4,54.8,84.3,56.3,84.1z M31.3,76c2-0.9,4-1.5,6-2.1c1-0.3,2-0.5,3-0.8l0.8-0.2
			c0.3,0,0.5-0.1,0.8-0.1c0.5-0.1,1.1-0.1,1.6-0.2c-0.5,0.2-1,0.3-1.5,0.5c-0.3,0.1-0.5,0.1-0.8,0.2c-0.2,0.1-0.5,0.2-0.7,0.3
			c-1,0.3-2,0.6-3,0.9C35.4,75,33.4,75.4,31.3,76z M55.5,70.3c-1.7,0.5-3.3,0.8-4.9,1.1c-0.4,0.1-0.8,0.1-1.2,0.2l-0.6,0.1l-0.6,0.1
			c-0.8,0.1-1.7,0.2-2.5,0.3c0.8-0.3,1.6-0.5,2.4-0.8l0.6-0.2l0.6-0.1c0.4-0.1,0.8-0.2,1.2-0.2C52.1,70.6,53.8,70.4,55.5,70.3z
			 M119.3,103.1c-0.8,0.1-1.4-0.2-1.9-0.9C118.2,102.1,118.8,102.4,119.3,103.1z M117.9,101c0.7,0,1,0.2,1.5,0.7
			C118.7,101.9,118.1,101.6,117.9,101z M119.4,104.4c-1.3-0.2-2.3-0.6-3.3-1.5C117.4,103,118.4,103.5,119.4,104.4z M120.3,98.3
			c2.7-1.8,5.5-3.5,8.3-5.1c0.1-0.1,0.2-0.2,0.2-0.4c0-0.2-0.1-0.3-0.3-0.4l-4.7-2.1c-0.8-0.3-1.6-0.7-2.4-1l-2.4-0.9
			c0.4-0.9,0.8-1.7,1.2-2.5l0,0l0,0c0.5-0.8,1-1.5,1.6-2.3c0.4-0.5,0.6-1,0.7-1.6c0.4-2.3-1.1-4.6-3.5-5.5c-0.9-0.4-1.9-0.6-2.8-1
			l-2.8-0.9l-2.8-0.9l-2.9-0.8L105,72c-1-0.2-1.9-0.5-2.9-0.7L96.2,70c-7.9-1.4-15.9-2.3-24.1-2.4c-8.1,0-16.2,0.7-24.2,2.1
			c-8,1.5-15.7,3.7-23.2,6.5c-2.4,1-3.8,3.3-3.4,5.6c0.1,0.5,0.3,1,0.8,1.5c0.6,0.7,1.1,1.5,1.6,2.3l0,0l0,0
			c0.5,0.8,0.9,1.6,1.3,2.5l-2.4,1c-0.8,0.3-1.6,0.7-2.3,1.1l-4.7,2.2c-0.2,0.1-0.3,0.2-0.3,0.4c0,0.2,0.1,0.3,0.2,0.4
			c2.9,1.6,5.7,3.3,8.4,5c-0.5,3.2-0.9,6.4-1.2,9.5c0,0.2,0.1,0.3,0.2,0.4c0.1,0.1,0.3,0.1,0.4,0.1l3.1-1.5l1.6-0.7
			c0.5-0.2,1-0.5,1.6-0.7l3.2-1.3l1.6-0.6l0.8-0.3l0.8-0.3c1.5-0.5,2.5-1.4,2.9-2.6c0.2-0.7,0.1-1.5-0.3-2.2l0,0
			c-1.4-2.9-2.2-5.1-2.4-7.1c0.7-0.2,1.4-0.5,2.2-0.7l2.2-0.6c1.5-0.4,2.9-0.8,4.4-1.2l4.4-0.9c0.7-0.2,1.5-0.3,2.2-0.5l2.2-0.3
			c1.5-0.2,3-0.5,4.5-0.7l4.5-0.4c0.8-0.1,1.5-0.2,2.3-0.2l2.3-0.1c1.5,0,3-0.1,4.5-0.1l4.5,0.2c0.8,0,1.5,0,2.3,0.1l2.3,0.2
			c1.5,0.2,3,0.3,4.5,0.4l4.5,0.7c0.7,0.1,1.5,0.2,2.2,0.4l2.2,0.5c1.5,0.3,3,0.6,4.5,1l4.4,1.2l2.2,0.6l2.2,0.7
			c-0.2,1.9-0.9,4.1-2.3,7.1l0,0c-0.4,0.7-0.5,1.5-0.3,2.2c0.4,1.1,1.4,2,2.9,2.5c0.6,0.2,1.1,0.4,1.6,0.6l1.6,0.6l3.3,1.3
			c2.2,0.9,4.3,1.9,6.4,2.8c0.1,0.1,0.3,0,0.4-0.1c0.1-0.1,0.2-0.3,0.2-0.4C121.3,104.7,120.9,101.5,120.3,98.3z M121.2,82.9
			L121.2,82.9L121.2,82.9c-0.2-0.4-0.4-0.9-0.6-1.3c0.1-0.2,0.2-0.3,0.3-0.5C121.1,81.7,121.2,82.3,121.2,82.9L121.2,82.9z
			 M118.4,86l0.2-0.6c0.1,0.4,0.2,0.8,0.1,1.2C118.7,86.4,118.6,86.2,118.4,86z M117.9,88.9L117.9,88.9l-0.1,0L117.9,88.9z
			 M118.2,87.6c-0.1-0.1-0.2-0.3-0.3-0.4l0.2-0.5C118.2,87,118.3,87.3,118.2,87.6z M117.8,88.9c-0.1-0.1-0.2-0.2-0.3-0.3l0.2-0.7
			C117.8,88.3,117.8,88.6,117.8,88.9z M117.5,90l-0.1,0.2c-0.1-0.1-0.2-0.2-0.3-0.4l0.1-0.5C117.4,89.6,117.4,89.8,117.5,90z
			 M117.1,91.3L117.1,91.3c0,0.1,0,0.3-0.1,0.5c-0.1-0.1-0.2-0.2-0.3-0.3c0-0.2,0.1-0.4,0.1-0.6C117,91,117,91.1,117.1,91.3z
			 M119,84.7c0.1-0.3,0.3-0.6,0.4-0.8c0.1,0.5,0.2,1.1,0.1,1.6l0,0.1C119.3,85.2,119.2,84.9,119,84.7z M119.8,83
			c0.1-0.2,0.2-0.4,0.3-0.6c0.2,0.6,0.2,1.1,0.2,1.7l-0.1,0.1C120.1,83.8,120,83.4,119.8,83z M22.9,82.8c-0.1-0.6,0-1.2,0.3-1.8
			c0.1,0.2,0.2,0.3,0.3,0.5C23.2,81.9,23,82.4,22.9,82.8L22.9,82.8L22.9,82.8L22.9,82.8z M26.7,90.1l-0.1-0.2
			c0.1-0.2,0.1-0.4,0.3-0.7l0.1,0.5C26.9,89.8,26.8,89.9,26.7,90.1z M27.2,90.6c0.1,0.2,0.1,0.4,0.2,0.6c-0.1,0.1-0.2,0.2-0.3,0.3
			c0-0.2-0.1-0.3-0.1-0.5l0,0C27.1,90.9,27.2,90.8,27.2,90.6z M26.2,88.8L26.2,88.8L26.2,88.8L26.2,88.8z M26.3,88.7
			c-0.1-0.3,0-0.6,0-1l0.2,0.7C26.5,88.5,26.4,88.6,26.3,88.7z M25.8,87.4c0-0.3,0-0.6,0.1-0.9l0.2,0.5C26,87.1,25.9,87.2,25.8,87.4
			z M25.3,86.4c0-0.4,0-0.8,0.1-1.2l0.2,0.6C25.5,86,25.4,86.2,25.3,86.4z M24.6,85.3L24.6,85.3c-0.1-0.6-0.1-1.1,0.1-1.7
			c0.1,0.3,0.3,0.6,0.4,0.8C24.9,84.8,24.7,85,24.6,85.3z M23.8,84l-0.1-0.1c0-0.6,0-1.1,0.2-1.7c0.1,0.2,0.2,0.4,0.3,0.6
			C24,83.2,23.9,83.6,23.8,84z M38.2,99.8c-0.3,0.9-1.2,1.6-2.4,2l-0.8,0.3l-0.8,0.3l-1.5,0.6l-3,1.2c-1,0.4-2,0.9-3,1.3l-3,1.4
			c0.3-3,0.7-5.9,1.2-9c0-0.2-0.1-0.4-0.2-0.5c-2.6-1.6-5.2-3.2-7.9-4.7c2.8-1.3,5.6-2.7,8.6-3.8l0,0.1L23.5,90
			c-0.3,0.2-0.6,0.3-0.9,0.5L21.6,91c0,0-1.8,1-1.7,1.1c0,0.1,2-0.8,2-0.8l0.9-0.4l0.9-0.4l1.9-0.7l0,0l-1.7,1c0,0-0.9,0.5-0.8,0.6
			c0,0.1,1.1-0.3,1.1-0.3l1.8-0.6l0,0.1l-1.1,0.7c0,0-0.6,0.4-0.5,0.5c0,0.1,0.7-0.1,0.7-0.1l1.1-0.3l0.1,0.2l-0.5,0.4
			c0,0-0.3,0.3-0.3,0.4c0,0.1,0.5,0,0.5,0l0.5-0.1l0.1,0.2L26.2,93c0,0-0.2,0.2-0.2,0.3c0,0.1,0.3,0.1,0.3,0.1l0.3,0
			c0.2,0.9,0.4,1.7,0.7,2.7c0.4,1.5,1.1,2.6,2.2,3.1c0.9,0.4,1.7,0.3,2.5,0.1c0.8-0.2,1.6-0.7,2.3-1c0.7-0.3,1.2-0.6,1.7-0.7
			c-0.1,0.1-0.3,0.2-0.4,0.3c0,0-0.1,0.1-0.3,0.2c-0.1,0.1-0.3,0.2-0.3,0.2c0,0.1,0.2,0.1,0.4,0.1c0.2,0,0.4-0.1,0.4-0.1
			c0.1,0,0.2-0.1,0.3-0.1c-0.4,0.3-0.8,0.5-1.2,0.8c0,0-0.3,0.2-0.6,0.3c-0.3,0.2-0.6,0.3-0.6,0.4c0,0,0.4,0,0.7-0.1
			c0.4-0.1,0.7-0.2,0.7-0.2c0.5-0.2,0.9-0.4,1.4-0.6c0.2-0.1,0.4-0.2,0.7-0.5l0,0c-0.1,0.2-0.4,0.4-0.7,0.6c-0.6,0.4-1.1,0.8-1.8,1
			c0,0-0.4,0.2-0.8,0.4c-0.4,0.2-0.9,0.4-0.8,0.4c0,0.1,0.5,0,1-0.2c0.5-0.1,1-0.3,1-0.3c0.6-0.2,1.3-0.5,1.9-0.9
			c0.1-0.1,0.3-0.2,0.4-0.3c-0.1,0.2-0.4,0.4-0.6,0.6c-0.6,0.5-1.3,0.9-2,1.2c0,0-0.1,0.1-0.3,0.1c-0.2,0.1-0.4,0.2-0.7,0.3
			c-0.5,0.2-1,0.4-1,0.5c0,0.1,0.6,0,1.1-0.2c0.5-0.2,1.1-0.4,1.1-0.4c0.7-0.3,1.4-0.6,2.1-1c0.3-0.2,0.6-0.5,0.9-0.8
			C38.2,99.6,38.2,99.7,38.2,99.8z M108.4,90.4L108.4,90.4c-11.8-3.9-24.1-5.9-36.4-6.1c-1.5,0-3.1,0.1-4.6,0.1l-2.3,0.1
			c-0.8,0-1.5,0.1-2.3,0.2l-4.6,0.4l-4.6,0.7l-2.3,0.3l-2.3,0.5l-4.5,1l-4.5,1.2l-2.2,0.6l-2.2,0.7l0,0L32,91.4
			c-0.8,0.3-1.5,0.7-2,1.2c-0.5,0.5-0.9,1-1.1,1.6l0,0l0,0c-0.1,0.2-0.1,0.5-0.1,0.7c0,1.1,0.5,2.1,1.4,2.6c1.1,0.6,3.6-0.3,3.7-0.8
			c0-0.1-0.5,0-1.2,0.2c-0.7,0.1-1.5,0.2-2.1-0.2c-0.4-0.2-0.7-0.6-0.9-1.1c0.1,0.1,0.2,0.2,0.3,0.2c0.6,0.4,1.2,0.5,1.8,0.5
			c0,0,0.4,0,0.8-0.1c0.4-0.1,0.8-0.3,0.8-0.3c0-0.1-0.4,0-0.8,0c-0.4,0-0.7,0-0.7,0c-0.5,0-1.1-0.2-1.4-0.6c-0.3-0.3-0.6-0.7-0.7-1
			l0,0c0.1,0.1,0.2,0.2,0.3,0.3c0.4,0.3,0.8,0.4,1.2,0.4c0,0,0.3,0,0.6-0.1c0.3-0.1,0.5-0.2,0.5-0.2c0-0.1-0.3-0.1-0.5-0.1
			c-0.2,0-0.5-0.1-0.5-0.1c-0.3-0.1-0.6-0.2-0.8-0.4c-0.2-0.2-0.3-0.5-0.2-0.7l0,0l0-0.1c0,0,0.1,0.1,0.1,0.1
			c0.2,0.2,0.5,0.3,0.8,0.3c0,0,0.2,0,0.4,0c0.2-0.1,0.3-0.2,0.3-0.2c0-0.1-0.2-0.1-0.3-0.1c-0.1,0-0.3-0.1-0.3-0.1
			c-0.2-0.1-0.3-0.2-0.4-0.3c0-0.1,0-0.1,0-0.2c0.4-0.3,0.8-0.5,1.4-0.7l3.2-1.1l0,0.1c-0.2,0.1-0.5,0.1-0.7,0.3
			c0,0-0.1,0.1-0.2,0.2c-0.1,0.1-0.2,0.2-0.1,0.3c0,0,0.2,0,0.3,0c0.1,0,0.2,0,0.2,0c0.2,0,0.4,0,0.6,0.1c0,0.1,0,0.2,0.1,0.3
			c-0.3,0-0.5,0.1-0.7,0.2c0,0-0.5,0.2-0.4,0.4c0,0.1,0.5,0.1,0.5,0.1c0.3,0,0.6,0.1,0.8,0.3c0,0.1,0,0.1,0.1,0.2
			c-0.3,0-0.5,0.1-0.8,0.2c0,0-0.1,0.1-0.3,0.2c-0.1,0.1-0.2,0.2-0.2,0.3c0,0,0.2,0,0.3,0c0.1,0,0.3,0,0.3,0c0.3,0,0.6,0.1,0.9,0.2
			c0.1,0.1,0.1,0.3,0.2,0.4c-0.3,0-0.5,0.1-0.8,0.2c0,0-0.1,0.1-0.3,0.2c-0.1,0.1-0.2,0.2-0.2,0.3c0,0,0.2,0,0.3,0
			c0.1,0,0.3,0,0.3,0c0.4,0,0.7,0.1,1,0.3l0,0l0.1,0.1c-0.3,0-0.6,0.1-0.8,0.2c0,0-0.2,0.1-0.3,0.2c-0.1,0.1-0.3,0.2-0.2,0.3
			c0,0,0.2,0,0.4,0c0.2,0,0.3,0,0.3,0c0.4,0,0.7,0,1,0.2c0,0.1,0.1,0.2,0.1,0.3c-1-0.2-2.1,0.3-3.2,0.8c-0.7,0.3-1.4,0.7-2.1,0.9
			c-0.7,0.2-1.4,0.2-2-0.1c-0.8-0.4-1.4-1.2-1.7-2.4c-0.1-0.3-0.1-0.6-0.2-0.9c0-1.1,0.5-2.1,1.2-3c0.4-0.4,0.8-0.8,1.3-1.2
			c0.5-0.3,1-0.6,1.6-0.8c0,0,0.2-0.1,0.5-0.2c0.3-0.1,0.7-0.2,1.1-0.4c0.8-0.2,1.7-0.5,1.7-0.5c0-0.1-0.8,0.1-1.7,0.2
			c-0.8,0.2-1.7,0.4-1.7,0.4c-0.6,0.2-1.2,0.4-1.8,0.7c-0.6,0.3-1.1,0.7-1.5,1.2c-0.5,0.5-0.9,1.1-1.2,1.7c0-0.2-0.1-0.4-0.1-0.6
			c0.1-0.1,0.1-0.3,0.2-0.4c0,0.2,0.1,0.4,0.1,0.6c0-0.3,0-0.5,0-0.8c0.4-0.7,1-1.4,1.7-2c0,0,0.3-0.3,0.7-0.5
			c0.4-0.2,0.8-0.4,0.8-0.5c0,0-0.4,0-0.9,0.2c-0.4,0.2-0.8,0.4-0.8,0.4c-0.6,0.3-1.1,0.8-1.6,1.3c0-0.3-0.1-0.5-0.1-0.8
			c0.2-0.3,0.5-0.6,0.8-0.9c0,0,0.2-0.2,0.4-0.4c0.2-0.2,0.4-0.4,0.4-0.4c0,0-0.3,0-0.6,0.1c-0.3,0.1-0.5,0.3-0.5,0.3
			c-0.2,0.1-0.5,0.3-0.7,0.5c0-0.2-0.1-0.5-0.2-0.7c0.1-0.1,0.2-0.2,0.3-0.3c0,0,0.2-0.2,0.3-0.3c0.2-0.2,0.4-0.3,0.4-0.4
			c0,0-0.3,0-0.5,0.1c-0.2,0.1-0.5,0.2-0.5,0.2c-0.1,0-0.1,0.1-0.2,0.1c-0.1-0.3-0.2-0.7-0.3-1l0-0.1c0,0,0.2-0.2,0.4-0.4
			c0.2-0.2,0.4-0.3,0.4-0.4c0-0.1-0.3,0-0.5,0.1c-0.2,0.1-0.4,0.2-0.4,0.2c-0.1-0.3-0.2-0.5-0.3-0.8c0-0.1,0.2-0.2,0.3-0.4
			c0.2-0.2,0.4-0.4,0.4-0.4c0,0-0.3,0-0.6,0.2c-0.1,0.1-0.3,0.2-0.4,0.2c-0.1-0.3-0.2-0.5-0.4-0.8c0.1-0.2,0.2-0.3,0.3-0.4
			c0,0,0.2-0.3,0.5-0.5c0.2-0.2,0.5-0.4,0.5-0.5c0,0-0.4,0-0.7,0.2c-0.3,0.2-0.6,0.4-0.6,0.4c-0.1,0.1-0.2,0.2-0.3,0.3
			c-0.2-0.3-0.4-0.6-0.6-1c0.2-0.5,0.5-0.9,0.9-1.4c0,0,0.3-0.4,0.8-0.7c0.4-0.3,0.9-0.6,0.9-0.6c0-0.1-0.6,0-1,0.3
			c-0.5,0.3-0.9,0.6-0.9,0.6c-0.4,0.3-0.7,0.7-1,1.2c-0.1-0.2-0.3-0.4-0.4-0.6c0.3-0.9,0.9-1.7,1.7-2.3c0,0,0.1-0.1,0.3-0.2
			c0.2-0.1,0.5-0.3,0.8-0.5c0.6-0.3,1.3-0.4,1.3-0.5c0-0.1-0.7,0-1.3,0.2c-0.3,0.1-0.7,0.2-0.9,0.4c-0.2,0.1-0.4,0.2-0.4,0.2
			c-0.9,0.5-1.6,1.3-2,2.1l-0.4-0.4c0.1-0.3,0.3-0.6,0.5-0.9c0.6-0.8,1.5-1.5,2.5-2c0,0,0.7-0.3,1.5-0.6c0.8-0.3,1.6-0.5,1.6-0.6
			c0-0.1-0.8,0.1-1.6,0.3c-0.8,0.2-1.6,0.5-1.6,0.5c-1.1,0.4-2.2,1.1-3,2c-0.4,0.4-0.7,0.9-0.9,1.5c0-1.6,1.1-3.2,2.8-3.9
			c7.5-2.7,15.2-4.9,23.1-6.4c7.9-1.4,16-2.1,24-2.1c8,0.1,16,0.9,23.9,2.4l5.8,1.2c1,0.2,1.9,0.5,2.9,0.7l2.9,0.8l2.9,0.8l2.8,0.9
			l2.8,0.9c0.9,0.3,1.9,0.6,2.8,1c1.7,0.7,2.8,2.2,2.9,3.9c-0.2-0.5-0.5-1-0.9-1.4c-0.8-0.9-1.9-1.6-3-2c0,0-0.8-0.3-1.5-0.4
			c-0.8-0.2-1.6-0.3-1.6-0.2c0,0.1,0.8,0.3,1.6,0.6c0.4,0.1,0.8,0.3,1.1,0.4c0.3,0.1,0.5,0.2,0.5,0.2c1,0.5,1.9,1.2,2.5,2
			c0.2,0.3,0.4,0.6,0.5,0.9l-0.4,0.4c-0.5-0.8-1.2-1.6-2-2.1c0,0-0.1-0.1-0.4-0.2c-0.2-0.1-0.5-0.3-0.9-0.4
			c-0.7-0.2-1.3-0.2-1.3-0.2c0,0.1,0.7,0.2,1.3,0.5c0.6,0.3,1.1,0.7,1.1,0.7c0.8,0.6,1.4,1.4,1.7,2.3c-0.1,0.2-0.3,0.4-0.4,0.6
			c-0.3-0.4-0.6-0.8-1-1.1c0,0-0.4-0.4-0.9-0.6c-0.5-0.3-1-0.4-1-0.3c0,0,0.5,0.3,0.9,0.6c0.4,0.3,0.8,0.7,0.8,0.7
			c0.4,0.4,0.7,0.9,0.9,1.3c-0.2,0.3-0.4,0.6-0.6,1c-0.1-0.1-0.2-0.2-0.3-0.3c0,0-0.3-0.2-0.6-0.4c-0.3-0.2-0.7-0.3-0.7-0.2
			c0,0.1,0.3,0.2,0.5,0.5c0.3,0.2,0.5,0.5,0.5,0.5c0.1,0.1,0.2,0.3,0.3,0.4c-0.1,0.3-0.3,0.5-0.4,0.8c-0.1-0.1-0.2-0.2-0.4-0.2
			c-0.3-0.2-0.6-0.2-0.6-0.2c0,0,0.2,0.2,0.4,0.4c0.2,0.2,0.3,0.4,0.3,0.4c-0.1,0.3-0.2,0.5-0.3,0.8c-0.1-0.1-0.3-0.2-0.4-0.2
			c-0.3-0.1-0.5-0.1-0.5-0.1c0,0.1,0.2,0.2,0.4,0.4c0.2,0.2,0.4,0.3,0.4,0.3l0.1,0.1c-0.1,0.3-0.2,0.7-0.3,1c-0.1,0-0.1-0.1-0.2-0.1
			c0,0-0.2-0.1-0.5-0.2c-0.2-0.1-0.5-0.1-0.5-0.1c0,0.1,0.2,0.2,0.4,0.4c0.2,0.2,0.3,0.3,0.3,0.3c0.1,0.1,0.2,0.2,0.3,0.3
			c-0.1,0.2-0.1,0.5-0.1,0.7c-0.2-0.2-0.4-0.3-0.7-0.5c0,0-0.2-0.1-0.5-0.3c-0.3-0.1-0.5-0.2-0.6-0.1c0,0.1,0.2,0.2,0.4,0.4
			c0.2,0.2,0.4,0.4,0.4,0.4c0.3,0.3,0.6,0.6,0.8,0.9c0,0.3-0.1,0.5-0.1,0.8c-0.5-0.5-1-0.9-1.6-1.2c0,0-0.4-0.2-0.8-0.4
			c-0.4-0.2-0.8-0.2-0.9-0.2c0,0.1,0.4,0.2,0.8,0.5c0.4,0.2,0.7,0.5,0.7,0.5c0.7,0.5,1.3,1.2,1.7,1.9c0,0.3,0,0.5,0,0.8
			c0-0.2,0.1-0.4,0.1-0.6c0.1,0.1,0.1,0.3,0.2,0.4c0,0.2-0.1,0.4-0.1,0.6c-0.3-0.6-0.7-1.2-1.2-1.7c-0.9-0.9-2.1-1.5-3.3-1.9
			c0,0-0.8-0.2-1.7-0.4c-0.8-0.1-1.7-0.2-1.7-0.2c0,0.1,0.8,0.3,1.7,0.5c0.4,0.1,0.8,0.3,1.1,0.4c0.3,0.1,0.5,0.2,0.5,0.2
			c1.1,0.4,2.1,1.1,2.9,1.9c0.7,0.8,1.2,1.9,1.3,2.9c-0.1,0.3-0.1,0.6-0.2,0.9c-0.3,1.3-0.8,2.1-1.6,2.4c-1.3,0.6-2.8-0.1-4.2-0.8
			c-1.1-0.5-2.2-1-3.2-0.8c0-0.1,0.1-0.2,0.1-0.3c0.3-0.1,0.7-0.2,1-0.2c0,0,0.2,0,0.3,0c0.2,0,0.3,0,0.4,0c0,0-0.1-0.2-0.3-0.3
			c-0.1-0.1-0.3-0.2-0.3-0.2c-0.3-0.1-0.5-0.2-0.8-0.2l0.1-0.1l0,0c0.3-0.2,0.6-0.3,1-0.3c0,0,0.1,0,0.3,0c0.1,0,0.3,0,0.3,0
			c0,0-0.1-0.2-0.2-0.3c-0.1-0.1-0.3-0.2-0.3-0.2c-0.2-0.1-0.5-0.2-0.8-0.2c0.1-0.1,0.1-0.3,0.2-0.4c0.2-0.1,0.6-0.2,0.9-0.2
			c0,0,0.1,0,0.3,0c0.1,0,0.3,0,0.3,0c0,0-0.1-0.2-0.2-0.3c-0.1-0.1-0.3-0.2-0.3-0.2c-0.2-0.1-0.5-0.2-0.8-0.2c0-0.1,0-0.2,0.1-0.2
			c0.2-0.1,0.5-0.2,0.8-0.3c0,0,0.5,0,0.5-0.1c0.1-0.1-0.4-0.4-0.4-0.4c-0.2-0.1-0.5-0.1-0.7-0.2c0-0.1,0-0.2,0-0.3
			c0.2-0.1,0.4-0.1,0.6-0.1c0,0,0.1,0,0.2,0c0.1,0,0.3,0,0.3,0c0,0,0-0.2-0.1-0.3c-0.1-0.1-0.2-0.2-0.2-0.2
			c-0.2-0.1-0.4-0.2-0.7-0.3l0-0.1l3.2,1c0.5,0.2,1,0.4,1.4,0.7c0,0.1,0,0.1,0,0.2c-0.1,0.1-0.2,0.3-0.4,0.3c0,0-0.1,0.1-0.3,0.1
			c-0.1,0-0.3,0.1-0.3,0.1c0,0.1,0.1,0.2,0.3,0.2c0.2,0.1,0.4,0,0.4,0c0.3,0,0.5-0.1,0.8-0.4c0,0,0.1-0.1,0.1-0.1l0,0.1l0,0
			c0.1,0.2,0,0.5-0.2,0.7c-0.2,0.2-0.5,0.4-0.8,0.4c0,0-0.2,0-0.5,0.1c-0.2,0-0.5,0-0.5,0.1c0,0.1,0.2,0.2,0.5,0.2
			c0.3,0.1,0.6,0.1,0.6,0.1c0.4,0,0.8-0.1,1.2-0.4c0.1-0.1,0.2-0.2,0.3-0.3l0,0c0,0.3-0.3,0.7-0.6,1c-0.4,0.3-0.9,0.5-1.4,0.6
			c0,0-0.4,0-0.8,0c-0.4,0-0.8-0.1-0.8,0c0,0.1,0.4,0.2,0.8,0.3c0.4,0.1,0.8,0.1,0.8,0.1c0.6,0,1.2-0.1,1.8-0.5
			c0.1-0.1,0.2-0.1,0.3-0.2c-0.1,0.5-0.4,0.9-0.9,1.1c-1.3,0.8-3.3-0.2-3.3,0.1c0,0.1,0.2,0.3,0.5,0.4c0.3,0.1,0.6,0.3,1,0.4
			c0.8,0.2,1.7,0.3,2.2,0c0.9-0.5,1.5-1.6,1.4-2.6c0-0.2-0.1-0.5-0.1-0.7l0,0l0,0c-0.2-0.6-0.6-1.1-1.1-1.6
			c-0.5-0.5-1.2-0.9-2.1-1.2L108.4,90.4z M108.5,102.1c-1.3-0.4-2.2-1.2-2.4-2c0-0.1,0-0.2-0.1-0.3c0.3,0.4,0.6,0.6,0.9,0.8
			c0.7,0.4,1.4,0.8,2.2,1c0,0,0.1,0,0.3,0.1c0.2,0.1,0.5,0.2,0.8,0.3c0.6,0.2,1.1,0.3,1.1,0.2c0-0.1-0.5-0.2-1-0.5
			c-0.2-0.1-0.5-0.2-0.7-0.3c-0.2-0.1-0.3-0.2-0.3-0.2c-0.7-0.3-1.4-0.7-2-1.2c-0.2-0.2-0.5-0.4-0.6-0.6c0.1,0.1,0.3,0.2,0.4,0.3
			c0.6,0.3,1.2,0.6,1.9,0.9c0,0,0.1,0,0.3,0.1c0.2,0.1,0.4,0.1,0.7,0.2c0.5,0.1,1,0.2,1,0.2c0-0.1-0.4-0.2-0.9-0.4
			c-0.4-0.2-0.9-0.4-0.9-0.4c-0.6-0.3-1.2-0.6-1.8-1c-0.3-0.2-0.5-0.4-0.7-0.6l0,0c0.2,0.2,0.5,0.3,0.7,0.5c0.4,0.2,0.9,0.5,1.4,0.6
			c0,0,0.3,0.1,0.7,0.2c0.4,0.1,0.7,0.2,0.7,0.1c0,0-0.3-0.2-0.6-0.4c-0.3-0.2-0.6-0.3-0.6-0.3c-0.4-0.2-0.8-0.5-1.2-0.8
			c0.1,0,0.2,0.1,0.3,0.1c0,0,0.2,0,0.4,0.1c0.2,0,0.4,0,0.4-0.1c0-0.1-0.1-0.1-0.3-0.2c-0.1-0.1-0.3-0.2-0.3-0.2
			c-0.2-0.1-0.3-0.2-0.5-0.3c0.5,0.1,1.1,0.4,1.8,0.7c0.8,0.3,1.5,0.8,2.4,1c0.8,0.2,1.7,0.2,2.5-0.2c1.1-0.5,1.8-1.6,2.2-3.1
			c0.2-1,0.4-1.9,0.6-2.7l0.3,0c0,0,0.3,0,0.3-0.1c0-0.1-0.2-0.3-0.2-0.3l-0.3-0.3l0.1-0.2l0.5,0.1c0,0,0.5,0.1,0.5,0
			c0-0.1-0.3-0.4-0.3-0.4l-0.5-0.4l0-0.2l1.1,0.3c0,0,0.7,0.2,0.7,0.1c0-0.1-0.5-0.5-0.5-0.5l-1.1-0.6l0-0.1l1.8,0.6
			c0,0,1,0.3,1.1,0.2c0.1-0.1-0.8-0.6-0.8-0.6l-1.8-1l0,0c1.3,0.5,2.6,0.9,3.8,1.4c0,0,2,0.8,2,0.7c0-0.1-1.7-1.1-1.7-1.1
			c-1.2-0.7-2.5-1.3-3.8-1.9l0-0.1L121,90c0.7,0.3,1.4,0.6,2.2,0.9l4.3,1.9c-2.7,1.6-5.3,3.2-7.8,4.9c-0.2,0.1-0.2,0.3-0.2,0.5
			c0.5,3,1,6,1.4,9l-3.1-1.4l-1.5-0.7l-0.8-0.3l-0.8-0.3l-3.1-1.2l-1.5-0.6C109.5,102.5,109,102.3,108.5,102.1z M85.4,83.9
			c-1.3,0.1-2.5,0-3.8-0.1c-0.6-0.1-1.2-0.2-1.8-0.3c-0.6-0.1-1.2-0.3-1.9-0.4c0.6-0.1,1.3-0.1,1.9,0c0.6,0,1.2,0.1,1.8,0.1
			C82.9,83.4,84.1,83.6,85.4,83.9z M88.8,70.6c1.7,0.1,3.4,0.3,5,0.6c0.4,0.1,0.8,0.1,1.2,0.2c0.4,0.1,0.8,0.2,1.2,0.3
			c0.8,0.2,1.6,0.5,2.4,0.8c-0.9-0.1-1.7-0.2-2.5-0.3c-0.4-0.1-0.8-0.1-1.2-0.2c-0.4-0.1-0.8-0.1-1.2-0.2C92,71.4,90.4,71,88.8,70.6
			z M73.8,69.5c1.1,0,2.2-0.1,3.3,0c1.1,0,2.2,0,3.3,0.2c2.2,0.2,4.3,0.6,6.5,1c-2.3-0.1-4.4-0.2-6.6-0.4c-1.1-0.1-2.2-0.2-3.2-0.3
			C76.1,69.8,75,69.7,73.8,69.5z M104.6,87.9c-1.5-0.3-2.9-0.6-4.3-0.9c-0.3-0.1-0.7-0.2-1-0.2l-1-0.2c-0.7-0.1-1.4-0.3-2.1-0.4
			c-1.4-0.3-2.7-0.6-4.1-0.9c-1.4-0.3-2.8-0.6-4.3-0.9c1.5,0.1,2.9,0.3,4.3,0.4c1.4,0.2,2.8,0.5,4.2,0.8c0.7,0.2,1.4,0.3,2.1,0.5
			l1,0.2c0.3,0.1,0.7,0.2,1,0.3C101.8,87,103.2,87.5,104.6,87.9z M112.7,76.2c-1-0.2-2-0.5-3.1-0.8c-1-0.2-2-0.5-3-0.7
			c-1-0.3-2-0.6-2.9-0.9c-0.5-0.2-1-0.3-1.5-0.5c-0.5-0.2-1-0.3-1.5-0.5c0.5,0.1,1.1,0.1,1.6,0.2c0.5,0.1,1,0.2,1.5,0.3
			c1,0.2,2,0.5,3,0.8c1,0.3,2,0.6,3,0.9C110.8,75.4,111.7,75.8,112.7,76.2z M119.5,105.6c-1.3-0.4-2.5-0.8-3.7-1.3
			c-1.2-0.5-2.3-1-3.5-1.7c1.3,0.3,2.5,0.7,3.7,1.2C117.2,104.2,118.4,104.8,119.5,105.6z M75.9,83.1c-1.5,0.2-2.9,0.2-4.2,0.2
			c-1.4,0-2.8-0.1-4.2-0.2c1.5-0.2,2.9-0.4,4.3-0.4C73.1,82.8,74.4,82.9,75.9,83.1z"/>
	</g>
	<g>
		<g>
			<g>
				<path fill="#A27049" d="M51.8,82.1c0,0-0.1,0-0.1-0.1c0,0,0-0.1,0-0.1c0.2-0.2,0.6-0.5,0.6-0.7c0,0-0.5-4.4-0.5-4.4
					c-0.2,0.3-0.4,0.8-0.6,1.7c-0.3,1.1-0.5,2.4-0.6,3c-0.1,0.5-0.1,0.5-0.2,0.5l-0.5,0c-0.1,0-0.1,0-0.1-0.5c0-0.7-0.1-1.9-0.4-3.1
					c-0.2-0.9-0.4-1.4-0.5-1.7L48.1,81c0,0.3,0.4,0.7,0.5,0.8c0,0,0,0.1,0,0.1c0,0-0.1,0.1-0.1,0.1l-3.3-0.1c0,0-0.1,0-0.1-0.1
					c0,0,0-0.1,0.1-0.1c0,0,0.7-0.4,0.8-0.8l0.5-2.8c0.1-0.4-0.4-0.6-0.4-0.6c0,0-0.1-0.1-0.1-0.1c0,0,0-0.1,0.1-0.1
					c0,0,0.6-0.2,0.7-0.7l0.1-0.4c0,0-0.1,0-0.1,0c-0.7,0-1.1-0.6-1.1-0.6c0,0,0-0.1,0-0.1c0,0,0.1,0,0.1,0c0,0,0,0,0,0l0,0
					c0,0,0,0,0.1,0c0.2,0,0.6-0.1,1-0.5c0.4-0.6,0.3-1.6,0.2-1.9c-0.2-0.3-0.4-0.4-0.4-0.4c0,0-0.1-0.1-0.1-0.1c0,0,0.1-0.1,0.1-0.1
					l3.6,0.1c0,0,0.1,0,0.1,0.1c0,0,0,0.1-0.1,0.1c0,0-0.2,0.1-0.4,0.3c0,0-0.2,0.2-0.2,0.4c0,0.2,0.6,2.5,0.8,3.4
					c0.3-0.9,1-3.1,1-3.3c0-0.2-0.1-0.5-0.1-0.5c0,0,0,0,0,0c-0.2-0.2-0.4-0.4-0.4-0.4c0,0-0.1-0.1,0-0.1c0,0,0.1-0.1,0.1-0.1
					l3.3,0.1c0,0,0.1,0,0.1,0.1c0,0,0,0.1,0,0.1c-0.1,0.1-0.5,0.6-0.5,0.8c0,0,0,0.1,0,0.1c0,0,0,0.1,0,0.1l0.3,3
					c0,0.3,0.5,0.6,0.6,0.7c0,0,0.1,0.1,0.1,0.1c0,0,0,0.1-0.1,0.1c0,0-0.5,0.3-0.5,0.6l0.3,2.8c0.1,0.4,0.7,0.9,0.7,0.9
					c0,0,0.1,0.1,0,0.1c0,0-0.1,0.1-0.1,0.1L51.8,82.1z"/>
			</g>
			<g>
				<path fill="#A27049" d="M54.1,72.7c0,0-0.5,0.5-0.6,0.9c0,0.1,0,0.1,0,0.3l0.3,3c0.1,0.5,0.7,0.8,0.7,0.8s-0.6,0.3-0.5,0.7
					l0.3,2.8h0c0.1,0.5,0.8,1,0.8,1l-0.7,0l-2-0.1l-0.7,0c0,0,0.6-0.5,0.6-0.9l0,0c0,0,0,0,0,0l-0.5-4.6c-0.1,0.2-0.4,0.8-0.8,2
					c-0.5,1.6-0.6,3.5-0.7,3.5c0,0-0.3,0-0.3,0s-0.2,0-0.3,0c0,0-0.1-1.8-0.4-3.5c-0.3-1.3-0.5-1.8-0.6-2.1L48,81c0,0,0,0,0,0
					c-0.1,0.4,0.5,0.9,0.5,0.9l-0.7,0l-2-0.1l-0.7,0c0,0,0.7-0.4,0.8-0.9l0.5-2.8c0.1-0.4-0.5-0.7-0.5-0.7s0.7-0.3,0.7-0.7l0.1-0.5
					c0,0-0.1,0-0.1,0c-0.1,0-0.1,0-0.2,0c-0.6,0-1-0.6-1-0.6s0,0,0.1,0c0.2,0,0.7,0,1.1-0.6c0.5-0.6,0.3-1.7,0.2-2
					c-0.2-0.3-0.5-0.5-0.5-0.5l0.3,0l0.7,0l0.4,0l1.6,0.1l0.6,0c0,0-0.3,0.1-0.5,0.4l0,0c0,0-0.2,0.3-0.2,0.5c0,0.3,0.9,3.8,0.9,3.8
					s1.1-3.5,1.1-3.7c0.1-0.3-0.2-0.5-0.2-0.5l0,0c-0.2-0.2-0.4-0.4-0.4-0.4l0.6,0l2,0.1L54.1,72.7 M54.1,72.5l-0.7,0l-2-0.1l-0.6,0
					c-0.1,0-0.2,0.1-0.2,0.2c0,0.1,0,0.2,0.1,0.2c0,0,0.2,0.1,0.4,0.4c0,0,0,0,0,0c0,0.1,0.1,0.2,0.1,0.4c0,0.2-0.5,1.8-0.9,2.9
					c-0.3-1.2-0.6-2.8-0.7-3c0-0.1,0.1-0.3,0.1-0.4c0.2-0.2,0.4-0.3,0.4-0.3c0.1,0,0.1-0.1,0.1-0.2c0-0.1-0.1-0.2-0.2-0.2l-0.6,0
					l-1.6-0.1l-0.4,0l-0.7,0l-0.3,0c-0.1,0-0.2,0.1-0.2,0.2c0,0.1,0,0.2,0.1,0.2c0,0,0.2,0.1,0.4,0.4c0.1,0.2,0.3,1.3-0.2,1.8
					c-0.3,0.4-0.7,0.5-0.9,0.5c-0.1,0-0.1,0-0.1,0c0,0,0,0,0,0c-0.1,0-0.1,0-0.2,0.1c-0.1,0.1-0.1,0.2,0,0.2c0,0,0.4,0.7,1.1,0.7
					l0,0.3c-0.1,0.3-0.5,0.5-0.6,0.6c-0.1,0-0.1,0.1-0.1,0.2c0,0.1,0,0.2,0.1,0.2c0,0,0.4,0.2,0.4,0.5l-0.5,2.8
					c-0.1,0.3-0.5,0.7-0.7,0.8c-0.1,0-0.1,0.1-0.1,0.2c0,0.1,0.1,0.2,0.2,0.2l0.7,0l2,0.1l0.7,0c0.1,0,0.2-0.1,0.2-0.1
					c0-0.1,0-0.2-0.1-0.2c-0.2-0.2-0.5-0.5-0.5-0.7l0.7-3.9c0.1,0.3,0.2,0.7,0.3,1.3c0.2,1.2,0.3,2.4,0.4,3c0,0.1,0,0.3,0,0.3
					c0,0.1,0,0.3,0.2,0.3l0.3,0l0.3,0c0.2,0,0.2-0.2,0.2-0.3c0-0.1,0-0.2,0-0.3c0.1-0.7,0.3-1.9,0.6-3c0.2-0.6,0.3-1,0.5-1.3
					l0.4,3.9c0,0,0,0,0,0.1c0,0.1-0.3,0.5-0.5,0.7c-0.1,0.1-0.1,0.2-0.1,0.2c0,0.1,0.1,0.1,0.2,0.2l0.7,0l2,0.1l0.7,0
					c0.1,0,0.2-0.1,0.2-0.2c0-0.1,0-0.2-0.1-0.2c-0.2-0.1-0.6-0.5-0.7-0.8l-0.3-2.8c0-0.2,0.3-0.5,0.4-0.5c0.1,0,0.1-0.1,0.1-0.2
					c0-0.1,0-0.2-0.1-0.2c-0.2-0.1-0.6-0.3-0.6-0.6l-0.3-3c0,0,0-0.1,0-0.1c0,0,0-0.1,0-0.1c0-0.2,0.3-0.6,0.5-0.8
					c0.1-0.1,0.1-0.2,0-0.2C54.3,72.5,54.2,72.5,54.1,72.5L54.1,72.5z"/>
			</g>
			<g>
				<path fill="#DADADA" d="M54.4,80.9L54.4,80.9l-0.3-2.8c0-0.4,0.5-0.7,0.5-0.7s-0.7-0.3-0.7-0.8l0,0l-0.3-3c0-0.1,0-0.2,0-0.3
					c0-0.4,0.6-0.9,0.6-0.9l-0.7,0l-2-0.1l-0.6,0c0,0,0.2,0.2,0.4,0.4l0,0c0,0,0.2,0.3,0.2,0.5c-0.1,0.3-1.1,3.7-1.1,3.7
					s-0.8-3.5-0.9-3.8c0-0.3,0.2-0.5,0.2-0.5l0,0c0.2-0.2,0.5-0.4,0.5-0.4l-0.6,0l-1.6-0.1l-0.4,0l-0.7,0l-0.3,0
					c0,0,0.3,0.1,0.5,0.5c0.2,0.3,0.3,1.4-0.2,2c-0.6,0.7-1.2,0.5-1.2,0.5s0.4,0.7,1.1,0.6c0,0,0.1,0,0.1,0l-0.1,0.5
					c-0.1,0.5-0.7,0.7-0.7,0.7s0.6,0.3,0.5,0.7l-0.5,2.8c-0.1,0.5-0.8,0.9-0.8,0.9l0.7,0l2,0.1l0.7,0c0,0-0.6-0.5-0.5-0.9
					c0,0,0,0,0,0l0.8-4.6c0.1,0.2,0.4,0.8,0.6,2.1c0.3,1.7,0.4,3.5,0.4,3.5c0,0,0.3,0,0.3,0s0.2,0,0.3,0c0,0,0.2-1.8,0.7-3.5
					c0.3-1.3,0.7-1.8,0.8-2l0.5,4.6c0,0,0,0,0,0l0,0c0,0.4-0.6,0.9-0.6,0.9l0.7,0l2,0.1l0.7,0C55.2,81.9,54.5,81.4,54.4,80.9z"/>
				<path fill="#161616" d="M55.2,81.9l-3.3-0.1c0,0-0.1,0-0.1-0.1c0,0,0-0.1,0-0.1c0.2-0.1,0.6-0.5,0.6-0.8c0,0,0,0,0-0.1l-0.5-4.4
					c-0.2,0.3-0.4,0.8-0.6,1.8c-0.3,1.1-0.5,2.4-0.6,3c-0.1,0.5-0.1,0.5-0.2,0.5l-0.5,0c-0.1,0-0.1,0-0.1-0.5c0-0.7-0.1-1.9-0.4-3.1
					c-0.2-0.9-0.4-1.5-0.5-1.8l-0.7,4.4c0,0.3,0.4,0.7,0.5,0.8c0,0,0,0.1,0,0.1c0,0,0,0.1-0.1,0.1l-3.3-0.1c0,0-0.1,0-0.1-0.1
					c0,0,0-0.1,0-0.1c0,0,0.7-0.4,0.8-0.9l0.5-2.8c0.1-0.4-0.4-0.6-0.4-0.6c0,0-0.1,0,0-0.1c0,0,0-0.1,0.1-0.1c0,0,0.6-0.2,0.7-0.7
					l0.1-0.4c-0.8,0.1-1.2-0.6-1.2-0.6c0,0,0-0.1,0-0.1c0,0,0.1,0,0.1,0c0,0,0.6,0.1,1.1-0.5c0.5-0.6,0.3-1.6,0.2-1.9
					c-0.2-0.3-0.4-0.4-0.4-0.4c0,0-0.1-0.1,0-0.1c0,0,0-0.1,0.1-0.1l3.6,0.1c0,0,0.1,0,0.1,0.1c0,0,0,0.1,0,0.1c0,0-0.2,0.1-0.5,0.4
					c0,0-0.2,0.2-0.2,0.5c0,0.2,0.6,2.6,0.8,3.5c0.3-0.9,1-3.2,1-3.4c0-0.2-0.1-0.5-0.1-0.5c0,0,0,0,0,0c-0.2-0.2-0.4-0.4-0.4-0.4
					c0,0,0-0.1,0-0.1c0,0,0-0.1,0.1-0.1l3.3,0.1c0,0,0.1,0,0.1,0.1c0,0,0,0.1,0,0.1c-0.1,0.1-0.5,0.6-0.5,0.8c0,0,0,0.1,0,0.1
					c0,0,0,0.1,0,0.1l0.3,3c0,0.4,0.6,0.7,0.7,0.7c0,0,0.1,0,0.1,0.1c0,0,0,0.1,0,0.1c0,0-0.5,0.3-0.5,0.6l0.3,2.8
					c0.1,0.5,0.7,0.9,0.7,0.9C55.3,81.8,55.3,81.8,55.2,81.9C55.2,81.9,55.2,81.9,55.2,81.9z M52.1,81.7l2.8,0.1
					c-0.2-0.2-0.5-0.5-0.6-0.9c0,0,0,0,0,0L54,78.1c0-0.3,0.3-0.6,0.4-0.7c-0.2-0.1-0.6-0.4-0.6-0.8l-0.3-3c0,0,0-0.1,0-0.1
					c0-0.1,0-0.1,0-0.2c0-0.3,0.3-0.6,0.5-0.8l-2.8-0.1c0.1,0.1,0.2,0.1,0.2,0.2c0,0,0,0,0,0c0,0.1,0.2,0.3,0.2,0.6
					c-0.1,0.3-1.1,3.6-1.1,3.7c0,0.1-0.2,0.1-0.2,0c0-0.1-0.8-3.5-0.9-3.8c0-0.3,0.2-0.6,0.2-0.6c0.1-0.1,0.2-0.2,0.3-0.2l-3-0.1
					c0.1,0.1,0.2,0.2,0.3,0.3c0.2,0.3,0.3,1.5-0.2,2.1c-0.4,0.5-0.8,0.6-1.1,0.6c0.2,0.2,0.5,0.4,0.9,0.4c0,0,0,0,0.1,0
					c0,0,0.1,0,0.1,0c0,0,0,0.1,0,0.1l-0.1,0.5c-0.1,0.4-0.4,0.6-0.6,0.7c0.2,0.1,0.4,0.4,0.4,0.7l-0.5,2.8
					c-0.1,0.3-0.4,0.6-0.6,0.8l2.8,0.1c-0.2-0.2-0.4-0.5-0.4-0.8l0.8-4.6c0,0,0-0.1,0.1-0.1c0,0,0.1,0,0.1,0
					c0.1,0.2,0.4,0.8,0.7,2.1c0.2,1.2,0.3,2.4,0.4,3.1c0,0.2,0,0.3,0,0.4l0.4,0c0-0.1,0-0.2,0.1-0.4c0.1-0.7,0.3-1.9,0.6-3
					c0.4-1.3,0.7-1.9,0.8-2.1c0,0,0.1,0,0.1,0c0,0,0.1,0,0.1,0.1l0.5,4.6c0,0,0,0,0,0C52.5,81.2,52.3,81.5,52.1,81.7z"/>
			</g>
			<g>
				<path fill="#141414" d="M47.4,81.1c0,0-0.1-0.1-0.2-0.4c-0.1-0.2-0.1-0.4-0.1-0.4s-0.1,0.2-0.2,0.4c-0.1,0.2-0.3,0.3-0.3,0.3
					L47.4,81.1z"/>
			</g>
			<g>
				<path fill="#141414" d="M53,81.3c0,0,0.2-0.1,0.2-0.4c0.1-0.2,0.1-0.4,0.1-0.4s0.1,0.2,0.2,0.4c0.1,0.2,0.3,0.4,0.3,0.4L53,81.3
					z"/>
			</g>
			<g>
				<path fill="#141414" d="M52.9,73c0,0-0.2,0.1-0.2,0.4c-0.1,0.2-0.1,0.4-0.1,0.4s-0.1-0.2-0.2-0.4c-0.1-0.2-0.3-0.4-0.3-0.4
					L52.9,73z"/>
			</g>
			<g>
				<path fill="#141414" d="M47.9,72.8c0,0,0.1,0.1,0.2,0.4c0.1,0.2,0.1,0.4,0.1,0.4s0.1-0.2,0.2-0.4c0.1-0.2,0.3-0.3,0.3-0.3
					L47.9,72.8z"/>
			</g>
		</g>
		<g>
			<g>
				<path fill="#A27049" d="M61.6,82.3c0,0-0.1,0-0.1-0.1c0,0,0-0.1,0-0.1c0.2-0.1,0.6-0.4,0.6-0.7l-0.5-2.2l-2.1-0.1l-0.6,2
					c0,0,0,0,0,0.1c-0.1,0.3,0.4,0.7,0.5,0.8c0,0,0.1,0.1,0,0.1c0,0-0.1,0.1-0.1,0.1L56,82.1c0,0-0.1,0-0.1-0.1c0,0,0-0.1,0.1-0.1
					c0,0,0.7-0.4,0.8-0.9l0.6-2c0.1-0.4-0.3-0.7-0.3-0.7c0,0-0.1-0.1,0-0.1c0,0,0-0.1,0.1-0.1c0,0,0.6-0.2,0.7-0.6l0.3-1.1
					c0,0,0,0-0.1,0c-0.7,0-1.1-0.6-1.1-0.6c0,0,0-0.1,0-0.1c0,0,0.1,0,0.1,0c0,0,0,0,0,0l0,0c0,0,0,0,0.1,0c0.2,0,0.6-0.1,1-0.5
					c0.4-0.5,0.4-1.6,0.2-1.9c-0.2-0.3-0.4-0.4-0.4-0.4c0,0-0.1-0.1-0.1-0.1c0-0.1,0.1-0.1,0.1-0.1l5.1,0.2c0,0,0.1,0,0.1,0.1
					c0,0,0,0.1,0,0.1c-0.2,0.1-0.6,0.4-0.6,0.7l0.9,4c0.1,0.4,0.7,0.6,0.7,0.6c0,0,0.1,0.1,0.1,0.1c0,0,0,0.1-0.1,0.1
					c0,0-0.5,0.3-0.4,0.7c0,0,0,0,0,0l0.2,0.8c0,0,0.2,0.8,0.3,1.3c0.1,0.5,0.8,0.9,0.8,0.9c0,0,0.1,0.1,0,0.1c0,0-0.1,0.1-0.1,0.1
					L61.6,82.3z M61.3,77.8l-0.6-2.9l-0.8,2.9L61.3,77.8z"/>
			</g>
			<g>
				<path fill="#A27049" d="M63.1,72.8c0,0-0.7,0.4-0.6,0.8l0.9,4c0,0,0,0,0,0c0.1,0.5,0.8,0.7,0.8,0.7s-0.5,0.3-0.4,0.8
					c0,0,0,0,0,0l0.2,0.8c0,0,0.2,0.8,0.3,1.3c0.1,0.5,0.8,1,0.8,1l-3.3-0.1c0,0,0.7-0.4,0.6-0.8l-0.5-2.3L59.4,79l-0.6,2.1
					c0,0,0,0,0,0.1c-0.1,0.4,0.6,0.9,0.6,0.9l-0.8,0L56.6,82L56,82c0,0,0.7-0.4,0.9-0.9l0.6-2c0.1-0.5-0.4-0.8-0.4-0.8
					s0.7-0.2,0.8-0.7v0l0.4-1.3c0,0,0,0-0.1,0c-0.1,0-0.1,0-0.2,0c-0.6,0-1-0.6-1-0.6s0,0,0.1,0c0.2,0,0.7,0,1.1-0.6
					c0.5-0.6,0.4-1.7,0.2-2c-0.2-0.3-0.5-0.5-0.5-0.5l1.3,0l0,0l0.4,0l0.6,0l0.8,0l1.1,0L63.1,72.8 M59.8,77.8l1.7,0.1l-0.7-3.5
					L59.8,77.8 M63.1,72.6l-0.8,0l-1.1,0l-0.8,0l-0.6,0l-0.4,0l0,0l-1.3,0c-0.1,0-0.2,0.1-0.2,0.2c0,0.1,0,0.2,0.1,0.2
					c0,0,0.2,0.1,0.4,0.4c0.2,0.3,0.3,1.3-0.2,1.8c-0.3,0.4-0.7,0.5-0.9,0.5c-0.1,0-0.1,0-0.1,0c0,0,0,0,0,0c-0.1,0-0.1,0-0.2,0.1
					c-0.1,0.1-0.1,0.2,0,0.2c0,0,0.4,0.6,1.1,0.7l-0.3,1c-0.1,0.3-0.6,0.5-0.6,0.5c-0.1,0-0.1,0.1-0.2,0.2c0,0.1,0,0.2,0.1,0.2
					c0,0,0.4,0.3,0.3,0.6l-0.6,2c-0.1,0.4-0.6,0.7-0.8,0.8c-0.1,0-0.1,0.1-0.1,0.2c0,0.1,0.1,0.2,0.2,0.2l0.6,0l1.9,0.1l0.8,0
					c0.1,0,0.2-0.1,0.2-0.1c0-0.1,0-0.2-0.1-0.2c-0.2-0.2-0.5-0.5-0.5-0.7c0,0,0,0,0-0.1l0.6-2l2,0.1l0.4,2.1c0,0.2-0.3,0.5-0.5,0.6
					c-0.1,0-0.1,0.1-0.1,0.2c0,0.1,0.1,0.2,0.2,0.2l3.3,0.1c0.1,0,0.2-0.1,0.2-0.2c0-0.1,0-0.2-0.1-0.2c-0.2-0.1-0.6-0.5-0.7-0.8
					c-0.1-0.5-0.3-1.3-0.3-1.3l-0.2-0.8c0,0,0,0,0,0c-0.1-0.3,0.3-0.5,0.3-0.5c0.1,0,0.1-0.1,0.1-0.2c0-0.1-0.1-0.2-0.1-0.2
					c-0.1-0.1-0.5-0.2-0.6-0.5c0,0,0,0,0,0l-0.9-4c0-0.2,0.3-0.5,0.5-0.6c0.1,0,0.1-0.1,0.1-0.2C63.3,72.7,63.2,72.6,63.1,72.6
					L63.1,72.6z M60.1,77.6l0.7-2.3l0.5,2.3L60.1,77.6L60.1,77.6z"/>
			</g>
			<g>
				<path fill="#DADADA" d="M64.1,81.1c-0.1-0.5-0.3-1.3-0.3-1.3L63.7,79c0,0,0,0,0,0c-0.1-0.5,0.4-0.8,0.4-0.8s-0.7-0.2-0.8-0.7
					c0,0,0,0,0,0l-0.9-4c0-0.4,0.6-0.8,0.6-0.8l-0.8,0l-1.1,0l-0.8,0l-0.6,0l-0.4,0l0,0l-1.3,0c0,0,0.3,0.1,0.5,0.5
					c0.2,0.4,0.3,1.4-0.2,2c-0.6,0.7-1.2,0.5-1.2,0.5s0.4,0.7,1.1,0.6c0,0,0,0,0.1,0l-0.4,1.3v0c-0.1,0.5-0.8,0.7-0.8,0.7
					s0.5,0.3,0.4,0.8l-0.6,2c-0.2,0.5-0.9,0.9-0.9,0.9l0.6,0l1.9,0.1l0.8,0c0,0-0.7-0.5-0.6-0.9c0,0,0,0,0-0.1l0.6-2.1l2.3,0.1
					l0.5,2.3c0,0.4-0.6,0.8-0.6,0.8l3.3,0.1C64.9,82,64.2,81.6,64.1,81.1z M59.8,77.6l1-3.4l0.7,3.5L59.8,77.6z"/>
				<path fill="#161616" d="M64.9,82.1L61.6,82c0,0-0.1,0-0.1-0.1c0,0,0-0.1,0-0.1c0.2-0.1,0.6-0.4,0.6-0.7l-0.5-2.2l-2.2-0.1
					l-0.6,2.1c0,0,0,0,0,0.1c-0.1,0.3,0.4,0.7,0.5,0.8c0,0,0,0.1,0,0.1c0,0,0,0.1-0.1,0.1L56,81.8c0,0-0.1,0-0.1-0.1
					c0,0,0-0.1,0-0.1c0,0,0.7-0.4,0.8-0.9l0.6-2c0.1-0.4-0.3-0.7-0.3-0.7c0,0,0-0.1,0-0.1c0,0,0-0.1,0.1-0.1c0,0,0.6-0.2,0.7-0.6
					l0.3-1.1c-0.7,0-1.1-0.6-1.1-0.6c0,0,0-0.1,0-0.1c0,0,0.1,0,0.1,0c0,0,0.6,0.1,1.1-0.5c0.4-0.6,0.4-1.6,0.2-1.9
					c-0.2-0.3-0.4-0.4-0.4-0.4c0,0-0.1-0.1,0-0.1c0,0,0-0.1,0.1-0.1l5.1,0.2c0,0,0.1,0,0.1,0.1c0,0,0,0.1,0,0.1
					c-0.2,0.1-0.6,0.4-0.6,0.7l0.9,4c0.1,0.4,0.7,0.7,0.7,0.7c0,0,0.1,0,0.1,0.1c0,0,0,0.1,0,0.1c0,0-0.5,0.3-0.4,0.7c0,0,0,0,0,0
					l0.2,0.8c0,0,0.2,0.8,0.3,1.3l0,0C64.3,81.5,65,82,65,82C65,82,65,82,64.9,82.1C65,82.1,65,82.1,64.9,82.1z M61.8,81.8l2.8,0.1
					c-0.2-0.2-0.5-0.5-0.6-0.9c-0.1-0.5-0.3-1.3-0.3-1.3L63.6,79c-0.1-0.4,0.2-0.7,0.3-0.8c-0.2-0.1-0.6-0.3-0.7-0.7l-0.9-4.1
					c0,0,0,0,0,0c0-0.3,0.3-0.6,0.5-0.7l-4.6-0.2c0.1,0.1,0.2,0.2,0.3,0.3c0.2,0.4,0.3,1.5-0.2,2.1c-0.4,0.5-0.8,0.6-1.1,0.6
					c0.2,0.2,0.5,0.4,0.9,0.4l0,0c0,0,0.1,0,0.1,0c0,0,0,0.1,0,0.1L58,77.3c-0.1,0.4-0.5,0.6-0.7,0.7c0.2,0.1,0.4,0.4,0.3,0.8
					l-0.6,2c-0.1,0.4-0.4,0.6-0.7,0.8l2.8,0.1c-0.2-0.2-0.5-0.5-0.4-0.8c0,0,0,0,0-0.1l0.6-2.1c0,0,0-0.1,0.1-0.1l2.3,0.1
					c0,0,0.1,0,0.1,0.1l0.5,2.3C62.3,81.4,62.1,81.7,61.8,81.8z M61.5,77.7l-1.7-0.1c0,0-0.1,0-0.1,0c0,0,0-0.1,0-0.1l1-3.4
					c0-0.1,0.2-0.1,0.2,0l0.7,3.5C61.6,77.6,61.6,77.7,61.5,77.7C61.5,77.7,61.5,77.7,61.5,77.7z M59.9,77.5l1.5,0.1l-0.6-3
					L59.9,77.5z"/>
			</g>
			<g>
				<path fill="#141414" d="M59.4,73.2l0.5,0c0,0,0.1,0.3-0.1,0.8c-0.1,0.5-0.7,0.8-0.7,0.8s0.3-0.4,0.3-0.9
					C59.5,73.4,59.4,73.2,59.4,73.2z"/>
			</g>
			<g>
				<path fill="#141414" d="M58.3,81.2c0,0-0.2-0.1-0.2-0.4c0-0.2,0-0.6,0-0.6s-0.1,0.4-0.2,0.6c-0.1,0.2-0.4,0.3-0.4,0.3L58.3,81.2
					z"/>
			</g>
			<g>
				<path fill="#141414" d="M62.7,81.4c0,0,0.2-0.1,0.2-0.4c0.1-0.2,0.1-0.6,0.1-0.6s0.1,0.4,0.2,0.6c0.1,0.3,0.3,0.4,0.3,0.4
					L62.7,81.4z"/>
			</g>
		</g>
		<g>
			<g>
				<path fill="#A27049" d="M69.7,82.5c-1,0-4.4-0.5-4.3-4.8c0.1-3.7,2.4-4.9,4.3-4.8c1.1,0,1.9,0.4,2.5,1c0.6,0.7,0.9,1.6,1,1.6
					c0,0,0,0.1,0,0.1c0,0-0.6,0.6-0.9,1c-0.4,0.4-0.9,0.7-1.4,0.7c0,0,0,0,0,0c-0.5,0-0.7-0.3-0.7-0.3c0,0,0-0.1,0-0.1
					c0,0,0-0.1,0.1-0.1c0,0,0.6-0.2,0.6-1.3c-0.1-1.2-0.8-1.5-1.1-1.6l0,0c-0.9,0-1.8,1.2-1.9,3.9c-0.1,1.9,0.4,2.8,0.9,3.3
					c0.1,0.1,0.5,0.4,0.9,0.4c0.4,0,1-0.3,1.2-1c0.1-0.2,0-0.5,0-0.6c-0.1,0.2-0.3,0.4-0.7,0.5c-0.2,0.1-0.3,0.1-0.5,0.1
					c-0.5,0-0.8-0.3-0.8-0.3c0,0,0-0.1,0-0.1c0,0,0-0.1,0.1-0.1c0,0,0.4-0.1,0.7-0.4c0.3-0.4,0.1-1,0.1-1c0,0,0-0.1,0-0.1
					c0,0,0,0,0.1,0c0,0,0,0,0.1,0c0,0,0.5,0.3,1,0.3c0.1,0,0.2,0,0.3,0c1-0.2,1.5-0.8,1.5-0.8c0,0,0.1,0,0.1,0c0,0,0,0,0,0
					c0,0,0.1,0,0.1,0.1c0,0.1,0.4,1.5-0.2,2.8C72,81.9,71,82.5,69.7,82.5z"/>
			</g>
			<g>
				<path fill="#A27049" d="M69.7,73c1,0,1.8,0.3,2.4,1c0.6,0.7,0.9,1.6,0.9,1.6s-0.6,0.6-0.9,1c-0.4,0.4-0.8,0.6-1.3,0.6
					c0,0,0,0,0,0c-0.4,0-0.6-0.3-0.6-0.3s0.7-0.2,0.7-1.4c-0.1-1.1-0.7-1.6-1.2-1.7c0,0,0,0,0,0c-0.9,0-2,1.2-2,4
					c-0.1,1.7,0.3,2.8,0.9,3.3c0.1,0.1,0.5,0.5,1,0.5c0.4,0,1.1-0.4,1.3-1.1c0.1-0.5-0.1-0.9-0.1-0.9s-0.1,0.5-0.8,0.7
					c-0.2,0.1-0.3,0.1-0.4,0.1c-0.4,0-0.7-0.3-0.7-0.3s0.5-0.1,0.8-0.5c0.3-0.4,0.1-1.1,0.1-1.1s0.5,0.3,1.1,0.3c0.1,0,0.2,0,0.4,0
					c1-0.2,1.6-0.9,1.6-0.9s0.4,1.4-0.2,2.8c-0.5,1.1-1.4,1.8-2.8,1.7c-2-0.1-4.3-1.2-4.1-4.6C65.6,74.3,67.7,73,69.7,73 M69.7,72.8
					c-1.1,0-2.2,0.4-2.9,1.1c-0.9,0.9-1.4,2.2-1.5,3.8c-0.1,4.4,3.3,4.8,4.4,4.9c1.4,0,2.5-0.6,3-1.9c0.6-1.4,0.2-2.9,0.2-2.9
					c0-0.1-0.1-0.1-0.2-0.2c0,0,0,0,0,0c-0.1,0-0.1,0-0.2,0.1c0,0-0.5,0.7-1.5,0.8c-0.1,0-0.2,0-0.3,0c-0.5,0-1-0.3-1-0.3
					c0,0-0.1,0-0.1,0c0,0-0.1,0-0.1,0c-0.1,0.1-0.1,0.1-0.1,0.2c0,0,0.1,0.5-0.1,0.9c-0.2,0.3-0.6,0.4-0.6,0.4
					c-0.1,0-0.1,0.1-0.2,0.2c0,0.1,0,0.2,0.1,0.2c0,0,0.4,0.3,0.9,0.3c0.2,0,0.3,0,0.5-0.1c0.3-0.1,0.5-0.2,0.6-0.4
					c0,0.1,0,0.2,0,0.4c-0.1,0.7-0.7,1-1.1,1c-0.4,0-0.7-0.3-0.8-0.4c-0.4-0.4-0.9-1.3-0.8-3.2c0.1-2.6,1-3.8,1.8-3.8c0,0,0,0,0,0
					c0.3,0,0.9,0.4,1,1.5c0.1,1-0.5,1.2-0.5,1.2c-0.1,0-0.1,0.1-0.1,0.1c0,0.1,0,0.1,0,0.2c0,0,0.2,0.4,0.8,0.4l0,0
					c0.5,0,1-0.2,1.4-0.7c0.4-0.4,0.9-1,0.9-1c0.1-0.1,0.1-0.2,0-0.2c0,0-0.4-0.9-1-1.6C71.7,73.2,70.8,72.8,69.7,72.8L69.7,72.8z"
					/>
			</g>
			<g>
				<path fill="#DADADA" d="M70.2,76.6c0,0,0.1,0.2,0.6,0.3c0.4,0,0.9-0.2,1.3-0.6c0.4-0.4,0.9-1,0.9-1s-0.4-0.9-0.9-1.6
					c-0.6-0.7-1.4-0.9-2.4-1c-1.9-0.1-4.1,1.3-4.2,4.7c-0.1,3.5,2.1,4.6,4.1,4.6c1.4,0,2.3-0.6,2.8-1.7c0.6-1.4,0.2-2.8,0.2-2.8
					s-0.6,0.7-1.6,0.9c-0.8,0.1-1.5-0.3-1.5-0.3s0.2,0.6-0.1,1.1c-0.3,0.4-0.8,0.5-0.8,0.5s0.5,0.4,1.2,0.2c0.6-0.2,0.8-0.7,0.8-0.7
					s0.2,0.4,0.1,0.9c-0.2,0.8-0.8,1.1-1.3,1.1c-0.4,0-0.8-0.3-1-0.5c-0.5-0.6-0.9-1.6-0.9-3.3c0.1-2.8,1.1-4,2-4c0,0,0,0,0,0
					c0.5,0.1,1.1,0.6,1.2,1.7C71,76.4,70.2,76.6,70.2,76.6z"/>
				<path fill="#161616" d="M69.7,82.2c-1,0-4.4-0.5-4.2-4.7c0.1-3.7,2.4-4.9,4.3-4.8c1.1,0,1.9,0.4,2.5,1c0.6,0.7,0.9,1.5,1,1.6
					c0,0,0,0.1,0,0.1c0,0-0.6,0.6-0.9,1c-0.4,0.4-0.9,0.7-1.4,0.7c-0.5,0-0.6-0.3-0.6-0.3c0,0,0-0.1,0-0.1c0,0,0,0,0.1-0.1
					c0,0,0.7-0.2,0.6-1.3c-0.1-1-0.6-1.5-1.1-1.6l0,0c-0.9,0-1.9,1.2-2,3.9c-0.1,1.9,0.4,2.8,0.9,3.3c0.1,0.1,0.5,0.4,0.9,0.4
					c0.4,0,1-0.3,1.2-1.1c0.1-0.3,0-0.5,0-0.7c-0.1,0.2-0.3,0.4-0.7,0.6c-0.7,0.3-1.2-0.2-1.3-0.2c0,0,0-0.1,0-0.1
					c0,0,0-0.1,0.1-0.1c0,0,0.4-0.1,0.7-0.5c0.3-0.4,0.1-1,0.1-1c0,0,0-0.1,0-0.1c0,0,0.1,0,0.1,0c0,0,0.7,0.4,1.4,0.3
					c1-0.2,1.5-0.8,1.5-0.8c0,0,0.1,0,0.1,0c0,0,0.1,0,0.1,0.1c0,0.1,0.4,1.4-0.2,2.8C72,81.7,71,82.3,69.7,82.2z M69.7,72.9
					c-1.8-0.1-4,1.1-4.1,4.6c-0.1,4,2.8,4.5,4.1,4.6c1.3,0,2.2-0.5,2.7-1.7c0.5-1.1,0.3-2.1,0.2-2.5c-0.2,0.2-0.7,0.7-1.5,0.8
					c-0.6,0.1-1.1-0.1-1.3-0.2c0,0.2,0,0.6-0.2,0.9c-0.2,0.3-0.4,0.4-0.6,0.5c0.2,0.1,0.5,0.2,0.9,0.1c0.6-0.2,0.7-0.6,0.7-0.7
					c0,0,0-0.1,0.1-0.1c0,0,0.1,0,0.1,0.1c0,0,0.2,0.5,0.1,1c-0.2,0.8-0.9,1.2-1.4,1.2c-0.5,0-0.8-0.3-1-0.5c-0.5-0.5-1-1.4-0.9-3.4
					c0.1-2.9,1.1-4.1,2.1-4.1c0,0,0,0,0,0c0.6,0.1,1.2,0.6,1.3,1.8c0.1,0.9-0.4,1.3-0.6,1.4c0.1,0.1,0.2,0.1,0.4,0.1
					c0.4,0,0.9-0.2,1.2-0.6c0.3-0.3,0.8-0.8,0.9-0.9c-0.1-0.2-0.4-0.9-0.9-1.5C71.5,73.2,70.7,72.9,69.7,72.9z"/>
			</g>
			<g>
				<path fill="#141414" d="M71.5,79.3c0,0,0.1,0,0.3-0.1c0.2-0.1,0.2-0.1,0.2-0.1s0.1,0.4-0.1,1c-0.2,0.5-0.5,0.8-0.5,0.8
					s0.2-0.3,0.2-0.8C71.6,79.6,71.5,79.3,71.5,79.3z"/>
			</g>
			<g>
				<path fill="#141414" d="M71.6,75.8c0,0,0.1-0.1,0.3-0.2c0.1-0.1,0.2-0.2,0.2-0.2S72,75.2,71.9,75c-0.1-0.2-0.3-0.4-0.3-0.4
					s0.1,0.4,0.1,0.7C71.7,75.6,71.6,75.8,71.6,75.8z"/>
			</g>
		</g>
		<g>
			<g>
				<path fill="#A27049" d="M95.8,83.5c0,0-0.1,0-0.1-0.1c0,0,0-0.1,0-0.1c0.2-0.1,0.7-0.5,0.7-0.9l0.1-3.8l-1.9-3.9
					c-0.2-0.4-1-0.9-1-0.9c0,0-0.1-0.1,0-0.1c0,0,0.1-0.1,0.1-0.1l3.5,0.1c0,0,0.1,0,0.1,0.1c0,0,0,0.1,0,0.1c0,0-0.5,0.5-0.3,0.8
					c0,0,0,0,0,0l0.8,1.8l0.9-1.7c0,0,0,0,0,0c0.2-0.3-0.3-0.8-0.3-0.8c0,0,0-0.1,0-0.1c0,0,0.1-0.1,0.1-0.1L102,74
					c0,0,0.1,0,0.1,0.1c0,0,0,0.1,0,0.1c0,0-0.8,0.5-1,0.9l-2.1,3.7l-0.1,3.8c0,0.5,0.7,0.9,0.7,0.9c0,0,0.1,0.1,0.1,0.1
					c0,0-0.1,0.1-0.1,0.1L95.8,83.5z"/>
			</g>
			<g>
				<path fill="#A27049" d="M102,74.1c0,0-0.8,0.5-1.1,0.9l-2.2,3.8l-0.1,3.8c0,0.6,0.7,1,0.7,1l-0.8,0l-2-0.1l-0.7,0
					c0,0,0.7-0.5,0.7-1l0.1-3.8l-1.9-3.9c-0.3-0.4-1-1-1-1l0.5,0l2.1,0.1l0.9,0c0,0-0.6,0.5-0.4,0.9c0,0,0,0,0,0l0.9,2l1-1.9
					c0,0,0,0,0,0c0.3-0.4-0.3-0.9-0.3-0.9l0.9,0l2.1,0.1L102,74.1 M102,73.8l-0.5,0l-2.1-0.1l-0.9,0c-0.1,0-0.2,0.1-0.2,0.1
					c0,0.1,0,0.2,0,0.2c0.1,0.1,0.4,0.5,0.3,0.7c0,0,0,0,0,0c0,0,0,0,0,0l-0.8,1.5l-0.7-1.6c0,0,0,0,0,0c0,0,0,0,0,0
					c-0.1-0.2,0.2-0.6,0.3-0.6c0.1-0.1,0.1-0.2,0.1-0.2c0-0.1-0.1-0.1-0.2-0.1l-0.9,0l-2.1-0.1l-0.5,0c-0.1,0-0.2,0.1-0.2,0.1
					c0,0.1,0,0.2,0.1,0.3c0.2,0.1,0.7,0.6,0.9,0.9l1.9,3.8l-0.1,3.7c0,0.3-0.4,0.6-0.6,0.8c-0.1,0.1-0.1,0.2-0.1,0.2
					c0,0.1,0.1,0.2,0.2,0.2l0.7,0l2,0.1l0.8,0c0.1,0,0.2-0.1,0.2-0.2c0-0.1,0-0.2-0.1-0.3c-0.2-0.1-0.6-0.4-0.6-0.8l0.1-3.7l2.1-3.7
					c0.2-0.3,0.8-0.7,1-0.8c0.1-0.1,0.1-0.2,0.1-0.2S102.1,73.9,102,73.8L102,73.8z"/>
			</g>
			<g>
				<path fill="#DADADA" d="M99.4,73.7l-0.9,0c0,0,0.6,0.5,0.3,0.9c0,0,0,0,0,0l-1,1.9l-0.9-2c0,0,0,0,0,0c-0.2-0.4,0.4-0.9,0.4-0.9
					l-0.9,0l-2.1-0.1l-0.5,0c0,0,0.7,0.6,1,1l1.9,3.9l-0.1,3.8c0,0.5-0.7,1-0.7,1l0.7,0l2,0.1l0.8,0c0,0-0.7-0.4-0.7-1l0.1-3.8
					l2.2-3.8c0.3-0.4,1.1-0.9,1.1-0.9l-0.5,0L99.4,73.7z"/>
				<path fill="#161616" d="M99.3,83.4l-3.5-0.1c0,0-0.1,0-0.1-0.1c0,0,0-0.1,0-0.1c0.2-0.1,0.7-0.6,0.7-0.9l0.1-3.8l-1.9-3.9
					c-0.2-0.4-1-0.9-1-0.9c0,0,0-0.1,0-0.1c0,0,0-0.1,0.1-0.1l3.5,0.1c0,0,0.1,0,0.1,0.1c0,0,0,0.1,0,0.1c0,0-0.5,0.5-0.3,0.8
					c0,0,0,0,0,0l0.8,1.8l1-1.8c0.2-0.3-0.3-0.8-0.3-0.8c0,0,0-0.1,0-0.1c0,0,0-0.1,0.1-0.1l3.5,0.1c0,0,0.1,0,0.1,0.1
					c0,0,0,0.1,0,0.1c0,0-0.8,0.5-1,0.9l-2.1,3.7l-0.1,3.8c0,0.5,0.7,0.9,0.7,0.9C99.4,83.2,99.4,83.3,99.3,83.4
					C99.4,83.3,99.4,83.4,99.3,83.4z M96.1,83.1l2.9,0.1c-0.2-0.2-0.5-0.5-0.5-0.9l0.1-3.8c0,0,0,0,0,0l2.2-3.8
					c0.2-0.3,0.6-0.6,0.9-0.8l-3-0.1c0.2,0.2,0.4,0.6,0.2,0.9l-1,2c0,0,0,0-0.1,0c0,0,0,0,0,0c0,0-0.1,0-0.1-0.1l-0.9-2
					c-0.2-0.3,0-0.7,0.2-0.9l-3-0.1c0.2,0.2,0.6,0.5,0.8,0.8l1.9,3.9c0,0,0,0,0,0l-0.1,3.8C96.7,82.5,96.3,82.9,96.1,83.1z"/>
			</g>
			<g>
				<path fill="#141414" d="M97.1,82.8c0,0,0.2-0.2,0.3-0.4c0.1-0.2,0.2-0.6,0.2-0.6s0.1,0.4,0.2,0.6c0.1,0.3,0.2,0.4,0.2,0.4
					L97.1,82.8z"/>
			</g>
			<g>
				<path fill="#141414" d="M100.4,74.4c0,0-0.2,0.2-0.4,0.4c-0.2,0.2-0.4,0.5-0.4,0.5s0.1-0.2,0-0.5c0-0.3-0.1-0.4-0.1-0.4
					L100.4,74.4z"/>
			</g>
			<g>
				<path fill="#141414" d="M95.3,74.2c0,0,0.2,0.2,0.4,0.4c0.2,0.2,0.3,0.5,0.3,0.5s0-0.2,0-0.5c0-0.3,0.1-0.4,0.1-0.4L95.3,74.2z"
					/>
			</g>
		</g>
		<g>
			<g>
				<path fill="#A27049" d="M84.5,82.8c0,0-0.1,0-0.1-0.1c0,0,0-0.1,0.1-0.1c0,0,0.7-0.3,0.7-0.8l0.1-2.7c0-0.3-0.5-0.6-0.6-0.7
					c0,0-0.1-0.1-0.1-0.1c0,0,0-0.1,0.1-0.1c0,0,0.7-0.2,0.7-0.6l0-0.6c-0.1,0.1-0.3,0.1-0.5,0.1c-0.1,0-0.1,0-0.2,0
					c-0.7,0-1.1-0.6-1.1-0.6c0,0,0-0.1,0-0.1c0,0,0.1,0,0.1,0c0,0,0,0,0,0l0,0c0,0,0,0,0.1,0c0.2,0,0.6-0.1,1-0.5
					c0.4-0.6,0.3-1.6,0.2-1.9c-0.2-0.3-0.4-0.4-0.4-0.4c0,0-0.1-0.1-0.1-0.1c0,0,0.1-0.1,0.1-0.1l8,0.3c0,0,0.1,0,0.1,0.1
					c0,0,0,0.1,0,0.1c0,0-0.4,0.5-0.8,1.5c-0.4,1-0.4,1.9-0.4,1.9c0,0,0,0.1-0.1,0.1c0,0,0,0-0.1,0c0,0,0,0-0.1,0l-0.6-0.4
					c0,0-0.1-0.1,0-0.1c0,0,0-0.2-0.1-0.5c-0.1-0.3-0.7-1.7-1.8-1.7l-1.1,0l-0.1,3.5c0.3,0,0.6-0.1,0.8-0.3c0.4-0.4,0.4-0.9,0.4-0.9
					c0,0,0-0.1,0-0.1c0,0,0,0,0.1,0c0,0,0,0,0,0l0.4,0.1c0.1,0,0.1,0.1,0.1,0.1l-0.1,3.3c0,0.1,0,0.1-0.1,0.1l-0.4,0.1c0,0,0,0,0,0
					c0,0-0.1,0-0.1,0c0,0,0-0.1,0-0.1c0,0,0-0.4-0.3-0.9C88,79.1,87.7,79,87.5,79l-0.1,2.9l1.1,0c1.1,0,1.9-1.3,1.9-1.6
					c0.1-0.3,0.1-0.5,0.1-0.5c0,0,0-0.1,0.1-0.1l0.6-0.4c0,0,0,0,0.1,0c0,0,0,0,0.1,0c0,0,0.1,0.1,0.1,0.1c0,0,0,0.9,0.3,2
					c0.3,1,0.7,1.6,0.7,1.6c0,0,0,0.1,0,0.1c0,0-0.1,0.1-0.1,0.1L84.5,82.8z"/>
			</g>
			<g>
				<path fill="#A27049" d="M92.6,73.6c0,0-0.4,0.5-0.8,1.5c-0.4,1-0.5,2-0.5,2l-0.6-0.4c0,0,0-0.2-0.1-0.5
					c-0.1-0.4-0.7-1.8-1.9-1.8l-1.2,0L87.4,78c0.3,0,0.7-0.1,1-0.4c0.4-0.5,0.4-0.9,0.4-0.9l0.4,0.1l-0.1,1.6l0,0l-0.1,1.6l-0.4,0.1
					c0,0,0-0.5-0.4-1c-0.2-0.3-0.7-0.4-1-0.4l-0.1,3c0,0,0,0.1,0,0.1l1.2,0c1.2,0,2-1.3,2-1.7c0.1-0.4,0.1-0.5,0.1-0.5l0.6-0.4
					c0,0,0,0.9,0.3,2c0.4,1.1,0.7,1.6,0.7,1.6L90.8,83l-2.7-0.1l-0.4,0l-0.5,0l-0.4,0l-1.6-0.1l-0.7,0c0,0,0.8-0.4,0.8-0.9l0.1-2.7
					c0-0.4-0.7-0.8-0.7-0.8s0.7-0.3,0.7-0.7l0-0.8c-0.1,0.1-0.3,0.2-0.6,0.2c-0.1,0-0.1,0-0.2,0c-0.6,0-1-0.6-1-0.6s0,0,0.1,0
					c0.2,0,0.7,0,1.1-0.6c0.5-0.6,0.3-1.7,0.2-2c-0.2-0.3-0.5-0.5-0.5-0.5l0.9,0l0.4,0l1.2,0l0.4,0l0.9,0l2.7,0.1L92.6,73.6
					 M92.6,73.4l-1.5-0.1l-2.7-0.1l-0.9,0l-0.4,0l-1.2,0l-0.4,0l-0.9,0c-0.1,0-0.2,0.1-0.2,0.2c0,0.1,0,0.2,0.1,0.2
					c0,0,0.2,0.1,0.4,0.4c0.1,0.2,0.3,1.3-0.2,1.8c-0.3,0.4-0.7,0.5-0.9,0.5c-0.1,0-0.1,0-0.1,0c0,0,0,0,0,0c-0.1,0-0.1,0-0.2,0.1
					c-0.1,0.1-0.1,0.2,0,0.2c0,0,0.4,0.7,1.2,0.7c0.1,0,0.1,0,0.2,0c0.1,0,0.2,0,0.3-0.1l0,0.4c0,0.3-0.5,0.5-0.6,0.5
					c-0.1,0-0.1,0.1-0.1,0.2s0,0.2,0.1,0.2c0.2,0.1,0.6,0.4,0.6,0.6L85,81.8c0,0.3-0.5,0.6-0.7,0.7c-0.1,0-0.1,0.1-0.1,0.2
					c0,0.1,0.1,0.2,0.2,0.2l0.7,0l1.6,0.1l0.4,0l0.5,0l0.4,0l2.7,0.1l1.5,0.1c0.1,0,0.2,0,0.2-0.1c0-0.1,0-0.2,0-0.2
					c0,0-0.3-0.5-0.7-1.5c-0.3-1-0.3-1.9-0.3-1.9c0-0.1,0-0.2-0.1-0.2c0,0-0.1,0-0.1,0c0,0-0.1,0-0.1,0l-0.6,0.4
					c-0.1,0-0.1,0.1-0.1,0.2c0,0,0,0.2-0.1,0.5c-0.1,0.3-0.8,1.6-1.8,1.5l-1,0l0.1-2.7c0.2,0,0.4,0.1,0.6,0.3
					c0.3,0.4,0.3,0.8,0.3,0.8c0,0.1,0,0.1,0.1,0.2c0,0,0.1,0.1,0.1,0.1c0,0,0,0,0,0l0.4-0.1c0.1,0,0.2-0.1,0.2-0.2l0.1-1.6l0,0
					l0.1-1.6c0-0.1-0.1-0.2-0.2-0.2l-0.4-0.1c0,0,0,0,0,0c-0.1,0-0.1,0-0.1,0c-0.1,0-0.1,0.1-0.1,0.2c0,0,0,0.4-0.4,0.8
					c-0.2,0.2-0.4,0.2-0.6,0.3l0.1-3.2l1,0c1.1,0,1.7,1.4,1.7,1.6c0.1,0.3,0.1,0.5,0.1,0.5c0,0.1,0,0.1,0.1,0.2l0.6,0.4
					c0,0,0.1,0,0.1,0c0,0,0.1,0,0.1,0c0.1,0,0.1-0.1,0.1-0.2c0,0,0-0.9,0.4-1.9c0.4-1,0.8-1.5,0.8-1.5c0.1-0.1,0.1-0.2,0-0.2
					C92.8,73.5,92.7,73.4,92.6,73.4L92.6,73.4z"/>
			</g>
			<g>
				<path fill="#DADADA" d="M91.3,79.2l-0.6,0.4c0,0,0,0.2-0.1,0.5c-0.1,0.4-0.8,1.7-2,1.7l-1.2,0c0,0,0-0.1,0-0.1l0.1-3
					c0.3,0,0.7,0.1,1,0.4c0.4,0.5,0.4,1,0.4,1l0.4-0.1l0.1-1.6l0,0l0.1-1.6l-0.4-0.1c0,0,0,0.5-0.4,0.9c-0.3,0.3-0.7,0.4-1,0.4
					l0.1-3.7l1.2,0c1.2,0,1.9,1.5,1.9,1.8c0.1,0.4,0.1,0.5,0.1,0.5l0.6,0.4c0,0,0-0.9,0.5-2c0.4-1,0.8-1.5,0.8-1.5l-1.5-0.1
					l-2.7-0.1l-0.9,0l-0.4,0l-1.2,0l-0.4,0l-0.9,0c0,0,0.3,0.1,0.5,0.5c0.2,0.3,0.3,1.4-0.2,2c-0.6,0.7-1.2,0.5-1.2,0.5
					s0.4,0.7,1.1,0.6c0.2,0,0.4-0.1,0.6-0.2l0,0.8c0,0.5-0.7,0.7-0.7,0.7s0.7,0.3,0.7,0.8l-0.1,2.7c0,0.6-0.8,0.9-0.8,0.9l0.7,0
					l1.6,0.1l0.4,0l0.5,0l0.4,0l2.7,0.1l1.5,0.1c0,0-0.4-0.5-0.7-1.6C91.2,80.1,91.3,79.2,91.3,79.2z"/>
				<path fill="#161616" d="M92.3,82.8l-7.8-0.3c0,0-0.1,0-0.1-0.1c0,0,0-0.1,0-0.1c0,0,0.7-0.4,0.7-0.8l0.1-2.7
					c0-0.3-0.5-0.6-0.6-0.7c0,0-0.1-0.1-0.1-0.1c0,0,0-0.1,0.1-0.1c0,0,0.7-0.2,0.7-0.7l0-0.6c-0.1,0.1-0.3,0.1-0.5,0.1
					c-0.8,0.1-1.2-0.6-1.2-0.6c0,0,0-0.1,0-0.1c0,0,0.1,0,0.1,0c0,0,0.6,0.1,1.1-0.5c0.5-0.6,0.3-1.6,0.2-1.9
					c-0.2-0.3-0.4-0.4-0.4-0.4c0,0-0.1-0.1,0-0.1c0,0,0-0.1,0.1-0.1l8,0.3c0,0,0.1,0,0.1,0.1c0,0,0,0.1,0,0.1c0,0-0.4,0.5-0.8,1.5
					c-0.4,1-0.4,1.9-0.4,1.9c0,0,0,0.1,0,0.1c0,0-0.1,0-0.1,0l-0.6-0.4c0,0,0,0,0-0.1c0,0,0-0.2-0.1-0.5c-0.1-0.3-0.7-1.7-1.8-1.7
					l-1.1,0l-0.1,3.5c0.3,0,0.6-0.1,0.8-0.3c0.4-0.4,0.4-0.9,0.4-0.9c0,0,0-0.1,0-0.1c0,0,0,0,0.1,0l0.4,0.1c0,0,0.1,0,0.1,0.1
					l-0.1,3.3c0,0,0,0.1-0.1,0.1l-0.4,0.1c0,0-0.1,0-0.1,0c0,0,0,0,0-0.1c0,0,0-0.4-0.4-0.9c-0.2-0.2-0.5-0.3-0.8-0.4l-0.1,2.9
					l1.1,0c1.1,0,1.9-1.3,2-1.6c0.1-0.3,0.1-0.5,0.1-0.5c0,0,0-0.1,0-0.1l0.6-0.4c0,0,0.1,0,0.1,0c0,0,0,0,0,0.1c0,0,0,0.9,0.3,2
					c0.4,1,0.7,1.6,0.7,1.6C92.4,82.7,92.4,82.8,92.3,82.8C92.4,82.8,92.3,82.8,92.3,82.8z M84.8,82.4l7.3,0.3
					c-0.1-0.2-0.4-0.7-0.6-1.5c-0.3-0.8-0.3-1.6-0.3-1.9l-0.5,0.3c0,0.1,0,0.3-0.1,0.5c-0.1,0.4-0.9,1.8-2.1,1.8l-1.2,0
					c0,0-0.1,0-0.1-0.1c0,0,0-0.1,0-0.1l0.1-3c0,0,0,0,0-0.1c0,0,0,0,0.1,0c0.3,0,0.8,0.1,1,0.5c0.3,0.4,0.4,0.7,0.4,0.9l0.2,0
					l0.1-3.2l-0.2-0.1c0,0.2-0.1,0.5-0.4,0.9c-0.3,0.3-0.7,0.4-1.1,0.4c0,0,0,0-0.1,0c0,0,0,0,0-0.1l0.1-3.7c0-0.1,0-0.1,0.1-0.1
					l1.2,0c1.3,0,1.9,1.5,2,1.9c0,0.3,0.1,0.4,0.1,0.5l0.4,0.3c0-0.3,0.1-1,0.5-1.9c0.3-0.7,0.6-1.2,0.7-1.4l-7.5-0.3
					c0.1,0.1,0.2,0.2,0.3,0.3c0.2,0.3,0.3,1.5-0.2,2.1c-0.4,0.5-0.8,0.6-1.1,0.6c0.2,0.2,0.5,0.4,0.9,0.4c0.2,0,0.4-0.1,0.5-0.2
					c0,0,0.1,0,0.1,0c0,0,0,0,0,0.1l0,0.8c0,0.4-0.4,0.6-0.6,0.7c0.2,0.1,0.6,0.4,0.6,0.8l-0.1,2.7C85.3,81.9,85,82.2,84.8,82.4z"/>
			</g>
			<g>
				<path fill="#141414" d="M86.1,74l0.5,0c0,0,0.1,0.3-0.1,0.8c-0.1,0.5-0.7,0.8-0.7,0.8s0.3-0.4,0.3-0.9
					C86.3,74.3,86.1,74,86.1,74z"/>
			</g>
			<g>
				<path fill="#141414" d="M90.5,74.2c0,0,0.1,0.1,0.3,0.3c0.1,0.2,0.2,0.4,0.2,0.4s0.1-0.2,0.1-0.4c0.1-0.2,0.2-0.3,0.2-0.3
					L90.5,74.2z"/>
			</g>
			<g>
				<path fill="#141414" d="M90.3,82.2c0,0,0.2-0.1,0.3-0.3c0.1-0.2,0.2-0.4,0.2-0.4s0,0.2,0.1,0.4c0.1,0.2,0.2,0.3,0.2,0.3
					L90.3,82.2z"/>
			</g>
			<g>
				<path fill="#141414" d="M86.6,82.1c0,0-0.1-0.2-0.2-0.4c-0.1-0.2-0.2-0.6-0.2-0.6s-0.1,0.4-0.2,0.6c-0.1,0.2-0.2,0.4-0.2,0.4
					L86.6,82.1z"/>
			</g>
		</g>
		<g>
			<g>
				<path fill="#A27049" d="M79.7,82.6c0,0-0.1,0-0.1-0.1c0,0,0-0.1,0-0.1c0,0,0.5-0.5,0.3-0.8c0,0,0,0,0,0l-1.7-3l-0.5,0l-0.1,2.8
					c0,0.3,0.5,0.8,0.7,0.9c0,0,0.1,0.1,0,0.1c0,0-0.1,0.1-0.1,0.1l-3.6-0.1c-0.1,0-0.1,0-0.1-0.1c0,0,0-0.1,0.1-0.1
					c0,0,0.7-0.4,0.7-0.8l0.1-2.8c0-0.3-0.5-0.6-0.6-0.7c0,0-0.1-0.1-0.1-0.1c0,0,0-0.1,0.1-0.1c0,0,0.7-0.2,0.7-0.7l0-0.6
					c-0.1,0.1-0.3,0.1-0.5,0.1c-0.1,0-0.1,0-0.2,0c-0.7,0-1.1-0.6-1.1-0.6c0,0,0-0.1,0-0.1c0,0,0.1,0,0.1,0c0,0,0,0,0,0l0,0
					c0,0,0,0,0.1,0c0.2,0,0.6-0.1,1-0.5c0.5-0.6,0.3-1.6,0.2-1.9c-0.2-0.3-0.4-0.4-0.4-0.4c0,0-0.1-0.1-0.1-0.1
					c0-0.1,0.1-0.1,0.1-0.1l5,0.2c1.6,0.1,2.9,1.4,2.8,3c0,1.2-1.1,2.2-2.1,2.6l1.8,3.1c0.2,0.4,1,0.9,1,0.9c0,0,0.1,0.1,0,0.1
					c0,0-0.1,0.1-0.1,0.1L79.7,82.6z M78.9,77.3c0.8,0,1.6-0.7,1.6-1.6c0-1.2-0.7-1.7-1.5-1.8l-1.1,0l-0.1,3.4L78.9,77.3z"/>
			</g>
			<g>
				<path fill="#A27049" d="M79.8,73c1.5,0.1,2.8,1.2,2.7,2.9c0,1.2-1.1,2.2-2.2,2.6l1.8,3.2c0.3,0.4,1,1,1,1l-0.5,0l-2.1-0.1
					l-0.9,0c0,0,0.6-0.5,0.4-0.9c0,0,0,0,0,0l-1.7-3l-0.7,0l-0.1,2.9c0,0,0,0,0,0c0,0.5,0.8,1,0.8,1l-0.8,0l-2-0.1l-0.8,0
					c0,0,0.8-0.4,0.8-0.9l0.1-2.8c0-0.4-0.7-0.8-0.7-0.8s0.7-0.3,0.8-0.8l0-0.8c-0.2,0.1-0.3,0.2-0.6,0.2c-0.1,0-0.1,0-0.2,0
					c-0.7,0-1-0.6-1-0.6s0.1,0,0.1,0c0.2,0,0.7-0.1,1.1-0.6c0.5-0.6,0.4-1.8,0.2-2.1c-0.2-0.3-0.5-0.5-0.5-0.5l1,0l0.4,0l1.2,0
					l0.4,0L79.8,73 M77.7,77.4l0.3,0l0.8,0c0,0,0.1,0,0.1,0c0.9,0,1.7-0.8,1.7-1.7c0-1.2-0.7-1.8-1.6-1.9l-1.2,0L77.7,77.4
					 M79.8,72.7l-2-0.1l-0.4,0l-1.2,0l-0.4,0l-1,0c-0.1,0-0.2,0.1-0.2,0.2c0,0.1,0,0.2,0.1,0.3c0,0,0.2,0.1,0.4,0.4
					c0.1,0.2,0.3,1.3-0.2,1.8c-0.4,0.4-0.7,0.5-0.9,0.5c-0.1,0-0.1,0-0.1,0c0,0,0,0,0,0c-0.1,0-0.1,0-0.2,0.1
					c-0.1,0.1-0.1,0.2,0,0.2c0,0,0.4,0.7,1.2,0.7c0.1,0,0.1,0,0.2,0c0.1,0,0.2,0,0.3-0.1l0,0.4c0,0.3-0.5,0.5-0.6,0.6
					c-0.1,0-0.1,0.1-0.1,0.2c0,0.1,0,0.2,0.1,0.2c0.2,0.1,0.6,0.4,0.6,0.6l-0.1,2.8c0,0.4-0.5,0.7-0.7,0.8c-0.1,0-0.1,0.1-0.1,0.2
					c0,0.1,0.1,0.2,0.2,0.2l0.8,0l2,0.1l0.8,0c0.1,0,0.2-0.1,0.2-0.2c0-0.1,0-0.2-0.1-0.3c-0.3-0.2-0.7-0.6-0.7-0.8l0.1-2.7l0.4,0
					l1.6,2.9c0,0,0,0,0,0c0.1,0.2-0.2,0.6-0.3,0.6c-0.1,0.1-0.1,0.2-0.1,0.2c0,0.1,0.1,0.1,0.2,0.1l0.9,0l2.1,0.1l0.5,0
					c0.1,0,0.2-0.1,0.2-0.1c0-0.1,0-0.2-0.1-0.3c-0.2-0.1-0.7-0.6-0.9-0.9l-1.7-3c1-0.5,2.1-1.5,2.1-2.7
					C82.8,74.2,81.5,72.8,79.8,72.7L79.8,72.7z M78,74l1,0c0.7,0,1.4,0.5,1.4,1.6c0,0.8-0.7,1.5-1.5,1.5l-0.1,0l-0.8,0l0,0L78,74
					L78,74z"/>
			</g>
			<g>
				<path fill="#DADADA" d="M82.2,81.4l-1.8-3.2c1.1-0.4,2.2-1.4,2.2-2.6c0.1-1.6-1.2-2.8-2.7-2.9l-2-0.1l-0.4,0l-1.2,0l-0.4,0l-1,0
					c0,0,0.3,0.1,0.5,0.5c0.2,0.3,0.3,1.5-0.2,2.1c-0.6,0.7-1.2,0.5-1.2,0.5s0.4,0.7,1.2,0.6c0.2,0,0.4-0.1,0.6-0.2l0,0.8
					c0,0.5-0.8,0.8-0.8,0.8s0.7,0.4,0.7,0.8l-0.1,2.8c0,0.6-0.8,0.9-0.8,0.9l0.8,0l2,0.1l0.8,0c0,0-0.8-0.6-0.8-1c0,0,0,0,0,0
					l0.1-2.9l0.7,0l1.7,3c0,0,0,0,0,0c0.2,0.4-0.4,0.9-0.4,0.9l0.9,0l2.1,0.1l0.5,0C83.2,82.4,82.4,81.8,82.2,81.4z M77.8,73.5
					l1.2,0c0.8,0,1.6,0.7,1.6,1.9c0,0.9-0.8,1.7-1.7,1.7c0,0-0.1,0-0.1,0l-0.8,0l-0.3,0L77.8,73.5z"/>
				<path fill="#161616" d="M83.2,82.5l-3.5-0.1c0,0-0.1,0-0.1-0.1c0,0,0-0.1,0-0.1c0,0,0.5-0.5,0.3-0.8c0,0,0,0,0,0l-1.7-3l-0.6,0
					l-0.1,2.8c0,0.3,0.5,0.8,0.7,0.9c0,0,0,0.1,0,0.1c0,0-0.1,0.1-0.1,0.1l-3.6-0.1c0,0-0.1,0-0.1-0.1c0,0,0-0.1,0-0.1
					c0,0,0.7-0.4,0.7-0.9l0.1-2.8c0-0.3-0.5-0.6-0.7-0.7c0,0-0.1-0.1-0.1-0.1c0,0,0-0.1,0.1-0.1c0,0,0.7-0.2,0.7-0.7l0-0.6
					c-0.1,0.1-0.3,0.1-0.5,0.1c-0.8,0.1-1.2-0.6-1.2-0.6c0,0,0-0.1,0-0.1c0,0,0.1,0,0.1,0c0,0,0.6,0.1,1.1-0.5
					c0.5-0.6,0.3-1.7,0.2-2c-0.2-0.3-0.4-0.4-0.5-0.5c0,0-0.1-0.1,0-0.1c0,0,0-0.1,0.1-0.1l5,0.2c1.6,0.1,2.8,1.4,2.8,3
					c0,1.2-1.1,2.2-2.2,2.6l1.8,3.1c0.3,0.4,1,0.9,1,0.9C83.3,82.3,83.3,82.4,83.2,82.5C83.2,82.4,83.2,82.5,83.2,82.5z M79.9,82.2
					l3,0.1c-0.2-0.2-0.6-0.5-0.8-0.8c0,0,0,0,0,0l-1.8-3.2c0,0,0-0.1,0-0.1c0,0,0,0,0.1-0.1c1-0.4,2.1-1.3,2.1-2.5
					c0.1-1.5-1.1-2.7-2.6-2.8l-4.7-0.2c0.1,0.1,0.2,0.2,0.3,0.3c0.2,0.3,0.3,1.5-0.2,2.2c-0.4,0.5-0.8,0.6-1.1,0.6
					c0.2,0.2,0.5,0.4,0.9,0.4c0.2,0,0.4-0.1,0.5-0.2c0,0,0.1,0,0.1,0c0,0,0,0,0,0.1l0,0.8c0,0.4-0.4,0.6-0.6,0.8
					c0.2,0.1,0.6,0.4,0.6,0.8l-0.1,2.8c0,0.4-0.3,0.7-0.6,0.9l3,0.1c-0.2-0.2-0.6-0.6-0.6-0.9l0.1-2.9c0-0.1,0-0.1,0.1-0.1l0.7,0
					c0,0,0.1,0,0.1,0l1.7,3C80.3,81.6,80.1,82,79.9,82.2z M78.9,77.3l-1.2,0c-0.1,0-0.1,0-0.1-0.1l0.1-3.6c0-0.1,0-0.1,0.1-0.1
					l1.2,0c0.8,0,1.7,0.7,1.7,2C80.6,76.5,79.8,77.3,78.9,77.3z M77.8,77l1.1,0c0.8,0,1.6-0.7,1.6-1.6c0-1.2-0.7-1.8-1.5-1.8l-1.1,0
					L77.8,77z"/>
			</g>
			<g>
				<path fill="#141414" d="M76.4,73.2l0.5,0c0,0,0.1,0.3-0.1,0.8c-0.1,0.5-0.7,0.8-0.7,0.8s0.3-0.4,0.3-0.9
					C76.5,73.5,76.4,73.2,76.4,73.2z"/>
			</g>
			<g>
				<path fill="#141414" d="M76.9,81.7c0,0-0.2-0.2-0.2-0.4c-0.1-0.3-0.2-0.6-0.2-0.6s-0.1,0.4-0.2,0.6c-0.1,0.2-0.2,0.4-0.2,0.4
					L76.9,81.7z"/>
			</g>
			<g>
				<path fill="#141414" d="M81.6,81.9c0,0-0.2-0.2-0.4-0.4c-0.2-0.2-0.3-0.5-0.3-0.5s0,0.2,0,0.5c0,0.3-0.1,0.4-0.1,0.4L81.6,81.9z
					"/>
			</g>
		</g>
	</g>
</g>
</svg>
